<svg width="0" height="0" class="hidden">
  <symbol fill="none" xmlns="http://www.w3.org/2000/svg" viewBox="0 0 28 28" id="in-footer-icon">
    <g clip-path="url(#clip0_8_198)">
      <path d="M13.9 27.5C6.70002 27.5 0.900024 21.7 0.900024 14.5C0.900024 7.3 6.70002 1.5 13.9 1.5C21.1 1.5 26.9 7.3 26.9 14.5C26.9 21.6 21.1 27.5 13.9 27.5Z" stroke="#646F80" stroke-width="1.3663" stroke-miterlimit="10"></path>
      <path d="M10.7 11.6H8V20.3H10.7V11.6Z" fill="#646F80"></path>
      <path d="M9.30001 10.4C10.2 10.4 10.9 9.7 10.9 8.8C10.9 7.9 10.2 7.2 9.30001 7.2C8.40001 7.2 7.70001 7.9 7.70001 8.8C7.70001 9.7 8.50001 10.4 9.30001 10.4Z" fill="#646F80"></path>
      <path d="M15 15.7C15 14.5 15.6 13.8 16.6 13.8C17.6 13.8 18.1 14.5 18.1 15.7C18.1 17 18.1 20.3 18.1 20.3H20.8C20.8 20.3 20.8 17.1 20.8 14.8C20.8 12.5 19.5 11.3 17.6 11.3C15.8 11.3 15 12.7 15 12.7V11.5H12.4V20.2H15C15 20.3 15 17 15 15.7Z" fill="#646F80"></path>
    </g>
    <defs>
      <clipPath id="clip0_8_198">
        <rect width="28" height="28" fill="white"></rect>
      </clipPath>
    </defs>
  </symbol>
  <symbol fill="none" xmlns="http://www.w3.org/2000/svg" viewBox="0 0 28 28" id="in-header-icon">
    <g clip-path="url(#clip0_8_159)">
      <path d="M13.9 27.5C6.7 27.5 0.9 21.7 0.9 14.5C0.9 7.3 6.7 1.5 13.9 1.5C21.1 1.5 26.9 7.3 26.9 14.5C26.9 21.6 21.1 27.5 13.9 27.5Z" stroke="white" stroke-width="1.3663" stroke-miterlimit="10"></path>
      <path d="M10.7 11.6H8V20.3H10.7V11.6Z" fill="white"></path>
      <path d="M9.3 10.4C10.2 10.4 10.9 9.7 10.9 8.8C10.9 7.9 10.2 7.2 9.3 7.2C8.4 7.2 7.7 7.9 7.7 8.8C7.7 9.7 8.5 10.4 9.3 10.4Z" fill="white"></path>
      <path d="M15 15.7C15 14.5 15.6 13.8 16.6 13.8C17.6 13.8 18.1 14.5 18.1 15.7C18.1 17 18.1 20.3 18.1 20.3H20.8C20.8 20.3 20.8 17.1 20.8 14.8C20.8 12.5 19.5 11.3 17.6 11.3C15.8 11.3 15 12.7 15 12.7V11.5H12.4V20.2H15C15 20.3 15 17 15 15.7Z" fill="white"></path>
    </g>
    <defs>
      <clipPath id="clip0_8_159">
        <rect width="28" height="28" fill="white"></rect>
      </clipPath>
    </defs>
  </symbol>
  <symbol fill="none" xmlns="http://www.w3.org/2000/svg" viewBox="0 0 9 15" id="phone-header-icon">
    <g clip-path="url(#clip0_8_166)">
      <path d="M4.41 0.09L4.61 3.38L3.9 3.6L3.56 0L4.42 0.09H4.41ZM7.47 15L4.34 14.93C-0.83 9.04 0.0099998 2.18 0.0099998 2.18L2.36 0.02H2.82L3.2 3.79L2.17 4.52L4.8 11.88L5.83 11.53L7.81 14.68L7.45 15H7.47ZM8.46 14.3L6.37 11.2L7.16 10.84L8.99 13.74L8.46 14.3V14.3Z" fill="white"></path>
    </g>
    <defs>
      <clipPath id="clip0_8_166">
        <rect width="9" height="15" fill="white"></rect>
      </clipPath>
    </defs>
  </symbol>
  <symbol fill="none" xmlns="http://www.w3.org/2000/svg" viewBox="0 0 29 29" id="skype-icon-header">
    <g clip-path="url(#clip0_8_171)">
      <path d="M14.4 27.1C21.5797 27.1 27.4 21.2797 27.4 14.1C27.4 6.9203 21.5797 1.10001 14.4 1.10001C7.2203 1.10001 1.4 6.9203 1.4 14.1C1.4 21.2797 7.2203 27.1 14.4 27.1Z" stroke="white" stroke-width="1.5" stroke-miterlimit="10"></path>
      <path d="M14.2 7.60001C15.7 7.70001 17.2 8.00001 18.4 9.10001C18.6 9.30001 18.8 9.60001 18.9 10C19.1 10.6 19 11 18.6 11.4C18.1 11.8 17.4 11.8 17 11.4C16.8 11.3 16.6 11 16.4 10.8C15.4 9.80001 14.3 9.70001 13 10C12.4 10.1 12 10.7 12 11.2C12 11.8 12.4 12.1 12.9 12.2C14.1 12.6 15.2 12.9 16.4 13.2C16.7 13.3 17.1 13.3 17.4 13.5C18.8 14.1 19.6 15 19.6 16.6C19.6 18.2 18.9 19.4 17.5 20C15.4 20.8 13.2 20.8 11.2 19.9C10.3 19.5 9.6 18.9 9.5 17.8C9.4 17.3 9.6 16.8 10 16.6C10.5 16.3 11 16.5 11.4 16.8C11.7 17.1 11.9 17.4 12.2 17.7C13.1 18.7 14.8 19 15.9 18.4C16.6 18 16.9 17.5 16.8 16.9C16.7 16.2 16.2 15.9 15.6 15.8C14.4 15.5 13.2 15.2 11.9 14.8C9.4 13.9 8.5 11.1 10.1 9.20001C10.9 8.30001 12 8.00001 13.1 7.70001C13.4 7.70001 13.9 7.60001 14.2 7.60001Z" fill="white"></path>
    </g>
    <defs>
      <clipPath id="clip0_8_171">
        <rect width="28.1" height="28.1" fill="white"></rect>
      </clipPath>
    </defs>
  </symbol>
  <symbol fill="none" xmlns="http://www.w3.org/2000/svg" viewBox="0 0 28 28" id="skype-icon-updated">
    <g clip-path="url(#clip0_8_176)">
      <path d="M13.7 6.60001C15.6 6.70001 17.4 7.10001 18.8 8.50001C19.1 8.80001 19.2 9.10001 19.4 9.60001C19.7 10.3 19.6 10.8 19 11.3C18.4 11.7 17.6 11.7 17 11.3C16.7 11.1 16.5 10.9 16.3 10.6C15.1 9.40001 13.7 9.30001 12.2 9.60001C11.6 9.70001 11 10.4 11 11C11 11.7 11.5 12.1 12.1 12.2C13.5 12.6 14.9 13 16.3 13.4C16.7 13.5 17.1 13.6 17.5 13.8C19.2 14.5 20.2 15.7 20.2 17.5C20.2 19.5 19.4 20.9 17.6 21.6C15 22.6 12.4 22.6 9.9 21.4C8.8 20.9 7.9 20.2 7.9 18.8C7.8 18.2 8 17.6 8.5 17.3C9.1 16.9 9.7 17.1 10.2 17.6C10.6 18 10.8 18.3 11.2 18.7C12.3 19.9 14.3 20.3 15.7 19.5C16.5 19.1 16.9 18.4 16.8 17.7C16.7 16.9 16.1 16.5 15.4 16.4C13.9 16 12.5 15.7 10.9 15.2C7.9 14.1 6.8 10.7 8.8 8.40001C9.8 7.30001 11 7.00001 12.4 6.70001C12.7 6.70001 13.3 6.60001 13.7 6.60001Z" fill="#646F80"></path>
      <path d="M26.9 14.5C26.9 21.7 21.1 27.5 13.9 27.5" stroke="#646F80" stroke-width="1.3663" stroke-miterlimit="10"></path>
      <path d="M0.900002 14.5C0.900002 7.3 6.7 1.5 13.9 1.5C21.1 1.5 26.9 7.3 26.9 14.5" stroke="#646F80" stroke-width="1.3663" stroke-miterlimit="10"></path>
      <path d="M13.9 27.5C6.7 27.5 0.900002 21.7 0.900002 14.5" stroke="#646F80" stroke-width="1.3663" stroke-miterlimit="10"></path>
    </g>
    <defs>
      <clipPath id="clip0_8_176">
        <rect width="28" height="28" fill="white"></rect>
      </clipPath>
    </defs>
  </symbol>
  <symbol fill="none" xmlns="http://www.w3.org/2000/svg" viewBox="0 0 28 28" id="tw-footer-icon">
    <path d="M14.2 27.1C7 27.1 1.2 21.3 1.2 14.1C1.2 6.90001 7 1.10001 14.2 1.10001C21.4 1.10001 27.2 6.90001 27.2 14.1C27.2 21.3 21.4 27.1 14.2 27.1Z" stroke="#646F80" stroke-width="1.3663" stroke-miterlimit="10"></path>
    <path d="M11.3 18C11.3 18.7 11.4 19.2 11.5 19.5C11.6 19.9 11.9 20.2 12.3 20.5C12.7 20.8 13.1 21.1 13.6 21.2C14.1 21.4 14.7 21.5 15.4 21.5C16 21.5 16.5 21.4 17.1 21.3C17.6 21.2 18.2 21 18.8 20.7V18.4C18.1 18.9 17.3 19.1 16.6 19.1C16.2 19.1 15.8 19 15.5 18.8C15.3 18.7 15.1 18.5 15 18.2C14.9 18 14.9 17.4 14.9 16.6V12.8H18.4V10.5H14.9V6.8H12.8C12.7 7.6 12.5 8.2 12.3 8.7C12.1 9.2 11.7 9.6 11.3 10C10.9 10.4 10.4 10.6 9.8 10.8V12.9H11.4L11.3 18Z" fill="#646F80"></path>
  </symbol>
  <symbol fill="none" xmlns="http://www.w3.org/2000/svg" viewBox="0 0 28 28" id="tw-header-icon">
    <path d="M14.2 27.1C7 27.1 1.2 21.3 1.2 14.1C1.2 6.90001 7 1.10001 14.2 1.10001C21.4 1.10001 27.2 6.90001 27.2 14.1C27.2 21.3 21.4 27.1 14.2 27.1Z" stroke="white" stroke-width="1.3663" stroke-miterlimit="10"></path>
    <path d="M11.3 18C11.3 18.7 11.4 19.2 11.5 19.5C11.6 19.9 11.9 20.2 12.3 20.5C12.7 20.8 13.1 21.1 13.6 21.2C14.1 21.4 14.7 21.5 15.4 21.5C16 21.5 16.5 21.4 17.1 21.3C17.6 21.2 18.2 21 18.8 20.7V18.4C18.1 18.9 17.3 19.1 16.6 19.1C16.2 19.1 15.8 19 15.5 18.8C15.3 18.7 15.1 18.5 15 18.2C14.9 18 14.9 17.4 14.9 16.6V12.8H18.4V10.5H14.9V6.8H12.8C12.7 7.6 12.5 8.2 12.3 8.7C12.1 9.2 11.7 9.6 11.3 10C10.9 10.4 10.4 10.6 9.8 10.8V12.9H11.4L11.3 18Z" fill="white"></path>
  </symbol>
  <symbol fill="none" xmlns="http://www.w3.org/2000/svg" viewBox="0 0 764 764" id="close-blue-icon">
    <g clip-path="url(#clip0_8_189)">
      <path d="M763.65 381.8C763.65 592.87 592.69 763.74 381.61 763.66C170.61 763.57 -0.0899949 592.57 5.05481e-06 381.36C0.0900051 170.53 171.31 -0.150023 382.55 -2.32768e-05C592.89 0.149977 763.66 171.23 763.65 381.8ZM381.61 717.53C566.45 717.76 716.76 568 717.2 383.17C717.64 196.95 568.08 46.44 382.3 46.14C196.97 45.84 46.8 195.68 46.45 381.24C46.09 566.97 195.92 717.3 381.61 717.53Z" fill="#2F3CA5"></path>
      <path d="M349.09 381.71C316.99 349.62 285.28 317.94 253.58 286.24C240.97 273.63 228.75 260.6 215.65 248.53C202.93 236.81 205.1 221.18 213.24 213.11C221.09 205.33 236.18 203.02 248.69 215.74C291.58 259.34 335.05 302.37 378.3 345.62C379.35 346.67 380.44 347.67 382.91 350.03C384.26 348.01 385.28 345.81 386.89 344.2C429.97 301.02 473.14 257.94 516.2 214.74C523.31 207.6 531.43 204.55 541.13 207.59C557.96 212.86 562.66 233.51 549.94 246.33C528.94 267.52 507.78 288.54 486.69 309.64C463.59 332.74 440.5 355.83 417.4 378.93C416.58 379.75 415.8 380.6 414.75 381.7C415.77 382.84 416.68 383.97 417.69 384.99C461.35 428.77 504.98 472.57 548.71 516.28C555.99 523.56 558.91 531.88 555.61 541.72C550.12 558.07 529.98 562.53 517.4 550.12C498.3 531.28 479.41 512.22 460.44 493.24C435.46 468.26 410.48 443.27 385.49 418.29C384.33 417.13 383.1 416.03 381.69 414.69C380.25 416.05 378.92 417.25 377.66 418.51C334.05 462.11 290.47 505.73 246.84 549.31C234.23 561.91 215.11 558.87 208.32 543.28C204.36 534.19 206.45 524.54 214.2 516.78C243.41 487.54 272.65 458.34 301.87 429.11C316.6 414.38 331.33 399.65 346.05 384.91C346.97 384 347.84 383.03 349.09 381.71Z" fill="#2F3CA5"></path>
    </g>
    <defs>
      <clipPath id="clip0_8_189">
        <rect width="763.65" height="763.66" fill="white"></rect>
      </clipPath>
    </defs>
  </symbol>
  <symbol fill="none" xmlns="http://www.w3.org/2000/svg" viewBox="0 0 28 28" id="fb-footer-icon">
    <path d="M14.3 27.1C7.09999 27.1 1.29999 21.3 1.29999 14.1C1.29999 6.90001 7.09999 1.10001 14.3 1.10001C21.5 1.10001 27.3 6.90001 27.3 14.1C27.3 21.3 21.5 27.1 14.3 27.1Z" stroke="#646F80" stroke-width="1.3663" stroke-miterlimit="10"></path>
    <path d="M12.3 22H15.5V14H17.7L17.9 11.3H15.5C15.5 11.3 15.5 10.3 15.5 9.8C15.5 9.2 15.6 8.9 16.2 8.9C16.7 8.9 17.9 8.9 17.9 8.9V6.3C17.9 6.3 16.1 6.3 15.7 6.3C13.3 6.3 12.3 7.3 12.3 9.3C12.3 11 12.3 11.4 12.3 11.4H10.7V14.1H12.3V22Z" fill="#646F80"></path>
  </symbol>
  <symbol fill="none" xmlns="http://www.w3.org/2000/svg" viewBox="0 0 28 28" id="fb-header-icon">
    <path d="M14.3 27.1C7.09999 27.1 1.29999 21.3 1.29999 14.1C1.29999 6.90001 7.09999 1.10001 14.3 1.10001C21.5 1.10001 27.3 6.90001 27.3 14.1C27.3 21.3 21.5 27.1 14.3 27.1Z" stroke="white" stroke-width="1.3663" stroke-miterlimit="10"></path>
    <path d="M12.3 22H15.5V14H17.7L17.9 11.3H15.5C15.5 11.3 15.5 10.3 15.5 9.8C15.5 9.2 15.6 8.9 16.2 8.9C16.7 8.9 17.9 8.9 17.9 8.9V6.3C17.9 6.3 16.1 6.3 15.7 6.3C13.3 6.3 12.3 7.3 12.3 9.3C12.3 11 12.3 11.4 12.3 11.4H10.7V14.1H12.3V22Z" fill="white"></path>
  </symbol>

  <symbol  fill="none" xmlns="http://www.w3.org/2000/svg"  viewBox="0 0 474 331" id="mail-header-icon">
    <rect x="17.5" y="17.5" width="437" height="296" rx="32.5" stroke="white" stroke-width="35"/>
    <line x1="19.7143" y1="300.538" x2="160.714" y2="161.538" stroke="white" stroke-width="35"/>
    <line x1="452.967" y1="309.287" x2="301.436" y2="168.58" stroke="white" stroke-width="35"/>
    <line x1="36.741" y1="33.3801" x2="236.38" y2="223.259" stroke="white" stroke-width="35" stroke-linecap="round"/>
    <line x1="439.969" y1="43.7273" x2="241.727" y2="226.099" stroke="white" stroke-width="35" stroke-linecap="round"/>
  </symbol>

</svg>