<svg width="0" height="0" class="hidden">
  <symbol version="1.1" id="enterprise-solutions" xmlns="http://www.w3.org/2000/svg" xmlns:xlink="http://www.w3.org/1999/xlink" x="0px" y="0px" xml:space="preserve" viewBox="0 0 200 200">
    <g>
      <path d="M55.8,116.3c0-4.02,0-7.77,0-11.52c0-9.79,0-19.58,0-29.37c0-2.75,0.59-3.52,3.23-4.28
		c6.36-1.84,12.72-3.66,19.3-5.55c0-1.94,0-3.86,0-5.78c0-3.55-0.03-7.11,0.01-10.66c0.03-2.39,1.22-3.65,3.57-3.65
		c12.61-0.03,25.21-0.02,37.82,0c2.47,0,3.65,1.24,3.67,3.76c0.03,5.36,0.01,10.72,0.01,16.3c4.23,1.22,8.45,2.44,12.67,3.65
		c2.25,0.65,4.51,1.27,6.75,1.95c2.51,0.75,3.11,1.57,3.11,4.19c0.01,12.87,0,25.75,0,38.62c0,0.72,0,1.44,0,2.34
		c1.45,0,2.71,0,3.97,0c9.05,0,18.1,0,27.15,0c3.26,0,4.46,1.09,4.24,4.36c-0.3,4.47-0.75,8.94-1.32,13.39
		c-0.36,2.82-1.44,3.6-4.36,3.56c-6.84-0.11-6.89,0.09-9.05,6.25c-0.93,2.64-2.21,5.17-3.36,7.73c-1.07,2.38-0.86,3.76,0.95,5.64
		c0.98,1.01,2.01,1.98,2.98,2.99c1.29,1.35,1.41,2.87,0.38,4.39c-5.79,8.53-12.94,15.7-21.47,21.5c-1.61,1.09-3.14,0.98-4.55-0.38
		c-1.06-1.03-2.07-2.1-3.14-3.12c-1.51-1.45-3.2-1.73-5.17-0.89c-3.75,1.61-7.53,3.14-11.3,4.68c-1.87,0.76-2.89,2.1-2.91,4.15
		c-0.01,1.34,0.01,2.68-0.01,4.02c-0.03,2.53-0.81,3.54-3.27,4.01c-8.02,1.53-16.1,1.87-24.21,0.82c-1.92-0.25-3.84-0.57-5.75-0.89
		c-2.05-0.34-2.97-1.63-2.96-3.66c0.01-1.41,0-2.82,0-4.22c-0.01-2.04-0.99-3.42-2.85-4.2c-3.83-1.59-7.67-3.15-11.49-4.76
		c-1.88-0.79-3.54-0.5-5,0.89c-1.07,1.02-2.09,2.08-3.14,3.12c-1.38,1.37-2.93,1.57-4.54,0.47c-8.53-5.79-15.7-12.95-21.49-21.48
		c-1.09-1.61-0.95-3.15,0.42-4.54c1.08-1.1,2.21-2.15,3.26-3.28c1.3-1.42,1.57-3.03,0.81-4.84c-1.61-3.82-3.19-7.65-4.77-11.48
		c-0.77-1.86-2.12-2.88-4.16-2.9c-1.47-0.02-2.95,0-4.43-0.01c-1.95-0.02-3.26-0.94-3.48-2.9c-0.56-4.98-1.12-9.98-1.47-14.98
		c-0.16-2.3,1.32-3.42,3.96-3.43c8.98-0.01,17.97,0,26.95,0C52.76,116.3,54.15,116.3,55.8,116.3z M160.7,162.93
		c-0.63-0.67-1.21-1.22-1.73-1.83c-3.03-3.55-3.66-7.46-1.83-11.78c1.57-3.69,3.12-7.39,4.59-11.12c1.69-4.27,5.41-6.91,10.07-7.02
		c0.71-0.02,1.42,0,2.21,0c0.3-2.93,0.57-5.57,0.85-8.3c-7.86,0-15.52,0-23.18,0c-2.22,27.81-24.58,46.92-49.3,47.53
		c-12.1,0.3-23.04-3.15-32.58-10.59C57.8,150.47,51.38,138,50.05,122.91c-7.77,0-15.42,0-23.19,0c0.31,2.83,0.59,5.47,0.89,8.16
		c0.58,0.04,0.98,0.09,1.37,0.1c6.05,0.16,9.3,2.62,11.37,8.32c1.16,3.2,2.55,6.32,3.96,9.43c1.57,3.47,1.68,6.89-0.27,10.2
		c-0.84,1.42-2.02,2.63-3.11,4.01c4.56,6.26,9.95,11.68,16.29,16.25c0.43-0.38,0.79-0.67,1.12-0.99c4.21-4.04,8.29-4.62,13.58-2.16
		c3.21,1.49,6.52,2.78,9.83,4.04c4.05,1.55,6.48,4.4,7.22,8.65c0.2,1.17,0.14,2.38,0.2,3.66c7.75,1.3,15.38,1.29,23.24-0.01
		c0-0.79-0.01-1.51,0-2.23c0.1-4.58,2.83-8.33,7.11-10c3.67-1.43,7.31-2.96,10.93-4.52c4.39-1.88,8.36-1.26,11.95,1.86
		c0.64,0.55,1.24,1.15,1.82,1.69C150.41,175.13,157.34,168.17,160.7,162.93z M56.48,122.85c1.73,15.73,8.98,27.89,22.76,35.44
		c15.6,8.55,31.36,7.89,46.27-1.83c11.99-7.81,18.27-19.29,19.72-33.6C115.52,122.85,86.12,122.85,56.48,122.85z M90.99,116.2
		c0.11-0.22,0.17-0.27,0.17-0.33c0.02-3.96,0.02-7.91,0.06-11.87c0.03-2.62,1.2-3.77,3.83-3.8c2.88-0.03,5.77-0.01,8.65-0.01
		c6.72,0,6.82,0.1,6.82,6.86c0,3.05,0,6.11,0,9.13c2.29,0,4.28,0,6.31,0c0-21.45,0-42.8,0-64.13c-10.74,0-21.36,0-31.96,0
		c0,21.45,0,42.75,0,64.14C86.96,116.2,88.95,116.2,90.99,116.2z M139.41,76.84c-5.28-1.5-10.54-3-15.85-4.51
		c0,14.76,0,29.32,0,43.86c5.36,0,10.56,0,15.85,0C139.41,103.1,139.41,90.12,139.41,76.84z M78.24,116.2c0-14.66,0-29.17,0-43.89
		c-5.4,1.55-10.65,3.05-15.89,4.55c0,13.17,0,26.21,0,39.34C67.65,116.2,72.85,116.2,78.24,116.2z M97.79,106.74
		c0,3.24,0,6.33,0,9.41c2.17,0,4.19,0,6.21,0c0-3.21,0-6.26,0-9.41C101.92,106.74,99.94,106.74,97.79,106.74z"></path>
      <path d="M42.76,100.1c-2.01,0-3.99,0-6.27,0c0-0.7,0-1.4,0-2.11c0-6.64-0.04-13.27,0.03-19.9
		c0.01-1.26-0.39-1.93-1.52-2.44c-2.19-1-4.34-2.1-6.47-3.22c-0.9-0.47-1.56-0.56-2.51,0.12c-3.88,2.76-8.63,2.49-12.03-0.53
		c-3.29-2.92-4.21-7.65-2.24-11.55c1.93-3.83,6.31-6,10.41-5.16c4.6,0.94,7.63,4.6,7.94,9.37c0.04,0.67,0.62,1.59,1.21,1.91
		c3.06,1.66,6.19,3.17,9.31,4.71c1.44,0.71,2.32,1.75,2.32,3.44c-0.01,8.24-0.01,16.49-0.02,24.73
		C42.91,99.64,42.83,99.82,42.76,100.1z M23.6,64.82c0.02-1.72-1.39-3.19-3.12-3.24c-1.72-0.05-3.22,1.35-3.29,3.07
		c-0.08,1.8,1.41,3.36,3.22,3.34C22.13,67.98,23.57,66.55,23.6,64.82z"></path>
      <path d="M165.26,100.1c-2.27,0-4.26,0-6.44,0c0-0.74,0-1.4,0-2.05c0-7.44,0.08-14.88-0.04-22.31
		c-0.04-2.44,0.87-3.85,3.05-4.83c2.87-1.28,5.62-2.81,8.46-4.17c1.01-0.48,1.45-1.02,1.47-2.26c0.06-4.48,3.19-8.13,7.61-9.14
		c4.2-0.95,8.61,1.17,10.59,5.1c1.98,3.92,1.09,8.6-2.21,11.54c-3.27,2.92-8.07,3.34-11.69,0.76c-1.21-0.86-2.05-0.8-3.21-0.16
		c-1.93,1.07-3.89,2.1-5.92,2.97c-1.31,0.56-1.73,1.3-1.71,2.72c0.08,6.5,0.04,13,0.04,19.5C165.26,98.51,165.26,99.23,165.26,100.1
		z M184.55,64.85c0.03-1.72-1.37-3.21-3.1-3.27c-1.72-0.06-3.23,1.32-3.31,3.05c-0.09,1.8,1.39,3.36,3.2,3.37
		C183.07,68,184.52,66.58,184.55,64.85z"></path>
      <path d="M68.68,64.69c-2.18,0-4.17,0-6.44,0c0-0.71,0-1.42,0-2.13c0-5.63-0.06-11.26,0.04-16.88
		c0.03-1.55-0.38-2.7-1.57-3.64c-0.42-0.33-0.8-0.72-1.14-1.13c-1.54-1.92-3.1-2.81-5.89-2.06c-3.85,1.03-8.08-1.65-9.83-5.38
		c-1.83-3.9-0.87-8.46,2.4-11.35c3.16-2.8,7.79-3.19,11.39-0.97c3.54,2.18,5.42,6.46,4.24,10.39c-0.49,1.63-0.26,2.67,1.03,3.59
		c4.89,3.47,6.47,8.11,5.88,14.06C68.28,54.28,68.68,59.46,68.68,64.69z M55.79,29.41c0.02-1.72-1.39-3.19-3.12-3.24
		c-1.72-0.05-3.22,1.35-3.29,3.07c-0.08,1.8,1.41,3.36,3.22,3.34C54.32,32.57,55.76,31.14,55.79,29.41z"></path>
      <path d="M139.5,64.75c-2.25,0-4.19,0-6.28,0c-0.05-0.52-0.15-1.03-0.15-1.53c-0.01-6.7-0.08-13.4,0.06-20.09
		c0.03-1.26,0.83-2.57,1.5-3.71c0.5-0.84,1.36-1.47,2.09-2.15c2.13-1.98,3.97-3.62,2.98-7.34c-1.06-3.99,2.09-8.04,6.05-9.54
		c3.91-1.49,8.21-0.33,10.87,2.93c2.63,3.23,2.89,7.72,0.65,11.25c-2.28,3.58-6.55,5.28-10.65,4.06c-1.28-0.38-1.95-0.03-2.95,0.73
		c-3.47,2.62-4.61,5.89-4.27,10.21C139.8,54.53,139.5,59.56,139.5,64.75z M149.13,26.17c-1.74,0.02-3.16,1.45-3.18,3.18
		c-0.02,1.81,1.53,3.3,3.33,3.23c1.73-0.07,3.12-1.56,3.08-3.28C152.32,27.57,150.86,26.15,149.13,26.17z"></path>
      <path d="M104.09,42.16c-2.28,0-4.26,0-6.44,0c0-1.69,0-3.28,0-4.87c0-4.29-0.06-8.58,0.02-12.87
		c0.05-2.92,0.19-5.36-3.08-7.31c-3.61-2.16-4.27-7.15-2.53-11.03c1.71-3.83,5.74-6.1,9.98-5.64c4.02,0.44,7.37,3.54,8.28,7.68
		c0.87,3.95-0.99,8.29-4.69,10.23c-1.33,0.7-1.58,1.48-1.57,2.79C104.12,28.09,104.09,35.05,104.09,42.16z M104.08,10.05
		c-0.01-1.73-1.44-3.17-3.17-3.19c-1.81-0.02-3.3,1.51-3.24,3.32c0.06,1.73,1.54,3.13,3.27,3.09
		C102.67,13.23,104.09,11.77,104.08,10.05z"></path>
      <path d="M36.53,112.95c0-2.13,0-4.06,0-6.15c2.06,0,4.09,0,6.26,0c0,1.97,0,4,0,6.15
		C40.76,112.95,38.73,112.95,36.53,112.95z"></path>
      <path d="M158.92,106.72c2.1,0,4.08,0,6.2,0c0,2.06,0,4.09,0,6.24c-2.04,0-4.07,0-6.2,0
		C158.92,110.91,158.92,108.93,158.92,106.72z"></path>
      <path d="M91.31,67.87c0-2.13,0-4.11,0-6.2c6.36,0,12.63,0,19.06,0c0,1.99,0,4.02,0,6.2
		C104.1,67.87,97.78,67.87,91.31,67.87z"></path>
      <path d="M110.42,80.79c-6.36,0-12.63,0-19.05,0c0-2.03,0-4.06,0-6.22c6.31,0,12.62,0,19.05,0
		C110.42,76.59,110.42,78.58,110.42,80.79z"></path>
      <path d="M91.35,87.42c6.46,0,12.73,0,19.09,0c0,2.08,0,4.06,0,6.19c-6.32,0-12.64,0-19.09,0
		C91.35,91.6,91.35,89.57,91.35,87.42z"></path>
      <path d="M136.17,87.23c-3.14,0-6.19,0-9.4,0c0-2.03,0-4.06,0-6.22c3.08,0,6.18,0,9.4,0
		C136.17,83.03,136.17,85.01,136.17,87.23z"></path>
      <path d="M126.71,100.1c0-2.09,0-4.07,0-6.19c3.12,0,6.22,0,9.44,0c0,2.03,0,4.06,0,6.19
		C133.05,100.1,130,100.1,126.71,100.1z"></path>
      <path d="M75.03,80.99c0,2.09,0,4.07,0,6.19c-3.12,0-6.22,0-9.44,0c0-2.03,0-4.06,0-6.19
		C68.69,80.99,71.74,80.99,75.03,80.99z"></path>
      <path d="M75.02,93.9c0,2.14,0,4.12,0,6.2c-3.14,0-6.2,0-9.41,0c0-2,0-4.03,0-6.2C68.67,93.9,71.77,93.9,75.02,93.9z"></path>
    </g>
  </symbol>
  <symbol version="1.1" id="hire-dedicated" xmlns="http://www.w3.org/2000/svg" xmlns:xlink="http://www.w3.org/1999/xlink" x="0px" y="0px" xml:space="preserve" viewBox="0 0 200 200">
    <g>
      <path d="M28.69,87.02c-0.59-1.1-0.9-2.21-1.61-2.9c-4.48-4.32-6.79-9.59-7.23-15.73c-0.36-5-0.51-10.02-1.05-15
		C18,46.15,21.2,40.97,26.91,37.2c6.69-4.42,14.08-6.27,22.14-4.98c3.7,0.59,6.47,2.25,7.85,5.93c0.33,0.89,1.13,1.68,1.88,2.32
		c5.69,4.9,6.84,10.34,3.27,16.85c-1.03,1.88-1.46,3.73-1.39,5.82c0.12,4.15,0.1,8.31-1.44,12.27c-1.43,3.68-3.6,6.82-6.6,9.42
		c-0.58,0.51-0.83,1.4-1.49,2.59c5.62-0.66,10.34,0.12,14.57,2.68c1.73,1.05,2.99,1.06,4.76,0.17c3.63-1.81,7.57-2.62,11.64-2.52
		c1.06,0.03,2.11,0.3,3.28,0.48c0.76-2.16,0.57-3.99-1.53-5.91c-5.49-4.99-8.38-11.46-8.45-18.81c-0.06-6.47-0.67-12.86-1.41-19.25
		c-0.86-7.49,2.43-13.19,8.15-17.41c9-6.64,19.11-9.22,30.24-6.85c3.43,0.73,5.79,2.7,7.2,5.98c0.59,1.37,1.75,2.5,2.72,3.68
		c1.45,1.77,3.2,3.35,4.4,5.28c2.61,4.18,2.9,8.69,0.36,12.96c-2.15,3.6-2.84,7.32-2.66,11.44c0.44,9.92-2.59,18.42-10.51,24.94
		c-0.82,0.68-0.49,2.77-0.72,4.37c6.07-1.9,11.23-0.42,16.21,1.82c1.53,0.69,2.56,0.72,4.03-0.17c4.18-2.54,8.8-3.49,13.76-3.01
		c0.58-1.32,0.17-2.24-0.86-3.18c-4.59-4.2-6.86-9.53-7.32-15.67c-0.37-5-0.5-10.02-1.06-15c-0.8-7.13,2.29-12.32,7.9-16.1
		c6.78-4.56,14.3-6.46,22.5-5.11c3.62,0.6,6.32,2.26,7.68,5.85c0.34,0.89,1.11,1.7,1.86,2.34c4.65,3.98,7.56,9.92,3.32,17.07
		c-0.88,1.48-1.15,3.41-1.34,5.18c-0.32,2.96-0.09,6-0.54,8.93c-0.81,5.3-3.48,9.64-7.51,13.19c-0.61,0.53-0.86,1.47-1.48,2.59
		c12.42-1.47,25.33,6.28,27.65,22.65c1.08,7.59,1.51,15.27,2.01,22.93c0.27,4.14-2.33,6.59-6.52,6.6
		c-7.07,0.03-14.13,0.01-20.85,0.01c-1.29,3.79-2.56,7.34-3.65,10.94c-0.16,0.54,0.33,1.49,0.81,1.97
		c5.35,5.43,10.73,10.81,16.14,16.18c1.99,1.98,3.11,4.29,2.94,7.11c-0.22,3.67-2.05,6.35-5.44,7.71c-3.53,1.43-6.87,0.75-9.6-1.94
		c-5.43-5.34-10.82-10.73-16.15-16.16c-1.14-1.16-1.96-1.47-3.6-0.72c-14.09,6.41-30.48,1.39-38.73-11.77
		c-0.71-1.14-1.39-1.75-2.85-1.74c-13.19,0.11-26.38,0.14-39.58,0.16c-5.37,0.01-10.74-0.04-16.11-0.14
		c-4.22-0.08-6.78-2.79-6.8-7.01c-0.01-1.43,0-2.85,0-4.59c-0.81,0-1.59,0-2.38,0c-13.67,0-27.34,0-41.01,0
		c-5.08,0-7.31-2.31-7.15-7.44c0.28-8.63,0.57-17.28,2.79-25.69c2.66-10.07,9.01-16.56,19.29-18.85
		C23.61,87.13,25.83,87.23,28.69,87.02z M137.48,106.1c-4.14-6.61-9.57-10.67-17.05-11.89c-2.13-0.35-3.75,0.16-5.45,1.4
		c-4.33,3.16-8.81,6.12-13.19,9.22c-1.82,1.29-3.41,1.18-5.19-0.16c-4.34-3.27-8.73-6.48-13.19-9.58c-0.9-0.63-2.25-1.03-3.33-0.92
		c-9.84,0.98-17.51,7.56-20.3,17.44c-2.36,8.36-2.94,16.98-3.31,25.61c-0.11,2.49-0.02,4.99-0.02,7.58c4.35,0,8.66,0,13.12,0
		c0-0.86,0-1.6,0-2.34c0-6.53-0.01-13.05,0-19.58c0.01-2.65,1.17-4.12,3.19-4.11c2.01,0.02,3.12,1.47,3.13,4.16
		c0.02,5.98,0.01,11.96,0.01,17.95c0,1.27,0,2.54,0,3.93c12.01,0,23.81,0,35.76,0c-2.07-9-1.02-17.43,4.09-25.09
		C120.85,112.09,128.09,107.66,137.48,106.1z M62.63,95.3c-1.66-0.57-2.86-1.02-4.09-1.39c-2.33-0.71-4.35-0.49-6.43,1.18
		c-3.17,2.54-6.68,4.66-10.02,7c-1.53,1.07-2.97,1.12-4.5,0.01c-3.4-2.49-6.89-4.86-10.2-7.46c-1.39-1.1-2.74-1.32-4.33-0.99
		c-7.22,1.53-12.02,5.84-14.25,12.81c-0.95,2.95-1.54,6.07-1.88,9.16c-0.63,5.79-0.95,11.61-1.41,17.58c3.48,0,6.5,0,9.74,0
		c0-0.82,0-1.55,0-2.28c0-5.03,0.02-10.07-0.01-15.1c-0.01-1.68,0.61-2.94,2.25-3.48c2.08-0.68,3.95,0.84,3.98,3.31
		c0.05,5.17,0.08,10.34-0.01,15.51c-0.03,1.64,0.37,2.23,2.13,2.21c8.3-0.09,16.59-0.04,24.89-0.05c0.59,0,1.18-0.07,1.84-0.12
		c0.15-1.71,0.2-3.27,0.43-4.81c0.88-5.84,1.61-11.71,2.79-17.49C54.76,104.92,57.88,99.85,62.63,95.3z M193.68,133.16
		c-0.15-9.16-0.38-18.07-3-26.66c-2.14-7-7-11.3-14.2-12.85c-1.67-0.36-3.1-0.12-4.56,0.97c-3.43,2.56-7.03,4.88-10.52,7.36
		c-1.75,1.24-3.3,1.17-5.01-0.12c-3.09-2.33-6.28-4.54-9.41-6.81c-2.86-2.07-6.9-1.84-9.36,0.29c2.15,3.34,4.24,6.66,6.43,9.9
		c0.34,0.5,1.14,0.85,1.77,0.95c7.08,1.16,13.13,4.26,18.05,9.5c4.61,4.91,7.22,10.78,8.15,17.47c1.96,0,3.83,0,5.93,0
		c0-0.86,0-1.59,0-2.32c0.01-5.17-0.03-10.33,0.04-15.5c0.03-1.92,1.32-3.11,3.07-3.1c1.73,0,2.97,1.22,3.12,3.1
		c0.05,0.68,0.02,1.36,0.02,2.04c0,5.22,0,10.45,0,15.8C187.38,133.16,190.4,133.16,193.68,133.16z M118.63,59.66
		c-0.17-0.03-0.33-0.06-0.5-0.1c0-1.43,0.01-2.85,0-4.28c-0.02-2.64-2.26-4.23-4.7-3.35c-7.5,2.7-15.17,3.65-22.7,0.7
		c-3.26-1.27-5.68-1.04-8.19,1.01c-0.42,0.35-0.98,0.9-0.97,1.34c0.16,4.26-0.07,8.63,0.78,12.77c1.74,8.46,8.75,14.35,16.74,14.85
		c7.45,0.46,14.73-4.5,17.49-12.45C117.74,66.83,117.98,63.17,118.63,59.66z M80.71,47.63c1.23-1,2.25-1.76,3.19-2.6
		c1.27-1.13,2.64-1.41,4.1-0.5c7.73,4.8,15.8,4.51,23.84,1.2c3.3-1.36,5.9-1.77,8.24,1.31c0.05,0.07,0.23,0.04,0.34,0.06
		c3.27-4.77,2.53-8.43-2.19-12.63c-0.36-0.32-0.81-0.55-1.09-0.92c-1.05-1.39-2.42-2.69-2.99-4.27c-0.85-2.39-2.48-3.18-4.7-3.52
		c-8.05-1.23-15.5,0.57-22.12,5.06C80.24,35.61,79.2,39.83,80.71,47.63z M141.47,112.24c-13.34-0.11-24.46,10.85-24.56,24.22
		c-0.1,13.44,10.93,24.64,24.34,24.72c13.13,0.08,24.49-10.82,24.59-23.58C165.96,123.27,155.47,112.36,141.47,112.24z M26.1,65.54
		c-0.02,0-0.03,0-0.05,0c0.07,1.29,0.04,2.59,0.22,3.87c0.82,5.7,3.59,10.12,8.9,12.55c7.28,3.34,15.95-1.07,18.3-9.54
		c0.89-3.2,0.75-6.71,0.92-10.08c0.13-2.7-1.12-3.52-3.63-2.67c-6.73,2.28-13.43,2.55-20.09-0.33c-0.4-0.17-0.93-0.3-1.32-0.18
		c-2.39,0.72-3.26,1.99-3.26,4.55C26.1,64.31,26.1,64.92,26.1,65.54z M173.84,65.04c-0.09-0.01-0.18-0.03-0.26-0.04
		c0-1.16,0.04-2.31-0.01-3.47c-0.08-1.67-1.48-2.61-3.06-2.06c-6.98,2.44-13.93,2.85-20.86-0.22c-1.17-0.52-4.4,1.36-4.37,2.6
		c0.09,3.25-0.05,6.58,0.63,9.72c1.45,6.73,7.14,11.38,13.34,11.45c6.17,0.07,11.7-4.31,13.52-10.98
		C173.39,69.78,173.5,67.38,173.84,65.04z M175.6,54.15c2.13-3.31,1.52-5.93-1.4-8.66c-1.5-1.4-2.84-3.07-3.86-4.85
		c-0.73-1.27-1.54-1.98-2.9-2.19c-7.18-1.14-13.64,0.63-19.33,5.05c-3.38,2.63-4.72,6.15-3.6,10.72c0.7-0.58,1.23-1.31,1.92-1.51
		c1.14-0.32,2.7-0.84,3.52-0.34c6.22,3.73,12.58,3.49,19,0.95C171.44,52.33,173.68,51.31,175.6,54.15z M25.32,54.26
		c0.69-0.58,1.25-1.03,1.79-1.5c1.22-1.06,2.52-1.24,3.92-0.37c5.86,3.64,11.97,3.38,18.2,1.17c1.27-0.45,2.56-1.27,3.82-1.24
		c1.26,0.04,2.49,0.93,3.75,1.46c1.71-3.13,1.14-5.57-1.68-8.2c-1.46-1.36-2.94-2.89-3.81-4.63c-0.82-1.65-1.88-2.32-3.52-2.57
		c-6.05-0.91-11.62,0.49-16.76,3.63C26.66,44.7,23.94,48.35,25.32,54.26z M161.34,160.25c5.63,5.63,11.19,11.21,16.78,16.76
		c1.2,1.19,2.59,1.31,3.78,0.06c1.1-1.16,0.94-2.46-0.1-3.65c-0.22-0.25-0.47-0.49-0.71-0.73c-4.95-4.95-9.89-9.89-14.85-14.84
		c-0.42-0.42-0.88-0.79-1.23-1.11C163.76,157.93,162.63,159.01,161.34,160.25z M90.83,92.64c2.62,1.91,5.19,3.81,7.79,5.65
		c0.31,0.22,0.96,0.34,1.23,0.16c2.86-1.91,5.68-3.89,8.42-5.79c-0.5-1.77-0.92-3.26-1.36-4.83c-4.97,1.55-9.85,1.46-14.81-0.23
		C91.68,89.27,91.29,90.83,90.83,92.64z M45.6,88.97c-3.78,0-7.45,0-11.24,0c-0.82,1.56-0.66,2.95,1.33,4.03
		c1.47,0.8,2.76,1.94,4.18,2.96c1.5-1.04,2.87-2.18,4.41-2.99C46.27,91.92,46.6,90.6,45.6,88.97z M164.63,88.78
		c-1.81,0.19-3.62,0.54-5.42,0.52c-1.86-0.02-3.72-0.41-5.56-0.63c-0.97,1.85-0.82,3.24,1.18,4.32c1.47,0.8,2.76,1.94,4.18,2.97
		c1.51-1.04,2.87-2.18,4.41-2.99C165.43,91.92,165.74,90.6,164.63,88.78z"></path>
      <path d="M121.96,136.7c-0.02-10.7,8.74-19.5,19.43-19.51c10.67-0.01,19.48,8.77,19.51,19.44
		c0.03,10.69-8.73,19.47-19.44,19.5C130.75,156.16,121.98,147.41,121.96,136.7z M141.41,149.83c7.32,0,13.23-5.91,13.18-13.21
		c-0.04-7.33-5.97-13.18-13.29-13.12c-7.25,0.06-13.04,5.88-13.06,13.12C128.24,143.97,134.07,149.83,141.41,149.83z"></path>
    </g>
  </symbol>
  <symbol version="1.1" id="Product-Engineering-1" xmlns="http://www.w3.org/2000/svg" xmlns:xlink="http://www.w3.org/1999/xlink" x="0px" y="0px" xml:space="preserve" viewBox="0 0 200 200">
    <g>
      <path d="M42.3,19.2c3.6,2.4,7.6,4.6,11,7.3c3.6,2.8,7,3.5,10.8,0.7c0.6-0.4,1.3-0.9,2-1c11.5-2,16.8-8.9,17.5-20.4
		c0.1-1.9,3.6-4.9,5.8-5.1c7.2-0.6,14.6-0.8,21.8,0c2.4,0.3,6.2,4,6.3,6.3c0.7,10.3,5.7,15.1,15.4,18.8c7.7,2.9,13,3,18.7-2.3
		c5.2-4.8,10.1-4.9,14.5,1.2c0.9,1.2,2.1,2.1,3.2,3.2c12.1,12.1,12,12.1,3.6,27.3c-1,1.8-0.5,4.5-0.3,6.7c0.1,1.2,1.3,2.2,1.6,3.4
		c2.3,11.4,8.6,17.7,20.7,18.1c1.8,0.1,4.7,4.1,5,6.6c0.7,6-0.2,12.1,0.3,18.1c0.6,6.6-2.5,9-8.4,9.9c-4.2,0.6-10.1,0.6-11.9,3.2
		c-4,5.9-6.9,13-8.2,20c-0.6,3.2,3.3,7.6,5.9,10.8c4.2,5.2,3.7,9.2-1.4,13.5c-4.2,3.6-8.1,7.6-11.8,11.7c-3.3,3.7-6.6,4.2-10.5,1.1
		c-1-0.8-2.1-1.3-3.1-2.2c-5.4-4.7-11-6.8-17.3-1.6c-0.6,0.5-1.3,0.8-2.1,0.9c-9.6,1.3-13.2,7.3-13.5,16.4c-0.2,6.3-3.8,8.9-10,8
		c-1.7-0.2-3.5,0-5.3,0c-17.4,0-17.3,0-21.9-16.6c-0.5-1.9-2.7-3.6-4.4-5c-1.3-1-3.5-0.9-4.9-1.9c-9-6.1-17.3-5.7-25.3,2.1
		c-3.3,3.3-6.7,2.2-9.8-1.1c-4.1-4.4-8.3-8.8-12.8-12.8c-4.3-3.8-4.5-7.4-1-11.7c1.8-2.1,3.7-4.4,4.5-6.9c0.8-2.7,0.5-5.8,0.5-8.7
		c0-0.9-1.1-1.8-1.2-2.7c-2-11.3-8.6-17-20.2-17.6c-2-0.1-5-4.4-5.4-7.1c-0.8-6.5-0.7-13.1,0-19.6c0.3-2.5,3.1-6.8,4.8-6.8
		c13.1-0.2,18.1-8.3,21.8-19.2c1.5-4.5,2-7.5-0.9-11.6c-9.3-13.3-8.9-10.8,2.1-21.9c3.2-3.2,6.4-6.4,9.7-9.6
		C39.2,20.5,40.4,20.1,42.3,19.2z M10.2,109.3c13.4-0.9,19,6,24.1,18.1c5.2,12.4,6,21.4-3.6,29.9c4.5,4.5,8.3,8.4,12.8,13
		c8.8-10.9,18-8.3,30.1-3.7c11.9,4.6,17.6,10.5,18.2,22.5c0,0.4,0.5,0.8,0.9,1.2c5.4,0,10.8,0,17.1,0c-1.5-14,6.4-18.8,18.1-24.1
		c12.4-5.6,21.3-5.4,29.7,3.7c4.7-4.4,8.5-7.9,13.4-12.4c-10.6-8.5-9.6-17.3-4.6-29.4c5.1-12.1,10.3-19.8,24.2-18.7
		c0-6.4,0-11.8,0-17.5c-1.6-0.4-2.7-0.8-3.9-0.9c-10.6-0.3-15.1-5.8-19.1-15.9c-4.8-12.3-9.5-22.6,2.8-31.9
		c-4.6-4.7-8.4-8.6-12.8-13.2c-9,11-18.2,8.5-30.3,3.9c-12-4.6-17.5-10.6-18.1-22.5c0-0.4-0.5-0.8-0.8-1.2c-5.4,0-10.8,0-17.1,0
		c1.3,14-6.5,18.9-18.2,24C61,39.3,52.5,39.6,43.4,31c-0.3-0.2-0.9,0-1.2,0c-3.9,3.7-7.8,7.3-12.4,11.7c11.5,9.3,8.7,18.8,4,31.1
		c-4.5,11.7-10.2,17.3-22,17.7c-0.6,0-1.2,0.8-1.7,1.1C10.2,97.9,10.2,103.2,10.2,109.3z"></path>
      <path d="M164.2,100.4c0.1,35.3-28.5,63.7-64,63.7c-35.4-0.1-63.8-28.5-63.7-64c0.1-35.4,28.5-63.7,64-63.7
		C136,36.4,164.2,64.7,164.2,100.4z M100.6,45.5C70.3,45.5,45.8,69.8,45.8,100c-0.1,30.3,24.2,54.8,54.4,54.8
		c30.4,0.1,54.7-24.1,54.8-54.4C155.1,70.1,130.9,45.6,100.6,45.5z"></path>
      <path d="M63.9,98.2c-5.7-16.8,3.6-24.5,17.1-32.8c14.4-8.9,24.7-8.3,39.2,0c13.9,8.1,18.2,16.7,18.5,32.3
		c0.4,16.7-5.3,25.1-19.4,33.4c-14,8.3-25.1,10.2-37.5-0.7c-0.2-0.2-0.4-0.3-0.7-0.4C66.4,124.5,58.4,115,63.9,98.2z M72.2,87.1
		c0,9.1-0.1,16.5,0.1,23.9c0,1.5,1,3.6,2.2,4.3c6.7,4.2,13.6,8,21.4,12.5c0-8.9,0.2-16.4-0.2-23.8c-0.1-1.8-1.6-4.1-3.2-5.1
		C86.4,95,80,91.6,72.2,87.1z M128.7,87.1c-7.8,4.5-14.1,8-20.3,11.8c-1.3,0.8-3.1,2.4-3.2,3.6c-0.3,8.1-0.1,16.1-0.1,25.3
		c7.8-4.5,14.4-8.1,20.7-12.1c1.4-0.9,2.8-3.1,2.8-4.7C128.9,103.6,128.7,96.2,128.7,87.1z M77,79.1c7.7,4.5,14.3,8.4,21.1,12.1
		c1.2,0.7,3.5,0.7,4.7,0c6.8-3.7,13.4-7.6,21.1-12.1c-7.7-4.4-14.3-8.4-21.1-12c-1.3-0.7-3.5-0.7-4.8,0C91.2,70.7,84.6,74.7,77,79.1
		z"></path>
    </g>
  </symbol>
  <symbol version="1.1" id="UIUX-design" xmlns="http://www.w3.org/2000/svg" xmlns:xlink="http://www.w3.org/1999/xlink" x="0px" y="0px" xml:space="preserve" viewBox="0 0 200 200">
    <g>
      <path d="M200,30.74c0,37.62,0,75.24,0,112.86c-0.95,2.24-1.57,4.71-2.91,6.68c-3.06,4.48-7.66,6.12-12.96,6.11
		c-17.05-0.02-34.11-0.01-51.16-0.01c-0.75,0-1.49,0-2.21,0c0,7.3,0,14.27,0,21.47c3.15,0,6.19-0.09,9.21,0.02
		c4.66,0.18,9.11,3.55,9.68,8.09c0.53,4.31,0.11,8.74,0.11,13.14c-32.91,0-65.94,0-99.13,0c0-3.17-0.01-6.2,0-9.24
		c0.02-7.72,4.34-12.04,12.05-12.05c2.44,0,4.88,0,7.27,0c0-7.3,0-14.32,0-21.44c-0.95,0-1.72,0-2.49,0
		c-17.05,0-34.11,0.03-51.16-0.01c-9.2-0.02-15.53-6.24-15.53-15.31C0.73,105.08,0.73,69.09,0.8,33.11c0-2.15,0.49-4.41,1.29-6.41
		c1.46-3.66,4.19-6.24,8.04-7.71c0.72,1.87,1.36,3.55,2.04,5.31c-4.47,2.27-5.65,6-5.63,10.68c0.11,27.3,0.05,54.6,0.05,81.9
		c0,0.76,0,1.51,0,2.32c3.88,0,7.53,0,11.21,0c0.03-0.53,0.08-0.92,0.08-1.3c0-39.3-0.01-78.59-0.02-117.89C28.9,0,39.93,0,50.95,0
		c0.02,0.84,0.06,1.68,0.06,2.52c0,38.07,0,76.14,0,114.21c0,0.81,0,1.62,0,2.49c3.39,0,6.47,0,9.75,0c0-0.95,0-1.78,0-2.61
		c0-27.11-0.01-54.22,0.03-81.33c0-1.04,0.22-2.23,0.73-3.11c4.33-7.37,8.76-14.69,13.17-22.02c0.18-0.31,0.42-0.59,0.73-1.03
		c0.46,0.69,0.83,1.21,1.15,1.75c4.14,6.89,8.31,13.75,12.36,20.69c0.64,1.1,1.03,2.53,1.03,3.81c0.06,27.11,0.04,54.22,0.04,81.33
		c0,0.82,0,1.63,0,2.47c34.88,0,69.46,0,104.14,0c0-0.94,0-1.72,0-2.49c0-27.43,0-54.87,0-82.3c0-7.29-3.29-10.61-10.53-10.61
		c-30.16,0-60.31,0-90.47,0c-0.81,0-1.62,0-2.42,0c0-2.09,0-3.88,0-5.77c0.41-0.03,0.72-0.07,1.03-0.07
		c31.13,0,62.26-0.02,93.39,0.02c4.96,0.01,9.18,1.96,11.97,6.12C198.46,26.04,199.07,28.5,200,30.74z M6.64,125.29
		c0,5.83-0.11,11.47,0.05,17.1c0.08,2.95,1.52,5.51,4.23,6.76c1.87,0.86,4.09,1.33,6.15,1.33c55.52,0.07,111.03,0.06,166.55,0.05
		c0.65,0,1.3,0.02,1.94-0.03c5.22-0.43,8.5-3.95,8.59-9.22c0.03-1.56,0-3.11,0-4.67c0-3.74,0-7.49,0-11.32
		C131.58,125.29,69.21,125.29,6.64,125.29z M37.94,112.39c-4.83,0-9.45,0-14.06,0c0,2.44,0,4.6,0,6.85c7.11,0,14.08,0,21.18,0
		c0-37.8,0-75.5,0-113.27c-7.11,0-14.13,0-21.16,0c0,2.35,0,4.57,0,6.94c4.73,0,9.32,0,14,0c0,1.98,0,3.81,0,5.87
		c-4.76,0-9.4,0-14.04,0c0,2,0,3.79,0,5.81c2.65,0,5.2,0,7.84,0c0,2.01,0,3.8,0,5.81c-2.65,0-5.2,0-7.8,0c0,2.07,0,3.9,0,5.96
		c4.77,0,9.4,0,14,0c0,2.02,0,3.8,0,5.81c-4.77,0-9.4,0-14.03,0c0,2.02,0,3.8,0,5.83c2.66,0,5.22,0,7.8,0c0,2.03,0,3.81,0,5.83
		c-2.68,0-5.23,0-7.81,0c0,2.03,0,3.81,0,5.84c4.73,0,9.36,0,14.05,0c0,2.03,0,3.81,0,5.83c-4.74,0-9.37,0-14.06,0
		c0,2.03,0,3.81,0,5.86c2.65,0,5.2,0,7.82,0c0,2.04,0,3.82,0,5.85c-2.68,0-5.23,0-7.8,0c0,2.04,0,3.83,0,5.86c4.74,0,9.37,0,14.04,0
		c0,2.04,0,3.82,0,5.85c-4.76,0-9.4,0-14.04,0c0,2.04,0,3.83,0,5.87c2.67,0,5.23,0,7.79,0c0,2.04,0,3.82,0,5.87
		c-2.68,0-5.22,0-7.78,0c0,2.05,0,3.83,0,5.87c4.75,0,9.37,0,14.07,0C37.94,108.54,37.94,110.27,37.94,112.39z M76.07,177.69
		c16.33,0,32.43,0,48.53,0c0-7.15,0-14.16,0-21.16c-16.26,0-32.36,0-48.53,0C76.07,163.64,76.07,170.61,76.07,177.69z M66.72,39.33
		c0,21.65,0,42.89,0,64.26c5.82,0,11.54,0,17.26,0c0-21.4,0-42.66,0-64.17c-2.41,1.44-4.61,2.67-6.7,4.06
		c-1.28,0.85-2.3,0.98-3.64,0.05C71.51,42.07,69.23,40.84,66.72,39.33z M144.27,193.3c0-1.45,0.01-2.68,0-3.91
		c-0.04-3.78-1.98-5.71-5.77-5.71c-9.07-0.01-18.14,0-27.22,0c-16.39,0-32.79,0-49.18,0c-3.1,0-5.2,1.57-5.51,4.32
		c-0.19,1.71-0.04,3.46-0.04,5.3C85.8,193.3,114.92,193.3,144.27,193.3z M66.74,119.22c5.89,0,11.55,0,17.26,0c0-3.24,0-6.36,0-9.5
		c-5.82,0-11.49,0-17.26,0C66.74,112.91,66.74,115.97,66.74,119.22z M67.74,33.11c2.45,1.47,4.75,2.87,7.09,4.23
		c0.28,0.16,0.79,0.21,1.05,0.06c2.39-1.38,4.75-2.81,7.23-4.29c-2.61-4.34-5.08-8.45-7.69-12.79
		C72.75,24.76,70.3,28.85,67.74,33.11z"></path>
      <path d="M120.2,62.59c0-10.94,0-21.8,0-32.82c22.62,0,45.2,0,67.95,0c0,10.85,0,21.76,0,32.82
		C165.56,62.59,142.93,62.59,120.2,62.59z M182.41,35.58c-18.87,0-37.57,0-56.31,0c0,7.15,0,14.16,0,21.15c18.86,0,37.55,0,56.31,0
		C182.41,49.65,182.41,42.72,182.41,35.58z"></path>
      <path d="M113.57,29.76c0,1.89,0,3.63,0,5.61c-1.85,0-3.69,0-5.66,0c0,24.13,0,48.03,0,72.18c1.8,0,3.64,0,5.59,0
		c0,2.04,0,3.83,0,5.78c-5.72,0-11.44,0-17.29,0c0-1.81,0-3.59,0-5.63c1.83,0,3.66,0,5.61,0c0-24.16,0-48.06,0-72.18
		c-1.84,0-3.68,0-5.62,0c0-2.02,0-3.81,0-5.75C101.91,29.76,107.64,29.76,113.57,29.76z"></path>
      <path d="M120.2,68.69c10.38,0,20.59,0,30.94,0c0,7.09,0,14.1,0,21.23c-10.32,0-20.57,0-30.94,0
		C120.2,82.85,120.2,75.88,120.2,68.69z M126.05,84.07c6.55,0,12.87,0,19.29,0c0-3.21,0-6.29,0-9.49c-6.47,0-12.84,0-19.29,0
		C126.05,77.79,126.05,80.87,126.05,84.07z"></path>
      <path d="M188.19,89.94c-10.3,0-20.51,0-30.89,0c0-7.02,0-14.04,0-21.2c10.24,0,20.5,0,30.89,0
		C188.19,75.8,188.19,82.81,188.19,89.94z M163.1,84.1c6.49,0,12.82,0,19.23,0c0-3.23,0-6.36,0-9.55c-6.47,0-12.79,0-19.23,0
		C163.1,77.74,163.1,80.82,163.1,84.1z"></path>
      <path d="M123.04,103.59c0-1.96,0-3.7,0-5.58c4.5,0,8.93,0,13.47,0c0,1.86,0,3.65,0,5.58
		C132.05,103.59,127.62,103.59,123.04,103.59z"></path>
      <path d="M160.1,103.6c0-1.91,0-3.69,0-5.6c4.52,0,8.94,0,13.45,0c0,1.91,0,3.7,0,5.6
		C169.04,103.6,164.62,103.6,160.1,103.6z"></path>
      <path d="M142.55,98c1.9,0,3.74,0,5.67,0c0,1.89,0,3.68,0,5.6c-1.9,0-3.74,0-5.67,0
		C142.55,101.7,142.55,99.92,142.55,98z"></path>
      <path d="M179.57,103.56c0-2.03,0-3.69,0-5.52c1.88,0,3.71,0,5.66,0c0,1.8,0,3.57,0,5.52
		C183.35,103.56,181.49,103.56,179.57,103.56z"></path>
      <path d="M103.15,140.73c-1.95,0-3.68,0-5.55,0c0-1.9,0-3.73,0-5.67c1.85,0,3.62,0,5.55,0
		C103.15,136.92,103.15,138.75,103.15,140.73z"></path>
      <path d="M91.46,135.13c0,1.91,0,3.69,0,5.57c-1.9,0-3.67,0-5.59,0c0-1.84,0-3.62,0-5.57
		C87.69,135.13,89.5,135.13,91.46,135.13z"></path>
      <path d="M114.88,135.11c0,1.94,0,3.71,0,5.58c-1.9,0-3.67,0-5.58,0c0-1.87,0-3.65,0-5.58
		C111.09,135.11,112.92,135.11,114.88,135.11z"></path>
      <path d="M72.65,51.03c1.88,0,3.67,0,5.55,0c0,6.43,0,12.76,0,19.23c-1.8,0-3.59,0-5.55,0
		C72.65,63.94,72.65,57.58,72.65,51.03z"></path>
      <path d="M78.26,88.09c0,3.21,0,6.25,0,9.44c-1.88,0-3.72,0-5.67,0c0-3.11,0-6.2,0-9.44
		C74.43,88.09,76.26,88.09,78.26,88.09z"></path>
      <path d="M72.59,76.35c1.93,0,3.71,0,5.61,0c0,1.88,0,3.66,0,5.6c-1.83,0-3.66,0-5.61,0
		C72.59,80.12,72.59,78.34,72.59,76.35z"></path>
    </g>
  </symbol>
  <symbol version="1.1" id="web-development" xmlns="http://www.w3.org/2000/svg" xmlns:xlink="http://www.w3.org/1999/xlink" x="0px" y="0px" xml:space="preserve" viewBox="0 0 200 200">
    <g>
      <path d="M136.44,194.3c4.68,0,9.25,0,13.93,0c0,2.25,0,4.35,0,6.56c-33.24,0-66.4,0-99.72,0c0-2.09,0-4.2,0-6.48
		c4.54,0,9.09,0,13.88,0c2.79-11.14,5.55-22.18,8.36-33.42c-1.03,0-1.79,0-2.54,0c-19.51,0-39.02,0-58.53,0
		c-7.36,0-11.32-3.95-11.32-11.3c0-45.82,0-91.64,0-137.47c0-7.23,3.98-11.22,11.19-11.22c59.22,0,118.44,0,177.67,0
		c7.1,0,11.14,4.01,11.14,11.07c0,45.96,0,91.92,0,137.88c0,7.03-4.06,11.05-11.16,11.05c-19.58,0-39.16,0-58.74,0
		c-0.75,0-1.51,0-2.49,0C130.91,172.18,133.66,183.18,136.44,194.3z M7.17,134.14c62.36,0,124.46,0,186.56,0
		c0-37.76,0-75.37,0-113.21c-55.54,0-110.98,0-166.41,0c0-2.34,0-4.44,0-6.69c55.54,0,110.93,0,166.29,0
		c0.71-4.44,0.1-6.68-5.35-6.67C129.59,7.66,70.91,7.63,12.23,7.63c-4.23,0-5.07,0.85-5.07,5.14c0,39.65,0,79.3,0,118.95
		C7.17,132.48,7.17,133.24,7.17,134.14z M193.82,141.11c-62.38,0-124.46,0-186.52,0c-0.06,0.28-0.12,0.41-0.12,0.55
		c-0.01,2.5-0.02,5-0.02,7.5c0,4.28,0.84,5.14,5.07,5.14c58.86,0,117.73,0,176.59,0c0.56,0,1.11,0.03,1.67-0.01
		c1.98-0.15,3.26-1.34,3.31-3.32C193.88,147.71,193.82,144.46,193.82,141.11z M129.54,194.21c-2.78-11.13-5.53-22.13-8.28-33.15
		c-13.9,0-27.68,0-41.51,0c-2.76,11.07-5.5,22.05-8.27,33.15C90.95,194.21,110.14,194.21,129.54,194.21z"></path>
      <path d="M63.92,84.14c0-2.18,0-4.24,0-6.4c37.74,0,75.39,0,113.14,0c0,2.14,0,4.2,0,6.4
		C139.41,84.14,101.76,84.14,63.92,84.14z"></path>
      <path d="M43.97,27.67c2.18,0,4.19,0,6.37,0c0,33.22,0,66.43,0,99.79c-2.02,0-4.12,0-6.37,0
		C43.97,94.28,43.97,61.07,43.97,27.67z"></path>
      <path d="M57.26,70.81c0-2.2,0-4.25,0-6.41c27.7,0,55.3,0,83.07,0c0,2.05,0,4.16,0,6.41
		C112.73,70.81,85.08,70.81,57.26,70.81z"></path>
      <path d="M187.07,37.77c0,2.21,0,4.26,0,6.42c-23.25,0-46.41,0-69.73,0c0-2.07,0-4.17,0-6.42
		C140.5,37.77,163.7,37.77,187.07,37.77z"></path>
      <path d="M170.41,51.11c0,2.19,0,4.24,0,6.41c-18.85,0-37.61,0-56.48,0c0-2.15,0-4.2,0-6.41
		C132.7,51.11,151.46,51.11,170.41,51.11z"></path>
      <path d="M57.26,97.48c0-2.19,0-4.25,0-6.41c15.47,0,30.85,0,46.4,0c0,2.05,0,4.16,0,6.41
		C88.29,97.48,72.86,97.48,57.26,97.48z"></path>
      <path d="M107.07,104.44c0,2.21,0,4.26,0,6.42c-12.14,0-24.19,0-36.4,0c0-2.06,0-4.17,0-6.42
		C82.72,104.44,94.81,104.44,107.07,104.44z"></path>
      <path d="M100.4,117.77c0,2.2,0,4.26,0,6.42c-12.14,0-24.19,0-36.4,0c0-2.06,0-4.17,0-6.42
		C76.05,117.77,88.14,117.77,100.4,117.77z"></path>
      <path d="M68.11,28.67c1.6,1.65,3.04,3.14,4.51,4.65c-2.44,2.37-4.91,4.78-7.56,7.36c2.85,2.65,5.41,5.04,8.07,7.52
		c-2.01,1.84-3.57,3.27-5.22,4.77c-3.17-3.15-6.56-6.42-9.83-9.81c-1.34-1.39-1.29-3.11,0.06-4.5
		C61.36,35.33,64.68,32.09,68.11,28.67z"></path>
      <path d="M124.92,102.11c1.36,1.52,2.74,3.06,4.26,4.76c-2.32,2.19-4.86,4.59-7.71,7.28c2.99,2.75,5.57,5.13,8.2,7.55
		c-1.81,1.78-3.28,3.24-4.74,4.69c-3.47-3.38-7-6.69-10.38-10.15c-1.14-1.16-1.08-2.83,0.06-4
		C117.95,108.83,121.42,105.54,124.92,102.11z"></path>
      <path d="M99.43,53.13c-1.47-1.48-2.92-2.95-4.6-4.65c2.56-2.42,5.1-4.82,7.9-7.46c-2.87-2.64-5.41-4.97-8.01-7.37
		c1.89-1.71,3.46-3.12,5.03-4.54c3.14,3.07,6.61,6.35,9.95,9.77c1.21,1.24,1.2,2.93,0,4.16C106.36,46.46,102.89,49.75,99.43,53.13z"></path>
      <path d="M156.23,126.51c-1.61-1.58-3.08-3.03-4.63-4.55c2.54-2.44,5.03-4.84,7.69-7.39c-2.85-2.67-5.4-5.07-8.05-7.56
		c1.98-1.82,3.53-3.25,5.15-4.74c3.2,3.17,6.6,6.43,9.87,9.81c1.35,1.39,1.28,3.12-0.06,4.5
		C162.97,119.91,159.63,123.14,156.23,126.51z"></path>
      <path d="M83.54,52.2c-2.16-0.87-4.06-1.64-6.17-2.49c2.23-5.59,4.4-11.01,6.64-16.63c2.1,0.83,4.06,1.61,6.18,2.46
		C87.96,41.14,85.79,46.57,83.54,52.2z"></path>
      <path d="M146.81,108.87c-2.25,5.62-4.42,11.05-6.66,16.65c-2.1-0.84-4.05-1.61-6.18-2.46
		c2.26-5.65,4.43-11.08,6.65-16.64C142.69,107.25,144.61,108,146.81,108.87z"></path>
      <path d="M13.95,31.05c5.49,0,10.87,0,16.4,0c0,2.11,0,4.21,0,6.44c-5.42,0-10.85,0-16.4,0
		C13.95,35.4,13.95,33.35,13.95,31.05z"></path>
      <path d="M30.34,54.21c-5.51,0-10.89,0-16.39,0c0-2.18,0-4.28,0-6.49c5.47,0,10.85,0,16.39,0
		C30.34,49.81,30.34,51.92,30.34,54.21z"></path>
      <path d="M30.41,64.44c0,2.2,0,4.25,0,6.41c-5.47,0-10.86,0-16.4,0c0-2.06,0-4.16,0-6.41
		C19.38,64.44,24.81,64.44,30.41,64.44z"></path>
      <path d="M37.07,81.1c0,2.2,0,4.25,0,6.41c-5.47,0-10.86,0-16.4,0c0-2.06,0-4.16,0-6.41
		C26.04,81.1,31.47,81.1,37.07,81.1z"></path>
      <path d="M37.08,97.73c0,2.18,0,4.23,0,6.43c-5.47,0-10.9,0-16.45,0c0-2.12,0-4.22,0-6.43
		C26.08,97.73,31.46,97.73,37.08,97.73z"></path>
      <path d="M37.07,114.44c0,2.2,0,4.25,0,6.41c-5.47,0-10.86,0-16.4,0c0-2.06,0-4.16,0-6.41
		C26.04,114.44,31.47,114.44,37.07,114.44z"></path>
      <path d="M13.95,14.39c2.14,0,4.19,0,6.4,0c0,2.1,0,4.2,0,6.43c-2.08,0-4.18,0-6.4,0
		C13.95,18.74,13.95,16.69,13.95,14.39z"></path>
    </g>
  </symbol>
  <symbol version="1.1" id="app-development" xmlns="http://www.w3.org/2000/svg" xmlns:xlink="http://www.w3.org/1999/xlink" x="0px" y="0px" xml:space="preserve" viewBox="0 0 200 200">
    <g>
      <path d="M141.78,0.5c0.52,0.23,1.03,0.47,1.56,0.67c4.2,1.59,6.98,5.36,6.98,9.85c0.04,21.1,0.03,42.21,0.02,63.31
		c0,2.16-1.09,3.41-2.87,3.43c-1.84,0.02-2.95-1.27-2.95-3.54c-0.01-14.22-0.01-28.44-0.01-42.66c0-0.78,0-1.55,0-2.48
		c-33.79,0-67.5,0-101.31,0c0,18.22,0,36.37,0,54.81c0.76,0,1.51,0,2.27,0c14.48,0,28.96,0,43.44,0c5.28,0,8.38,3.06,8.41,8.3
		c0.02,3.05,0.01,6.1,0,9.16c-0.02,5.3-3.03,8.37-8.32,8.38c-14.48,0.03-28.96,0.01-43.44,0.01c-0.71,0-1.41,0-2.29,0
		c0,18.54,0,36.92,0,55.42c33.7,0,67.36,0,101.13,0c0-4.98,0-9.89,0-15.03c-0.72,0-1.41,0-2.1,0c-9.8,0-19.61,0-29.41,0
		c-5.39,0-8.47-3.05-8.48-8.43c-0.01-6.36-0.01-12.73,0-19.09c0.01-5.29,3.06-8.36,8.33-8.37c9.8-0.02,19.61-0.01,29.41-0.01
		c0.7,0,1.41,0,2.23,0c0-2.79,0-5.42,0-8.3c-0.64-0.03-1.32-0.09-2-0.09c-7.73-0.01-15.45,0-23.18-0.01c-0.71,0-1.63,0.2-2.09-0.16
		c-0.88-0.69-2.03-1.7-2.07-2.61c-0.04-0.92,1.01-2.04,1.85-2.77c0.48-0.41,1.49-0.25,2.27-0.25c7.6-0.01,15.19-0.01,22.79-0.01
		c0.77,0,1.54,0,2.44,0c0-2.66,0-5.16,0-7.99c-0.63,0-1.31,0-1.98,0c-7.92,0-15.84,0.03-23.77-0.04c-0.96-0.01-2.19-0.28-2.81-0.91
		c-0.6-0.61-0.97-1.95-0.73-2.76c0.24-0.82,1.28-1.49,2.11-2.01c0.42-0.27,1.14-0.11,1.72-0.11c14.35,0,28.7,0,43.05,0
		c0.26,0,0.52-0.01,0.78,0c1.94,0.08,3.2,1.25,3.18,2.93c-0.02,1.68-1.27,2.85-3.25,2.88c-3.31,0.04-6.62,0.01-9.93,0.01
		c-0.71,0-1.42,0-2.26,0c0,2.66,0,5.21,0,7.99c3.47,0,6.89,0,10.31,0c0.71,0,1.43-0.03,2.14,0.02c1.87,0.15,3.01,1.29,2.99,2.93
		c-0.02,1.64-1.19,2.79-3.07,2.82c-3.7,0.06-7.4,0.02-11.1,0.03c-0.38,0-0.76,0.05-1.27,0.08c0,2.76,0,5.43,0,8.31
		c0.77,0,1.47,0,2.16,0c7.4,0,14.8-0.01,22.21,0.01c5.24,0.01,8.26,3,8.28,8.17c0.02,6.56,0.03,13.12,0,19.67
		c-0.02,4.93-3.13,8.02-8.04,8.04c-7.47,0.02-14.93,0.01-22.4,0.01c-0.7,0-1.41,0-2.34,0c0,0.83,0,1.52,0,2.21
		c0,12.01,0.01,24.03,0,36.04c0,7.22-4.41,11.62-11.66,11.62c-14.61,0.01-29.22,0-43.83,0c-0.52,0-1.05,0.05-1.56-0.03
		c-1.61-0.26-2.6-1.17-2.62-2.86c-0.01-1.69,0.97-2.62,2.58-2.9c0.57-0.1,1.17-0.04,1.75-0.04c14.48,0,28.96,0,43.44,0
		c4.31,0,6.06-1.73,6.06-5.97c0.01-5,0-10,0-15c0-0.63,0-1.26,0-1.97c-33.87,0-67.53,0-101.41,0c0,0.8,0,1.49,0,2.19
		c0,4.81,0,9.61,0,14.42c0,4.77,1.55,6.34,6.26,6.34c9.68,0,19.35,0,29.03,0c0.52,0,1.05-0.05,1.56,0.03
		c1.61,0.25,2.61,1.16,2.64,2.84c0.02,1.69-0.95,2.62-2.56,2.91c-0.5,0.09-1.04,0.04-1.56,0.04c-9.87,0-19.74,0.01-29.61,0
		c-7.26-0.01-11.58-4.35-11.58-11.67c-0.01-25.32,0-50.65,0-75.97c0-0.77,0-1.54,0-2.62c-2.27,0-4.38,0.01-6.5,0
		c-1.82-0.01-3.64,0.05-5.45-0.09c-3.63-0.28-6.57-3.28-6.68-6.92c-0.12-3.83-0.1-7.66-0.02-11.49c0.09-4.18,3.3-7.27,7.54-7.33
		c3.51-0.05,7.01-0.03,10.52-0.05c0.12,0,0.23-0.08,0.6-0.22c0-0.67,0-1.42,0-2.18c0-22.6,0-45.19,0-67.79
		c0-7.75,1.62-10.21,8.66-13.15c5.71,0,11.43,0,17.14,0c1.18,1.09,2.19,2.3,1.47,4.03c-0.73,1.75-2.3,1.83-3.93,1.82
		c-4.09-0.04-8.18-0.04-12.27,0c-3.3,0.03-5.15,1.9-5.23,5.21c-0.04,1.56-0.01,3.12-0.01,4.68c0,2.24,0,4.48,0,6.69
		c33.98,0,67.64,0,101.41,0c0-3.52,0-6.89,0-10.26c0-4.69-1.62-6.33-6.29-6.33c-20.52,0-41.04-0.01-61.56,0.01
		c-1.64,0-3.16-0.1-3.88-1.89c-0.73-1.82,0.39-2.91,1.59-3.95C96.85,0.5,119.31,0.5,141.78,0.5z M143.7,144.28
		c10.25,0,20.5,0,30.75,0c2.5,0,2.85-0.34,2.85-2.78c0.01-6.23,0.01-12.46,0-18.68c0-2.43-0.31-2.75-2.66-2.75
		c-20.56-0.01-41.13-0.01-61.69,0c-2.27,0-2.69,0.43-2.7,2.75c-0.01,6.1-0.01,12.2,0,18.29c0,2.82,0.34,3.17,3.09,3.17
		C123.46,144.29,133.58,144.28,143.7,144.28z M57.99,103.88c10.26,0,20.52,0.01,30.78,0c2.32,0,2.71-0.42,2.72-2.74
		c0.01-2.99-0.02-5.97,0.01-8.96c0.02-1.7-0.69-2.48-2.44-2.48c-20.78,0.02-41.55,0.02-62.33,0c-1.67,0-2.33,0.75-2.31,2.37
		c0.04,2.92,0.01,5.84,0.01,8.77c0.01,2.79,0.24,3.04,2.98,3.04C37.6,103.88,47.8,103.88,57.99,103.88z"></path>
      <path d="M94.31,75.53c-10.12,0-20.24,0.01-30.36,0c-6.05-0.01-8.95-2.91-8.95-8.95c0-6.16-0.02-12.33,0-18.49
		c0.02-5.39,3.08-8.51,8.43-8.51c20.63-0.02,41.26-0.02,61.9,0c5.39,0,8.39,3.04,8.41,8.48c0.02,6.36,0.03,12.72,0,19.08
		c-0.02,5.43-2.99,8.38-8.47,8.4C114.94,75.55,104.62,75.53,94.31,75.53z M127.79,47.09c-8.71,3.51-17.15,6.92-25.98,10.48
		c8.89,3.58,17.34,6.98,25.98,10.46C127.79,61,127.79,54.22,127.79,47.09z M61,47.41c0,6.94,0,13.5,0,20.32
		c8.43-3.4,16.63-6.7,25.21-10.16C77.6,54.1,69.4,50.79,61,47.41z M72.88,69.25c0.02,0.09,0.05,0.19,0.07,0.28
		c14.06,0,28.11,0,42.17,0c-4.56-2.14-9.35-3.68-13.74-5.97c-5.09-2.65-9.83-2.91-14.72,0.09c-0.33,0.2-0.72,0.29-1.08,0.44
		C81.34,65.8,77.11,67.53,72.88,69.25z M72.37,45.5c0.55,0.34,0.74,0.5,0.96,0.59c6.55,2.64,13.09,5.3,19.67,7.86
		c0.68,0.26,1.66,0.16,2.37-0.12c4.41-1.7,8.79-3.5,13.17-5.28c2.24-0.9,4.47-1.82,6.7-2.73c-0.03-0.11-0.07-0.22-0.1-0.32
		C101.03,45.5,86.91,45.5,72.37,45.5z"></path>
      <path d="M81.95,141.57c-2.91,0-5.83,0.02-8.74-0.01c-2.1-0.02-3.4-1.18-3.38-2.92c0.03-1.65,1.31-2.87,3.26-2.88
		c5.96-0.04,11.91-0.04,17.87,0c1.98,0.01,3.23,1.19,3.27,2.86c0.04,1.73-1.28,2.92-3.35,2.94
		C87.91,141.59,84.93,141.57,81.95,141.57z"></path>
      <path d="M82.18,121.97c2.91,0,5.83-0.03,8.74,0.01c2.02,0.03,3.25,1.11,3.31,2.77c0.06,1.74-1.21,3.01-3.3,3.03
		c-5.89,0.05-11.78,0.05-17.67,0.01c-2.1-0.01-3.41-1.22-3.42-2.93c-0.01-1.73,1.28-2.86,3.41-2.88
		C76.23,121.94,79.2,121.97,82.18,121.97z"></path>
    </g>
  </symbol>
  <symbol version="1.1" id="Custom-Software-Development" xmlns="http://www.w3.org/2000/svg" xmlns:xlink="http://www.w3.org/1999/xlink" x="0px" y="0px" xml:space="preserve" viewBox="0 0 200 200">
    <g>
      <path d="M121.2,166.8c2.6,8.7,5,16.9,7.6,25.1c0.2,0.7,1.9,1.4,2.9,1.5c2.6,0.2,5.2,0.1,8.1,0.1c0,2.2,0,4.1,0,6.3
		c-26.3,0-52.8,0-79.5,0c0-2,0-3.9,0-6.3c2.7,0,5.4,0.2,8-0.1c1.1-0.1,2.8-0.9,3.1-1.8c2.6-8,4.9-16.1,7.5-24.8c-2.8,0-5.1,0-7.4,0
		c-19.9,0-39.7,0-59.6,0C3.9,166.8,0,163,0,155.1c0-47.6,0-95.3,0-142.9C0,3.8,3.6,0.2,12.2,0.2c58.5,0,116.9,0,175.4,0
		c8.9,0,12.4,3.5,12.4,12.4c0,47.4,0,94.7,0,142.1c0,8.7-3.6,12.2-12.5,12.3c-20.6,0-41.1,0-61.7,0
		C124.5,166.8,123.1,166.8,121.2,166.8z M193.3,140.1c0-1.7,0-3.1,0-4.5c0-40.8,0-81.6,0-122.5c0-5.9-0.4-6.3-6.5-6.3
		c-57.9,0-115.8,0-173.7,0c-6.1,0-6.5,0.4-6.5,6.3c0,40.8,0,81.6,0,122.5c0,1.5,0,2.9,0,4.4C69.1,140.1,130.9,140.1,193.3,140.1z
		 M6.7,147c0,2.1,0,3.8,0,5.4c0,7.7,0,7.7,7.6,7.7c46.9,0,93.8,0,140.8,0c11.1,0,22.2,0,33.3,0c2.6,0,4.9-0.4,5-3.6
		c0.1-3.1,0-6.3,0-9.6C130.9,147,69.1,147,6.7,147z M77.9,193.3c15.1,0,29.3,0,44.2,0c-2.7-9-5.3-17.7-7.9-26.5
		c-8.9,0-17.5-0.1-26.1,0.1c-0.9,0-2.4,0.9-2.7,1.8C82.8,176.7,80.4,184.8,77.9,193.3z"></path>
      <path d="M126.7,133.5c-16.1,0-32.2,0-48.3,0c-7.9,0-11.7-3.8-11.7-11.7c0-22.2,0-44.4,0-66.6c0-7.9,3.8-11.6,11.8-11.6
		c11.2,0,22.5,0.1,33.7-0.1c4-0.1,7.6,1,9.9,4.2c5.7,7.9,13.1,10.1,22.7,9.3c9.9-0.8,20-0.2,30-0.2c8.2,0,11.9,3.8,11.9,12
		c0,17.6,0,35.2,0,52.9c0,8-3.7,11.8-11.7,11.8C158.9,133.5,142.8,133.5,126.7,133.5z M126.3,126.8c16.1,0,32.2-0.1,48.3,0.1
		c3.9,0,5.5-1.3,5.5-5.3c-0.1-17.6-0.1-35.3,0-52.9c0-3.8-1.5-5.2-5.2-5.2c-10,0.1-20,0.1-30,0c-19-0.1-14,1.9-27.2-10.9
		c-1.4-1.4-3.8-2.3-5.8-2.4c-11.1-0.2-22.2,0-33.3-0.1c-3.7,0-5.2,1.4-5.2,5.2c0.1,22.1,0.1,44.2,0,66.2c0,4,1.6,5.4,5.5,5.3
		C94.6,126.7,110.4,126.8,126.3,126.8z"></path>
      <path d="M118.8,34.2c-1.5,1.9-2.7,3.4-3.8,4.7c-0.6-0.2-0.8-0.2-0.9-0.3c-4.2-6.8-9.5-5.3-15.4-2.4
		c-5,2.5-14.7-1.8-17-7c-0.6-1.4-1.4-2.8-1.7-4.2c-1-4.2-3.5-5.2-7.6-4.9c-2.5,0.2-4.2,0.7-4.9,3.3c-0.2,0.8-0.8,1.5-0.9,2.3
		c-1.3,8-8.1,9.7-14.2,11.4c-2.3,0.7-5.4-1.3-8.1-2.3c-5.5-2.1-7.6-1.6-10.8,3.4c-0.4,0.6-0.5,1.5-0.4,2.2c0.2,1.1,0.6,2.2,1.2,3.1
		c4.5,6.5,2.7,12.9-1.2,18.4c-1.9,2.7-6,4.1-9.3,5.5c-2.9,1.2-3.7,2.7-3.9,5.8c-0.2,3.9,1,6.2,4.7,6.8c8,1.4,10.7,7.5,12.1,14
		c0.6,2.8-1.1,6.4-2.4,9.2c-1.7,3.5-1.4,5.9,1.7,8.5c2.1,1.9,3.8,2.9,6.4,1.3c0.7-0.4,1.5-0.6,2.3-0.9c8-3.1,8.1-3.1,16.4,1.6
		c-0.7,1.8-1.5,3.7-2.5,6.1c-6.6-5.4-12.2-1.1-17.9,1.2c-2.6,1.1-4.3,0.9-6.1-1.3c-3-3.4-8-6.2-9-10c-0.9-3.6,2.5-8.2,3.9-12.3
		c1.1-3.2-1.1-8.3-4.1-9.8c-0.3-0.1-0.5-0.2-0.8-0.3c-3.7-1.8-9.5-2.7-10.7-5.5c-1.8-4.6-0.7-10.4-0.5-15.6c0-0.9,1.3-2,2.2-2.4
		c2.5-1.3,5.1-2.2,7.6-3.3c6-2.6,7.8-6.8,5.3-12.8c-4.1-10.1-3.8-9.9,3.7-18c3.6-4,6.7-4.5,11.3-2.2c3,1.5,6.7,2.2,10.1,2.2
		c3.4,0,5.7-2.5,6.5-6c1.7-8.3,6.7-10.7,15.1-10.1c5.3,0.4,8.2,1.5,9.9,6.7c1.1,3.3,1.5,7.3,5.9,9c2.9,1.1,5.3,1.3,8.3,0.1
		c10.2-4.4,10.3-4.3,17.9,3.6C117.8,33.1,118.3,33.7,118.8,34.2z"></path>
      <path d="M61.3,97.7c-1,2-1.8,3.7-2.9,5.7c-11.6-6.6-18-16-18.4-29c-0.3-13.7,6.1-23.7,18.1-30.7c0.7,1.1,1.3,2,1.8,3
		c0.4,0.8,0.8,1.7,1.1,2.6C40.6,62,43.1,87.2,61.3,97.7z"></path>
      <path d="M166.9,93.5c-5.9,6-11.9,12.2-18.4,18.7c-1.1-1.4-2.3-2.8-3.9-4.7c4.6-4.3,9.4-8.8,14.5-13.4
		c-5.5-5.3-10.1-9.7-14.9-14.4c2-1.8,3.5-3.1,4.7-4.2C154.8,81.3,160.9,87.5,166.9,93.5z"></path>
      <path d="M109.5,107.3c-2.2,2.1-3.6,3.4-4.8,4.4c-6.1-6.1-12.2-12.2-17.9-18c5.6-5.6,11.8-11.8,18.1-18.1
		c0.8,0.8,2.2,2.2,4.1,4.1c-4.8,4.4-9.6,8.7-14.7,13.3C99.7,98,104.4,102.5,109.5,107.3z"></path>
      <path d="M122.9,111.7c-2.1-1.2-3.8-2.1-5.8-3.2c5.6-10,11-19.8,16.6-29.9c1.9,1.1,3.7,2,5.9,3.2
		C134,91.8,128.6,101.6,122.9,111.7z"></path>
    </g>
  </symbol>
</svg>