<svg width="0" height="0" class="hidden">
  <symbol fill="none" xmlns="http://www.w3.org/2000/svg" viewBox="0 0 496 496" id="4_Client">
    <path d="M216 416H280V448H216V416Z" fill="#F0BC5E"></path>
    <path d="M136.29 384C97.04 351.72 72 302.79 72 248C72 150.8 150.8 72 248 72C283.43 72 316.38 82.5 344 100.52V56C344 55.53 344.19 55.13 344.27 54.68C331.44 48.29 317.98 43.13 304.09 39.41L294.25 0H201.76L191.92 39.41C173.74 44.29 156.37 51.47 140.15 60.83L105.34 39.95L39.94 105.35L60.82 140.16C51.46 156.37 44.28 173.74 39.4 191.93L0 201.75V294.24L39.46 304.1C44.8 322.71 53.82 337.52 63.32 353.12L63.99 354.23V384H136.29Z" fill="#F0BC5E"></path>
    <path d="M456.59 191.9C452.1 175.16 445.55 159.12 437.23 144H410.28L395.66 152.3C413.57 179.85 424 212.7 424 248C424 302.79 398.96 351.72 359.71 384H432V354.24L432.67 353.13C442.17 337.53 451.2 322.72 456.53 304.11L495.99 294.25V201.76L456.59 191.9Z" fill="#F0BC5E"></path>
    <path d="M240 32H256V48H240V32Z" fill="black"></path>
    <path d="M89.61 100.92L100.92 89.61L112.23 100.92L100.92 112.23L89.61 100.92Z" fill="black"></path>
    <path d="M32 240H48V256H32V240Z" fill="black"></path>
    <path d="M448 240H464V256H448V240Z" fill="black"></path>
    <path d="M216 408H280V424H216V408Z" fill="black"></path>
    <path d="M216 440H280V456H216V440Z" fill="black"></path>
    <path d="M480 40H352C343.18 40 336 47.18 336 56V86.41C309.1 71.73 278.97 64 248 64C146.54 64 64 146.54 64 248C64 299.14 84.52 346.66 121.79 381.82L124.1 384H184V496H312V384H371.9L374.21 381.82C411.48 346.66 432 299.14 432 248C432 215.16 423.24 183.3 406.79 155.18L412.4 152H480C488.82 152 496 144.82 496 136V56C496 47.18 488.82 40 480 40ZM296 480H200V384H296V480ZM216 368H136V344.45C136 333.65 143.27 324.13 153.68 321.29L193.9 310.31L212.44 356.65L248 330L283.55 356.66L302.09 310.32L342.31 321.3C352.72 324.13 359.99 333.66 359.99 344.46V368H216ZM152 248C152 224.3 160.66 202.06 176 184.69V219.16C176 223.92 177.39 228.52 180.03 232.47L204.59 269.31C205.57 270.78 206.75 272.07 208 273.26V289.88L167.85 300.83C157.46 285.18 152 267.06 152 248ZM344 248C344 267.06 338.54 285.18 328.15 300.84L288 289.89V273.27C289.25 272.07 290.43 270.79 291.41 269.32L315.97 232.48C318.61 228.52 320 223.92 320 219.16V184.69C335.34 202.06 344 224.3 344 248ZM192 192H241.37C255.4 192 268.74 187.41 279.65 178.95C286.44 185.49 294.87 189.66 303.99 191.23V219.15C303.99 220.73 303.53 222.27 302.65 223.59L278.09 260.43C276.61 262.67 274.12 264 271.44 264H224.56C221.88 264 219.39 262.67 217.9 260.44L193.34 223.59C192.46 222.27 192 220.74 192 219.16V192ZM214.33 304.74L234.66 320L219.54 331.34L209.44 306.08L214.33 304.74ZM224 292V279.93C224.19 279.94 224.37 280 224.56 280H271.44C271.63 280 271.81 279.94 272 279.93V292L248 310L224 292ZM281.67 304.74L286.55 306.07L276.45 331.33L261.34 320L281.67 304.74ZM304 174.82C298.89 173.44 294.18 170.87 290.34 167.03L280 156.69L274.34 162.35C265.53 171.16 253.83 176.01 241.36 176.01H192V168.58C192 141.81 213.79 120.01 240.57 120.01C253.55 120.01 265.74 125.06 274.91 134.23L283.68 143L285.47 143.6C296.55 147.3 304 157.62 304 169.3V174.82ZM416 248C416 288.44 401.88 326.38 376 356.68V344.45C376 326.46 363.88 310.59 346.53 305.86L344.21 305.23C354.52 287.98 360 268.47 360 248C360 214.35 345.14 183.16 319.29 161.79C316.69 147.05 306.62 134.55 292.39 129.08L286.22 122.91C274.03 110.73 257.81 104.01 240.56 104.01C207.13 104.01 179.56 129.55 176.31 162.14C150.72 183.5 136 214.53 136 248C136 268.47 141.48 287.98 151.79 305.21L149.47 305.84C132.12 310.58 120 326.45 120 344.44V356.67C94.12 326.38 80 288.44 80 248C80 155.36 155.36 80 248 80C279.27 80 309.57 88.68 336 104.98V136C336 144.82 343.18 152 352 152H360V181.73L392.87 163.07C407.97 188.79 416 217.95 416 248ZM480 136H408.17L376 154.27V136H352V56H480V136Z" fill="black"></path>
    <path d="M408 104H424V120H408V104Z" fill="black"></path>
    <path d="M440 104H456V120H440V104Z" fill="black"></path>
    <path d="M376 104H392V120H376V104Z" fill="black"></path>
    <path d="M368 72H464V88H368V72Z" fill="black"></path>
  </symbol>
  <symbol fill="none" xmlns="http://www.w3.org/2000/svg" viewBox="0 0 612 792" id="6_Growth">
    <path d="M562.65 652.65H404.71V692.13H562.65V652.65Z" fill="#F0BC5E"></path>
    <path d="M562.65 573.68H404.71V613.16H562.65V573.68Z" fill="#F0BC5E"></path>
    <path d="M562.65 494.71H404.71V534.19H562.65V494.71Z" fill="#F0BC5E"></path>
    <path d="M365.23 652.65H207.29V692.13H365.23V652.65Z" fill="#F0BC5E"></path>
    <path d="M365.23 573.68H207.29V613.16H365.23V573.68Z" fill="#F0BC5E"></path>
    <path d="M365.23 494.71H207.29V534.19H365.23V494.71Z" fill="#F0BC5E"></path>
    <path d="M167.81 652.65H9.87V692.13H167.81V652.65Z" fill="#F0BC5E"></path>
    <path d="M167.81 573.68H9.87V613.16H167.81V573.68Z" fill="#F0BC5E"></path>
    <path d="M562.65 415.74H404.71V455.22H562.65V415.74Z" fill="#F0BC5E"></path>
    <path d="M128.32 356.52C57.57 356.52 0 298.95 0 228.19C0 157.44 57.57 99.87 128.32 99.87C199.07 99.87 256.64 157.44 256.64 228.19C256.64 298.95 199.08 356.52 128.32 356.52Z" fill="#F0BC5E"></path>
    <path d="M128.32 277.55C117.43 277.55 108.58 268.7 108.58 257.81H88.84C88.84 276.15 101.47 291.48 118.45 295.89V317.03H138.19V295.89C155.18 291.48 167.8 276.15 167.8 257.81C167.8 236.03 150.09 218.33 128.32 218.33C117.43 218.33 108.58 209.48 108.58 198.59C108.58 187.7 117.43 178.85 128.32 178.85C139.21 178.85 148.06 187.7 148.06 198.59H167.8C167.8 180.25 155.17 164.92 138.19 160.51V139.37H118.45V160.51C101.46 164.92 88.84 180.25 88.84 198.59C88.84 220.37 106.55 238.07 128.32 238.07C139.21 238.07 148.06 246.92 148.06 257.81C148.06 268.7 139.21 277.55 128.32 277.55Z" fill="black"></path>
    <path d="M0 603.29V623.03V642.77V662.51V702H177.68V662.52V642.78V623.04V603.3V563.82H0V603.29ZM157.94 682.26H19.74V662.52H157.93V682.26H157.94ZM157.94 642.77H19.74V623.03H157.93V642.77H157.94ZM19.74 583.55H157.93V603.29H19.74V583.55Z" fill="black"></path>
    <path d="M197.42 524.32V544.06V563.8V583.54V603.28V623.02V642.76V652.63V702H375.1V652.65V642.78V623.04V603.3V583.56V563.82V544.08V524.34V484.86H197.42V524.32ZM355.35 642.77H256.64V662.51H355.35V682.25H217.16V662.51H236.9V642.77H217.16V623.03H355.35V642.77ZM355.35 603.29H217.16V583.55H355.35V603.29ZM355.35 563.81H217.16V544.07H355.35V563.81ZM217.16 504.58H355.35V524.32H217.16V504.58Z" fill="black"></path>
    <path d="M394.84 445.35V465.09V484.83V494.7V524.31V544.05V563.79V583.53V603.27V623.01V642.75V662.49V702H572.52V662.52V642.78V623.04V603.3V583.56V563.82V544.08V524.34V494.73V484.86V465.1V445.36V405.88H394.84V445.35ZM552.77 682.26H414.58V662.52H552.77V682.26ZM552.77 642.77H414.58V623.03H552.77V642.77ZM552.77 603.29H414.58V583.55H552.77V603.29ZM552.77 563.81H414.58V544.07H552.77V563.81ZM552.77 484.84H533.03V504.58H552.77V524.32H414.58V504.58H513.29V484.84H414.58V465.1H552.77V484.84ZM414.58 425.61H552.77V445.35H414.58V425.61Z" fill="black"></path>
    <path d="M463.94 90C447.61 90 434.33 103.29 434.33 119.61C434.33 135.93 447.62 149.22 463.94 149.22H509.21L363.81 294.62L285.62 245.75L3.77002 467.14L15.97 482.67L286.9 269.85L366.65 319.69L556.86 129.49H463.94C458.49 129.49 454.07 125.06 454.07 119.62C454.07 114.18 458.49 109.75 463.94 109.75H592.26V238.07C592.26 243.51 587.84 247.94 582.39 247.94C576.94 247.94 572.52 243.51 572.52 238.07V155.02L373.38 354.14L285.26 305.19L33.31 506.74L45.65 522.16L287.25 328.88L376.81 378.64L552.77 202.67V238.07C552.77 254.4 566.06 267.68 582.38 267.68C598.71 267.68 611.99 254.39 611.99 238.07V90H463.94Z" fill="black"></path>
    <path d="M59.22 218.32H39.48V238.06H59.22V218.32Z" fill="black"></path>
    <path d="M217.16 218.32H197.42V238.06H217.16V218.32Z" fill="black"></path>
  </symbol>
  <symbol fill="none" xmlns="http://www.w3.org/2000/svg" viewBox="0 0 53 53" id="8">
    <g clip-path="url(#clip0_6_32)">
      <path d="M1.2 26.6L11.6 26.9L11.4 40.5L10.8 41.8H2.1L0.300003 40.9L1.2 26.6Z" fill="#F0BC5E"></path>
      <path d="M41.4 27.5H52.5C52.5 27.5 52.6 34.7 52.6 34.9C52.6 35.1 52.2 41.8 52.2 41.8L41.8 41.4L41.4 27.5Z" fill="#F0BC5E"></path>
      <path d="M27.3 6.9C27.5 7 32.2 9.1 32.2 9.1L34.3 12.7C34.3 12.7 35.1 16.5 35.1 16.7C35.1 16.9 34.7 18.9 34.7 18.9L29.5 19.5L26.4 17.7L24.3 19.5L18.5 19.2V14.9L20.2 9.6C20.3 9.5 24 5.7 27.3 6.9Z" fill="#F0BC5E"></path>
      <path d="M53 27.9C53 32.3 53 36.7 53 41.2C52.5 42.3 51.7 42.6 50.6 42.6C48 42.5 45.3 42.6 42.7 42.6C42.2 42.6 41.6 42.5 41.2 42.1C41.1 42 41 42 40.8 42C40.3 42.2 39.7 42.4 39.2 42.6C39.6 43.7 39.4 44.7 38.6 45.4C38.3 45.7 37.8 45.8 37.5 46.1C37.3 46.5 37.4 47 37.3 47.4C36.9 48.7 35.9 49.3 34.2 49.3C33.6 50.7 32.6 51.3 31.1 51.2C30.7 52.3 30 52.8 29 53.1C28.7 53.1 28.4 53.1 28.1 53.1C27.4 52.7 26.7 52.3 26.1 51.9C25.5 52.3 24.7 52.7 24 53.1C23.7 53.1 23.4 53.1 23.1 53.1C22.5 52.9 21.8 52.6 21.5 52C21.3 51.6 21.3 51 20.9 50.7C20.5 50.4 20 50.3 19.6 50C19.1 49.6 18.8 49.1 18.4 48.6C17.4 48.7 16.5 48.4 15.9 47.5C15.3 46.6 15.3 45.6 15.7 44.6C14.3 43.7 14 42.9 14.3 41C13.7 40.9 13.1 40.7 12.4 40.6C11.9 42 11.5 42.3 9.9 42.3C7.4 42.3 4.8 42.2 2.2 42.3C1.1 42.3 0.300003 42 -0.199997 40.9C-0.199997 36.2 -0.199997 31.4 -0.199997 26.7C0.300003 25.6 1.1 25.3 2.2 25.4C3.4 25.5 4.7 25.4 5.9 25.4C6.2 25.4 6.5 25.4 6.9 25.4C6.9 24.9 6.9 24.4 6.9 23.9C6.9 23.6 6.8 23.4 6.5 23.3C5.5 22.8 5 21.7 5.1 20.6C5.3 19.2 6.4 18.4 7.9 18.4C10.9 18.4 13.8 18.4 16.9 18.4C17.1 18.4 17.3 18.4 17.5 18.4C17.5 17.2 17.5 16 17.5 14.9C16.9 14.7 16.6 14.4 16.6 14C16.6 13.5 16.9 13.2 17.4 13.1C17.5 13 17.6 12.9 17.6 12.7C18.3 9.5 20.4 7.5 23.4 6.5C24 6.3 24.8 6.2 25.4 6C25.4 4.7 25.5 3.5 25.4 2.2C25.3 1.1 25.7 0.300003 26.7 -0.199997C27.9 -0.199997 29.1 -0.199997 30.2 -0.199997C31.2 0.200003 31.7 0.900003 31.6 2C31.5 2.4 31.6 2.8 31.6 3.1C31.7 4.3 31 5 29.7 5C28.9 5 28.1 5 27.2 5C27.2 5.4 27.2 5.6 27.2 5.9C27.4 6 27.6 6 27.8 6C28 6.1 28.2 6.1 28.4 6.1C31.8 7 34.2 9 35 12.6C35.1 12.7 35.2 12.9 35.4 13C35.8 13.2 36 13.4 36 13.8C36 14.2 35.8 14.5 35.4 14.7C35.3 14.8 35.2 14.8 35.2 14.8C35.2 16 35.2 17.1 35.2 18.3C35.4 18.3 35.6 18.3 35.8 18.3C38.7 18.3 41.7 18.3 44.7 18.3C46.1 18.3 47.1 19.1 47.4 20.2C47.8 21.4 47.2 22.6 46 23.3C45.9 23.4 45.8 23.5 45.8 23.6C45.8 24.5 45.8 25.4 45.8 26.2C47.4 26.2 49 26.3 50.6 26.2C51.8 26.4 52.6 26.8 53 27.9ZM28.1 33C27.9 33.2 27.6 33.4 27.4 33.6C26.3 34.6 25.2 35.6 24 36.5C22.5 37.8 20.2 37.4 19.2 35.7C18.4 34.4 18.7 32.8 19.8 31.8C20.5 31.2 21.2 30.5 22 29.7C18.7 29.5 15.5 29.3 12.3 29.1C12.3 32.3 12.3 35.6 12.3 38.7C13.2 38.9 14.2 39.2 15.1 39.4C15.4 39.5 15.6 39.5 15.9 39.3C17.5 38.2 19.6 39.1 20 40.9C20.1 41.2 20.2 41.3 20.5 41.4C21.4 41.6 22 42 22.4 42.9C22.5 43.2 22.6 43.5 22.7 43.8C22.7 43.7 22.8 43.7 22.8 43.7C23.3 44 24 44.2 24.4 44.6C24.8 45 25 45.7 25.3 46.3C27.1 46.6 28 48 27.5 49.8C27.4 49.9 27.5 50.2 27.6 50.2C27.8 50.4 28 50.6 28.2 50.8C28.6 51.1 29 51.1 29.3 50.8C29.7 50.5 29.7 50 29.4 49.6C29.3 49.4 29.1 49.2 28.9 49.1C28.5 48.7 28.5 48.2 28.8 47.8C29.2 47.4 29.7 47.4 30.1 47.9C30.5 48.2 30.7 48.5 31 48.8C31.4 49.2 31.9 49.2 32.3 48.9C32.7 48.5 32.7 48 32.2 47.6C32.1 47.5 32 47.4 31.8 47.2C31 46.4 30.1 45.5 29.3 44.7C28.8 44.2 28.8 43.7 29.1 43.3C29.5 42.9 30 42.9 30.5 43.5C30.7 43.7 31 44 31.2 44.2C32.1 45.1 33 46.1 34 47C34.4 47.4 34.7 47.4 35.1 47.2C35.5 47 35.6 46.6 35.5 46.1C35.4 45.9 35.3 45.7 35.1 45.6C34 44.5 32.9 43.4 31.7 42.2C31.6 42.1 31.5 42 31.5 42C31.1 41.6 31.1 41.1 31.5 40.7C31.9 40.3 32.4 40.3 32.7 40.8C33.6 41.7 34.6 42.6 35.5 43.6C35.6 43.7 35.7 43.8 35.9 44C36.3 44.4 36.8 44.4 37.1 44C37.4 43.6 37.5 43.2 37.1 42.8C36.1 41.7 35 40.6 34 39.5C32.2 37.3 30.2 35.2 28.1 33ZM29.4 31.7C29.5 31.8 29.5 31.8 29.5 31.9C32.3 34.8 35 37.8 37.9 40.8C38 40.9 38.3 40.9 38.4 40.9C39 40.7 39.6 40.4 40.3 40.2C40.6 40.1 40.7 39.9 40.7 39.6C40.7 36.8 40.7 34 40.7 31.2C40.7 30.8 40.6 30.7 40.3 30.6C36.5 29.7 32.6 28.7 28.8 27.8C27.9 27.6 27.1 27.8 26.4 28.4C24.6 30 22.9 31.6 21.2 33.2C21 33.4 20.8 33.7 20.7 34C20.5 34.6 20.8 35.2 21.3 35.5C21.8 35.8 22.4 35.7 22.9 35.3C24.3 34.1 25.7 32.8 27.1 31.6C27.6 31.2 28 30.8 28.5 30.4C28.9 30 29.4 30 29.7 30.4C30 30.8 30.1 31.3 29.6 31.7C29.6 31.7 29.6 31.7 29.4 31.7ZM10.5 27.4C7.6 27.4 4.6 27.4 1.7 27.4C1.7 31.8 1.7 36.2 1.7 40.6C4.6 40.6 7.5 40.6 10.5 40.6C10.5 36.2 10.5 31.8 10.5 27.4ZM42.5 28.3C42.5 32.4 42.5 36.5 42.5 40.6C45.4 40.6 48.4 40.6 51.3 40.6C51.3 36.5 51.3 32.4 51.3 28.3C48.3 28.3 45.4 28.3 42.5 28.3ZM33.5 15.1C28.8 15.1 24.1 15.1 19.4 15.1C19.4 15.7 19.4 16.3 19.4 16.8C19.4 17.4 19.4 18 19.4 18.6C20.2 18.6 20.8 18.5 21.5 18.6C23 18.8 24.2 18.4 25.2 17.4C25.3 17.3 25.3 17.3 25.3 17.3C26.1 16.8 26.8 16.8 27.5 17.3C28 17.7 28.4 18.1 28.9 18.4C29 18.5 29.1 18.6 29.3 18.6C30.7 18.6 32 18.6 33.4 18.6C33.5 17.4 33.5 16.2 33.5 15.1ZM20.4 23.9C20.4 25.3 20.4 26.6 20.4 28C21.1 28.1 21.8 28 22.4 28.1C23.6 28.3 24.4 28 25.2 27.2C26.3 26.1 27.6 25.8 29.1 26.2C29.7 26.3 30.5 26.6 31.1 26.7C31.6 26.8 32.2 26.9 32.7 27.1C32.7 26 32.7 25 32.7 24C28.6 23.9 24.4 23.9 20.4 23.9ZM44.2 23.9C41 23.9 37.7 23.9 34.5 23.9C34.5 25.1 34.5 26.3 34.5 27.4C36.6 27.9 38.6 28.4 40.6 28.9C40.6 28.7 40.6 28.7 40.7 28.5C40.8 27.1 41.3 26.4 42.8 26.4C43.3 26.4 43.7 26.4 44.2 26.4C44.2 25.6 44.2 24.7 44.2 23.9ZM18.5 23.9C18.3 23.9 18.1 23.9 17.9 23.9C15.3 23.9 12.7 23.9 10.1 23.9C8.7 23.9 8.7 23.9 8.8 25.3V25.4C8.7 25.7 8.9 25.8 9.2 25.8C9.7 25.8 10.3 25.8 10.8 25.9C11.6 26 12.2 26.5 12.3 27.3C12.3 27.4 12.4 27.5 12.4 27.7C14.5 27.8 16.5 27.9 18.5 28.1C18.5 26.5 18.5 25.2 18.5 23.9ZM21.4 20.3C21.2 20.3 21.1 20.2 21 20.2C16.7 20.2 12.4 20.2 8.1 20.2C7.5 20.2 7 20.6 7 21.1C7 21.6 7.5 22 8.2 22C11.7 22 15.3 22 18.8 22C19 22 19.2 22 19.3 21.9C19.9 21.5 20.6 21 21.4 20.3ZM31.8 20.3C31.8 20.4 31.7 20.4 31.7 20.4C32.3 20.9 33 21.5 33.7 21.9C33.8 22 33.9 22 34.1 22C37.7 22 41.3 22 44.9 22C45.5 22 45.8 21.6 45.8 21.1C45.8 20.6 45.4 20.3 44.9 20.2C44.8 20.2 44.7 20.2 44.5 20.2C40.4 20.2 36.3 20.2 32.1 20.2C32.1 20.3 32 20.3 31.8 20.3ZM30.9 22C30.8 21.9 30.8 21.9 30.8 21.8C29.4 20.7 28.1 19.7 26.7 18.7C26.6 18.6 26.3 18.6 26.2 18.8C25.5 19.3 24.8 19.9 24.1 20.4C23.5 20.9 22.8 21.5 22 22C25 22 27.9 22 30.9 22ZM28.3 13.3C28.2 12.9 28.2 12.5 28.2 12.2C28 10.9 27.7 9.7 27 8.5C26.6 7.9 26.3 7.9 25.9 8.5C25 10 24.8 11.6 24.7 13.3C25.9 13.3 27.1 13.3 28.3 13.3ZM23.9 8.4C21.8 8.9 19.5 11.5 19.6 13.2C20.7 13.2 21.8 13.2 22.9 13.2C23 12.4 23.1 11.6 23.3 10.8C23.4 10 23.7 9.2 23.9 8.4ZM33.4 13.3C33.2 11.2 31 8.8 29.2 8.5C29.5 10 29.8 11.6 30.2 13.3C31.2 13.3 32.3 13.3 33.4 13.3ZM17.9 46.9C18.2 46.8 18.4 46.7 18.5 46.6C19.2 46 19.9 45.3 20.5 44.6C20.9 44.2 20.8 43.8 20.4 43.4C20.1 43.1 19.6 43 19.2 43.3C18.5 43.9 17.8 44.6 17.2 45.3C17 45.5 17 45.9 17.1 46.2C17.4 46.6 17.7 46.8 17.9 46.9ZM22.5 45.6C22.3 45.7 22 45.7 21.9 45.8C21.4 46.3 20.8 46.7 20.4 47.3C20.1 47.7 20.2 48.1 20.5 48.4C20.9 48.7 21.3 48.8 21.6 48.5C22.1 48 22.6 47.6 23.1 47C23.3 46.8 23.3 46.4 23.2 46.1C23.1 45.9 22.7 45.8 22.5 45.6ZM25.9 49C25.7 48.8 25.5 48.4 25.3 48.3C25 48.2 24.6 48.3 24.4 48.5C23.9 48.9 23.5 49.3 23.2 49.7C22.8 50.1 22.8 50.6 23.1 50.9C23.5 51.3 24 51.3 24.4 50.9C24.8 50.5 25.2 50.1 25.6 49.7C25.6 49.6 25.7 49.3 25.9 49ZM30 1.8C29.1 1.8 28.3 1.8 27.4 1.8C27.4 2.4 27.4 2.9 27.4 3.5C28.3 3.5 29.1 3.5 30 3.5C30 2.9 30 2.4 30 1.8ZM18.3 41.4C18.2 41.3 18.1 40.9 17.8 40.8C17.6 40.7 17.2 40.7 16.9 40.9C16.6 41.1 16.3 41.4 16.1 41.7C16 41.9 15.9 42.3 16 42.6C16.1 42.8 16.5 43 16.8 43.1C17.4 43.1 18.3 42.2 18.3 41.4Z" fill="black"></path>
    </g>
    <defs>
      <clipPath id="clip0_6_32">
        <rect width="53" height="53" fill="white"></rect>
      </clipPath>
    </defs>
  </symbol>
  <symbol fill="none" xmlns="http://www.w3.org/2000/svg" viewBox="0 0 496 496" id="1_Project">
    <g clip-path="url(#clip0_6_37)">
      <path d="M368 352H448V496H368V352Z" fill="#F0BC5E"></path>
      <path d="M48 352H128V496H48V352Z" fill="#F0BC5E"></path>
      <path d="M120 176C124.66 176 129.28 176.67 133.72 177.99L135.54 171.88C137.59 170.74 139.56 169.44 141.34 167.85L137.88 163.99L138.28 162.65C137.62 162.46 136.94 162.38 136.29 162.21L130.66 155.93C127.73 158.55 123.94 160 120 160C111.18 160 104 152.82 104 144C104 135.18 111.18 128 120 128C123.95 128 127.73 129.45 130.66 132.07L141.33 120.15C135.46 114.88 127.88 112 119.99 112C102.34 112 87.99 126.35 87.99 144C87.99 151.96 91.01 159.16 95.85 164.77C78.08 172.04 64.3 187.06 58.72 205.62C51.97 194.65 48 181.79 48 168C48 128.3 80.3 96 120 96C124.83 96 129.69 96.49 134.41 97.45L137.58 81.76C131.82 80.59 125.89 80 120 80C71.48 80 32 119.48 32 168C32 216.52 71.48 256 120 256C125.89 256 131.82 255.41 137.59 254.24L134.42 238.55C129.69 239.51 124.84 240 120.01 240C101.62 240 84.87 233.01 72.13 221.62C73.37 196.27 94.34 176 120 176Z" fill="black"></path>
      <path d="M64 432H48V368H0V48H136V64H16V352H64V432Z" fill="black"></path>
      <path d="M80 352H96V496H80V352Z" fill="black"></path>
      <path d="M32 288H112V304H32V288Z" fill="black"></path>
      <path d="M32 320H112V336H32V320Z" fill="black"></path>
      <path d="M464 168C464 119.48 424.52 80 376 80C370.11 80 364.18 80.59 358.41 81.76L361.58 97.45C366.31 96.49 371.17 96 376 96C415.7 96 448 128.3 448 168C448 181.79 444.03 194.65 437.28 205.62C431.69 187.06 417.91 172.04 400.15 164.77C404.97 159.16 408 151.96 408 144C408 126.35 393.65 112 376 112C368.11 112 360.54 114.89 354.66 120.15L365.33 132.07C368.26 129.45 372.05 128 375.99 128C384.81 128 391.99 135.18 391.99 144C391.99 152.82 384.81 160 375.99 160C372.04 160 368.26 158.55 365.33 155.93L359.7 162.21C359.04 162.39 358.36 162.45 357.71 162.65L358.11 163.99L354.65 167.85C356.43 169.44 358.4 170.74 360.45 171.88L362.27 177.99C366.71 176.67 371.32 176 375.99 176C401.65 176 422.62 196.27 423.87 221.63C411.14 233.01 394.39 240 376 240C371.17 240 366.31 239.51 361.59 238.55L358.42 254.24C364.19 255.41 370.11 256 376.01 256C424.52 256 464 216.52 464 168Z" fill="black"></path>
      <path d="M360 48V64H480V352H432V432H448V368H496V48H360Z" fill="black"></path>
      <path d="M384 288H464V304H384V288Z" fill="black"></path>
      <path d="M384 320H464V336H384V320Z" fill="black"></path>
      <path d="M128 0V320H280.09C280.39 319.68 280.66 319.34 280.97 319.03L288 312V280L268.97 260.97C265.79 257.79 264 253.47 264 248.97C264 239.6 271.6 232 280.97 232H282.05C285.91 232 289.64 233.31 292.65 235.72L321.99 259.2C325.79 262.23 328 266.83 328 271.69V320H368V0H128ZM248 200C203.82 200 168 164.18 168 120C168 75.82 203.82 40 248 40C292.18 40 328 75.82 328 120C328 164.18 292.18 200 248 200Z" fill="#F0BC5E"></path>
      <path d="M248 32C199.48 32 160 71.48 160 120C160 168.52 199.48 208 248 208C296.52 208 336 168.52 336 120C336 71.48 296.52 32 248 32ZM248 48C287.7 48 320 80.3 320 120C320 133.79 316.03 146.65 309.28 157.62C303.69 139.06 289.91 124.04 272.15 116.77C276.97 111.16 280 103.96 280 96C280 78.35 265.65 64 248 64C230.35 64 216 78.35 216 96C216 103.96 219.02 111.16 223.86 116.77C206.09 124.04 192.31 139.06 186.73 157.62C179.97 146.65 176 133.79 176 120C176 80.3 208.3 48 248 48ZM232 96C232 87.18 239.18 80 248 80C256.82 80 264 87.18 264 96C264 104.82 256.82 112 248 112C239.18 112 232 104.82 232 96ZM200.12 173.63C201.37 148.27 222.34 128 248 128C273.66 128 294.63 148.27 295.88 173.63C283.14 185.01 266.39 192 248 192C229.61 192 212.86 185.01 200.12 173.63Z" fill="black"></path>
      <path d="M48 448H64V464H48V448Z" fill="black"></path>
      <path d="M48 480H64V496H48V480Z" fill="black"></path>
      <path d="M112 416H128V432H112V416Z" fill="black"></path>
      <path d="M112 448H128V496H112V448Z" fill="black"></path>
      <path d="M160 240H176V256H160V240Z" fill="black"></path>
      <path d="M192 240H240V256H192V240Z" fill="black"></path>
      <path d="M160 272H240V288H160V272Z" fill="black"></path>
      <path d="M432 448H448V464H432V448Z" fill="black"></path>
      <path d="M432 480H448V496H432V480Z" fill="black"></path>
      <path d="M400 352H416V496H400V352Z" fill="black"></path>
      <path d="M368 416H384V432H368V416Z" fill="black"></path>
      <path d="M368 448H384V496H368V448Z" fill="black"></path>
      <path d="M192 320H208V360H192V320Z" fill="black"></path>
      <path d="M224 320H240V360H224V320Z" fill="black"></path>
      <path d="M336 352V271.69C336 264.36 332.72 257.53 326.99 252.95L297.65 229.47C293.23 225.95 287.7 224.01 282.05 224.01H280.97C267.2 224 256 235.2 256 248.97C256 255.54 258.66 261.98 263.31 266.63L280 283.31V308.69L275.31 313.38C262.86 325.83 256 342.38 256 360H272C272 346.66 277.19 334.12 286.63 324.69L296.01 315.31V276.68L274.63 255.31C272.96 253.64 272 251.33 272 248.97C272 244.02 276.02 240 280.97 240H282.05C284.08 240 286.07 240.7 287.65 241.97L316.99 265.44C318.9 266.97 320 269.24 320 271.69V378.67C320 380.39 319.43 382.1 318.4 383.48L300.81 406.94C297.71 411.06 296 416.17 296 421.34V448H200V421.34C200 416.17 198.29 411.06 195.19 406.94L177.6 383.47C176.56 382.09 176 380.39 176 378.67V320H160V352H112V400H128V368H160V378.66C160 383.83 161.71 388.94 164.81 393.06L182.4 416.54C183.44 417.92 184 419.62 184 421.34V448H168V496H328V448H312V421.34C312 419.62 312.57 417.91 313.6 416.53L331.19 393.07C334.29 388.95 336 383.84 336 378.67V368H368V400H384V352H336ZM312 480H184V464H312V480Z" fill="black"></path>
    </g>
    <defs>
      <clipPath id="clip0_6_37">
        <rect width="496" height="496" fill="white"></rect>
      </clipPath>
    </defs>
  </symbol>
  <symbol fill="none" xmlns="http://www.w3.org/2000/svg" viewBox="0 0 496 496" id="2_Industry">
    <path d="M128 88H208V280H128V88Z" fill="#F0BC5E"></path>
    <path d="M224 376H288V448H224V376Z" fill="#F0BC5E"></path>
    <path d="M304 376H368V448H304V376Z" fill="#F0BC5E"></path>
    <path d="M384 376H448V448H384V376Z" fill="#F0BC5E"></path>
    <path d="M368 184.81V88H288V216H336.81C339.99 200.33 352.33 187.99 368 184.81Z" fill="#F0BC5E"></path>
    <path d="M64 304H80V320H64V304Z" fill="black"></path>
    <path d="M112 304H128V320H112V304Z" fill="black"></path>
    <path d="M160 304H176V320H160V304Z" fill="black"></path>
    <path d="M480 312H416V280H464C481.65 280 496 265.65 496 248C496 232.93 485.52 220.26 471.48 216.88C468.02 193.79 448.05 176 424 176C421.3 176 418.63 176.31 416 176.77V48H384V0H112V16.77C106.4 17.73 100.99 19.64 96 22.57C88.66 18.26 80.46 16 72 16C47.95 16 27.98 33.79 24.52 56.88C10.48 60.26 0 72.93 0 88C0 105.65 14.35 120 32 120H80V272H16V448H0V496H496V448H480V312ZM456 224V232H464C472.82 232 480 239.18 480 248C480 256.82 472.82 264 464 264H336C327.18 264 320 256.82 320 248C320 239.18 327.18 232 336 232H344V224C344 206.35 358.35 192 376 192C382.86 192 389.5 194.27 395.18 198.56L400 202.2L404.82 198.56C410.5 194.27 417.14 192 424 192C441.65 192 456 206.35 456 224ZM400 182.57C392.66 178.26 384.46 176 376 176C355.15 176 337.4 189.39 330.79 208H272V224H314.9C308.23 229.87 304 238.44 304 248C304 265.65 318.35 280 336 280H400V312H256V64H400V182.57ZM368 48H256V16H368V48ZM240 16V48H128V16H240ZM32 104C23.18 104 16 96.82 16 88C16 79.18 23.18 72 32 72H40V64C40 46.35 54.35 32 72 32C78.86 32 85.5 34.27 91.18 38.56L96 42.2L100.82 38.56C104.24 35.98 108.03 34.22 112 33.16V48H80V104H32ZM96 64H240V312H224V272H96V64ZM32 288H208V360H432V344H224V328H464V344H448V360H464V448H176V336H160V448H128V336H112V448H80V336H64V448H32V288ZM480 480H16V464H480V480Z" fill="black"></path>
    <path d="M112 80H224V96H112V80Z" fill="black"></path>
    <path d="M112 144H224V160H112V144Z" fill="black"></path>
    <path d="M112 208H224V224H112V208Z" fill="black"></path>
    <path d="M128 112H144V128H128V112Z" fill="black"></path>
    <path d="M160 112H176V128H160V112Z" fill="black"></path>
    <path d="M192 112H208V128H192V112Z" fill="black"></path>
    <path d="M128 176H144V192H128V176Z" fill="black"></path>
    <path d="M160 176H176V192H160V176Z" fill="black"></path>
    <path d="M192 176H208V192H192V176Z" fill="black"></path>
    <path d="M128 240H144V256H128V240Z" fill="black"></path>
    <path d="M160 240H176V256H160V240Z" fill="black"></path>
    <path d="M192 240H208V256H192V240Z" fill="black"></path>
    <path d="M272 80H384V96H272V80Z" fill="black"></path>
    <path d="M272 144H384V160H272V144Z" fill="black"></path>
    <path d="M288 112H304V128H288V112Z" fill="black"></path>
    <path d="M320 112H336V128H320V112Z" fill="black"></path>
    <path d="M352 112H368V128H352V112Z" fill="black"></path>
    <path d="M288 176H304V192H288V176Z" fill="black"></path>
    <path d="M320 176H336V192H320V176Z" fill="black"></path>
  </symbol>
  <symbol fill="none" xmlns="http://www.w3.org/2000/svg" viewBox="0 0 496 496" id="3_Employe">
    <g clip-path="url(#clip0_6_96)">
      <path d="M216 336H280V368H216V336Z" fill="#F0BC5E"></path>
      <path d="M304 88C304 118.93 278.93 144 248 144C217.07 144 192 118.93 192 88C192 57.07 217.07 32 248 32C278.93 32 304 57.07 304 88Z" fill="#F0BC5E"></path>
      <path d="M288 88H304C304 57.13 278.87 32 248 32V48C270.05 48 288 65.95 288 88Z" fill="black"></path>
      <path d="M467.5 385.5L416 370.05V357.89C430.49 347.76 440 330.98 440 312V288C440 257.13 414.87 232 384 232C380.8 232 377.68 232.33 374.62 232.85C370.83 217.99 358.83 206.21 343.16 203.35L288 193.32V175.57C288 170.15 290.64 165.11 294.89 162.43C320.63 146.2 336 118.38 336 88C336 63.01 325.31 39.11 306.68 22.43C288.07 5.74999 263 -2.18001 238 0.559987C198.68 4.89999 166.23 36.45 160.86 75.57C156.05 110.46 171.49 143.75 201.11 162.44C205.36 165.12 208 170.24 208 176.01V193.33L152.83 203.36C137.16 206.22 125.17 218 121.37 232.86C118.32 232.34 115.19 232.01 111.99 232.01C81.12 232.01 55.99 257.14 55.99 288.01V312.01C55.99 330.99 65.5 347.76 79.99 357.9V370.06L28.5 385.5C11.46 390.61 0 406.01 0 423.82V496H224V423.82C224 418.21 222.75 412.89 220.66 408H275.35C273.25 412.89 272.01 418.2 272.01 423.82V496H496.01V423.82C496 406.02 484.54 390.61 467.5 385.5ZM400 373.79C398.02 376.85 392.5 384 384 384C375.5 384 369.98 376.86 368 373.79V365.64C373.07 367.16 378.44 368 384 368C389.56 368 394.93 367.16 400 365.64V373.79ZM424 288V312C424 334.05 406.05 352 384 352C361.95 352 344 334.05 344 312V288C344 265.95 361.95 248 384 248C406.05 248 424 265.95 424 288ZM359.43 237.75C340.86 246.88 328 265.95 328 288V312C328 330.98 337.51 347.75 352 357.89V370.05L312 382.05V296H278.56L272.27 264.51L276.88 250.65L293.96 260.9L302.09 212.14L340.29 219.09C350.04 220.86 357.46 228.38 359.43 237.75ZM287.82 392H208.19C205.69 390.11 202.96 388.53 200.01 387.25V312H296.01V387.25C293.05 388.53 290.31 390.11 287.82 392ZM272 184V196L248 214L224 196V184H272ZM240 104C240 99.59 243.59 96 248 96C252.41 96 256 99.59 256 104C256 108.41 252.41 112 248 112C243.59 112 240 108.41 240 104ZM262.32 223.26L282 208.5L286.34 209.29L282.04 235.1L262.32 223.26ZM214 208.5L233.68 223.26L213.96 235.09L209.66 209.28L214 208.5ZM248 233.34L262.82 242.23L258.23 256H237.76L233.17 242.23L248 233.34ZM238.56 272H257.45L262.25 296H233.77L238.56 272ZM176.7 77.74C181.1 45.78 207.61 20.01 239.76 16.46C260.59 14.15 280.56 20.51 296.01 34.34C311.26 47.99 320 67.55 320 88C320 112.85 307.43 135.62 286.36 148.89C279.54 153.19 274.82 159.97 272.93 168H256V126.53C265.29 123.22 272 114.42 272 104C272 90.77 261.23 80 248 80C234.77 80 224 90.77 224 104C224 114.41 230.71 123.21 240 126.53V168H223.05C221.13 160.09 216.35 153.14 209.64 148.89C185.4 133.6 172.78 106.34 176.7 77.74ZM155.7 219.09L193.91 212.14L202.04 260.9L219.12 250.65L223.73 264.51L217.44 296H184V382.05L144 370.05V357.89C158.49 347.76 168 330.98 168 312V288C168 265.95 155.14 246.88 136.57 237.75C138.54 228.38 145.96 220.86 155.7 219.09ZM72 312V288C72 265.95 89.95 248 112 248C134.05 248 152 265.95 152 288V312C152 334.05 134.05 352 112 352C89.95 352 72 334.05 72 312ZM112 368C117.56 368 122.93 367.16 128 365.64V373.79C126.02 376.85 120.5 384 112 384C103.5 384 97.98 376.86 96 373.79V365.64C101.07 367.16 106.44 368 112 368ZM208 480H176V424H160V480H64V424H48V480H16V423.82C16 413.13 22.87 403.9 33.11 400.83L84.62 385.37C89.27 391.41 98.28 400 112 400C125.72 400 134.73 391.41 139.38 385.37L190.89 400.83C200.96 403.85 208 413.3 208 423.82V480ZM480 480H448V424H432V480H336V424H320V480H288V423.82C288 413.13 294.87 403.9 305.11 400.83L356.62 385.37C361.27 391.41 370.28 400 384 400C397.72 400 406.73 391.41 411.38 385.37L462.89 400.83C472.96 403.85 480 413.3 480 423.82V480Z" fill="black"></path>
      <path d="M216 328H280V344H216V328Z" fill="black"></path>
      <path d="M216 360H280V376H216V360Z" fill="black"></path>
    </g>
    <defs>
      <clipPath id="clip0_6_96">
        <rect width="496" height="496" fill="white"></rect>
      </clipPath>
    </defs>
  </symbol>
</svg>