<?xml version="1.0" encoding="UTF-8"?> <svg width="0" height="0" class="hidden"><symbol xmlns="http://www.w3.org/2000/svg" xmlns:xlink="http://www.w3.org/1999/xlink" version="1.1" id="logistics-distribution" x="0px" y="0px" xml:space="preserve" viewBox="0 0 200 200.25"> <g> <path d="M149.49,145.84c0,4.66,0,9.02,0,13.48c11.31,0,22.45,0,33.84,0c0-4.39,0-8.8,0-13.43 c3.73,0,7.25-0.11,10.75,0.05c1.92,0.09,2.91,1.63,2.92,4c0.02,6.65,0.01,13.3,0.01,19.95c0,8.63,0.01,17.26,0,25.89 c0,3.3-1.15,4.42-4.49,4.42c-17.4,0.01-34.8,0.01-52.2,0c-3.32,0-4.44-1.13-4.44-4.47c-0.01-15.14-0.01-30.27,0-45.41 c0-3.33,1.12-4.45,4.44-4.46C143.27,145.84,146.23,145.84,149.49,145.84z M176.55,186.77c-2.37,0-4.51,0-6.6,0 c0,2.26,0,4.35,0,6.49c2.25,0,4.39,0,6.6,0C176.55,191.04,176.55,188.96,176.55,186.77z M190.12,186.72c-2.33,0-4.42,0-6.57,0 c0,2.25,0,4.39,0,6.53c2.27,0,4.41,0,6.57,0C190.12,191.01,190.12,188.92,190.12,186.72z"></path> <path d="M94.87,179.81c-1.46,4.7-3.85,8.48-7.1,11.69c-5.62,5.56-12.43,8.58-20.35,8.65 c-12.94,0.11-25.89,0.14-38.83,0c-15.4-0.17-28.28-13.13-28.58-28.51c-0.03-1.69,0-3.39,0-5.25c0.58-0.06,1.12-0.16,1.65-0.16 c6.08-0.01,12.17,0.03,18.25-0.04c1.32-0.02,2.02,0.38,2.59,1.58c1.59,3.39,3.41,6.67,4.95,10.08c0.68,1.51,1.5,2.01,3.18,2 c20.51-0.07,41.02-0.04,61.53-0.04C92.93,179.81,93.71,179.81,94.87,179.81z"></path> <path d="M125.41,98.22c-18,0-35.87,0-54.02,0c0.22-11.38,1.18-22.58,3.43-33.78c15.77,0,31.51,0,47.24,0 C123.87,70.41,126.09,92.68,125.41,98.22z M95.18,91.33c2.37,0,4.51,0,6.6,0c0-2.26,0-4.35,0-6.49c-2.25,0-4.39,0-6.6,0 C95.18,87.06,95.18,89.15,95.18,91.33z M115.38,91.42c0-2.32,0-4.41,0-6.59c-2.24,0-4.38,0-6.55,0c0,2.26,0,4.4,0,6.59 C111.06,91.42,113.15,91.42,115.38,91.42z M88.23,84.86c-2.34,0-4.48,0-6.6,0c0,2.25,0,4.34,0,6.51c2.24,0,4.38,0,6.6,0 C88.23,89.17,88.23,87.08,88.23,84.86z"></path> <path d="M70.98,105.17c18.56,0,36.45,0,54.33,0c0.91,3.52-1.05,24.64-3.17,33.78c-0.56,0.03-1.18,0.1-1.79,0.1 c-12.52,0.01-25.05-0.01-37.57,0.03c-1.25,0-1.85-0.42-2.66-1.43c-1.41-1.76-3.34-3.09-5.05-4.61c-0.53-0.47-1.44-0.92-1.5-1.46 C72.66,122.87,71.84,114.15,70.98,105.17z M88.21,112c-2.25,0-4.39,0-6.54,0c0,2.27,0,4.4,0,6.51c2.29,0,4.43,0,6.54,0 C88.21,116.26,88.21,114.17,88.21,112z M101.86,112.01c-2.33,0-4.47,0-6.6,0c0,2.27,0,4.41,0,6.49c2.29,0,4.44,0,6.6,0 C101.86,116.3,101.86,114.26,101.86,112.01z M115.44,112.06c-2.2,0-4.39,0-6.6,0c0,2.21,0,4.35,0,6.46c2.29,0,4.43,0,6.6,0 C115.44,116.31,115.44,114.27,115.44,112.06z"></path> <path d="M0,30.82C-0.02,16.47,10.28,4.92,24.52,3.29c13.34-1.52,26.11,7.69,29.15,21.21 c1.62,7.24,0.84,14.32-3.19,20.62c-6.7,10.47-13.69,20.75-20.61,31.08c-1.5,2.24-3.87,2.25-5.37,0.01 C17.54,65.82,10.58,55.44,3.76,44.96C1.05,40.81,0.01,36.11,0,30.82z M27.29,9.99C16.08,9.94,6.85,19.06,6.8,30.24 c-0.05,11.21,9.07,20.44,20.26,20.49c11.22,0.05,20.44-9.06,20.49-20.26C47.6,19.25,38.49,10.04,27.29,9.99z"></path> <path d="M176.46,105.22c-0.53,11.7-3.51,22.63-8.94,32.89c-0.23,0.44-0.93,0.9-1.42,0.9 c-12.16,0.04-24.32,0.01-36.48-0.01c-0.12,0-0.25-0.11,0.01,0.01c1.09-11.3,2.17-22.46,3.27-33.79 C147.17,105.22,161.76,105.22,176.46,105.22z"></path> <path d="M64.32,105.25c0.71,8.99,1.42,17.85,2.13,26.9c-0.44,0.03-1.05,0.1-1.66,0.1 c-12.09,0.01-24.18-0.02-36.27,0.04c-1.4,0.01-2.11-0.35-2.64-1.72c-3.15-8.1-4.99-16.46-5.4-25.32 C35.13,105.25,49.72,105.25,64.32,105.25z"></path> <path d="M20.31,98.15c0.67-4.92,1.32-9.69,1.98-14.55c6.68,2.14,10.22,0.91,13.85-4.53c2.98-4.47,5.93-8.96,8.98-13.37 c0.44-0.63,1.37-1.3,2.09-1.31c6.57-0.1,13.15-0.06,19.72-0.05c0.27,0,0.55,0.09,0.74,0.12c-0.74,5.65-1.62,11.24-2.17,16.85 c-0.54,5.55-0.74,11.13-1.1,16.84C49.85,98.15,35.26,98.15,20.31,98.15z"></path> <path d="M163.1,57.88c8.21,12.1,12.64,25.48,13.37,40.28c-14.64,0-29.18,0-43.6,0c-1.07-11.21-2.15-22.43-3.23-33.73 c2.16-0.1,4.56-0.52,6.85,1.59c2.41,2.21,5.57,2.1,8.78,0.97c3.32,6.62,6.61,13.17,10.04,20.01c1.1-1.08,2.09-2.03,3.07-3 c2.41-2.4,4.75-4.86,7.23-7.18c0.98-0.91,1.12-1.77,0.8-2.97c-1.23-4.72-2.39-9.45-3.57-14.18c-0.13-0.53-0.2-1.07-0.3-1.61 C162.72,58,162.91,57.94,163.1,57.88z"></path> <path d="M183.35,6.59c3.84,0.23,7.3,2.27,9.22,6.43c1.88,4.08,1.51,8.2-1.51,11.51 c-13.66,14.93-28.86,27.86-47.79,35.76c-0.93,0.39-2.59,0.38-3.18-0.19c-0.57-0.56-0.59-2.25-0.2-3.16 c5.88-13.63,14-25.79,24.31-36.46c3.44-3.56,6.96-7.03,10.48-10.51C177.04,7.63,179.62,6.58,183.35,6.59z M185.67,19.16 c-1.58-1.53-3.12-3.02-4.62-4.48c-1.51,1.49-3.05,3-4.34,4.26c1.43,1.6,2.9,3.24,4.17,4.66C182.51,22.09,184.05,20.67,185.67,19.16 z M166.78,28.76c1.59,1.63,3.05,3.13,4.61,4.72c1.51-1.64,2.97-3.23,4.29-4.66c-1.32-1.45-2.81-3.09-4.2-4.61 C169.87,25.77,168.36,27.23,166.78,28.76z M166.16,38.44c-1.46-1.46-2.98-2.98-4.48-4.48c-1.35,1.3-2.81,2.7-4.25,4.08 c1.59,1.62,3.09,3.16,4.5,4.59C163.43,41.15,164.86,39.73,166.16,38.44z"></path> <path d="M76.37,57.43c2.71-9.96,5.74-19.58,12.16-27.68c6.54-8.24,13.56-8.25,20.04,0.05c2.15,2.76,3.86,5.9,5.54,8.99 c1.72,3.16,1.6,3.23-0.62,5.92c0.05,0.12,0.08,0.33,0.16,0.35c3.88,1.03,4.92,4.18,5.7,7.56c0.36,1.57,0.85,3.11,1.32,4.81 C105.87,57.43,91.27,57.43,76.37,57.43z"></path> <path d="M101.82,178.69c0-1.82,0-3.64,0-5.67c-4.33,0-8.55-0.05-12.77,0.03c-1.42,0.03-2.25-0.31-2.93-1.72 c-3.18-6.61-6.52-13.14-9.66-19.42c1.5-1.96,2.82-3.74,4.22-5.47c0.25-0.32,0.79-0.57,1.2-0.57c12.86-0.03,25.71-0.02,38.91-0.02 c-3.94,12.49-7.01,25.12-18.23,33.19C102.31,178.92,102.07,178.81,101.82,178.69z"></path> <path d="M20.48,159.43c0-2.3,0-4.39,0-6.79c0.67,0,1.34,0,2.02,0c14.91,0,29.83,0.02,44.75-0.03 c1.46,0,2.24,0.4,2.89,1.77c2.69,5.6,5.53,11.12,8.3,16.68c0.28,0.55,0.5,1.13,0.83,1.87c-0.81,0.04-1.42,0.09-2.02,0.09 c-14.21,0-28.42-0.02-42.62,0.04c-1.49,0.01-2.25-0.44-2.87-1.8c-1.5-3.27-3.3-6.41-4.76-9.69c-0.74-1.66-1.66-2.44-3.5-2.16 C22.54,159.55,21.55,159.43,20.48,159.43z M34.05,166.07c2.34,0,4.48,0,6.61,0c0-2.25,0-4.34,0-6.51c-2.24,0-4.38,0-6.61,0 C34.05,161.76,34.05,163.85,34.05,166.07z M47.64,166.07c2.34,0,4.48,0,6.6,0c0-2.25,0-4.34,0-6.51c-2.24,0-4.38,0-6.6,0 C47.64,161.76,47.64,163.85,47.64,166.07z M61.26,159.54c0,2.25,0,4.39,0,6.54c2.27,0,4.41,0,6.51,0c0-2.29,0-4.43,0-6.54 C65.52,159.54,63.43,159.54,61.26,159.54z"></path> <path d="M50.52,57.53c1.63-2.46,2.97-4.53,4.36-6.57c3.33-4.88,5.38-10.22,5.98-16.11c0.07-0.74,0.48-1.76,1.05-2.07 c6.6-3.6,13.6-6.13,21.13-7.62c-0.03,0.33,0.01,0.55-0.08,0.66c-6.61,8.73-10.28,18.78-12.91,29.25c-0.48,1.91-1.18,2.59-3.22,2.52 C61.54,57.42,56.25,57.53,50.52,57.53z"></path> <path d="M44.37,139.05c8.77,0,17.55-0.01,26.32,0.01c2.41,0,3.88,1.21,4.01,3.18c0.13,1.97-1.37,3.53-3.59,3.59 c-2.55,0.06-5.09,0.02-7.64,0.02c-15.14,0-30.28,0.02-45.42-0.03c-1.07,0-2.52-0.17-3.11-0.85c-0.75-0.87-1.21-2.39-1.06-3.54 c0.22-1.62,1.66-2.36,3.33-2.36c5.52-0.01,11.04-0.01,16.56-0.01C37.3,139.05,40.83,139.05,44.37,139.05z"></path> <path d="M196.95,64.13c-6.02-6.05-11.94-12.01-17.99-18.09c4.04-3.87,8.14-7.79,12.39-11.87 c0.31,0.77,0.62,1.43,0.85,2.12c2.34,7.02,4.66,14.05,7,21.07C200.51,61.31,200.51,61.31,196.95,64.13z"></path> <path d="M166.13,8.73c-4.14,4.34-8.03,8.41-11.81,12.36c-5.98-6-11.95-11.99-18.48-18.54c0.83-0.64,1.9-1.52,3.04-2.32 c0.29-0.2,0.81-0.29,1.14-0.18C148.65,2.89,157.27,5.77,166.13,8.73z"></path> <path d="M113.68,178.65c2.33-3.98,4.74-7.2,6.21-10.79c2.75-6.71,5-13.63,7.35-20.5c0.43-1.26,0.82-1.87,1.83-1.45 c0,8.63-0.05,17.09,0.04,25.56c0.02,1.59-0.39,2.43-1.96,2.9C122.79,175.68,118.46,177.12,113.68,178.65z"></path> <path d="M176.53,145.99c0,2.25,0,4.34,0,6.54c-6.71,0-13.33,0-20.11,0c0-2.1,0-4.24,0-6.54 C163.03,145.99,169.69,145.99,176.53,145.99z"></path> <path d="M142.19,37.64c-0.58-0.1-1.16-0.16-1.73-0.3c-4.39-1.08-8.8-2.08-13.14-3.31c-1.91-0.54-3.36-0.51-4.57,1.22 c-0.43,0.61-1.09,1.07-1.68,1.63c-2.34-3.9-4.61-7.68-7-11.66C124.4,27.27,133.77,31.26,142.19,37.64z"></path> <path d="M124.8,43.11c1.07-1.9,2.33-2.27,4.2-1.7c3.08,0.96,6.25,1.64,9.59,2.5c-0.83,1.64-1.55,3.07-2.44,4.84 C132.38,46.88,128.65,45.02,124.8,43.11z"></path> <path d="M151.42,64.07c1.69-0.87,3.16-1.63,4.85-2.5c0.99,3.9,2.04,7.54,2.75,11.23c0.15,0.76-0.95,1.76-1.7,3.03 C155.23,71.66,153.38,67.97,151.42,64.07z"></path> <path d="M126.1,51.35c2.63,1.32,4.8,2.41,7.09,3.56c-0.51,1.11,0.08,2.83-1.99,2.62c-1.61-0.16-3.82,0.91-4.09-2.07 C127,54.23,126.53,53.04,126.1,51.35z"></path> <path d="M40.75,30.36c0,7.5-6.13,13.6-13.64,13.58c-7.49-0.03-13.57-6.18-13.52-13.69c0.05-7.4,6.12-13.45,13.53-13.47 C34.64,16.76,40.75,22.86,40.75,30.36z"></path> </g> </symbol><symbol xmlns="http://www.w3.org/2000/svg" xmlns:xlink="http://www.w3.org/1999/xlink" version="1.1" id="travel-hospitality" x="0px" y="0px" xml:space="preserve" viewBox="0 0 200 194.28"> <g> <path d="M200,139.96c-0.9,4.27-1.81,8.53-2.72,12.79c-0.11,0.51-0.33,0.99-0.45,1.5c-0.41,1.7-1.41,2.57-3.1,3.32 c-4.16,1.84-8.13,4.15-12.2,6.21c-2.84,1.44-5.7,2.85-8.61,4.13c-0.86,0.38-1.92,0.38-2.89,0.39c-4.17,0.01-6.58-2.72-5.61-6.77 c0.79-3.29,2.2-6.42,3.11-9.69c1.25-4.45,2.83-8.9,3.28-13.45c0.75-7.48-2.81-13.21-9.25-16.87c-2.8-1.59-6.05-2.37-9.06-3.61 c-2.63-1.09-5.25-2.25-7.78-3.56c-0.48-0.25-0.84-1.44-0.69-2.05c0.9-3.47,1.21-6.93,0.7-10.5c-0.09-0.62,0.3-1.58,0.8-1.96 c1.72-1.29,3.49-2.56,5.4-3.53c6.73-3.4,13.49-6.71,18.55-12.64c12.46,7.02,21.44,16.95,26.41,30.18 c1.82,4.84,2.54,10.1,3.76,15.17c0.09,0.37,0.23,0.73,0.34,1.09C200,133.41,200,136.68,200,139.96z"></path> <path d="M132.85,117.4c-2.16-4.3-4.24-8.44-6.31-12.59c-6.29-12.58-12.57-25.16-18.86-37.73 c-1.9-3.79-4.14-4.2-7.13-1.19C90.42,76.06,78.63,84.12,67.01,92.4c-1.06,0.75-2.35,1.52-2.86,2.6c-0.69,1.44-1.19,3.26-0.96,4.8 c0.52,3.41,1.56,6.75,2.38,10.11c0.61,2.49,0.61,2.49-1.2,4.12c-8.97-8.97-17.92-17.93-26.99-26.99c0.69-1.32,1.9-1.94,3.91-1.32 c3.12,0.95,6.34,1.59,9.5,2.43c3.2,0.86,5.63-0.15,7.51-2.79c3.77-5.27,7.36-10.69,11.38-15.76c5.04-6.35,10.37-12.48,15.72-18.58 c3.01-3.44,2.8-5.37-1.25-7.4C68.13,35.6,52.1,27.59,36.08,19.58c-0.63-0.32-1.25-0.67-2.08-1.13c2.72-2.97,5.96-4.69,9.75-5 c2.3-0.19,4.76-0.05,6.98,0.55c17.37,4.64,34.71,9.38,52.03,14.19c2.92,0.81,5.14,0.29,7.27-1.88 c5.31-5.43,10.67-10.82,16.16-16.07c5.19-4.95,11.07-8.78,18.33-10.02c0.52-0.09,1.04-0.19,1.56-0.19 c5.67,0.01,5.71-0.86,4.94,5.55c-0.78,6.41-3.77,12.06-7.91,16.84c-6.42,7.42-13.19,14.55-20,21.62c-2.46,2.55-3.01,4.95-1.87,8.3 c5.44,15.96,10.72,31.98,16.03,47.99C139.31,106.49,137.6,113.2,132.85,117.4z"></path> <path d="M190.62,166.3c-3.4,6.34-8.07,11.49-13.73,15.71c-0.48,0.36-1.48,0.23-2.17,0.06 c-10.31-2.64-20.69-3.1-31.12-0.83c-6.96,1.51-13.15,4.73-18.62,9.26c-1.06,0.88-1.94,1.1-3.16,0.54 c-2.91-1.33-5.87-2.55-8.75-3.94c-0.47-0.23-0.99-1.23-0.86-1.7c1.58-5.54,1.9-11.12,0.48-16.69c-1.63-6.37,0.31-12.09,2.5-17.92 c1.36-3.65,2.37-7.48,3.07-11.31c0.91-4.96-1.79-9.69-6.55-11.49c-3.4-1.29-7-2.13-10.56-2.91c-7.05-1.55-11.3-5.94-13.35-12.67 c-0.22-0.71-0.35-1.65-0.06-2.27c2.79-6.05,6.49-11.47,11.46-16.34c1.19,3.39,3.23,6.07,6.7,6.25c3.09,0.16,6.24-0.76,9.37-1.2 c0.04-0.22,0.08-0.43,0.12-0.65c0.33,0.61,0.68,1.2,0.99,1.82c3.34,6.66,6.93,13.22,9.93,20.03c2.16,4.9,7.81,6.99,12.18,1.67 c0.5-0.6,1.04-1.17,1.69-1.9c3.91,3.12,8.56,4.39,13.26,5.59c0.88,0.22,1.74,0.58,2.57,0.95c6.54,2.9,9.25,7.96,7.56,14.94 c-0.95,3.92-2.6,7.66-3.82,11.52c-0.86,2.73-1.88,5.48-2.22,8.3c-1.09,9.13,5.78,15.44,14.91,14.05c4.31-0.66,8.11-2.44,11.72-4.76 C186.32,169.02,188.47,167.66,190.62,166.3z"></path> <path d="M0,134.11c0.24-16.74,4.82-31.48,12.18-45.45c4.32-8.2,9.54-15.79,15.74-22.69c0.18-0.2,0.35-0.39,0.53-0.58 c1.65-1.74,3.68-1.98,5.2-0.62c1.57,1.4,1.62,3.39-0.02,5.22c-5.19,5.77-9.69,12.03-13.49,18.78c-7.88,14-13.13,28.82-13.1,45.08 c0.03,19.76,8.59,35.13,24.82,46.21c3.71,2.53,7.8,4.51,11.72,6.74c0.62,0.35,1.31,0.61,1.92,0.99c1.68,1.03,2.26,2.92,1.44,4.57 c-0.78,1.57-2.64,2.4-4.34,1.62C20.1,183.76,4.17,168.17,0.65,142.49c-0.13-0.97-0.27-1.95-0.34-2.92 C0.17,137.48,0.07,135.39,0,134.11z"></path> <path d="M105.71,182.19c-18.84-12.94-27.95-39.15-21.81-60.87c0.12,0.03,0.31,0.01,0.35,0.08 c3.9,6.26,9.74,9.44,16.84,10.73c2.37,0.43,4.75,1,7.01,1.81c2.99,1.06,3.97,2.72,3.12,5.8c-1.31,4.78-2.85,9.5-4.5,14.17 c-1.85,5.24-1.97,10.5-0.81,15.85C106.8,173.9,106.92,178.02,105.71,182.19z"></path> <path d="M36.16,111.06c3.19-0.01,4.87,2.56,3.84,4.84c-0.19,0.41-0.46,0.79-0.76,1.13 c-8.18,9.45-9.52,20.22-5.99,31.84c3.53,11.6,11.18,20.1,20.75,27.11c0.58,0.42,1.19,0.81,1.77,1.24c2.05,1.51,2.52,3.51,1.25,5.23 c-1.2,1.63-3.33,1.95-5.2,0.44c-4.22-3.41-8.6-6.69-12.39-10.53c-7.37-7.48-12.28-16.42-14.16-26.86 c-2.2-12.17,0.32-23.15,8.48-32.62C34.51,111.98,35.65,111.43,36.16,111.06z"></path> <path d="M49.62,145.44c0.07-6.05,1.31-11.25,5.16-15.53c1.58-1.76,3.73-1.99,5.2-0.61c1.3,1.23,1.74,2.86,0.66,4.26 c-6.7,8.68-4.2,17.29,0.26,25.73c1.53,2.9,3.91,5.38,5.99,7.97c1.51,1.88,1.54,4.06-0.11,5.37c-1.39,1.11-3.27,1.08-4.64-0.32 C54.68,164.71,49.97,155.84,49.62,145.44z"></path> <path d="M162.75,80.53c-5.73,6.27-13.77,8.23-20.48,12.77c-1.58-4.72-3.28-9.3-4.51-14.02 c-0.18-0.69,1.88-2.8,2.96-2.84C148.25,76.17,155.52,77.62,162.75,80.53z"></path> <path d="M133.05,193.48c10.54-7.32,22.26-7.54,34.32-5.72C156.57,193.39,145.13,195.27,133.05,193.48z"></path> <path d="M134.96,71.38c-1.11-3.34-2.18-6.36-3.09-9.42c-0.17-0.58,0.14-1.44,0.49-1.99c0.45-0.7,1.15-1.25,1.78-1.82 c1.2-1.09,2.43-1.18,3.64,0c1.17,1.15,2.34,2.29,3.47,3.47c1,1.05,1.17,2.28,0.17,3.34C139.4,67.08,137.27,69.09,134.96,71.38z"></path> <path d="M81.51,15.15c1.82-1.9,3.36-3.74,5.17-5.26c0.55-0.46,2.14-0.39,2.78,0.09c1.5,1.11,2.88,2.49,3.98,4 c0.47,0.64,0.38,1.97,0.09,2.83c-0.37,1.06-1.3,1.34-2.55,0.96C87.93,16.82,84.83,16.05,81.51,15.15z"></path> <path d="M40.25,62.41c-1.88-0.08-3.45-1.78-3.34-3.64c0.1-1.89,1.81-3.42,3.68-3.29c1.81,0.12,3.3,1.74,3.25,3.53 C43.8,60.88,42.1,62.49,40.25,62.41z"></path> <path d="M108.82,84.9c1.13,2.25,2.26,4.49,3.55,7.06c-1.49,0.46-2.85,1.01-4.26,1.29c-1.61,0.31-2.45-0.54-2-2.15 c0.58-2.11,1.45-4.14,2.19-6.21C108.47,84.89,108.65,84.9,108.82,84.9z"></path> <path d="M66.53,43.03c-2,0.74-3.96,1.61-6,2.17c-1.9,0.52-2.77-0.42-2.39-2.31c0.14-0.7,0.4-1.37,0.65-2.05 c0.2-0.54,0.45-1.05,0.77-1.78c2.36,1.17,4.62,2.29,6.87,3.41C66.46,42.67,66.5,42.85,66.53,43.03z"></path> </g> </symbol><symbol xmlns="http://www.w3.org/2000/svg" xmlns:xlink="http://www.w3.org/1999/xlink" version="1.1" id="real-estate" x="0px" y="0px" xml:space="preserve" viewBox="0 0 200 200"> <g> <path d="M0,188.28c5.52,0,11.03,0,16.73,0c0-16.24,0-32.29,0-48.49c28.64,0,57.1,0,85.77,0c0,16.08,0,32.13,0,48.31 c3.83,0,7.44,0,11.28,0c0-39.16,0-78.37,0-117.84c9.42,0,18.62,0,28.04,0c0-6.46,0-12.67,0-19c3.98,0,7.72,0,11.69,0 c0,6.19,0,12.4,0,18.82c9.96,0,19.69,0,29.6,0c0,39.43,0,78.65,0,118.19c5.75,0,11.31,0,16.88,0c0,3.91,0,7.81,0,11.72 c-66.67,0-133.33,0-200,0C0,196.09,0,192.19,0,188.28z M65.47,167.9c0,6.9,0,13.56,0,20.24c3.89,0,7.63,0,11.4,0 c0-6.82,0-13.53,0-20.24C73,167.9,69.31,167.9,65.47,167.9z M142.88,167.92c0,6.82,0,13.53,0,20.2c3.91,0,7.66,0,11.41,0 c0-6.8,0-13.46,0-20.2C150.42,167.92,146.69,167.92,142.88,167.92z M141.39,110.86c0-3.89,0-7.67,0-11.49c-3.69,0-7.23,0-10.8,0 c0,3.9,0,7.69,0,11.49C134.26,110.86,137.8,110.86,141.39,110.86z M166.83,110.9c0-3.94,0-7.68,0-11.5c-3.69,0-7.28,0-10.83,0 c0,3.93,0,7.72,0,11.5C159.65,110.9,163.15,110.9,166.83,110.9z M141.44,120.48c-3.79,0-7.33,0-10.84,0c0,3.92,0,7.71,0,11.45 c3.7,0,7.24,0,10.84,0C141.44,128.07,141.44,124.33,141.44,120.48z M166.83,131.99c0-3.94,0-7.68,0-11.5c-3.7,0-7.28,0-10.82,0 c0,3.93,0,7.72,0,11.5C159.66,131.99,163.15,131.99,166.83,131.99z M130.5,153.01c3.77,0,7.36,0,10.92,0c0-3.89,0-7.63,0-11.4 c-3.71,0-7.3,0-10.92,0C130.5,145.46,130.5,149.15,130.5,153.01z M166.76,153.09c0-3.97,0-7.75,0-11.52c-3.71,0-7.25,0-10.76,0 c0,3.93,0,7.71,0,11.52C159.64,153.09,163.13,153.09,166.76,153.09z"></path> <path d="M125.78,0c-0.03,7.02-0.06,14.05-0.1,21.07c0,0.76,0,1.52,0,2.39c-36.39,0-72.54,0-108.89,0 c0-7.88,0-15.68,0-23.47C53.13,0,89.45,0,125.78,0z"></path> <path d="M16.89,58.21c0-7.67,0-15.18,0-22.8c36.25,0,72.39,0,108.67,0c0,7.63,0,15.14,0,22.8 C89.34,58.21,53.2,58.21,16.89,58.21z"></path> <path d="M16.89,104.97c28.57,0,56.98,0,85.54,0c0,7.62,0,15.14,0,22.81c-28.49,0-56.96,0-85.54,0 C16.89,120.21,16.89,112.68,16.89,104.97z"></path> <path d="M102.56,70.22c0,7.35,0.02,14.5-0.05,21.66c0,0.42-0.73,0.92-1.22,1.23c-0.28,0.18-0.76,0.04-1.15,0.04 c-27.01,0-54.02,0-81.03,0c-0.7,0-1.4,0-2.21,0c0-7.72,0-15.24,0-22.92C45.37,70.22,73.83,70.22,102.56,70.22z"></path> </g> </symbol><symbol xmlns="http://www.w3.org/2000/svg" xmlns:xlink="http://www.w3.org/1999/xlink" version="1.1" id="education-elearning" x="0px" y="0px" xml:space="preserve" viewBox="0 0 200 200"> <g> <path d="M200,179.3c-1.56,3.39-4.24,4.45-7.87,4.35c-6.83-0.19-13.67-0.05-20.5-0.06c-4.54-0.01-6.78-2.28-6.79-6.87 c-0.01-8.59-0.03-17.18,0.01-25.77c0.04-7.71,3.58-13.24,10.49-16.67c0.54-0.27,1.17-1.07,1.17-1.62 c0.05-28.9,0.03-57.79,0.02-86.69c0-0.06-0.05-0.12-0.17-0.4c-0.68,0.22-1.39,0.44-2.09,0.68c-25.53,9.04-51.07,18.06-76.59,27.16 c-2.48,0.88-4.72,0.81-7.18-0.06C62.29,63.3,34.06,53.31,5.81,43.37c-2.58-0.91-4.67-2.14-5.81-4.7c0-1.04,0-2.08,0-3.13 c1.03-2.02,2.47-3.49,4.72-4.28C29.17,22.67,53.6,14.03,78.02,5.37C82.89,3.64,87.73,1.79,92.58,0c1.04,0,2.08,0,3.13,0 c0.57,0.26,1.13,0.57,1.73,0.78C125.97,10.9,154.51,21,183.06,31.12c4.22,1.49,5.23,2.96,5.23,7.33c0,31.12,0.01,62.24-0.04,93.36 c0,1.42,0.34,2.15,1.69,2.75c3.75,1.68,6.53,4.48,8.28,8.21c0.73,1.57,1.2,3.25,1.79,4.89C200,158.2,200,168.75,200,179.3z"></path> <path d="M50.39,200c-5.74-1.1-9.79-4.61-13.52-8.91c-7.42-8.56-15.12-16.87-22.61-25.36 c-4.64-5.26-4.67-12.76-0.27-17.85c5.09-5.88,13.73-6.43,19.5-1.09c3.29,3.05,6.39,6.32,9.57,9.48c0.49,0.49,1.01,0.96,1.85,1.77 c0-1.07,0-1.75,0-2.42c0-15.95-0.03-31.9,0.02-47.85c0.02-5.18,2.4-9.17,6.96-11.61c4.64-2.49,9.32-2.2,13.67,0.76 c4.1,2.79,5.75,6.86,5.73,11.75c-0.04,10.81-0.01,21.61-0.01,32.42c0,0.7,0,1.41,0,2.11c2.75-6.25,7.21-9.98,14.16-9.5 c6.51,0.45,10.37,4.46,12.12,10.78c3.58-8.14,7.8-11.3,14.27-10.85c5.97,0.42,10.25,4.36,12.19,11.38 c0.23-0.81,0.39-1.46,0.59-2.09c1.84-5.99,7.88-9.98,13.98-9.24c6.54,0.79,11.67,6.08,11.74,12.56c0.12,12.3,0.14,24.61-0.01,36.91 c-0.09,7.97-6.05,14.81-13.89,16.47c-0.44,0.09-0.86,0.26-1.29,0.39C106.9,200,78.65,200,50.39,200z"></path> <path d="M164.37,62.25c0.03,0.72,0.08,1.29,0.08,1.85c0,16.79,0.01,33.59,0,50.38c0,4.28-2.35,6.6-6.67,6.6 c-24.28,0.01-48.56,0-72.84,0c-0.57,0-1.14,0-1.94,0c0-4.32-0.03-8.47,0.01-12.62c0.05-5.86-1.58-11.15-5.15-15.83 c-6.43-8.44-17.56-11.89-27.6-8.55c-10.02,3.34-16.96,12.81-17.05,23.34c-0.04,4.48-0.01,8.96-0.01,13.6 c-1.56,0-2.99,0.15-4.37-0.03c-3.1-0.42-5-2.92-5-6.43c-0.01-15.56,0-31.12,0-46.67c0-1.82,0-3.64,0-5.72 c2.12,0.73,4.06,1.39,6,2.07c19.11,6.76,38.23,13.48,57.32,20.32c4.76,1.71,9.34,1.69,14.08-0.01 c20.19-7.21,40.42-14.33,60.63-21.48C162.64,62.8,163.44,62.56,164.37,62.25z"></path> </g> </symbol><symbol xmlns="http://www.w3.org/2000/svg" xmlns:xlink="http://www.w3.org/1999/xlink" version="1.1" id="fintech" x="0px" y="0px" xml:space="preserve" viewBox="0 0 200 200"> <g> <path d="M0,43.8c1.1-1.9,2.8-2.4,4.9-2.4c24.3,0.1,48.5,0,72.8,0c3.9,0,5,1.1,5,5c0,23.3,0,46.6,0,69.9c0,0.6,0,1.2,0,2.1 c-0.8-0.4-1.4-0.6-2-1c-3.9-2-7.7-4.1-11.6-6c-1.2-0.6-2.7-1-4-1c-20-0.1-40.1-0.1-60.1,0c-2.2,0-4-0.3-5-2.5C0,86.5,0,65.1,0,43.8 z M44.8,96.6c1-0.1,1.7-0.1,2.4-0.1c6.3-0.4,11.2-5.4,11.4-11.7c0.2-6.3-4.4-11.6-10.8-12.2c-3.8-0.3-7.7-0.1-11.5-0.3 c-3-0.1-5.3-2.4-5.2-5.2c0-2.8,2.4-5,5.4-5.1c2.7,0,5.5,0,8.2,0c4.7,0,5.7,0.7,7.3,5c2.2,0,4.4,0,6.6,0c0-2.8-0.9-5.2-2.6-7.3 c-2.8-3.6-6.7-4.6-11.2-4.7c0-2.3,0-4.4,0-6.6c-2.4,0-4.5,0-6.9,0c0,2.3,0,4.5,0,6.5c-1.8,0.3-3.4,0.4-4.9,0.8 c-5.9,1.6-9.4,7-8.7,13.1c0.6,5.6,5.5,10.2,11.4,10.4c3.4,0.2,6.9,0,10.3,0.1c3.3,0,5.7,2.1,5.7,5.1c0,2.9-2.2,5.1-5.4,5.2 c-3.2,0.1-6.5,0.1-9.8,0c-2.8-0.1-4.4-1.4-5.3-4c-0.2-0.4-0.7-1.1-1-1.1c-1.9-0.1-3.9-0.1-5.9-0.1c0,2.9,0.8,5.2,2.4,7.3 c2.8,3.7,6.6,5,11.3,4.8c0,2.3,0,4.5,0,6.8c2.4,0,4.5,0,6.9,0C44.8,101.1,44.8,99,44.8,96.6z M7,103.3c2.3,0,4.4,0,6.6,0 c0-2.3,0-4.4,0-6.7c-2.3,0-4.4,0-6.6,0C7,99,7,101.1,7,103.3z M75.6,103.4c0-2.3,0-4.5,0-6.7c-2.3,0-4.4,0-6.5,0c0,2.3,0,4.5,0,6.7 C71.3,103.4,73.4,103.4,75.6,103.4z M13.6,55.1c0-2.3,0-4.4,0-6.6c-2.3,0-4.4,0-6.6,0c0,2.3,0,4.4,0,6.6 C9.3,55.1,11.4,55.1,13.6,55.1z M75.7,48.5c-2.3,0-4.4,0-6.6,0c0,2.3,0,4.4,0,6.6c2.3,0,4.4,0,6.6,0C75.7,52.8,75.7,50.7,75.7,48.5 z"></path> <path d="M56.6,199.9c-2-1.3-4.3-2.3-5.9-3.9c-1.2-1.2-2.1-3.3-2.2-5c-0.3-3.8-0.1-7.7-0.1-11.6c36.6,0,73.2,0,110.3,0 c-0.3,4.5-0.3,9.1-1,13.6c-0.5,3.1-3,5.1-5.9,6.2c-0.5,0.2-1,0.5-1.5,0.7C119,199.9,87.8,199.9,56.6,199.9z M127.4,186.3 c-16.2,0-32.1,0-48,0c0,2.3,0,4.4,0,6.6c16.1,0,32,0,48,0C127.4,190.6,127.4,188.5,127.4,186.3z"></path> <path d="M89.6,129.8c0-4.3,0-8.3,0-12.5c6.9,0,13.7,0,20.5,0c0-2.4,0-4.5,0-6.9c-6.8,0-13.5,0-20.4,0c0-2.4,0-4.5,0-6.8 c6.7,0,13.4,0,20.3,0c0-2.4,0-4.6,0-6.9c-6.7,0-13.4,0-20.3,0c0-2.3,0-4.4,0-6.8c6.7,0,13.4,0,20.3,0c0-2.4,0-4.6,0-6.9 c-6.7,0-13.4,0-20.3,0c0-2.4,0-4.6,0-6.9c6.8,0,13.5,0,20.4,0c0-2.3,0-4.4,0-6.8c-0.7,0-1.4-0.1-2.1-0.1c-5.5,0-11.1-0.1-16.6,0 c-1.5,0-2-0.4-1.9-1.9c0.1-1.6,0-3.2,0-5c12.7,0,25.1,0,37.8,0c0-2.3,0-4.5,0-6.9c-12.5,0-25,0-37.6,0c0-2.4,0-4.5,0-6.9 c16,0,32,0,48,0c0-2.4,0-4.5,0-6.9c-0.8,0-1.5,0-2.3,0c-14.9,0-29.8,0-44.7,0c-1.3,0-1.9-0.3-2.5-1.5c-2-3.8-5.4-5.4-9.6-5.5 c-4.7,0-9.5,0-14.2,0c-0.7,0-1.4,0-2.2,0c0-2.3,0-4.4,0-6.7c27.5,0,54.9,0,82.4,0c0,12.7,0,25.5,0,38.6c-2.6-1.7-4.9-3.3-7.1-4.7 c-4.6,4.6-9.1,9.1-13.8,13.8c1.2,1.7,2.6,3.7,3.8,5.8c0.4,0.6,0.4,1.6,0.2,2.4c-0.7,3.9-3.1,5.8-7.1,5.8c-1.1,0-2.2,0.4-3.3,0.7 c0,6.4,0,12.8,0,19.4c2.4,0.5,4.9,1,7.4,1.6c0.6,0.2,1.1,0.8,1.6,1.3c0.1,0.1,0.1,0.2,0.2,0.4c2.3,3.3,1.5,6.2-1,9 c-0.7,0.8-1.2,1.8-1.7,2.6c4.6,4.6,9.1,9.1,13.8,13.8c2.1-1.4,4.5-2.9,7.1-4.7c0,13.1,0,25.8,0,38.6c-27.5,0-54.9,0-82.4,0 c0-18.2,0-36.5,0-55.3c1.7,0.4,3.5,0.5,5,1.2c6.8,3.4,13.5,7,20.2,10.5C88,129,88.6,129.3,89.6,129.8z M75.9,144.8 c11.4,0,22.8,0,34.2,0c0-2.4,0-4.6,0-6.8c-13.7,0-27.3,0-41.1,0c0,9.2,0,18.2,0,27.4c4.6,0,9,0,13.6,0c0-2.3,0-4.5,0-6.8 c-2.3,0-4.5,0-6.7,0C75.9,153.9,75.9,149.5,75.9,144.8z M123.9,158.6c-11.5,0-22.8,0-34.2,0c0,2.4,0,4.5,0,6.8c13.7,0,27.4,0,41,0 c0-9.2,0-18.2,0-27.4c-4.6,0-9,0-13.5,0c0,2.3,0,4.5,0,6.8c2.3,0,4.5,0,6.7,0C123.9,149.5,123.9,153.8,123.9,158.6z"></path> <path d="M132.3,76.2c1.9-1.9,3.8-3.7,5.8-5.7c1.6,1.1,3.3,2.3,5,3.3c0.6,0.3,1.6,0.3,2.2,0.1c3.3-1.3,6.4-2.7,9.7-3.9 c1-0.4,1.4-0.8,1.6-1.8c0.3-1.9,0.8-3.8,1.2-5.9c2.5,0,4.9,0,7.2,0c0.4,0,1,0.6,1.1,1c0.6,2.1,0.4,4.7,1.6,6.1 c1.2,1.3,3.8,1.3,5.7,2.1c1.6,0.6,3.1,1.3,4.5,2.3c1.2,0.8,2.1,0.6,3.1-0.2c1.4-1.1,3-2,4.4-3c1.9,2,3.8,3.9,5.8,5.9 c-0.9,1.4-2.1,3-3.1,4.8c-0.3,0.6-0.4,1.6-0.1,2.2c1.3,3.3,2.6,6.6,4.1,9.9c0.3,0.6,0.9,1.2,1.5,1.4c1.5,0.5,3,0.8,4.6,1 c1.4,0.1,1.7,0.8,1.6,2c-0.1,2.1,0.6,4.7-0.4,6.1c-0.9,1.2-3.6,1.1-5.6,1.5c-1,0.2-1.4,0.7-1.8,1.7c-1.2,3.3-2.7,6.4-3.9,9.7 c-0.2,0.6-0.2,1.6,0.1,2.2c1,1.7,2.2,3.4,3.3,5c-2,1.9-3.8,3.7-5.9,5.7c-1.5-1-3.2-2.2-5-3.2c-0.6-0.3-1.6-0.3-2.2-0.1 c-3.3,1.3-6.4,2.7-9.7,3.9c-1,0.4-1.5,0.8-1.6,1.8c-0.3,1.6-0.5,3.2-0.9,4.8c-0.1,0.4-0.7,1-1,1.1c-2.4,0.1-4.8,0-7.3,0 c-0.5-2.2-0.8-4.2-1.3-6.2c-0.1-0.5-0.7-1.1-1.3-1.4c-3.3-1.5-6.7-2.8-10-4.2c-0.6-0.2-1.5-0.2-2,0.1c-1.7,1-3.4,2.2-5.1,3.3 c-1.9-2-3.7-3.9-5.6-6c1-1.4,2.2-3.1,3.2-4.9c0.3-0.5,0.3-1.5,0.1-2.1c-1.3-3.3-2.7-6.6-4.1-9.9c-0.3-0.6-1-1.3-1.6-1.5 c-1.3-0.5-2.8-0.8-4.2-0.9c-1.6-0.1-1.9-0.9-1.8-2.3c0.1-2-0.6-4.5,0.4-5.9c0.9-1.2,3.5-1.1,5.4-1.5c1.2-0.2,1.6-0.8,2-1.9 c1.1-3.1,2.4-6.2,3.8-9.1c0.6-1.2,0.6-1.9-0.2-3C134.3,79.3,133.3,77.7,132.3,76.2z M142.4,86.1c-7.2,10.2-5.6,23.8,3.7,32 c9.3,8.2,22.6,7.2,29.7,1.3c-1.3-1.8-2.5-3.5-3.8-5.3c-9.1,5.6-17.5,2.7-22.2-2c-4.6-4.6-7.6-13-2-22.2 C146,88.7,144.2,87.4,142.4,86.1z M181.5,113.9c7.3-10.3,5.6-23.9-3.8-32.1c-9.4-8.2-22.7-7-29.5-1.2c1.3,1.8,2.5,3.6,3.8,5.3 c8.3-5.3,16.9-3.2,22,1.8c4.8,4.7,7.7,13.3,2.1,22.3C177.8,111.3,179.6,112.5,181.5,113.9z M172.2,100.1c0-5.7-4.5-10.3-10.2-10.4 c-5.7-0.1-10.3,4.5-10.4,10.2c-0.1,5.6,4.5,10.3,10.2,10.4C167.5,110.3,172.1,105.8,172.2,100.1z"></path> <path d="M158.5,20.7c-36.8,0-73.4,0-109.9,0c0-4.3-0.4-8.6,0.1-12.8c0.6-4.4,4.7-7.4,9.1-7.7c0.8-0.1,1.6-0.1,2.3-0.1 c28.8,0,57.6,0,86.4,0c7.8,0,11.9,4.1,11.9,11.9C158.5,14.9,158.5,17.7,158.5,20.7z"></path> <path d="M54.9,172.2c-2.2,0-4.3,0-6.5,0c0-18.3,0-36.5,0-54.9c2.1,0,4.3,0,6.5,0C54.9,135.6,54.9,153.8,54.9,172.2z"></path> <path d="M151.7,27.8c2.3,0,4.4,0,6.6,0c0,9.1,0,18.1,0,27.1c-2.1,1.1-5-1.1-6.6,1.5C151.7,47,151.7,37.4,151.7,27.8z"></path> <path d="M151.7,143.6c1.6,2.6,4.4,0.5,6.7,1.5c0,8.9,0,18,0,27.1c-2.2,0-4.4,0-6.7,0C151.7,162.5,151.7,153,151.7,143.6z"></path> <path d="M54.9,34.4c-2.2,0-4.3,0-6.5,0c0-2.2,0-4.4,0-6.6c2.2,0,4.3,0,6.5,0C54.9,30,54.9,32.2,54.9,34.4z"></path> <path d="M165.3,99.9c0,1.8-1.5,3.4-3.3,3.5c-1.8,0.1-3.5-1.5-3.6-3.4c0-1.8,1.6-3.5,3.5-3.5C163.7,96.6,165.3,98.2,165.3,99.9z"></path> </g> </symbol><symbol xmlns="http://www.w3.org/2000/svg" xmlns:xlink="http://www.w3.org/1999/xlink" version="1.1" id="healthcare" x="0px" y="0px" xml:space="preserve" viewBox="0 0 200 198.68"> <g> <path d="M23.45,149.72c0-35.08,0-70.16,0-105.38c11.71,0,23.32,0,35.17,0c0,35.13,0,70.25,0,105.38 C46.9,149.72,35.17,149.72,23.45,149.72z"></path> <path d="M141.47,149.72c0-35.08,0-70.16,0-105.38c9.76,0,19.41,0,29.31,0c0,35.13,0,70.25,0,105.38 C161.01,149.72,151.24,149.72,141.47,149.72z"></path> <path d="M0,55.93c3.83,0,7.65,0,11.6,0c0,27.35,0,54.57,0,82.07c-3.85,0-7.73,0-11.6,0C0,110.64,0,83.29,0,55.93z"></path> <path d="M70.48,79.46c19.77,0,39.41,0,59.15,0c0,11.65,0,23.21,0,34.93c-19.65,0-39.33,0-59.15,0 C70.48,102.84,70.48,91.23,70.48,79.46z"></path> <path d="M200,56.07c0,27.34,0,54.53,0,81.83c-5.79,0-11.49,0-17.35,0c0-27.21,0-54.45,0-81.83C188.36,56.07,194.11,56.07,200,56.07 z"></path> </g> </symbol><symbol xmlns="http://www.w3.org/2000/svg" xmlns:xlink="http://www.w3.org/1999/xlink" version="1.1" id="media-entertainment" x="0px" y="0px" xml:space="preserve" viewBox="0 0 200 200"> <g> <path d="M8.1,103.9c9.6,2.4,18.8,5.9,28.2,6.8c14.7,1.4,27.2-4.8,37.4-15.4c5.5-5.7,8.2-5.9,13.8-0.6c18.5,17.5,44.9,21.4,67.6,9.8 c1.5-0.8,3.1-1.5,5.3-2.6c0.1,2.5,0.3,4.4,0.3,6.3c0,21.8,0,43.5,0,65.3c0,10.9-3.5,14.4-14.3,14.4c-41.1,0-82.2,0-123.3,0 c-11.6,0-15.1-3.5-15.1-14.9c0-21.8,0-43.5,0-65.3C8.1,106,8.1,104.3,8.1,103.9z M72.4,118.3c0,14.6,0,28.1,0,42.6 c14.2-7.5,27.5-14.4,41.6-21.9C99.7,131.9,86.3,125.2,72.4,118.3z"></path> <path d="M127.9,105.2c-26.2-0.1-47.2-21.1-47.3-47.1c0-26.8,21-48.1,47.6-48c26.2,0.1,47.5,21.5,47.4,47.7 C175.6,84.1,154.3,105.3,127.9,105.2z M162.5,72.3c0.1-5.2-4-9.6-9.2-9.8c-5.2-0.2-9.6,3.8-9.9,9c-0.3,5.4,4.1,10.2,9.4,10.2 C157.9,81.7,162.3,77.4,162.5,72.3z M137.6,29.2c0.1-5.3-3.9-9.5-9.2-9.7c-5.2-0.2-9.7,3.9-10,9c-0.3,5.3,4.3,10.1,9.6,10.1 C133.2,38.7,137.5,34.4,137.6,29.2z M112.9,43.7c0.2-5.1-3.9-9.6-9.1-9.8c-5.4-0.2-9.7,3.6-10.1,8.8c-0.4,5.3,4.1,10.2,9.4,10.3 C108.1,53.1,112.7,48.8,112.9,43.7z M103.1,62.5c-5.2,0.1-9.5,4.5-9.4,9.6c0,5.1,4.5,9.6,9.5,9.6c5.2,0.1,10-4.8,9.8-10 C112.7,66.6,108.3,62.4,103.1,62.5z M128.3,96c5.1-0.1,9.3-4.5,9.3-9.7c0-5.3-4.1-9.4-9.4-9.4c-5.4,0-10,4.6-9.8,9.8 C118.6,91.7,123.3,96.1,128.3,96z M153.1,33.9c-5.3-0.1-9.5,3.9-9.7,9.2c-0.1,5.4,4.4,10,9.7,9.9c5.1-0.1,9.4-4.5,9.4-9.6 C162.5,38,158.4,34,153.1,33.9z M129.2,51.3c-0.8,0-1.7,0-2.5,0.1c-1.3,2.2-3.8,4.5-3.6,6.6c0.1,1.8,3.5,5.1,4.9,4.8 c2.2-0.4,5.2-3.1,5.4-5.2C133.5,55.7,130.7,53.4,129.2,51.3z"></path> <path d="M-0.6,66.8c0.1-21.3,17.2-38.3,38.5-38.1c21,0.2,38,17.2,38,38.1c0,21.3-17,38.3-38.3,38.3C16.1,105.1-0.7,88.3-0.6,66.8z M57.4,63.1c4.7-0.3,7.4-2.8,7.8-7.4c0.4-4.2-3.7-8.4-7.9-8c-4.5,0.4-7.5,3-7.4,7.8C50,60.1,52.7,62.6,57.4,63.1z M49.8,78.6 c0.5,5,3.4,7.7,7.8,7.6c4.5-0.1,7.4-2.9,7.6-7.6c0.2-4.3-3.7-8-8.1-7.7C52.4,71.3,50.2,74.2,49.8,78.6z M45.3,90.2 c-0.3-4.8-2.9-7.5-7.5-8c-4.2-0.4-8.3,3.7-8,7.9c0.4,4.6,3,7.4,7.7,7.4C42.3,97.7,44.7,94.7,45.3,90.2z M45.3,44.1 c-0.4-4.6-2.6-7.5-7.4-7.8c-4.4-0.3-8.3,3.3-8.1,7.7c0.3,4.7,3.2,7.6,7.6,7.6C41.9,51.6,44.7,48.8,45.3,44.1z M17.7,63.1 c4.6-0.5,7.3-2.9,7.4-7.7c0-4.8-2.9-7.3-7.4-7.8c-4.2-0.4-8.1,3.7-7.8,8C10.2,60.4,13,62.7,17.7,63.1z M9.8,78.6 c0.5,4.8,3.3,7.3,7.8,7.6c4.3,0.3,7.9-3.8,7.5-8.2c-0.4-4.7-3.2-7.3-7.9-7.1C12.4,71.1,10.2,74.1,9.8,78.6z M37.8,60.2 c-2.3,3.4-4.6,5.2-4.4,6.7c0.2,1.6,2.6,3.7,4.3,4.1c1.1,0.2,3.8-2.4,3.9-3.8C41.7,65.5,39.8,63.7,37.8,60.2z"></path> <path d="M199.4,100.7c0,26.2,0,51.4,0,77.5c-10.7-5.6-20.9-10.8-30.9-16.4c-1.1-0.6-1.9-2.9-1.9-4.4c-0.2-12.1-0.2-24.3,0-36.4 c0-1.6,1.2-3.9,2.5-4.6C178.8,111.1,188.7,106.1,199.4,100.7z"></path> </g> </symbol><symbol xmlns="http://www.w3.org/2000/svg" xmlns:xlink="http://www.w3.org/1999/xlink" version="1.1" id="retail" x="0px" y="0px" xml:space="preserve" viewBox="0 0 200 200"> <g> <path d="M0.1,78.4c66.7,0,133.2,0,199.7,0c0.9,8-0.5,15.2-6.6,20.9c-3.1,3-6.7,5-10.9,6.1c-0.9,0.2-1.2,0.7-1.2,1.6 c0,23.9,0,47.8,0,71.7c0,1,0.3,1.3,1.3,1.3c3.8,0,7.7,0,11.5,0c2.8,0,5,1.7,5.7,4c1.1,3.4-1.5,6.9-5.4,7.2c-0.5,0-1.1,0-1.6,0 c-61.9,0-123.8,0-185.7,0c-0.7,0-1.4,0-2.1-0.2c-3-0.7-5-3.2-4.7-5.9c0.3-2.8,2.7-5.1,5.8-5.2c3.8-0.1,7.6-0.1,11.4,0 c1.2,0,1.6-0.2,1.6-1.5c0-23.7,0-47.4,0-71.1c0-1.3-0.4-1.8-1.6-2.1C9.8,103,4.1,98.5,1.4,91c-0.8-2.1-1-4.4-1.3-6.7 C-0.1,82.4,0.1,80.5,0.1,78.4z M100.1,86.7c-0.9,2.4-1.5,4.9-2.7,7.1c-4.5,8.1-11.7,12-20.8,12.8c-1.7,0.1-1.7,0.1-1.7,1.8 c0,23.4,0,46.8,0,70.2c0,1.2,0.3,1.5,1.5,1.5c30.2,0,60.5,0,90.7,0c1.2,0,1.5-0.3,1.5-1.5c0-23.6,0-47.3,0-70.9 c0-1.3-0.3-1.8-1.6-2.2c-9.1-3-15.2-8.7-17-18.4c0-0.1-0.1-0.2-0.3-0.4c-2,12.8-13.1,19.7-23.6,20.1c-5.9,0.3-11.3-1.1-16.2-4.4 C104.6,98.4,101.1,93.2,100.1,86.7z M50,86.3c-0.2,1-0.3,1.8-0.5,2.5c-0.2,0.8-0.4,1.5-0.7,2.3c-2.9,7.4-8.5,11.9-16,14.2 c-1,0.3-1.5,0.7-1.5,1.8c0,23.8,0,47.5,0,71.3c0,1.2,0.4,1.5,1.6,1.5c11.5,0,23,0,34.5,0c1.2,0,1.5-0.3,1.5-1.5 c0-23.6,0-47.3,0-70.9c0-1.3-0.3-1.8-1.6-2.2c-7.3-2.2-12.8-6.7-15.7-13.9C50.8,89.9,50.5,88.2,50,86.3z"></path> <path d="M0.1,72.6c0.8-1.4,1.4-2.7,2.1-4c7.4-13.3,14.7-26.6,22-39.9c0.5-0.9,1-1.3,2.1-1.3c49,0,98,0,147,0c1.1,0,1.7,0.3,2.2,1.3 c7.8,14.3,15.7,28.5,23.6,42.7c0.2,0.3,0.3,0.6,0.5,1.1C133.2,72.6,66.8,72.6,0.1,72.6z M123.9,36c-1.2,0-2.1,0.4-2.7,1.4 c-0.6,1-0.5,2,0.2,3.1c2.9,4.8,5.8,9.5,8.7,14.3c1.6,2.7,3.2,5.4,4.9,8c0.9,1.5,2.9,1.9,4.4,1c1.4-0.8,1.8-2.4,0.9-3.9 c-4.5-7.4-9-14.9-13.5-22.3C126,36.5,125.1,36,123.9,36z M75,36c-1.4,0-2.2,0.5-3,1.9c-1.6,2.9-3.2,5.7-4.8,8.6 c-2.5,4.4-4.9,8.9-7.3,13.3c-0.9,1.6-0.4,3.2,1.1,4c1.6,0.8,3.4,0.3,4.4-1.5c4.1-7.3,8.2-14.7,12.2-22C78.8,38.2,77.4,36,75,36z M50.1,36c-1.3,0-2.2,0.5-2.9,1.6c-0.4,0.8-0.9,1.5-1.3,2.3c-3.7,6.7-7.4,13.3-11,20c-1.2,2.1,0.3,4.4,2.8,4.3 c1.2-0.1,2.1-0.6,2.7-1.7c4.1-7.4,8.2-14.8,12.3-22.3C53.8,38.2,52.5,36.1,50.1,36z M150,36c-2.5,0-3.9,2.1-2.7,4.3 c3.2,5.9,6.5,11.7,9.7,17.6c0.9,1.6,1.7,3.2,2.7,4.8c0.9,1.5,2.9,1.9,4.4,1c1.4-0.9,1.7-2.4,0.8-4c-0.6-1-1.1-2-1.7-3.1 c-3.4-6.2-6.8-12.4-10.3-18.6C152.4,36.9,151.5,36,150,36z M103.1,50.1C103.1,50.1,103.1,50.1,103.1,50.1c0-3.6,0-7.2,0-10.9 c0-2-1.2-3.2-3.1-3.2c-1.9,0-3.1,1.2-3.1,3.3c0,7.2,0,14.4,0,21.6c0,2,1.2,3.3,3.1,3.3c1.9,0,3.1-1.3,3.1-3.4 C103.1,57.2,103.1,53.7,103.1,50.1z"></path> <path d="M100,10.6c22.6,0,45.1,0,67.7,0c1.4,0,2.9,0.3,4.2,0.9c2.1,1,3.2,2.8,3,5.2c-0.2,2.3-1.6,3.9-3.7,4.7 c-1,0.4-2.1,0.5-3.2,0.5c-45.4,0-90.8,0-136.3,0c-3.1,0-5.5-1.5-6.4-3.9c-1.2-3.4,1.2-6.9,5.1-7.3c0.7-0.1,1.3-0.1,2-0.1 C54.9,10.6,77.5,10.6,100,10.6z"></path> <path d="M105.2,148.7c1-0.9,1.9-1.7,2.8-2.5c10.5-9.5,21-19,31.5-28.6c0.7-0.7,1.2-0.8,1.9,0c1,1.1,2.2,2,3.4,3.1 c-1,0.9-1.9,1.8-2.8,2.6c-10.5,9.5-21,19-31.5,28.5c-0.8,0.7-1.3,0.9-2,0C107.5,150.8,106.4,149.9,105.2,148.7z"></path> <path d="M140.4,132.8c1.5,1.4,2.9,2.6,4.7,4.2c-0.5,0.3-1,0.4-1.3,0.7c-5.3,4.7-10.5,9.5-15.7,14.2c-0.6,0.6-1.1,0.7-1.8,0 c-1.1-1.1-2.2-2.1-3.5-3.3C128.7,143.4,134.5,138.2,140.4,132.8z"></path> <path d="M105.2,132.8c1.4-1.3,2.7-2.5,4-3.7c4.2-3.8,8.5-7.6,12.7-11.5c0.7-0.6,1.2-0.7,1.8,0c1.1,1.1,2.2,2.1,3.5,3.2 c-1.4,1.2-2.6,2.4-3.9,3.5c-4.3,3.9-8.6,7.7-12.9,11.6c-0.7,0.6-1.1,0.7-1.8,0C107.6,134.9,106.4,133.9,105.2,132.8z"></path> <path d="M56.3,123.5c4.2,0,7.3,3.7,5.9,7.2c-0.4,1-1.4,1.8-2.1,2.7c-0.3,0.4-0.7,0.9-0.7,1.4c-0.1,3.6-0.1,7.2,0,10.9 c0,0.6,0.4,1.3,0.8,1.6c1.6,1.4,2.6,3,2.2,5.1c-0.4,2.2-1.8,3.7-3.9,4.5c-2.9,1-6.3-0.1-7.8-2.6c-1.3-2.4-0.8-5,1.5-6.8 c0.7-0.6,1-1.1,0.9-2c0-3.5,0-7.1,0-10.6c0-0.5-0.2-1.1-0.5-1.4c-2.3-2-3.1-3.9-2.2-6.2C51.2,125,53.5,123.5,56.3,123.5z"></path> </g> </symbol></svg> 