<svg id="Layer_1" data-name="Layer 1" xmlns="http://www.w3.org/2000/svg" viewBox="0 0 49.57 51.72"><defs><style>.cls-1{fill:#3d4754;}.cls-2{fill:#17202b;}.cls-3{fill:#202933;}.cls-4{fill:#217ec2;}</style></defs><path class="cls-1" d="M20.84,12.33l3.57,2L29,17c.41.24.75.46.75,1,0,3.06,0,6.12,0,9.18a1.64,1.64,0,0,1-.09.27,6.26,6.26,0,0,1-.65-.25L21.55,23c-.37-.22-.72-.4-.72-.93C20.85,18.88,20.84,15.72,20.84,12.33Z" transform="translate(-6.21 -5.14)"/><path class="cls-2" d="M7.49,35.38l3.7-2.15,4.47-2.59c.36-.21.7-.42,1.16-.15,2.73,1.6,5.47,3.17,8.32,4.81a7.2,7.2,0,0,1-.69.53L17.06,40.1c-.37.21-.7.41-1.16.14Q12,37.91,8,35.63Z" transform="translate(-6.21 -5.14)"/><path class="cls-1" d="M35.54,37.72c.39.18.68.29,1,.45q3.57,2,7.12,4.11c.36.2.73.35.73.91,0,3.16,0,6.32,0,9.58a3.45,3.45,0,0,1-.63-.19l-7.5-4.31a1.16,1.16,0,0,1-.76-1.12c0-2.95,0-5.91,0-8.86A3.7,3.7,0,0,1,35.54,37.72Z" transform="translate(-6.21 -5.14)"/><path class="cls-2" d="M22.3,10.07c.27-.19.48-.36.71-.49,2.4-1.39,4.81-2.77,7.2-4.18a1.31,1.31,0,0,1,1.52,0c2.47,1.47,5,2.89,7.47,4.33.15.09.28.2.51.36a4,4,0,0,1-.5.41l-7.56,4.38a1,1,0,0,1-1.16.09c-2.6-1.53-5.22-3-7.84-4.55A2.25,2.25,0,0,1,22.3,10.07Z" transform="translate(-6.21 -5.14)"/><path class="cls-1" d="M14.92,52.84l-3.45-2L6.91,48.24c-.38-.22-.7-.42-.7-.94,0-3.1,0-6.19,0-9.28a1.15,1.15,0,0,1,.1-.26c.25.12.51.21.74.34,2.44,1.4,4.86,2.82,7.31,4.2a1.21,1.21,0,0,1,.7,1.17c0,2.85,0,5.7,0,8.54A5.3,5.3,0,0,1,14.92,52.84Z" transform="translate(-6.21 -5.14)"/><path class="cls-3" d="M17.67,52.77V48.51c0-1.69,0-3.38,0-5.07a1,1,0,0,1,.51-1c2.63-1.48,5.25-3,7.87-4.5a2,2,0,0,1,.39-.11,4.43,4.43,0,0,1,.11.78c0,2.85,0,5.7,0,8.55a1,1,0,0,1-.54,1c-2.66,1.51-5.3,3-8,4.57A2.38,2.38,0,0,1,17.67,52.77Z" transform="translate(-6.21 -5.14)"/><path class="cls-3" d="M55.78,37.66V40.8q0,3.11,0,6.22a1.1,1.1,0,0,1-.55,1.14c-2.59,1.47-5.17,3-7.76,4.46a2.3,2.3,0,0,1-.48.11c0-.37-.08-.67-.08-1,0-2.7,0-5.41,0-8.11a1.43,1.43,0,0,1,.82-1.43c2.33-1.3,4.63-2.66,6.94-4C55,38.06,55.28,37.92,55.78,37.66Z" transform="translate(-6.21 -5.14)"/><path class="cls-3" d="M32.37,27.51a4.28,4.28,0,0,1-.08-.64c0-2.92,0-5.83,0-8.75a1,1,0,0,1,.56-1c2.63-1.49,5.24-3,7.86-4.51a3.42,3.42,0,0,1,.39-.13c0,.29.07.55.07.81,0,2.81,0,5.61,0,8.42a1.2,1.2,0,0,1-.58,1.23c-2.6,1.46-5.18,3-7.77,4.45A3.07,3.07,0,0,1,32.37,27.51Z" transform="translate(-6.21 -5.14)"/><path class="cls-2" d="M36.86,35.31c2.84-1.65,5.58-3.23,8.33-4.78a1,1,0,0,1,.86,0c2.75,1.56,5.47,3.14,8.38,4.82-.4.27-.66.47-.94.63-2.36,1.38-4.74,2.75-7.11,4.11-.39.23-.73.47-1.25.16-2.59-1.54-5.22-3-7.83-4.55A3.32,3.32,0,0,1,36.86,35.31Z" transform="translate(-6.21 -5.14)"/><path class="cls-4" d="M10.45,29.78V26.69c0-1.33,0-2.67,0-4a1.63,1.63,0,0,1,.71-1.55c2-1.2,4.06-2.36,6.27-3.65,0,1.32,0,2.46,0,3.6,0,.21-.28.46-.49.59-.78.49-1.57.95-2.38,1.37a1.23,1.23,0,0,0-.72,1.27c0,.91,0,1.83,0,2.74a1.12,1.12,0,0,1-.66,1.19C12.34,28.67,11.53,29.17,10.45,29.78Z" transform="translate(-6.21 -5.14)"/><path class="cls-4" d="M44.54,17.5c1.64.93,3.11,1.75,4.55,2.59,2.72,1.6,2.45,1.11,2.45,4.25,0,1.4,0,2.81,0,4.21V29.8c-1.14-.66-2.09-1.16-3-1.76a1.26,1.26,0,0,1-.36-.9c-.05-1,0-2,0-2.95a1.06,1.06,0,0,0-.63-1.08c-.81-.42-1.57-.93-2.38-1.36a1.08,1.08,0,0,1-.64-1.09C44.57,19.68,44.54,18.7,44.54,17.5Z" transform="translate(-6.21 -5.14)"/><path class="cls-4" d="M24.16,53.11c1.05-.61,1.94-1.17,2.88-1.63a1.18,1.18,0,0,1,.95.08c.81.41,1.6.87,2.38,1.36a1.1,1.1,0,0,0,1.27,0c.78-.47,1.56-1,2.38-1.36a1.27,1.27,0,0,1,.95-.08c.94.47,1.83,1,2.84,1.62a6.28,6.28,0,0,1-.6.5c-1.68,1-3.37,1.91-5,2.89a2.11,2.11,0,0,1-2.37,0c-1.69-1-3.41-2-5.11-3A6.25,6.25,0,0,1,24.16,53.11Z" transform="translate(-6.21 -5.14)"/></svg>