<svg width="0" height="0" class="hidden">
  <symbol fill="none" xmlns="http://www.w3.org/2000/svg" viewBox="0 0 56 56" id="pythan">
    <g clip-path="url(#clip0_109_28)">
      <path d="M27.5499 41.3201V42.6801H41.2899C41.2899 42.9001 41.2899 43.0601 41.2899 43.2201C41.2899 44.7401 41.2899 46.2201 41.2899 47.7601C41.3157 48.4838 41.1718 49.2034 40.8697 49.8616C40.5675 50.5197 40.1155 51.0979 39.5499 51.5501C37.8323 52.9489 35.8008 53.9098 33.6299 54.3501C30.5251 55.1052 27.3068 55.2748 24.1399 54.8501C21.5444 54.6013 19.0353 53.7854 16.7899 52.4601C15.471 51.7641 14.4585 50.6019 13.9499 49.2001C13.8454 48.8769 13.7914 48.5396 13.7899 48.2001C13.7899 45.4701 13.7899 42.7501 13.7899 40.0201C13.7507 37.5791 14.04 35.1439 14.6499 32.7801C14.9365 31.6061 15.5985 30.5578 16.5352 29.7943C17.4719 29.0308 18.6322 28.594 19.8399 28.5501C21.7399 28.3701 23.6499 28.3001 25.5499 28.2501C27.9499 28.1801 30.3399 28.2501 32.7399 28.1201C33.9785 28.0581 35.2096 27.8909 36.4199 27.6201C37.7313 27.3611 38.9395 26.7273 39.898 25.7954C40.8565 24.8636 41.5241 23.6737 41.8199 22.3701C42.2893 20.6236 42.5511 18.8279 42.5999 17.0201C42.6499 15.9601 42.5999 14.9001 42.5999 13.7701H43.1999C44.7099 13.7701 46.1999 13.8201 47.7399 13.7701C48.4902 13.7438 49.2357 13.8992 49.9129 14.2231C50.5902 14.5469 51.1793 15.0296 51.6299 15.6301C53.0644 17.4427 54.0358 19.5776 54.4599 21.8501C55.1372 24.8519 55.2727 27.9506 54.8599 31.0001C54.5983 33.5943 53.7797 36.1014 52.4599 38.3501C51.8517 39.4676 50.9118 40.369 49.7699 40.9301C49.2392 41.1612 48.6686 41.2869 48.0899 41.3001C41.4199 41.3001 34.7499 41.3001 28.0899 41.3001L27.5499 41.3201ZM37.6299 48.2201C37.6381 47.8838 37.578 47.5494 37.4534 47.237C37.3288 46.9245 37.1421 46.6406 36.9048 46.4023C36.6674 46.164 36.3842 45.9763 36.0723 45.8504C35.7604 45.7246 35.4262 45.6632 35.0899 45.6701C34.7436 45.6483 34.3965 45.6977 34.0701 45.8153C33.7436 45.9328 33.4447 46.116 33.1918 46.3535C32.9388 46.5911 32.7373 46.8779 32.5995 47.1964C32.4617 47.5148 32.3906 47.8581 32.3906 48.2051C32.3906 48.552 32.4617 48.8953 32.5995 49.2138C32.7373 49.5322 32.9388 49.819 33.1918 50.0566C33.4447 50.2941 33.7436 50.4773 34.0701 50.5948C34.3965 50.7124 34.7436 50.7618 35.0899 50.7401C35.4248 50.7496 35.7582 50.6911 36.0699 50.5682C36.3816 50.4453 36.6651 50.2605 36.9034 50.025C37.1418 49.7895 37.3299 49.5082 37.4565 49.1979C37.583 48.8877 37.6454 48.5551 37.6399 48.2201H37.6299Z" fill="#FFD94A"></path>
      <path d="M12.4699 41.32C10.4099 41.32 8.4699 41.32 6.6199 41.32C6.01693 41.266 5.43205 41.0858 4.90317 40.7913C4.3743 40.4967 3.91324 40.0942 3.5499 39.61C2.19696 37.9684 1.2543 36.0282 0.799901 33.95C0.0135398 30.882 -0.196685 27.6947 0.179901 24.55C0.396208 21.8184 1.23056 19.1718 2.6199 16.81C3.13707 16.0312 3.7521 15.3221 4.4499 14.7C5.15118 14.0722 6.06941 13.7422 7.0099 13.78H27.5499V12.4H13.7899V6.46999C13.7852 6.4201 13.7852 6.36988 13.7899 6.31999C14.0943 4.97421 14.9171 3.80278 16.0799 3.05999C17.965 1.77503 20.1085 0.918313 22.3599 0.549988C25.1796 -0.029258 28.0766 -0.130669 30.9299 0.249988C33.7913 0.502322 36.5428 1.47223 38.9299 3.06999C39.5162 3.43622 40.0235 3.91591 40.4219 4.48088C40.8203 5.04585 41.1018 5.68472 41.2499 6.35999C41.2697 6.55616 41.2697 6.75382 41.2499 6.94999C41.2499 9.64999 41.2499 12.34 41.2499 15.04C41.2958 17.4622 41.003 19.8789 40.3799 22.22C40.0766 23.3541 39.4362 24.3695 38.5434 25.132C37.6507 25.8944 36.5476 26.3679 35.3799 26.49C33.2768 26.7876 31.1537 26.9213 29.0299 26.89C26.5699 26.89 24.0999 26.89 21.6499 27C20.4755 27.0575 19.3098 27.2317 18.1699 27.52C16.9706 27.8267 15.8793 28.4587 15.0164 29.3463C14.1536 30.2338 13.5526 31.3425 13.2799 32.55C12.7945 34.3278 12.5259 36.1577 12.4799 38C12.4399 39.11 12.4699 40.19 12.4699 41.32ZM19.8999 4.31999C19.4024 4.34156 18.9221 4.50891 18.519 4.80123C18.1158 5.09355 17.8074 5.49795 17.6322 5.96412C17.4571 6.4303 17.4228 6.93768 17.5337 7.42319C17.6446 7.90869 17.8957 8.35088 18.2559 8.69477C18.6161 9.03866 19.0695 9.26908 19.5596 9.35737C20.0497 9.44566 20.555 9.38792 21.0125 9.19134C21.4701 8.99476 21.8598 8.66801 22.1331 8.25173C22.4065 7.83544 22.5514 7.34799 22.5499 6.84999C22.5422 6.51161 22.4672 6.17816 22.3293 5.86906C22.1914 5.55997 21.9934 5.28142 21.7467 5.04965C21.5001 4.81788 21.2097 4.63754 20.8926 4.51913C20.5756 4.40073 20.2381 4.34663 19.8999 4.35999V4.31999Z" fill="#326C9B"></path>
    </g>
    <defs>
      <clipPath id="clip0_109_28">
        <rect width="55.1" height="55.11" fill="white"></rect>
      </clipPath>
    </defs>
  </symbol>
  <symbol fill="none" xmlns="http://www.w3.org/2000/svg" viewBox="0 0 60 47" id="vr">
    <g clip-path="url(#clip0_109_31)">
      <path d="M34.43 30.86L36.12 31.16C36.84 31.28 36.98 31.51 36.85 32.16C36.7098 32.8423 36.8199 33.5522 37.16 34.16C38.93 37.34 36.96 40.83 33.33 41.26C32.2512 41.3955 31.2352 41.842 30.4059 42.5452C29.5766 43.2484 28.97 44.1778 28.66 45.22C28.51 45.62 28.4 46.04 28.26 46.49H12.71C12.71 46.27 12.71 46.05 12.71 45.83C12.66 43.83 12.71 41.83 12.52 39.92C12.26 37.3 10.87 35.15 9.39004 33.04C7.39004 30.2067 5.46337 27.34 3.61004 24.44C2.49184 22.6199 1.80751 20.567 1.61004 18.44C1.60004 18.2935 1.60004 18.1465 1.61004 18H20.22C20.2103 18.4581 20.237 18.9162 20.3 19.37C20.44 20.052 20.8068 20.6664 21.3407 21.1131C21.8746 21.5599 22.5441 21.8126 23.24 21.83C27.52 21.83 31.81 21.83 36.09 21.83C36.3937 21.8 36.6995 21.859 36.97 22C37.3547 22.2804 37.7927 22.4792 38.257 22.5841C38.7213 22.689 39.2022 22.6978 39.67 22.61C40.38 22.54 40.72 22.77 40.85 23.47C40.95 23.97 41.17 24.47 41.31 24.94C41.3668 25.102 41.3845 25.2752 41.3617 25.4453C41.3388 25.6155 41.2761 25.7779 41.1786 25.9192C41.0812 26.0605 40.9517 26.1769 40.8007 26.2587C40.6498 26.3405 40.4817 26.3855 40.31 26.39C39.88 26.39 39.45 26.39 39.01 26.39C37.95 26.39 37.53 26.89 37.66 27.94C37.71 28.4321 37.71 28.9279 37.66 29.42C37.6605 29.5583 37.6322 29.6953 37.577 29.8221C37.5219 29.949 37.441 30.063 37.3395 30.157C37.238 30.251 37.1181 30.3229 36.9873 30.3681C36.8566 30.4134 36.7179 30.4311 36.58 30.42C35.87 30.49 35.17 30.63 34.47 30.74L34.43 30.86Z" fill="black"></path>
      <path d="M2.72998 10.9C3.1426 9.61142 3.82432 8.42523 4.72998 7.42C6.42674 5.5348 8.55861 4.09295 10.94 3.22C14.0339 1.97619 17.3263 1.29874 20.66 1.22C23.1931 1.16764 25.7099 1.63788 28.0533 2.60137C30.3966 3.56487 32.5163 5.00094 34.28 6.82C34.28 6.82 34.28 6.89 34.35 7.01C33.16 7.01 31.99 7.01 30.83 7.01C30.0285 6.93227 29.2212 7.07799 28.4975 7.43101C27.7739 7.78403 27.1621 8.33055 26.73 9.01C26.29 9.66 25.89 10.48 25.26 10.8C24.5042 10.9875 23.718 11.0181 22.95 10.89H2.72998V10.9Z" fill="black"></path>
      <path d="M15.2201 16.3H1.99008C1.73716 16.3299 1.48076 16.3055 1.23803 16.2284C0.995291 16.1513 0.771805 16.0232 0.582497 15.8529C0.393189 15.6825 0.242419 15.4737 0.140258 15.2404C0.0380979 15.0071 -0.0131003 14.7547 -0.00991637 14.5C-0.0437892 14.2362 -0.0181264 13.9682 0.0651862 13.7156C0.148499 13.4631 0.287344 13.2324 0.471517 13.0406C0.65569 12.8487 0.88051 12.7006 1.12946 12.607C1.3784 12.5135 1.64515 12.4769 1.91008 12.5H28.4901C28.7484 12.4752 29.009 12.5079 29.2532 12.5956C29.4974 12.6833 29.7191 12.824 29.9026 13.0074C30.0861 13.1909 30.2268 13.4127 30.3145 13.6569C30.4022 13.9011 30.4349 14.1617 30.4101 14.42C30.4287 14.6738 30.3917 14.9286 30.3017 15.1666C30.2117 15.4046 30.0709 15.6202 29.889 15.7982C29.7072 15.9762 29.4887 16.1125 29.2488 16.1974C29.009 16.2823 28.7534 16.3139 28.5001 16.29L15.2201 16.3Z" fill="black"></path>
      <path d="M27.44 10.77C27.743 10.2712 28.1057 9.81112 28.52 9.40005C28.9865 9.01423 29.5507 8.76503 30.15 8.68005C31.92 8.58005 33.69 8.63005 35.46 8.68005C36.1 8.68005 36.33 8.93005 36.33 9.60005V19.2201C36.33 19.9101 36.1 20.1401 35.4 20.1401C31.4 20.1401 27.4 20.1401 23.4 20.1401C23.1931 20.1546 22.9855 20.1249 22.791 20.0529C22.5965 19.981 22.4196 19.8684 22.272 19.7227C22.1244 19.577 22.0095 19.4015 21.935 19.2079C21.8605 19.0143 21.8282 18.8071 21.84 18.6C21.84 18.16 21.98 17.9901 22.45 17.9901C24.45 17.9901 26.4667 17.9901 28.5 17.9901C29.2491 17.9987 29.9822 17.7741 30.5979 17.3475C31.2136 16.9208 31.6813 16.3132 31.9362 15.6089C32.1912 14.9045 32.2207 14.1383 32.0207 13.4165C31.8207 12.6946 31.4011 12.0528 30.82 11.5801C30.1672 11.0333 29.3416 10.7357 28.49 10.7401L27.44 10.77Z" fill="black"></path>
      <path d="M59.32 14.5C59.292 19.4387 57.6561 24.2338 54.66 28.16C54.21 28.77 53.66 28.94 53.18 28.7C53.022 28.6256 52.8838 28.5149 52.7766 28.377C52.6694 28.2391 52.5962 28.0778 52.5631 27.9063C52.53 27.7348 52.5378 27.5579 52.5859 27.39C52.634 27.2221 52.7211 27.0679 52.84 26.94C54.0807 25.3473 55.0689 23.5732 55.77 21.68C57.0168 18.4584 57.4205 14.9719 56.9427 11.5506C56.465 8.1294 55.1217 4.88679 53.04 2.13L52.82 1.84C52.7173 1.72626 52.6395 1.5923 52.5915 1.44672C52.5436 1.30113 52.5266 1.14714 52.5417 0.994614C52.5568 0.842086 52.6035 0.694391 52.679 0.560998C52.7545 0.427604 52.857 0.311457 52.98 0.220004C53.0966 0.123606 53.2327 0.0535426 53.3789 0.0146107C53.5251 -0.0243213 53.6779 -0.031202 53.827 -0.00556095C53.9761 0.0200801 54.1179 0.0776375 54.2427 0.163171C54.3675 0.248704 54.4723 0.360193 54.55 0.490004C55.4315 1.75099 56.2427 3.05964 56.98 4.41C58.5519 7.53917 59.3542 10.9984 59.32 14.5Z" fill="#F36E21"></path>
      <path d="M54.8101 14.22C54.8465 18.1185 53.599 21.9207 51.2601 25.04C51.1476 25.2503 50.9758 25.4231 50.7661 25.5369C50.5563 25.6506 50.3178 25.7004 50.0801 25.68C49.2301 25.55 48.9501 24.68 49.4301 23.86C50.2839 22.5965 51.0203 21.2576 51.6301 19.86C52.5803 17.4548 52.8981 14.8462 52.5532 12.2832C52.2083 9.72024 51.2123 7.28844 49.6601 5.21997C49.5179 5.04437 49.3907 4.85703 49.2801 4.65997C49.1641 4.42321 49.1387 4.15218 49.2087 3.89798C49.2787 3.64377 49.4392 3.42396 49.6601 3.27997C49.7719 3.20286 49.8982 3.14933 50.0314 3.12265C50.1645 3.09596 50.3017 3.09668 50.4346 3.12475C50.5675 3.15282 50.6932 3.20766 50.8042 3.28592C50.9152 3.36419 51.0091 3.46424 51.0801 3.57997C52.3641 5.21869 53.343 7.07488 53.9701 9.05997C54.5034 10.729 54.7865 12.4679 54.8101 14.22Z" fill="#F36E21"></path>
      <path d="M41.38 14.46C41.38 16.31 41.38 18.16 41.38 20.01C41.38 20.77 41.23 20.92 40.49 20.92H38.76C38.24 20.92 37.99 20.69 38 20.18V8.65002C38 8.11002 38.25 7.86002 38.8 7.88002C39.35 7.90002 39.99 7.88002 40.59 7.88002C41.19 7.88002 41.39 8.16002 41.39 8.72002C41.38 10.63 41.38 12.54 41.38 14.46Z" fill="black"></path>
      <path d="M50.1901 14.2199C50.1743 16.9176 49.2868 19.5379 47.6601 21.6899C47.5463 21.9123 47.3569 22.0869 47.126 22.1822C46.895 22.2775 46.6377 22.2873 46.4001 22.2099C46.2108 22.1294 46.0402 22.0105 45.899 21.8608C45.7579 21.7111 45.6493 21.5337 45.5801 21.3399C45.5549 20.9424 45.6798 20.5498 45.9301 20.2399C47.3093 18.3449 48.0135 16.0423 47.9301 13.6999C47.8755 11.9001 47.3441 10.1471 46.3901 8.61994C46.2295 8.41428 46.1423 8.16085 46.1423 7.89994C46.1423 7.63903 46.2295 7.3856 46.3901 7.17994C46.5179 7.00482 46.6992 6.87599 46.9066 6.81286C47.1141 6.74973 47.3364 6.75572 47.5401 6.82994C47.8755 6.97557 48.1557 7.22426 48.3401 7.53994C49.5787 9.5457 50.2204 11.8628 50.1901 14.2199Z" fill="#F36E21"></path>
    </g>
    <defs>
      <clipPath id="clip0_109_31">
        <rect width="59.32" height="46.44" fill="white"></rect>
      </clipPath>
    </defs>
  </symbol>
  <symbol fill="none" xmlns="http://www.w3.org/2000/svg" viewBox="0 0 52 52" id="ai">
    <g clip-path="url(#clip0_109_40)">
      <path d="M11.76 44.07C11.11 44.07 10.5 43.97 9.88001 43.95C9.2989 43.8803 8.76247 43.6032 8.36932 43.1697C7.97616 42.7361 7.75271 42.1752 7.74001 41.59C7.74001 41.08 7.74001 40.59 7.74001 39.99H7.34001C5.50001 39.99 3.65001 39.99 1.81001 39.93C1.47193 39.9125 1.13669 39.8589 0.810012 39.77C0.60253 39.7216 0.415937 39.6082 0.27743 39.4463C0.138923 39.2844 0.055742 39.0825 0.0400117 38.87C0.0400117 38.18 -0.0199883 37.47 0.0400117 36.77C0.100012 36.07 0.480012 35.88 0.870012 35.54C0.940012 35.47 1.10001 35.54 1.21001 35.54H7.72001V32.12H7.43001L1.31001 32.04C1.10001 32.04 0.820012 32.04 0.700012 31.96C0.408736 31.7217 0.196138 31.4011 0.0900114 31.04C0.00997506 30.2588 0.00997506 29.4713 0.0900114 28.69C0.154279 28.3913 0.313851 28.1215 0.544703 27.9214C0.775555 27.7212 1.06519 27.6014 1.37001 27.58H7.71001V24.2H7.34001H1.34001C1.0367 24.1827 0.746648 24.0698 0.511354 23.8777C0.276059 23.6855 0.107577 23.4238 0.0300114 23.13C-0.0399517 22.3383 -0.0399517 21.5418 0.0300114 20.75C0.0300114 20.42 0.410012 20.12 0.650012 19.83C0.650012 19.76 0.880011 19.77 1.01001 19.76L7.26001 19.69H7.66001V16.26H1.38001C1.05944 16.2537 0.750915 16.1368 0.506704 15.929C0.262493 15.7213 0.0976169 15.4355 0.0400117 15.12C-0.0149577 14.3477 -0.0149577 13.5724 0.0400117 12.8C0.0607614 12.5809 0.158571 12.3762 0.316043 12.2224C0.473515 12.0686 0.68044 11.9756 0.900012 11.96C1.46173 11.86 2.02981 11.7999 2.60001 11.78C4.15001 11.78 5.71001 11.78 7.26001 11.78H7.65001C7.65001 11.57 7.65001 11.38 7.65001 11.19C7.65001 10.79 7.71001 10.38 7.72001 9.97004C7.77044 9.36176 8.04886 8.795 8.49948 8.38331C8.95011 7.97163 9.53966 7.74543 10.15 7.75004C10.64 7.75004 11.15 7.75004 11.69 7.75004V7.36004C11.69 5.51004 11.69 3.67004 11.75 1.82004C11.7656 1.48176 11.8193 1.14631 11.91 0.820041C11.9469 0.59745 12.066 0.39683 12.2438 0.257925C12.4216 0.119021 12.6451 0.0519646 12.87 0.0700406C13.57 0.0700406 14.27 0.0100404 14.97 4.04418e-05C15.67 -0.00995956 15.9 0.47004 16.25 0.85004C16.32 0.92004 16.3 1.08004 16.3 1.19004V7.72004H19.68C19.68 7.61004 19.68 7.51004 19.68 7.41004C19.68 5.41004 19.68 3.33004 19.77 1.29004C19.77 1.08004 19.77 0.800041 19.86 0.680041C20.088 0.395458 20.3991 0.189186 20.75 0.0900406C21.5449 0.0149714 22.3451 0.0149714 23.14 0.0900406C23.4217 0.172921 23.6714 0.339951 23.8555 0.568733C24.0396 0.797516 24.1493 1.07711 24.17 1.37004V7.72004H27.57V1.38004C27.5777 1.08307 27.6783 0.79597 27.8577 0.559175C28.0371 0.322379 28.2862 0.147809 28.57 0.0600404C29.3749 -0.015205 30.1851 -0.015205 30.99 0.0600404C31.31 0.0600404 31.61 0.45004 31.9 0.69004C31.97 0.69004 31.95 0.91004 31.95 1.02004C31.95 3.12004 31.9767 5.21337 32.03 7.30004V7.68004H35.47C35.47 7.57004 35.47 7.45004 35.47 7.32004C35.47 5.32004 35.47 3.32004 35.47 1.32004C35.47 1.12004 35.47 0.850041 35.56 0.740041C35.85 0.440041 36.18 0.0400404 36.56 4.04418e-05C37.3747 -0.0799288 38.1953 -0.0799288 39.01 4.04418e-05C39.2174 0.0275816 39.4087 0.126503 39.551 0.279801C39.6934 0.433098 39.7779 0.631196 39.79 0.840041C39.895 1.41114 39.9551 1.98957 39.97 2.57004C39.97 4.14004 39.97 5.70004 39.97 7.27004V7.66004C40.48 7.66004 40.97 7.66004 41.42 7.66004C41.7627 7.64884 42.104 7.70825 42.4228 7.83458C42.7415 7.9609 43.0309 8.15145 43.2729 8.39436C43.5148 8.63728 43.7043 8.92737 43.8294 9.24661C43.9544 9.56584 44.0125 9.9074 44 10.25C44 10.71 44 11.17 44 11.68C44.16 11.68 44.29 11.68 44.41 11.68C46.26 11.68 48.1 11.68 49.94 11.74C50.278 11.752 50.6134 11.8023 50.94 11.89C51.1543 11.9357 51.3476 12.0504 51.4904 12.2166C51.6331 12.3828 51.7173 12.5913 51.73 12.81C51.73 13.49 51.73 14.18 51.73 14.87C51.73 15.56 51.26 15.77 50.89 16.12C50.82 16.19 50.66 16.17 50.55 16.17H44.03V19.55H44.33L50.45 19.63C50.66 19.63 50.94 19.63 51.06 19.73C51.3513 19.9683 51.5639 20.289 51.67 20.65C51.7449 21.4216 51.7449 22.1985 51.67 22.97C51.6011 23.2764 51.4318 23.5511 51.189 23.7503C50.9463 23.9496 50.644 24.0621 50.33 24.07H44.03V27.47H50.36C50.6695 27.479 50.9675 27.5897 51.2079 27.7849C51.4482 27.9801 51.6177 28.249 51.69 28.55C51.77 29.3313 51.77 30.1187 51.69 30.9C51.69 31.23 51.3 31.55 51.07 31.84C51.01 31.92 50.82 31.9 50.7 31.9L44.45 31.98H44.06V35.39H50.37C50.6734 35.3966 50.9662 35.5031 51.203 35.6929C51.4399 35.8827 51.6075 36.1453 51.68 36.44C51.745 37.2521 51.745 38.068 51.68 38.88C51.6543 39.0935 51.5538 39.2909 51.3964 39.4374C51.2389 39.5838 51.0348 39.6698 50.82 39.68C50.2489 39.785 49.6705 39.8452 49.09 39.86C47.54 39.86 46 39.86 44.46 39.86H44.1C44.1 40.51 44.04 41.12 43.98 41.73C43.9433 42.2562 43.7229 42.7527 43.3573 43.1329C42.9918 43.513 42.5043 43.7527 41.98 43.81C41.36 43.88 40.74 43.9 40.07 43.94V44.32C40.07 46.13 40.07 47.94 40.01 49.75C39.9908 50.0873 39.9406 50.422 39.86 50.75C39.8198 50.9714 39.7062 51.1728 39.5374 51.3216C39.3687 51.4704 39.1547 51.5579 38.93 51.57C38.2633 51.6167 37.5733 51.6367 36.86 51.63C36.28 51.63 35.97 51.15 35.62 50.78C35.56 50.71 35.62 50.55 35.62 50.43V44.03H32.11C32.11 44.15 32.11 44.25 32.11 44.35C32.11 46.35 32.11 48.41 32.02 50.44C32.02 50.66 32.02 50.96 31.92 51.08C31.6569 51.3789 31.3075 51.5886 30.92 51.68C30.1822 51.76 29.4379 51.76 28.7 51.68C28.3784 51.6241 28.0865 51.4576 27.8747 51.2093C27.6629 50.9609 27.5445 50.6464 27.54 50.32V44.03H24.17V50.38C24.1589 50.6878 24.0472 50.9835 23.8522 51.2218C23.6572 51.4602 23.3895 51.6282 23.09 51.7C22.3087 51.7801 21.5213 51.7801 20.74 51.7C20.4 51.7 20.09 51.31 19.79 51.07C19.72 51.07 19.74 50.85 19.74 50.73C19.74 48.6367 19.7133 46.5434 19.66 44.45V44.07H16.28C16.28 44.18 16.28 44.3 16.28 44.43V50.43C16.2729 50.7322 16.1661 51.0235 15.9762 51.2587C15.7863 51.4938 15.5239 51.6595 15.23 51.73C14.4146 51.795 13.5954 51.795 12.78 51.73C12.5673 51.7024 12.371 51.6014 12.2249 51.4443C12.0788 51.2873 11.9922 51.0842 11.98 50.87C11.8838 50.2946 11.827 49.7132 11.81 49.13C11.81 47.57 11.81 46 11.81 44.44L11.76 44.07ZM14.44 32.6C14.6282 32.6363 14.8186 32.6597 15.01 32.67H18.86C19.05 32.67 19.12 32.59 19.18 32.42C19.34 31.91 19.53 31.42 19.69 30.89C19.7023 30.812 19.745 30.742 19.8086 30.6952C19.8723 30.6483 19.9518 30.6285 20.03 30.64C21.47 30.64 22.9 30.64 24.34 30.56C24.3808 30.5529 24.4226 30.554 24.4629 30.5633C24.5032 30.5726 24.5413 30.5899 24.5749 30.6141C24.6084 30.6383 24.6368 30.669 24.6583 30.7044C24.6798 30.7398 24.694 30.7791 24.7 30.82C24.86 31.37 25.04 31.91 25.19 32.46C25.1947 32.5042 25.2086 32.5469 25.2307 32.5854C25.2528 32.6239 25.2826 32.6573 25.3184 32.6837C25.3541 32.71 25.3949 32.7286 25.4383 32.7383C25.4816 32.748 25.5265 32.7486 25.57 32.74H29.1H29.72C29.98 32.74 30.07 32.61 29.97 32.33C28.21 27.5034 26.4533 22.6734 24.7 17.84C24.6788 17.7581 24.6287 17.6866 24.5588 17.6388C24.4889 17.591 24.4041 17.5701 24.32 17.58H20.76C20.61 17.58 20.46 17.58 20.31 17.58C20.01 17.58 19.88 17.74 19.79 18.01C18.05 22.7367 16.3067 27.47 14.56 32.21C14.52 32.31 14.49 32.43 14.44 32.6ZM35.73 32.6V17.53H31.04V32.6H35.73Z" fill="black"></path>
      <path d="M22.3299 22.75C22.5699 23.5 22.7899 24.15 22.9899 24.8C23.1899 25.45 23.3899 26.19 23.5999 26.88C23.6799 27.13 23.5999 27.23 23.3699 27.23C22.6599 27.23 21.9399 27.23 21.2299 27.23C21.0399 27.23 20.8599 27.18 20.9499 26.9C21.3699 25.6 21.7799 24.29 22.1999 22.99C22.2344 22.9055 22.278 22.8251 22.3299 22.75Z" fill="black"></path>
    </g>
    <defs>
      <clipPath id="clip0_109_40">
        <rect width="51.74" height="51.75" fill="white"></rect>
      </clipPath>
    </defs>
  </symbol>
  <symbol fill="none" xmlns="http://www.w3.org/2000/svg" viewBox="0 0 50 52" id="blockchain">
    <g clip-path="url(#clip0_109_2)">
      <path d="M14.6301 7.18994L18.2001 9.18994L22.7901 11.8599C23.2001 12.0999 23.5401 12.3199 23.5401 12.8599C23.5401 15.9199 23.5401 18.9799 23.5401 22.0399C23.518 22.1324 23.4879 22.2227 23.4501 22.3099C23.229 22.2387 23.012 22.1553 22.8001 22.0599L15.3401 17.8599C14.9701 17.6399 14.6201 17.4599 14.6201 16.9299C14.6401 13.7399 14.6301 10.5799 14.6301 7.18994Z" fill="#3D4754"></path>
      <path d="M1.28003 30.24L4.98003 28.09L9.45003 25.5C9.81003 25.29 10.15 25.08 10.61 25.35C13.34 26.95 16.08 28.52 18.93 30.16C18.7109 30.3504 18.4805 30.5274 18.24 30.69L10.85 34.96C10.48 35.17 10.15 35.37 9.69003 35.1C7.09003 33.5466 4.4567 32.01 1.79003 30.49L1.28003 30.24Z" fill="#17202B"></path>
      <path d="M29.33 32.58C29.72 32.76 30.01 32.87 30.33 33.03C32.71 34.3633 35.0833 35.7333 37.45 37.14C37.81 37.34 38.18 37.49 38.18 38.05C38.18 41.21 38.18 44.37 38.18 47.63C37.9644 47.5868 37.7534 47.5232 37.55 47.44L30.05 43.13C29.822 43.0463 29.626 42.8932 29.4897 42.6923C29.3533 42.4914 29.2835 42.2527 29.29 42.01C29.29 39.06 29.29 36.1 29.29 33.15C29.2886 32.9592 29.302 32.7686 29.33 32.58Z" fill="#3D4754"></path>
      <path d="M16.0901 4.92996C16.3601 4.73996 16.5701 4.56996 16.8001 4.43996C19.2001 3.04996 21.6101 1.66996 24.0001 0.259963C24.222 0.101907 24.4877 0.0169678 24.7601 0.0169678C25.0325 0.0169678 25.2982 0.101907 25.5201 0.259963C27.9901 1.72996 30.5201 3.14996 32.9901 4.58996C33.1401 4.67996 33.2701 4.78996 33.5001 4.94996C33.3448 5.0999 33.1775 5.23701 33.0001 5.35996L25.4401 9.73996C25.2803 9.8741 25.0825 9.95489 24.8745 9.97103C24.6665 9.98717 24.4587 9.93784 24.2801 9.82996C21.6801 8.29996 19.0601 6.82996 16.4401 5.27996C16.3109 5.17652 16.1935 5.05915 16.0901 4.92996Z" fill="#17202B"></path>
      <path d="M8.71 47.7L5.26 45.7L0.7 43.1C0.32 42.88 0 42.68 0 42.16C0 39.06 0 35.97 0 32.88C0.0226746 32.7896 0.0562542 32.7023 0.0999999 32.62C0.35 32.74 0.61 32.83 0.84 32.96C3.28 34.36 5.7 35.78 8.15 37.16C8.37075 37.2621 8.55561 37.4283 8.68048 37.637C8.80534 37.8457 8.86442 38.0872 8.85 38.33C8.85 41.18 8.85 44.03 8.85 46.87C8.82541 47.1499 8.7786 47.4275 8.71 47.7Z" fill="#3D4754"></path>
      <path d="M11.4601 47.6299V43.3699C11.4601 41.6799 11.4601 39.9899 11.4601 38.2999C11.4353 38.1014 11.4706 37.8999 11.5616 37.7216C11.6525 37.5434 11.7948 37.3965 11.9701 37.2999C14.6001 35.8199 17.2201 34.2999 19.8401 32.7999C19.966 32.7502 20.0967 32.7133 20.2301 32.6899C20.2899 32.9462 20.3267 33.2072 20.3401 33.4699C20.3401 36.3199 20.3401 39.1699 20.3401 42.0199C20.3622 42.2217 20.3224 42.4255 20.226 42.6041C20.1295 42.7827 19.981 42.9278 19.8001 43.0199C17.1401 44.5299 14.5001 46.0199 11.8001 47.5899C11.6879 47.6114 11.5743 47.6248 11.4601 47.6299Z" fill="#202933"></path>
      <path d="M49.5701 32.52V35.66C49.5701 37.7334 49.5701 39.8067 49.5701 41.88C49.607 42.1035 49.5739 42.333 49.4755 42.5371C49.3771 42.7411 49.218 42.9098 49.0201 43.02C46.4301 44.49 43.8501 46.02 41.2601 47.48C41.1045 47.5338 40.9436 47.5706 40.7801 47.59C40.7801 47.22 40.7001 46.92 40.7001 46.59C40.7001 43.89 40.7001 41.18 40.7001 38.48C40.6725 38.1862 40.7365 37.891 40.8833 37.635C41.0301 37.379 41.2526 37.1746 41.5201 37.05C43.8501 35.75 46.1501 34.39 48.4601 33.05C48.7901 32.92 49.0701 32.78 49.5701 32.52Z" fill="#202933"></path>
      <path d="M26.1599 22.37C26.1172 22.1589 26.0905 21.945 26.0799 21.73C26.0799 18.81 26.0799 15.9 26.0799 12.98C26.0595 12.776 26.1023 12.5706 26.2024 12.3918C26.3026 12.2129 26.4553 12.0692 26.6399 11.98C29.2699 10.49 31.8799 8.97997 34.4999 7.46997C34.6272 7.41885 34.7574 7.37544 34.8899 7.33997C34.8899 7.62997 34.9599 7.88997 34.9599 8.14997C34.9599 10.96 34.9599 13.76 34.9599 16.57C34.999 16.8096 34.9645 17.0554 34.861 17.2751C34.7574 17.4947 34.5897 17.6777 34.3799 17.8C31.7799 19.26 29.1999 20.8 26.6099 22.25C26.4632 22.3013 26.3127 22.3414 26.1599 22.37Z" fill="#202933"></path>
      <path d="M30.6499 30.17C33.4899 28.52 36.2299 26.94 38.9799 25.39C39.1142 25.326 39.2611 25.2928 39.4099 25.2928C39.5587 25.2928 39.7056 25.326 39.8399 25.39C42.5899 26.95 45.3099 28.53 48.2199 30.21C47.8199 30.48 47.5599 30.68 47.2799 30.84C44.9199 32.22 42.5399 33.59 40.1699 34.95C39.7799 35.18 39.4399 35.42 38.9199 35.11C36.3299 33.57 33.6999 32.11 31.0899 30.56C30.932 30.4433 30.7847 30.3128 30.6499 30.17Z" fill="#17202B"></path>
      <path d="M4.2399 24.64V21.55C4.2399 20.22 4.2399 18.88 4.2399 17.55C4.20365 17.2513 4.25079 16.9483 4.3761 16.6747C4.50142 16.4012 4.70002 16.1676 4.9499 16C6.9499 14.8 9.0099 13.64 11.2199 12.35C11.2199 13.67 11.2199 14.81 11.2199 15.95C11.2199 16.16 10.9399 16.41 10.7299 16.54C9.94991 17.03 9.15991 17.49 8.34991 17.91C8.11 18.017 7.91067 18.1981 7.78111 18.4266C7.65155 18.6551 7.59856 18.9191 7.6299 19.18C7.6299 20.09 7.6299 21.01 7.6299 21.92C7.66581 22.1633 7.62063 22.4116 7.50135 22.6267C7.38206 22.8418 7.19531 23.0116 6.96991 23.11C6.12991 23.53 5.3199 24.03 4.2399 24.64Z" fill="#217EC2"></path>
      <path d="M38.33 12.36C39.97 13.29 41.44 14.11 42.88 14.95C45.6 16.55 45.33 16.06 45.33 19.2C45.33 20.6 45.33 22.01 45.33 23.41V24.66C44.19 24 43.24 23.5 42.33 22.9C42.2135 22.7812 42.1218 22.6405 42.06 22.486C41.9982 22.3315 41.9676 22.1663 41.97 22C41.92 21 41.97 20 41.97 19.05C41.993 18.8264 41.9444 18.6013 41.8312 18.4072C41.7179 18.2131 41.5459 18.06 41.34 17.97C40.53 17.55 39.77 17.04 38.96 16.61C38.7523 16.5186 38.5787 16.364 38.4639 16.1684C38.349 15.9727 38.2986 15.7459 38.32 15.52C38.36 14.54 38.33 13.56 38.33 12.36Z" fill="#217EC2"></path>
      <path d="M17.95 47.97C19 47.36 19.89 46.8 20.83 46.34C20.9852 46.2865 21.1498 46.266 21.3134 46.2798C21.477 46.2936 21.6359 46.3413 21.78 46.42C22.59 46.83 23.38 47.29 24.16 47.78C24.3457 47.9113 24.5675 47.9818 24.795 47.9818C25.0224 47.9818 25.2442 47.9113 25.43 47.78C26.21 47.31 26.99 46.78 27.81 46.42C28.1042 46.271 28.4449 46.2423 28.76 46.34C29.7 46.81 30.59 47.34 31.6 47.96C31.4105 48.139 31.2101 48.306 31 48.46C29.32 49.46 27.63 50.37 26 51.35C25.6503 51.5873 25.2375 51.7142 24.815 51.7142C24.3924 51.7142 23.9796 51.5873 23.63 51.35C21.94 50.35 20.22 49.35 18.52 48.35C18.3231 48.2339 18.1329 48.107 17.95 47.97Z" fill="#217EC2"></path>
    </g>
    <defs>
      <clipPath id="clip0_109_2">
        <rect width="49.57" height="51.72" fill="white"></rect>
      </clipPath>
    </defs>
  </symbol>
  <symbol fill="none" xmlns="http://www.w3.org/2000/svg" viewBox="0 0 48 52" id="chatbot">
    <g clip-path="url(#clip0_109_15)">
      <path d="M23.69 22.32H34.64C35.0958 22.2711 35.5568 22.3249 35.9891 22.4775C36.4215 22.63 36.8141 22.8775 37.1383 23.2017C37.4625 23.5259 37.7099 23.9185 37.8625 24.3508C38.0151 24.7832 38.0689 25.2442 38.02 25.7V47.63C38.0702 48.087 38.0175 48.5495 37.8657 48.9835C37.7139 49.4174 37.4668 49.8119 37.1427 50.138C36.8186 50.464 36.4255 50.7134 35.9925 50.8677C35.5594 51.0221 35.0973 51.0775 34.64 51.03C27.3066 51.03 20 51.03 12.72 51.03C12.256 51.0866 11.7852 51.0368 11.3433 50.8844C10.9014 50.732 10.5 50.481 10.1694 50.1505C9.83892 49.82 9.58796 49.4186 9.43559 48.9767C9.28321 48.5348 9.23341 48.064 9.28996 47.6C9.28996 40.32 9.28996 33.0433 9.28996 25.77C9.28996 23.53 10.47 22.33 12.69 22.32H23.69ZM16.76 29.52C16.35 29.52 15.94 29.52 15.52 29.52C14.52 29.52 14.04 30.02 14.03 31.08C14.03 31.9 14.03 32.73 14.03 33.56C14.0202 33.7373 14.0473 33.9147 14.1098 34.081C14.1723 34.2472 14.2686 34.3986 14.3928 34.5256C14.5169 34.6525 14.6662 34.7523 14.8309 34.8185C14.9957 34.8847 15.1725 34.9158 15.35 34.91C16.2393 34.96 17.1307 34.96 18.02 34.91C18.2068 34.9213 18.394 34.8934 18.5694 34.8279C18.7448 34.7625 18.9046 34.661 19.0383 34.53C19.1721 34.3991 19.277 34.2415 19.3462 34.0676C19.4153 33.8936 19.4473 33.7071 19.44 33.52C19.44 32.79 19.44 32.05 19.44 31.32C19.44 30.04 19 29.61 17.72 29.59L16.76 29.52ZM30.56 29.52H29.64C28.29 29.52 27.86 29.96 27.86 31.29C27.86 32.02 27.86 32.75 27.86 33.48C27.8436 33.6728 27.8692 33.8669 27.935 34.0489C28.0008 34.2309 28.1052 34.3965 28.2411 34.5343C28.377 34.6721 28.5411 34.7788 28.7221 34.8471C28.9032 34.9154 29.0969 34.9437 29.29 34.93C30.12 34.93 30.95 34.93 31.77 34.93C31.9706 34.9503 32.1733 34.9257 32.3633 34.858C32.5533 34.7903 32.7259 34.6812 32.8685 34.5386C33.0112 34.396 33.1203 34.2234 33.188 34.0334C33.2557 33.8434 33.2803 33.6407 33.26 33.44C33.26 32.77 33.26 32.1 33.26 31.44C33.26 29.9 32.9 29.54 31.35 29.53L30.56 29.52ZM23.64 44.13H29.38C30.03 44.13 30.55 43.91 30.54 43.13C30.53 42.35 30.04 42.23 29.43 42.22H18.23C18.01 42.22 17.73 42.15 17.58 42.22C17.25 42.46 16.79 42.78 16.78 43.09C16.77 43.4 17.21 43.76 17.53 43.98C17.85 44.2 18.09 44.04 18.37 44.04L23.64 44.13Z" fill="black"></path>
      <path d="M10.1999 19.65C10.8799 18.14 11.4299 16.86 12.0499 15.65C12.1945 15.434 12.2493 15.1701 12.2026 14.9144C12.1559 14.6586 12.0115 14.4311 11.7999 14.28C9.25991 11.92 8.52991 9.13003 9.66991 6.34003C10.2966 4.87345 11.3265 3.61473 12.6399 2.71003C17.5699 -0.939965 25.6399 -0.899965 30.5099 2.84003C32.9199 4.69003 34.2899 7.07003 33.6299 10.24C33.2224 12.044 32.1516 13.6289 30.6299 14.68C26.7199 17.62 22.3099 18.2 17.6299 17.17C16.811 16.9354 15.9341 17.0138 15.1699 17.39C13.6399 18.16 12.0399 18.82 10.1999 19.65ZM21.3399 7.52003C21.1171 7.54507 20.9061 7.63361 20.7322 7.77512C20.5582 7.91664 20.4286 8.10517 20.3587 8.31825C20.2889 8.53134 20.2817 8.76002 20.3381 8.97705C20.3945 9.19409 20.5121 9.39034 20.6769 9.54244C20.8417 9.69455 21.0467 9.79609 21.2676 9.83499C21.4884 9.87388 21.7158 9.8485 21.9226 9.76184C22.1294 9.67519 22.307 9.53093 22.4342 9.34623C22.5614 9.16152 22.6328 8.94417 22.6399 8.72003C22.6405 8.55367 22.6065 8.389 22.54 8.23648C22.4736 8.08397 22.3761 7.94694 22.2539 7.8341C22.1316 7.72125 21.9872 7.63506 21.8299 7.581C21.6726 7.52693 21.5057 7.50617 21.3399 7.52003ZM26.5799 9.86003C26.8647 9.84476 27.133 9.72141 27.3299 9.51515C27.5269 9.30888 27.6378 9.03524 27.6399 8.75003C27.6482 8.58972 27.6234 8.42941 27.567 8.2791C27.5106 8.12879 27.424 7.99168 27.3123 7.87631C27.2007 7.76093 27.0665 7.66977 26.9182 7.60847C26.7698 7.54718 26.6104 7.51708 26.4499 7.52003C26.298 7.50999 26.1457 7.53217 26.0029 7.58513C25.8602 7.63809 25.7303 7.72063 25.6217 7.82734C25.5131 7.93404 25.4283 8.0625 25.3728 8.20428C25.3174 8.34606 25.2925 8.49797 25.2999 8.65003C25.287 8.81922 25.3116 8.98918 25.3721 9.14771C25.4326 9.30624 25.5274 9.44943 25.6497 9.567C25.7721 9.68457 25.9189 9.77361 26.0798 9.82773C26.2406 9.88185 26.4114 9.89971 26.5799 9.88003V9.86003ZM16.4899 7.52003C16.3309 7.51108 16.1718 7.53614 16.0232 7.59356C15.8746 7.65097 15.74 7.73942 15.6283 7.85299C15.5167 7.96656 15.4305 8.10264 15.3756 8.25216C15.3207 8.40167 15.2983 8.56118 15.3099 8.72003C15.2979 8.8728 15.3191 9.02637 15.3721 9.17014C15.4252 9.31392 15.5087 9.44448 15.6171 9.55284C15.7255 9.6612 15.856 9.74478 15.9998 9.79781C16.1436 9.85085 16.2971 9.87207 16.4499 9.86003C16.6001 9.87238 16.7512 9.85374 16.8939 9.80527C17.0365 9.75681 17.1677 9.67955 17.2793 9.57829C17.3909 9.47702 17.4805 9.35392 17.5425 9.2166C17.6045 9.07929 17.6377 8.93069 17.6399 8.78004C17.6553 8.62003 17.637 8.45858 17.5861 8.3061C17.5352 8.15362 17.453 8.0135 17.3446 7.89477C17.2362 7.77605 17.1042 7.68136 16.957 7.61681C16.8098 7.55227 16.6507 7.5193 16.4899 7.52003Z" fill="#58A9DE"></path>
      <path d="M4.5701 30.1L7.2601 29.66V44.36C6.23958 44.3739 5.22835 44.1645 4.29727 43.7465C3.36619 43.3285 2.53778 42.7119 1.8701 41.94C0.614472 40.5272 -0.0529773 38.6875 0.00466627 36.7983C0.0623099 34.9091 0.840677 33.1135 2.1801 31.78C2.5325 31.4043 2.73832 30.9146 2.7601 30.4C2.8101 26.4 2.7601 22.4 2.7601 18.4C2.73931 17.9708 2.59331 17.5571 2.3401 17.21C2.05873 16.8619 1.9163 16.4219 1.94031 15.975C1.96432 15.5281 2.15306 15.1059 2.4701 14.79C2.79796 14.5055 3.22029 14.3539 3.6542 14.3648C4.08811 14.3757 4.50227 14.5485 4.81539 14.849C5.12851 15.1496 5.31797 15.5564 5.3466 15.9895C5.37522 16.4226 5.24094 16.8508 4.9701 17.19C4.718 17.4956 4.55841 17.8668 4.5101 18.26C4.5101 22.03 4.5101 25.8 4.5101 29.56C4.51659 29.7412 4.53664 29.9217 4.5701 30.1Z" fill="black"></path>
      <path d="M40.01 29.6501L42.71 30.1001C42.71 29.7601 42.71 29.4201 42.71 29.1001C42.71 25.5901 42.71 22.1001 42.71 18.5701C42.6796 18.084 42.5133 17.6162 42.23 17.2201C41.9556 16.8823 41.8169 16.4544 41.8409 16.0199C41.865 15.5854 42.05 15.1755 42.36 14.8701C42.6691 14.5659 43.0811 14.3889 43.5144 14.3741C43.9478 14.3592 44.3709 14.5077 44.7 14.7901C45.0304 15.0943 45.2358 15.5104 45.2765 15.9576C45.3171 16.4049 45.1901 16.8513 44.92 17.2101C44.6697 17.6041 44.5219 18.0544 44.49 18.5201C44.49 22.4101 44.49 26.3001 44.49 30.1901C44.4723 30.5011 44.5222 30.8123 44.6361 31.1023C44.75 31.3923 44.9253 31.6542 45.15 31.8701C46.1154 32.7924 46.7969 33.9716 47.1141 35.2686C47.4312 36.5656 47.3708 37.9263 46.94 39.1901C46.5674 40.4654 45.8438 41.6104 44.8519 42.4944C43.86 43.3785 42.6397 43.966 41.33 44.1901C41.1431 44.2337 40.952 44.2571 40.76 44.2601H40.04L40.01 29.6501Z" fill="black"></path>
      <path d="M26.1899 18.39C32.9399 16.49 35.1899 13.87 35.0499 8.05005C38.5099 9.36005 40.4199 13.58 37.1499 16.7C36.9419 16.8573 36.8036 17.0896 36.7643 17.3473C36.7251 17.6051 36.7881 17.8681 36.9399 18.08C37.3399 18.83 37.6399 19.63 38.0899 20.63C36.8299 20.06 35.7899 19.53 34.6999 19.14C34.1266 18.9205 33.5042 18.8617 32.8999 18.97C30.7899 19.43 27.4999 19.26 26.1899 18.39Z" fill="#416C8F"></path>
    </g>
    <defs>
      <clipPath id="clip0_109_15">
        <rect width="47.28" height="51.04" fill="white"></rect>
      </clipPath>
    </defs>
  </symbol>
  <symbol fill="none" xmlns="http://www.w3.org/2000/svg" viewBox="0 0 53 53" id="iot">
    <g clip-path="url(#clip0_109_21)">
      <path d="M0 24.07V22.07C0.0319952 21.9688 0.0554114 21.8651 0.0700002 21.76C0.28518 20.0532 0.91063 18.4239 1.89284 17.0115C2.87505 15.5992 4.18479 14.4458 5.71 13.65C6.03 13.48 6.24 13.33 6.23 12.91C6.2386 12.4855 6.29224 12.0632 6.39 11.65C6.78674 9.01943 7.94517 6.56263 9.72227 4.58294C11.4994 2.60324 13.8173 1.18733 16.39 0.51C17.19 0.26 18.04 0.17 18.87 0H21.07C21.1675 0.0331114 21.2679 0.0565578 21.37 0.0700002C24.5336 0.371775 27.4865 1.78973 29.7 4.07C29.7433 4.12778 29.7976 4.17646 29.8598 4.21326C29.9219 4.25006 29.9907 4.27426 30.0622 4.28447C30.1337 4.29469 30.2065 4.29072 30.2765 4.27279C30.3465 4.25487 30.4122 4.22334 30.47 4.18C31.7571 3.48467 33.1818 3.08202 34.6425 3.00078C36.1031 2.91953 37.5637 3.1617 38.92 3.71C40.8549 4.39986 42.5472 5.63809 43.7902 7.27356C45.0333 8.90904 45.7733 10.871 45.92 12.92C45.9303 13.0665 45.9818 13.2071 46.0685 13.3256C46.1552 13.4441 46.2735 13.5358 46.41 13.59C48.8659 14.8536 50.729 17.029 51.6 19.65C51.87 20.43 51.99 21.26 52.18 22.06V24.07C52.1414 24.143 52.1112 24.2202 52.09 24.3C51.9242 25.7273 51.4699 27.106 50.7548 28.3524C50.0397 29.5987 49.0786 30.6866 47.93 31.55C46.4747 32.6825 44.7531 33.4228 42.93 33.7C42.93 35.02 42.93 36.33 42.93 37.63C42.9681 37.7896 43.0556 37.933 43.18 38.04C43.8867 38.7667 44.6067 39.4867 45.34 40.2C45.5512 40.3955 45.7177 40.6343 45.8282 40.9001C45.9386 41.1659 45.9904 41.4524 45.98 41.74C45.98 42.62 45.98 43.51 45.98 44.39C46.0047 44.6056 45.9835 44.824 45.9179 45.0309C45.8523 45.2377 45.7437 45.4284 45.5992 45.5903C45.4548 45.7523 45.2777 45.8819 45.0796 45.9706C44.8816 46.0593 44.667 46.1052 44.45 46.1052C44.233 46.1052 44.0184 46.0593 43.8204 45.9706C43.6223 45.8819 43.4452 45.7523 43.3008 45.5903C43.1563 45.4284 43.0477 45.2377 42.9821 45.0309C42.9165 44.824 42.8953 44.6056 42.92 44.39C43.025 43.6149 42.9774 42.8268 42.78 42.07C42.51 41.41 41.78 40.95 41.23 40.41C39.61 38.79 39.83 39.16 39.82 37.01C39.82 35.95 39.82 34.88 39.82 33.81H33.71C33.71 35.07 33.71 36.28 33.71 37.5C33.7338 37.6795 33.8185 37.8455 33.95 37.97C34.67 38.71 35.41 39.44 36.15 40.17C36.3543 40.3609 36.5146 40.5939 36.6199 40.8529C36.7252 41.1119 36.773 41.3907 36.76 41.67C36.76 42.58 36.76 43.5 36.76 44.41C36.8046 44.632 36.7994 44.8612 36.7447 45.081C36.69 45.3008 36.5872 45.5057 36.4437 45.6809C36.3002 45.8562 36.1195 45.9973 35.9149 46.0943C35.7102 46.1912 35.4865 46.2415 35.26 46.2415C35.0335 46.2415 34.8098 46.1912 34.6051 46.0943C34.4005 45.9973 34.2198 45.8562 34.0763 45.6809C33.9328 45.5057 33.83 45.3008 33.7753 45.081C33.7206 44.8612 33.7154 44.632 33.76 44.41C33.76 43.73 33.76 43.05 33.76 42.41C33.7451 42.2006 33.6646 42.0011 33.53 41.84C32.92 41.2 32.31 40.55 31.65 39.97C31.3093 39.7009 31.0399 39.3523 30.8656 38.9547C30.6912 38.5572 30.6172 38.1229 30.65 37.69C30.71 36.4 30.65 35.12 30.65 33.82H27.65V44.3C27.6747 44.5156 27.6535 44.734 27.5879 44.9409C27.5223 45.1477 27.4137 45.3384 27.2692 45.5003C27.1248 45.6623 26.9477 45.7919 26.7496 45.8806C26.5516 45.9693 26.337 46.0152 26.12 46.0152C25.903 46.0152 25.6884 45.9693 25.4904 45.8806C25.2923 45.7919 25.1152 45.6623 24.9708 45.5003C24.8263 45.3384 24.7177 45.1477 24.6521 44.9409C24.5865 44.734 24.5653 44.5156 24.59 44.3V33.85H21.59C21.59 33.92 21.59 33.96 21.59 33.99C21.59 34.99 21.59 35.99 21.59 36.99C21.59 39.18 21.83 38.8 20.15 40.48C19.61 41.02 18.89 41.48 18.61 42.15C18.4499 42.859 18.4261 43.5921 18.54 44.31V44.41C18.5571 44.6206 18.5303 44.8325 18.4614 45.0323C18.3925 45.2321 18.283 45.4155 18.1397 45.5709C17.9964 45.7262 17.8225 45.8502 17.629 45.935C17.4354 46.0198 17.2263 46.0636 17.015 46.0636C16.8037 46.0636 16.5946 46.0198 16.401 45.935C16.2075 45.8502 16.0336 45.7262 15.8903 45.5709C15.747 45.4155 15.6375 45.2321 15.5686 45.0323C15.4997 44.8325 15.4729 44.6206 15.49 44.41C15.49 43.5 15.49 42.58 15.49 41.66C15.4816 41.3973 15.5289 41.1359 15.6289 40.8928C15.7289 40.6498 15.8792 40.4307 16.07 40.25C16.67 39.66 17.24 39.02 17.88 38.47C18.1276 38.271 18.3207 38.0126 18.4413 37.7188C18.562 37.4251 18.6063 37.1055 18.57 36.79C18.51 35.79 18.57 34.79 18.57 33.87H12.32C12.32 34.96 12.32 36.01 12.32 37.06C12.32 39.18 12.55 38.84 10.91 40.46C10.36 41.01 9.62 41.46 9.34 42.16C9.17487 42.8887 9.1511 43.6423 9.27 44.38V44.43C9.28219 44.6393 9.25178 44.8489 9.18062 45.0462C9.10946 45.2434 8.99902 45.4241 8.85599 45.5774C8.71295 45.7308 8.54031 45.8535 8.34849 45.9381C8.15667 46.0228 7.94966 46.0676 7.74 46.07C7.53122 46.0691 7.32484 46.0254 7.13356 45.9418C6.94228 45.8581 6.77014 45.7362 6.62776 45.5835C6.48537 45.4308 6.37574 45.2506 6.30561 45.0539C6.23549 44.8573 6.20635 44.6483 6.22 44.44C6.22 43.54 6.22 42.64 6.22 41.74C6.20959 41.4524 6.26137 41.1659 6.37183 40.9001C6.48228 40.6343 6.6488 40.3955 6.86 40.2C7.59 39.49 8.31 38.78 9.02 38.04C9.16989 37.8708 9.25801 37.6557 9.27 37.43C9.27 36.31 9.27 35.19 9.27 34.07C9.27 33.94 9.27 33.81 9.27 33.69C7.18228 33.3654 5.23339 32.4427 3.65917 31.0336C2.08495 29.6244 0.952894 27.7892 0.4 25.75C0.21 25.16 0.12 24.59 0 24.07ZM25.73 12.3C25.25 12.36 24.44 12.4 23.64 12.54C20.8846 13.0173 18.3468 14.3422 16.38 16.33C16.1887 16.5009 16.047 16.7202 15.9695 16.9647C15.8921 17.2093 15.8819 17.4701 15.94 17.72C15.9911 18.0051 16.1258 18.2686 16.327 18.4769C16.5282 18.6853 16.7868 18.8291 17.07 18.89C17.3486 18.9674 17.6432 18.9653 17.9206 18.884C18.1981 18.8027 18.4472 18.6455 18.64 18.43C20.6684 16.5166 23.3515 15.4508 26.14 15.4508C28.9285 15.4508 31.6116 16.5166 33.64 18.43C33.7866 18.5834 33.9627 18.7054 34.1578 18.7889C34.3529 18.8723 34.5628 18.9153 34.775 18.9153C34.9872 18.9153 35.1971 18.8723 35.3922 18.7889C35.5873 18.7054 35.7634 18.5834 35.91 18.43C36.0534 18.2784 36.1641 18.099 36.2352 17.9028C36.3062 17.7065 36.3361 17.4978 36.323 17.2895C36.3099 17.0813 36.254 16.8779 36.1588 16.6922C36.0637 16.5065 35.9313 16.3423 35.77 16.21C34.4406 14.9233 32.8679 13.9148 31.144 13.2434C29.42 12.572 27.5794 12.2513 25.73 12.3ZM26.07 18.52C24.1288 18.4743 22.2471 19.1925 20.83 20.52C20.5486 20.7938 20.3479 21.1398 20.25 21.52C20.1934 21.8329 20.2435 22.1557 20.3922 22.4367C20.5408 22.7177 20.7795 22.9407 21.07 23.07C21.3745 23.2248 21.7214 23.2753 22.0574 23.2139C22.3934 23.1525 22.6999 22.9825 22.93 22.73C23.7961 21.9388 24.9269 21.5 26.1 21.5C27.2731 21.5 28.4039 21.9388 29.27 22.73C29.4158 22.8847 29.5917 23.0079 29.7869 23.0921C29.9821 23.1763 30.1924 23.2198 30.405 23.2198C30.6176 23.2198 30.8279 23.1763 31.0231 23.0921C31.2183 23.0079 31.3942 22.8847 31.54 22.73C31.6823 22.5671 31.7898 22.3769 31.8561 22.171C31.9223 21.9651 31.9459 21.7479 31.9253 21.5326C31.9047 21.3173 31.8404 21.1085 31.7363 20.9189C31.6322 20.7293 31.4906 20.563 31.32 20.43C29.8781 19.1464 27.9997 18.463 26.07 18.52ZM26.07 27.6C26.3726 27.6 26.6684 27.5103 26.92 27.3421C27.1716 27.174 27.3677 26.9351 27.4835 26.6555C27.5993 26.3759 27.6296 26.0683 27.5706 25.7715C27.5116 25.4747 27.3658 25.2021 27.1519 24.9881C26.9379 24.7742 26.6653 24.6284 26.3685 24.5694C26.0717 24.5104 25.7641 24.5407 25.4845 24.6565C25.2049 24.7723 24.966 24.9684 24.7979 25.22C24.6297 25.4716 24.54 25.7674 24.54 26.07C24.5477 26.4734 24.7113 26.8581 24.9966 27.1434C25.2819 27.4286 25.6666 27.5923 26.07 27.6Z" fill="black"></path>
      <path d="M7.33011 52.14L7.00011 51.94C6.70968 51.7771 6.48028 51.524 6.34673 51.219C6.21318 50.914 6.18277 50.5738 6.26011 50.25C6.32058 50.0053 6.44091 49.7796 6.61028 49.593C6.77965 49.4065 6.99274 49.2649 7.23038 49.1812C7.46803 49.0974 7.72277 49.074 7.97169 49.1132C8.22061 49.1523 8.4559 49.2527 8.65639 49.4053C8.85688 49.5579 9.01628 49.758 9.12026 49.9875C9.22423 50.217 9.26951 50.4688 9.25203 50.7202C9.23455 50.9716 9.15485 51.2146 9.02011 51.4276C8.88536 51.6405 8.6998 51.8166 8.48011 51.94L8.15011 52.14H7.33011Z" fill="black"></path>
      <path d="M16.5001 52.1401C16.3903 52.0675 16.2768 52.0008 16.1601 51.9401C15.8541 51.7821 15.6108 51.5248 15.4701 51.2105C15.3294 50.8962 15.2996 50.5434 15.3855 50.21C15.4715 49.8765 15.6682 49.5821 15.9433 49.375C16.2185 49.1679 16.5558 49.0604 16.9001 49.0701C17.2411 49.0693 17.5725 49.1833 17.841 49.3937C18.1094 49.6041 18.2993 49.8987 18.3801 50.2301C18.4609 50.5539 18.4321 50.8954 18.2982 51.2012C18.1643 51.507 17.9329 51.7598 17.6401 51.9201L17.3101 52.1201L16.5001 52.1401Z" fill="black"></path>
      <path d="M25.6599 52.14L25.3299 51.94C25.0395 51.7771 24.8101 51.524 24.6766 51.219C24.543 50.914 24.5126 50.5738 24.5899 50.25C24.6504 50.0053 24.7707 49.7796 24.9401 49.593C25.1095 49.4065 25.3226 49.2649 25.5602 49.1812C25.7979 49.0974 26.0526 49.074 26.3015 49.1132C26.5504 49.1523 26.7857 49.2527 26.9862 49.4053C27.1867 49.5579 27.3461 49.758 27.4501 49.9875C27.5541 50.217 27.5993 50.4688 27.5819 50.7202C27.5644 50.9716 27.4847 51.2146 27.3499 51.4276C27.2152 51.6405 27.0296 51.8166 26.8099 51.94L26.4799 52.14H25.6599Z" fill="black"></path>
      <path d="M34.8299 52.1399L34.4999 51.9399C34.2077 51.7786 33.9762 51.5262 33.8408 51.2211C33.7053 50.9159 33.6734 50.5749 33.7499 50.25C33.8316 49.9174 34.0211 49.6213 34.2889 49.4078C34.5566 49.1943 34.8875 49.0755 35.2299 49.0699C35.571 49.0692 35.9024 49.1832 36.1708 49.3936C36.4393 49.604 36.6291 49.8986 36.7099 50.2299C36.7907 50.5538 36.7619 50.8953 36.628 51.2011C36.4941 51.5069 36.2627 51.7597 35.9699 51.9199L35.6399 52.1199L34.8299 52.1399Z" fill="black"></path>
      <path d="M43.99 52.14L43.66 51.94C43.3696 51.7771 43.1402 51.524 43.0066 51.219C42.8731 50.914 42.8427 50.5738 42.92 50.25C42.9805 50.0053 43.1008 49.7796 43.2702 49.593C43.4396 49.4065 43.6527 49.2649 43.8903 49.1812C44.1279 49.0974 44.3827 49.074 44.6316 49.1132C44.8805 49.1523 45.1158 49.2527 45.3163 49.4053C45.5168 49.5579 45.6762 49.758 45.7802 49.9875C45.8841 50.217 45.9294 50.4688 45.9119 50.7202C45.8945 50.9716 45.8148 51.2146 45.68 51.4276C45.5453 51.6405 45.3597 51.8166 45.14 51.94L44.81 52.14H43.99Z" fill="black"></path>
    </g>
    <defs>
      <clipPath id="clip0_109_21">
        <rect width="52.14" height="52.14" fill="white"></rect>
      </clipPath>
    </defs>
  </symbol>
  <symbol fill="none" xmlns="http://www.w3.org/2000/svg" viewBox="0 0 56 56" id="wordpress">
    <g clip-path="url(#clip0_112_2)">
      <path d="M26.4 55.1L25.4 55.01C19.5667 54.542 14.0326 52.234 9.59529 48.4186C5.15803 44.6031 2.04679 39.4773 0.710003 33.78C0.15792 31.4624 -0.0775557 29.0808 0.0100032 26.7C0.212071 20.6255 2.41001 14.7868 6.26386 10.087C10.1177 5.38714 15.4128 2.08806 21.33 0.699993C23.6475 0.147911 26.0292 -0.0875654 28.41 -6.5472e-06C34.6704 0.172038 40.6778 2.50785 45.41 6.60999C49.9575 10.4515 53.1191 15.6788 54.41 21.49C54.7597 23.0178 54.9706 24.5742 55.04 26.14C55.0357 26.2233 55.0357 26.3067 55.04 26.39V28.68V28.93C54.91 30.08 54.85 31.25 54.64 32.39C53.4306 39.3645 49.5489 45.5924 43.82 49.75C39.6981 52.8245 34.7797 54.6503 29.65 55.01L28.65 55.1H26.4ZM27.54 53.82C32.7357 53.82 37.8148 52.2793 42.1348 49.3927C46.4549 46.5061 49.822 42.4033 51.8103 37.6031C53.7986 32.8029 54.3189 27.5209 53.3052 22.425C52.2916 17.3291 49.7896 12.6482 46.1157 8.9743C42.4418 5.30037 37.7609 2.7984 32.665 1.78476C27.5691 0.77113 22.2871 1.29136 17.4869 3.27968C12.6867 5.26799 8.58388 8.63508 5.6973 12.9552C2.81071 17.2752 1.27 22.3543 1.27 27.55C1.27 34.5172 4.03773 41.1991 8.96431 46.1257C13.8909 51.0523 20.5728 53.82 27.54 53.82Z" fill="#1D769E"></path>
      <path d="M13.0701 16.48L14.0701 16.4C14.6201 16.35 15.1701 16.32 15.7201 16.25C15.8947 16.2441 16.0647 16.1925 16.2132 16.1005C16.3617 16.0084 16.4834 15.8791 16.5664 15.7253C16.6493 15.5716 16.6906 15.3988 16.6859 15.2242C16.6813 15.0495 16.6311 14.8791 16.5401 14.73C16.4472 14.5776 16.311 14.4564 16.149 14.3816C15.9869 14.3068 15.8063 14.2819 15.6301 14.31C13.3201 14.47 11.0101 14.63 8.69011 14.6C8.46011 14.6 8.23011 14.6 8.00011 14.6H7.86011C9.73992 11.7538 12.2139 9.34846 15.1118 7.54947C18.0098 5.75048 21.263 4.60049 24.6478 4.17858C28.0326 3.75667 31.4686 4.07286 34.7195 5.1054C37.9704 6.13794 40.9591 7.86233 43.4801 10.16C43.2601 10.16 43.0601 10.16 42.8601 10.16C42.0198 10.2552 41.2313 10.6142 40.6079 11.1856C39.9844 11.7569 39.5581 12.5112 39.3901 13.34C39.139 14.5205 39.3088 15.7516 39.8701 16.82C40.3601 17.82 40.9301 18.74 41.4801 19.68C42.3547 21.0688 42.9839 22.5978 43.3401 24.2C43.6781 25.9581 43.5924 27.7715 43.0901 29.49C42.5901 31.26 42.0901 33.01 41.5301 34.77L39.4401 41.55C39.4216 41.6441 39.3765 41.7308 39.3101 41.8L30.8001 16.5L31.8001 16.43L33.4901 16.27C33.645 16.2582 33.795 16.2106 33.9283 16.1307C34.0615 16.0509 34.1744 15.9411 34.2578 15.8101C34.3413 15.6791 34.3931 15.5305 34.4091 15.376C34.4251 15.2214 34.4049 15.0653 34.3501 14.92C34.2751 14.7228 34.1352 14.557 33.9535 14.4498C33.7718 14.3425 33.559 14.3003 33.3501 14.33C31.0501 14.49 28.7501 14.67 26.4301 14.61C24.7901 14.61 23.1501 14.45 21.5101 14.37C21.2373 14.3452 20.9629 14.3452 20.6901 14.37C20.4468 14.3929 20.2222 14.5106 20.065 14.6977C19.9079 14.8849 19.8306 15.1264 19.8501 15.37C19.839 15.5986 19.9174 15.8225 20.0686 15.9942C20.2198 16.166 20.432 16.2721 20.6601 16.29C21.4001 16.38 22.1501 16.45 22.8901 16.5C22.9878 16.4949 23.0843 16.524 23.1628 16.5825C23.2413 16.6409 23.2969 16.7249 23.3201 16.82C24.4668 19.9867 25.6268 23.16 26.8001 26.34C26.8651 26.5176 26.8651 26.7124 26.8001 26.89C25.1401 31.85 23.4734 36.8133 21.8001 41.78C21.7714 41.8773 21.72 41.9664 21.6501 42.04L13.0701 16.48Z" fill="#1D769E"></path>
      <path d="M27.9901 29.7L35.3501 49.86C30.6801 51.4928 25.6155 51.6187 20.8701 50.2199L27.9301 29.7H27.9901Z" fill="#1D769E"></path>
      <path d="M5.98992 18.01L17.2099 48.74L17.1399 48.79C11.6724 46.0869 7.45505 41.3832 5.36232 35.6543C3.2696 29.9254 3.46211 23.6108 5.89992 18.02L5.98992 18.01Z" fill="#1D769E"></path>
      <path d="M39.4399 47.94C39.5399 47.63 39.6199 47.38 39.7099 47.13C42.0099 40.5 44.2899 33.86 46.5999 27.23C47.1262 25.843 47.5736 24.4274 47.9399 22.99C48.4343 20.8536 48.5561 18.6478 48.2999 16.47C48.2877 16.4343 48.2877 16.3956 48.2999 16.36C51.2132 21.7438 51.9175 28.0499 50.2639 33.9439C48.6103 39.8378 44.7285 44.8572 39.4399 47.94Z" fill="#1D769E"></path>
    </g>
    <defs>
      <clipPath id="clip0_112_2">
        <rect width="55.09" height="55.09" fill="white"></rect>
      </clipPath>
    </defs>
  </symbol>
  <symbol fill="none" xmlns="http://www.w3.org/2000/svg" viewBox="0 0 51 52" id="laravel">
    <g clip-path="url(#clip0_112_8)">
      <path d="M-6.81877e-05 6.27006C0.118342 5.97636 0.338389 5.73502 0.619932 5.59006C3.7666 3.79006 6.91327 1.98006 10.0599 0.160059C10.2189 0.0607263 10.4025 0.00805664 10.5899 0.00805664C10.7774 0.00805664 10.961 0.0607263 11.1199 0.160059L20.6599 5.66006C20.8205 5.75012 20.953 5.88273 21.043 6.04329C21.133 6.20385 21.1769 6.38613 21.1699 6.57006C21.1699 13.3634 21.1699 20.1534 21.1699 26.9401V27.3301L21.4399 27.1901L29.1099 22.7801C29.1884 22.7442 29.2533 22.684 29.2947 22.6083C29.3362 22.5326 29.352 22.4455 29.3399 22.3601C29.3399 18.9534 29.3399 15.5434 29.3399 12.1301C29.3187 11.9272 29.36 11.7226 29.4583 11.5439C29.5566 11.3651 29.7072 11.2207 29.8899 11.1301L39.4199 5.65006C39.5719 5.56229 39.7444 5.51608 39.9199 5.51608C40.0955 5.51608 40.2679 5.56229 40.4199 5.65006C43.5799 7.47673 46.7466 9.30006 49.9199 11.1201C50.1027 11.2107 50.2533 11.3551 50.3516 11.5339C50.4499 11.7126 50.4912 11.9172 50.4699 12.1201C50.4699 15.7301 50.4699 19.3301 50.4699 22.9401C50.4903 23.144 50.4476 23.3494 50.3474 23.5282C50.2472 23.7071 50.0945 23.8509 49.9099 23.9401L40.9099 29.0901C40.8261 29.1262 40.7563 29.1888 40.7112 29.2682C40.6661 29.3476 40.6481 29.4395 40.6599 29.5301C40.6599 32.9201 40.6599 36.3101 40.6599 39.7001C40.6637 39.9062 40.6094 40.1093 40.5034 40.2861C40.3973 40.4629 40.2436 40.6064 40.0599 40.7001C33.6999 44.3534 27.3433 48.0201 20.9899 51.7001C20.7868 51.8394 20.5462 51.9139 20.2999 51.9139C20.0536 51.9139 19.8131 51.8394 19.6099 51.7001C13.2566 48.0334 6.89993 44.3667 0.539932 40.7001C0.262951 40.5618 0.0460245 40.3271 -0.0700684 40.0401L-6.81877e-05 6.27006ZM19.5699 49.7601V49.3901C19.5699 46.4901 19.5699 43.5901 19.5699 40.6901C19.5785 40.5858 19.5542 40.4815 19.5004 40.3918C19.4465 40.3021 19.366 40.2315 19.2699 40.1901L10.4599 35.1901C10.2367 35.0856 10.0504 34.916 9.92541 34.7036C9.80046 34.4912 9.74277 34.2459 9.75993 34.0001C9.75993 26.9201 9.75993 19.8501 9.75993 12.7701C9.77013 12.6797 9.75143 12.5884 9.70651 12.5094C9.6616 12.4303 9.59277 12.3675 9.50993 12.3301C6.97993 10.9501 4.43993 9.43006 1.88993 7.95006L1.60993 7.81006V8.19006C1.60993 18.4701 1.60993 28.7467 1.60993 39.0201C1.59643 39.1456 1.62429 39.2722 1.68926 39.3805C1.75424 39.4888 1.85279 39.5729 1.96993 39.6201L17.9699 48.8201L19.5699 49.7601ZM39.1099 30.1301L38.8299 30.2801L21.3999 40.2201C21.3222 40.252 21.2568 40.3081 21.2135 40.3802C21.1703 40.4523 21.1515 40.5364 21.1599 40.6201C21.1599 43.5601 21.1599 46.4901 21.1599 49.4301C21.1599 49.5201 21.1599 49.6101 21.1599 49.7401L21.4399 49.5901C27.2399 46.2567 33.0433 42.9234 38.8499 39.5901C38.9301 39.552 38.9969 39.4905 39.0415 39.4138C39.0861 39.337 39.1065 39.2486 39.0999 39.1601C39.0999 36.2601 39.0999 33.3601 39.0999 30.4601L39.1099 30.1301ZM12.2499 34.3501L12.4599 34.4801L20.1999 38.8701C20.258 38.9123 20.3281 38.9351 20.3999 38.9351C20.4718 38.9351 20.5418 38.9123 20.5999 38.8701L38.0899 28.8701L38.3099 28.7201L37.9999 28.5401L30.4099 24.1701C30.3391 24.1173 30.2532 24.0888 30.1649 24.0888C30.0766 24.0888 29.9907 24.1173 29.9199 24.1701L14.3299 33.1701L12.2499 34.3501ZM19.5899 7.82006L19.3199 7.96006L11.6499 12.3601C11.5715 12.3968 11.5064 12.4569 11.4634 12.532C11.4204 12.6072 11.4018 12.6939 11.4099 12.7801C11.4099 19.4001 11.4099 26.0201 11.4099 32.6401V32.9501L11.6899 32.8001L19.3099 28.4201C19.3989 28.3796 19.4734 28.3128 19.5234 28.2289C19.5735 28.1449 19.5967 28.0476 19.5899 27.9501C19.5899 21.3501 19.5899 14.7434 19.5899 8.13006V7.82006ZM2.43993 6.41006L2.65993 6.55006L10.3999 11.0101C10.4611 11.054 10.5346 11.0777 10.6099 11.0777C10.6853 11.0777 10.7587 11.054 10.8199 11.0101L18.4799 6.60006L18.7299 6.44006C18.6857 6.39884 18.635 6.36507 18.5799 6.34006C15.9799 4.83339 13.3733 3.33006 10.7599 1.83006C10.7071 1.7887 10.642 1.76623 10.5749 1.76623C10.5079 1.76623 10.4427 1.7887 10.3899 1.83006L5.38993 4.70006L2.43993 6.41006ZM31.7799 11.9501L31.9599 12.0901L39.7399 16.5701C39.794 16.6084 39.8587 16.629 39.9249 16.629C39.9912 16.629 40.0559 16.6084 40.1099 16.5701L47.8599 12.1001C47.9296 12.0615 47.9965 12.0181 48.0599 11.9701L47.8999 11.8701L40.0999 7.37006C40.0434 7.32862 39.9751 7.30628 39.9049 7.30628C39.8348 7.30628 39.7665 7.32862 39.7099 7.37006L33.1799 11.1201L31.7799 11.9501ZM39.0999 27.3501C39.0999 27.2201 39.0999 27.1401 39.0999 27.0601C39.0999 24.1401 39.0999 21.2234 39.0999 18.3101C39.1069 18.2292 39.0885 18.1482 39.0473 18.0783C39.0061 18.0084 38.9441 17.9531 38.8699 17.9201L31.1599 13.4901C31.0999 13.4901 31.0299 13.4301 30.9299 13.3801C30.9299 13.5001 30.9299 13.5901 30.9299 13.6701V22.4001C30.9215 22.4837 30.9403 22.5678 30.9835 22.6399C31.0268 22.712 31.0922 22.7682 31.1699 22.8001L38.1699 26.8001L39.0999 27.3501ZM48.8999 13.3501C48.8032 13.3934 48.7096 13.4435 48.6199 13.5001L40.9499 17.9501C40.8732 17.9854 40.8097 18.0441 40.7683 18.1177C40.727 18.1914 40.7101 18.2762 40.7199 18.3601C40.7199 21.2601 40.7199 24.1601 40.7199 27.0601V27.3901L41.0499 27.2001L48.6399 22.8401C48.7245 22.8011 48.7949 22.737 48.8415 22.6564C48.888 22.5758 48.9085 22.4827 48.8999 22.3901C48.8999 19.4967 48.8999 16.6067 48.8999 13.7201V13.3501Z" fill="#EE352D"></path>
    </g>
    <defs>
      <clipPath id="clip0_112_8">
        <rect width="50.51" height="51.89" fill="white"></rect>
      </clipPath>
    </defs>
  </symbol>
  <symbol fill="none" xmlns="http://www.w3.org/2000/svg" viewBox="0 0 59 17" id="nodejs">
    <g clip-path="url(#clip0_112_10)">
      <path d="M30.9701 -2.86102e-05C31.6123 0.442418 32.2801 0.846457 32.9701 1.20997C33.1701 1.33997 33.4601 1.36997 33.5401 1.64997C33.5577 1.68147 33.5778 1.71156 33.6001 1.73997C33.6001 5.38997 33.6001 9.03997 33.6001 12.68C33.6001 12.98 33.6001 13.27 33.6001 13.57L33.4901 13.76C32.1701 14.67 30.7301 15.37 29.3601 16.19C29.2468 16.2474 29.1193 16.2705 28.9931 16.2563C28.8669 16.2421 28.7477 16.1912 28.6501 16.11C27.4201 15.4 26.1901 14.69 24.9501 14C24.7948 13.9309 24.6655 13.8142 24.581 13.6668C24.4965 13.5194 24.4612 13.3488 24.4801 13.18C24.4801 11.81 24.4801 10.43 24.4801 9.05997C24.4694 8.87955 24.5145 8.70021 24.6094 8.54635C24.7042 8.39248 24.8441 8.27154 25.0101 8.19997C26.0901 7.59997 27.1801 7.00997 28.2301 6.35997C28.4776 6.19101 28.7704 6.10062 29.0701 6.10062C29.3698 6.10062 29.6625 6.19101 29.9101 6.35997C30.5801 6.74997 30.6001 6.72997 30.6101 5.96997C30.6101 4.25997 30.6101 2.53997 30.6101 0.829971C30.601 0.539292 30.6382 0.249018 30.7201 -0.0300293L30.9701 -2.86102e-05ZM30.6101 11.15C30.4501 10.88 30.7801 10.46 30.4101 10.24C30.0401 10.02 29.5301 9.48997 29.0401 9.54997C28.5344 9.68469 28.0637 9.92685 27.6601 10.26C27.3601 10.46 27.5201 10.82 27.5301 11.09C27.5401 11.36 27.3401 11.88 27.6501 12.09C28.0421 12.4705 28.5348 12.7307 29.0701 12.84C29.5201 12.84 30.0101 12.42 30.4301 12.12C30.8501 11.82 30.5001 11.46 30.6101 11.15Z" fill="#424339"></path>
      <path d="M58.2201 13.61C56.8601 14.61 55.3501 15.29 53.9201 16.14C53.8002 16.219 53.6602 16.262 53.5166 16.2637C53.373 16.2655 53.2319 16.226 53.1101 16.15L51.7701 15.38C51.833 15.2868 51.9157 15.2087 52.0123 15.1513C52.109 15.094 52.2172 15.0587 52.3291 15.0482C52.441 15.0377 52.5538 15.0521 52.6595 15.0905C52.7652 15.1288 52.861 15.1901 52.9401 15.27C53.1012 15.4134 53.3094 15.4926 53.5251 15.4926C53.7408 15.4926 53.949 15.4134 54.1101 15.27C55.1101 14.67 56.1101 14.15 57.1101 13.59C57.2647 13.5249 57.3945 13.4122 57.4808 13.2684C57.5671 13.1246 57.6054 12.957 57.5901 12.79C57.5901 11.6 57.5901 10.41 57.5901 9.21998C57.606 9.07474 57.5748 8.92823 57.5009 8.80215C57.4271 8.67607 57.3146 8.57713 57.1801 8.51998C56.1201 7.92998 55.0601 7.32998 54.0201 6.70998C53.9002 6.62518 53.757 6.57964 53.6101 6.57964C53.4633 6.57964 53.32 6.62518 53.2001 6.70998C52.2001 7.32998 51.1001 7.92998 50.0401 8.51998C49.9046 8.57578 49.7912 8.67445 49.7171 8.80088C49.6431 8.92731 49.6125 9.07452 49.6301 9.21998C49.6301 10.41 49.6301 11.6 49.6301 12.8C49.7464 13.1565 49.9746 13.4659 50.281 13.6821C50.5873 13.8983 50.9553 14.0098 51.3301 14C51.6801 13.88 51.6601 13.6 51.6601 13.32V9.67998C51.6601 9.39998 51.5601 9.03998 52.0601 9.07998C52.5601 9.11998 52.3601 9.46998 52.3601 9.69998C52.3601 10.96 52.3601 12.21 52.3601 13.47C52.3951 13.6831 52.3683 13.9017 52.2829 14.1001C52.1975 14.2984 52.0571 14.4681 51.8782 14.5891C51.6993 14.7101 51.4896 14.7773 51.2737 14.7828C51.0578 14.7883 50.8449 14.7318 50.6601 14.62C50.2015 14.4132 49.7572 14.176 49.3301 13.91C49.1926 13.8239 49.0833 13.6994 49.0158 13.5519C48.9482 13.4044 48.9254 13.2403 48.9501 13.08C48.9501 11.7 48.9501 10.33 48.9501 8.95998C48.9387 8.77545 48.9819 8.59165 49.0744 8.43157C49.1669 8.27149 49.3045 8.14223 49.4701 8.05998C50.6701 7.38998 51.8601 6.69998 53.0501 6.00998C53.1968 5.91292 53.3665 5.85626 53.5421 5.84573C53.7176 5.83519 53.8929 5.87115 54.0501 5.94998L57.7701 8.14998C57.9342 8.27037 58.085 8.4078 58.2201 8.55998V13.61Z" fill="#89C644"></path>
      <path d="M12.21 10.72C11.61 8.98001 12.66 7.87001 14.47 7.14001C15.29 6.82001 15.9999 5.93001 16.8299 5.99001C17.6599 6.05001 18.3599 6.73001 19.1099 7.15001C19.6499 7.45001 20.17 7.79001 20.73 8.06001C20.9469 8.14327 21.1313 8.2943 21.2556 8.49067C21.3799 8.68704 21.4375 8.91827 21.4199 9.15001C21.4199 10.45 21.4199 11.76 21.4199 13.06C21.4365 13.2414 21.3963 13.4235 21.305 13.5812C21.2136 13.7388 21.0756 13.8642 20.9099 13.94C19.7099 14.61 18.5099 15.28 17.3299 15.94C17.1824 16.0402 17.0083 16.0937 16.8299 16.0937C16.6516 16.0937 16.4775 16.0402 16.3299 15.94C15.1499 15.24 13.96 14.56 12.75 13.94C12.5933 13.8745 12.459 13.765 12.3632 13.6248C12.2674 13.4847 12.2142 13.3198 12.21 13.15C12.22 12.43 12.21 11.74 12.21 10.72Z" fill="#88C542"></path>
      <path d="M0.0100098 14.98V8.64999H0.0600098C0.0642497 8.62014 0.0642497 8.58984 0.0600098 8.55999C0.13001 8.26999 0.41001 8.21999 0.62001 8.09999C1.75001 7.44999 2.89001 6.81999 4.01001 6.09999C4.17813 5.99976 4.37198 5.95107 4.56751 5.95996C4.76305 5.96884 4.95167 6.03492 5.11001 6.14999C6.25001 6.82999 7.40001 7.48999 8.57001 8.14999C8.7546 8.23918 8.90732 8.38294 9.00749 8.56181C9.10765 8.74068 9.15043 8.94601 9.13001 9.14999C9.13001 10.98 9.13001 12.81 9.13001 14.64C9.13001 15.34 9.03001 15.4 8.44001 15.07C7.85001 14.74 7.17001 14.33 6.53001 13.99C6.37236 13.9218 6.24382 13.8001 6.167 13.6465C6.09018 13.4929 6.07 13.317 6.11001 13.15C6.11001 12.33 6.11001 11.5 6.11001 10.68C6.05786 10.4707 5.96421 10.2741 5.83461 10.1017C5.70501 9.92939 5.5421 9.78483 5.35556 9.67663C5.16902 9.56844 4.96264 9.49882 4.74868 9.47191C4.53472 9.445 4.31753 9.46135 4.11001 9.51999C3.73226 9.61717 3.40676 9.85677 3.20171 10.1886C2.99666 10.5204 2.92796 10.9187 3.01001 11.3C3.04513 11.8695 3.04513 12.4405 3.01001 13.01C3.03868 13.2007 3.00316 13.3956 2.90903 13.5639C2.81491 13.7323 2.66751 13.8645 2.49001 13.94C1.78001 14.3 1.09001 14.71 0.39001 15.1C0.30001 14.96 0.11001 14.98 0.0100098 14.98Z" fill="#424238"></path>
      <path d="M36.7901 13.61C36.6901 11.9615 36.6901 10.3085 36.7901 8.66C36.7957 8.6269 36.7957 8.5931 36.7901 8.56C38.1838 7.62778 39.6258 6.76992 41.1101 5.99C41.3501 5.84 41.5401 5.99 41.7401 6.13C42.9501 6.82 44.1701 7.51 45.3701 8.22C45.5353 8.35505 45.6685 8.52515 45.7599 8.71799C45.8514 8.91083 45.8988 9.12158 45.8988 9.335C45.8988 9.54842 45.8514 9.75917 45.7599 9.95201C45.6685 10.1448 45.5353 10.3149 45.3701 10.45C44.7601 10.82 44.1401 11.18 43.5201 11.52C42.9001 11.86 42.8201 11.72 42.8401 11.11C42.8827 10.8575 42.8447 10.598 42.7317 10.3683C42.6186 10.1386 42.4361 9.95026 42.2101 9.83C41.9492 9.62063 41.6246 9.50652 41.2901 9.50652C40.9555 9.50652 40.631 9.62063 40.3701 9.83C40.1583 9.92815 39.9821 10.0895 39.8657 10.2918C39.7493 10.4942 39.6984 10.7276 39.7201 10.96C39.7201 11.53 39.7201 12.03 40.3901 12.35C41.5301 12.89 42.6001 13.57 43.6901 14.19C44.2701 14.52 44.2701 14.62 43.6901 14.94L41.6901 16.04C41.5763 16.1165 41.4422 16.1574 41.3051 16.1574C41.1679 16.1574 41.0339 16.1165 40.9201 16.04C39.5867 15.2733 38.2534 14.51 36.9201 13.75L36.7901 13.61Z" fill="#424339"></path>
      <path d="M54.6601 13.15C53.9001 13.15 53.1201 13.06 52.7701 12.2C52.7001 12.02 52.5601 11.77 52.8301 11.67C52.8847 11.6396 52.945 11.6209 53.0072 11.6151C53.0693 11.6093 53.1321 11.6165 53.1913 11.6362C53.2506 11.656 53.3051 11.6878 53.3514 11.7298C53.3976 11.7718 53.4347 11.8229 53.4601 11.88C53.7273 12.1787 54.0833 12.3837 54.4758 12.4647C54.8683 12.5457 55.2765 12.4985 55.6401 12.33C55.7181 12.283 55.7812 12.2148 55.8219 12.1334C55.8626 12.0519 55.8793 11.9606 55.8701 11.87C55.8701 11.7745 55.8321 11.6829 55.7646 11.6154C55.6971 11.5479 55.6056 11.51 55.5101 11.51L53.8901 11.23C53.3001 11.12 52.8301 10.87 52.8301 10.23C52.8301 9.58999 53.2601 9.22999 53.8301 9.05999C54.3907 8.92098 54.9786 8.93827 55.5301 9.10999C55.7224 9.15403 55.8999 9.24722 56.0454 9.38043C56.1909 9.51364 56.2993 9.68232 56.3601 9.86999C56.4201 10.04 56.6001 10.3 56.3601 10.41C56.3058 10.4418 56.2457 10.4624 56.1834 10.4705C56.121 10.4787 56.0576 10.4742 55.997 10.4574C55.9364 10.4407 55.8798 10.4119 55.8305 10.3728C55.7812 10.3337 55.7402 10.2852 55.7101 10.23C55.5142 9.9513 55.2265 9.75045 54.8974 9.66269C54.5682 9.57492 54.2187 9.60582 53.9101 9.74999C53.8127 9.78357 53.7298 9.84955 53.6752 9.93691C53.6206 10.0243 53.5976 10.1277 53.6101 10.23C53.6101 10.46 53.8201 10.52 54.0001 10.55L55.6901 10.86C55.9553 10.86 56.2096 10.9653 56.3972 11.1529C56.5847 11.3404 56.6901 11.5948 56.6901 11.86C56.7022 12.1263 56.6239 12.3889 56.4677 12.605C56.3115 12.8211 56.0868 12.978 55.8301 13.05C55.4558 13.1863 55.0521 13.2208 54.6601 13.15Z" fill="#8BC645"></path>
      <path d="M42.1701 11.15C42.2801 11.81 41.7001 11.91 41.2801 12.05C40.8601 12.19 40.4101 11.54 40.3701 11.05C40.3001 10.37 40.8501 10.25 41.2601 10.12C41.6701 9.98998 42.1701 10.64 42.1701 11.15Z" fill="#8AC643"></path>
      <path d="M0.0100098 14.98C0.15001 14.98 0.30001 14.98 0.40001 15.1C0.22001 15.21 0.11001 15.25 0.0100098 14.98Z" fill="#313225"></path>
      <path d="M33.59 1.77994C33.5677 1.75153 33.5477 1.72144 33.53 1.68994L33.59 1.77994Z" fill="#323325"></path>
      <path d="M0.0199707 8.53003C0.0242105 8.55988 0.0242105 8.59018 0.0199707 8.62003C0.0199707 8.62003 0.0199707 8.62003 -0.0300293 8.62003L0.0199707 8.53003Z" fill="#313225"></path>
      <path d="M36.8101 8.53003C36.8157 8.56313 36.8157 8.59693 36.8101 8.63003V8.53003Z" fill="#37372B"></path>
      <path d="M33.48 13.8L33.59 13.61C33.5952 13.6494 33.5872 13.6893 33.5673 13.7237C33.5474 13.7581 33.5167 13.7849 33.48 13.8Z" fill="#323325"></path>
      <path d="M36.79 13.61L36.94 13.8C36.86 13.76 36.79 13.72 36.79 13.61Z" fill="#37372B"></path>
    </g>
    <defs>
      <clipPath id="clip0_112_10">
        <rect width="58.21" height="16.31" fill="white"></rect>
      </clipPath>
    </defs>
  </symbol>
  <symbol fill="none" xmlns="http://www.w3.org/2000/svg" viewBox="0 0 55 29" id="php">
    <g clip-path="url(#clip0_112_24)">
      <path d="M42.4899 2.42004C46.0558 3.52285 49.3039 5.4676 51.9599 8.09004C53.2847 9.41073 54.1953 11.0894 54.5799 12.92C54.7863 14.0438 54.755 15.1983 54.4881 16.3092C54.2211 17.4201 53.7244 18.4628 53.0299 19.37C51.5459 21.3728 49.6281 23.0138 47.4199 24.17C44.1934 25.9323 40.7061 27.1679 37.0899 27.83C34.744 28.293 32.3679 28.5871 29.9799 28.71C29.3699 28.71 28.7499 28.71 28.1299 28.71C28.1299 28.54 28.3299 28.49 28.4499 28.42L29.3699 27.93C29.4999 27.86 29.6299 27.8 29.6099 27.62C30.8299 27.56 32.0499 27.47 33.2699 27.32C35.3231 27.0912 37.358 26.7203 39.3599 26.21C42.3556 25.4802 45.2221 24.2965 47.8599 22.7C49.6662 21.6432 51.2057 20.1858 52.3599 18.44C52.9575 17.575 53.3569 16.5888 53.5297 15.5517C53.7026 14.5146 53.6446 13.4522 53.3599 12.44C52.9059 10.9449 52.0802 9.58932 50.9599 8.50004C49.6715 7.19949 48.1867 6.10952 46.5599 5.27004C45.2396 4.56395 43.8692 3.95565 42.4599 3.45004C42.5599 3.14004 42.3599 2.78004 42.4899 2.42004Z" fill="#4A4E8B"></path>
      <path d="M4.84009 6.25C5.67154 5.58677 6.56192 5.001 7.50009 4.5C10.0985 3.10167 12.8686 2.0494 15.7401 1.37C17.5079 0.926841 19.3013 0.592877 21.1101 0.369996C22.6365 0.176806 24.1719 0.0633183 25.7101 0.0299962C26.096 -0.00495317 26.4842 -0.00495317 26.8701 0.0299962C26.8567 0.178537 26.8956 0.32709 26.9801 0.449996C27.0973 0.64577 27.153 0.8722 27.1401 1.1C25.8301 1.1 24.5301 1.1 23.2201 1.26C22.4201 1.35 21.6201 1.39 20.8201 1.5C19.4301 1.7 18.0401 1.93 16.6601 2.24C14.186 2.79074 11.7763 3.59846 9.47009 4.65C7.97499 5.36975 6.54615 6.2197 5.20009 7.19C5.12088 6.98804 5.07039 6.77598 5.05009 6.56C5.04009 6.37 5.02009 6.28 4.84009 6.25Z" fill="#AFB2D5"></path>
      <path d="M5.47005 22.97C5.35804 22.9344 5.26008 22.8644 5.19005 22.77C5.19005 22.69 5.19005 22.59 5.06005 22.68C3.25284 21.4495 1.78716 19.7808 0.800049 17.83C0.800049 17.83 0.800049 17.74 0.800049 17.7C1.11005 17.64 1.20005 17.92 1.34005 18.08C2.04353 18.8943 2.80197 19.6594 3.61005 20.37C3.76005 20.5 3.90005 20.69 4.14005 20.67L4.76005 21.18C6.52141 22.6442 8.50233 23.822 10.63 24.67C11.3 24.95 11.98 25.19 12.63 25.45C12.39 25.6 12.15 25.45 11.93 25.45C9.80047 24.975 7.75431 24.1828 5.86005 23.1C5.76005 22.96 5.63005 22.86 5.47005 22.97Z" fill="#7276A8"></path>
      <path d="M5.46997 22.97C5.62997 22.86 5.75997 22.97 5.87997 23.04C7.77539 24.1158 9.8215 24.9012 11.95 25.37C12.17 25.37 12.41 25.56 12.65 25.37C13.52 25.62 14.39 25.89 15.26 26.13C16.13 26.37 16.8 26.51 17.58 26.7C16.9454 26.8761 16.2803 26.9136 15.63 26.81C15.19 26.81 14.77 26.81 14.34 26.81C14.3229 26.8086 14.3057 26.8106 14.2894 26.8159C14.2731 26.8212 14.258 26.8297 14.245 26.8409C14.232 26.852 14.2213 26.8656 14.2136 26.8809C14.2059 26.8962 14.2012 26.9129 14.2 26.93C11.1977 26.1257 8.34211 24.8498 5.73997 23.15L5.46997 22.97Z" fill="#6D71A5"></path>
      <path d="M14.2 26.96C14.2012 26.9429 14.2058 26.9262 14.2136 26.9109C14.2213 26.8956 14.232 26.882 14.245 26.8709C14.258 26.8597 14.2731 26.8512 14.2894 26.8459C14.3057 26.8406 14.3229 26.8386 14.34 26.84C14.77 26.84 15.19 26.84 15.63 26.84C16.2803 26.9436 16.9454 26.9061 17.58 26.73L18.7 26.91L21.36 27.37C21.36 27.47 21.28 27.49 21.19 27.51C20.45 27.64 19.72 27.79 18.97 27.85C18.83 27.85 18.74 27.9 18.75 28.05C17.2093 27.7953 15.6888 27.431 14.2 26.96Z" fill="#666A9F"></path>
      <path d="M4.14005 20.65C3.90005 20.65 3.76005 20.48 3.61005 20.35C2.78889 19.6472 2.01707 18.8888 1.30005 18.08C1.16005 17.92 1.07005 17.64 0.760049 17.7C0.321501 16.8263 0.0791826 15.8672 0.0500488 14.89C0.200049 14.89 0.270049 14.99 0.340049 15.1C0.496041 15.3721 0.666277 15.6358 0.850049 15.89C0.990049 16.06 1.05005 16.33 1.33005 16.36C1.42005 16.43 1.42005 16.55 1.46005 16.64C1.71952 17.3411 2.05485 18.0118 2.46005 18.64C2.96395 19.355 3.52585 20.0272 4.14005 20.65Z" fill="#787CAD"></path>
      <path d="M18.77 28.01C18.77 27.86 18.85 27.83 18.99 27.81C19.74 27.75 20.47 27.6 21.21 27.47C21.3 27.47 21.37 27.47 21.38 27.33C22.38 27.49 23.38 27.5 24.38 27.61C24.38 27.76 24.24 27.78 24.13 27.82L22.77 28.24C22.62 28.24 22.44 28.3 22.41 28.5C21.55 28.44 20.7 28.33 19.85 28.2C19.5 28.15 19.14 28.08 18.77 28.01Z" fill="#5F639A"></path>
      <path d="M22.4299 28.5C22.4299 28.3 22.6399 28.28 22.7899 28.24L24.1499 27.82C24.2599 27.82 24.3799 27.76 24.3999 27.61C25.4999 27.71 26.6099 27.61 27.7099 27.68C27.7099 27.8 27.6099 27.83 27.5299 27.87C27.1899 28.02 26.8399 28.15 26.5299 28.32C26.2199 28.49 25.9999 28.43 25.8899 28.72C24.7336 28.7068 23.5787 28.6334 22.4299 28.5Z" fill="#585B95"></path>
      <path d="M1.36002 16.37C1.08002 16.37 1.02002 16.07 0.880016 15.9C0.692534 15.6428 0.518953 15.3758 0.360016 15.1C0.290016 14.99 0.220016 14.89 0.0700163 14.89C-0.0238146 14.1362 0.0339845 13.3712 0.240016 12.64C0.520016 12.71 0.500016 13 0.630016 13.18C0.760016 13.36 0.830016 13.69 1.13002 13.76C1.13002 14.1 1.13002 14.43 1.13002 14.76C1.17046 15.3012 1.2473 15.8391 1.36002 16.37Z" fill="#7F83B2"></path>
      <path d="M25.8799 28.72C25.9899 28.43 26.2999 28.44 26.5199 28.32C26.7399 28.2 27.1899 28.02 27.5199 27.87C27.5999 27.87 27.6899 27.8 27.6999 27.68C28.3299 27.68 28.9699 27.68 29.5999 27.63C29.5999 27.81 29.4899 27.87 29.3599 27.94L28.4399 28.43C28.3199 28.5 28.1599 28.55 28.1199 28.72C27.3599 28.76 26.6299 28.74 25.8799 28.72Z" fill="#4F538F"></path>
      <path d="M33.1999 0.369995C33.8385 0.412369 34.4734 0.499247 35.0999 0.629995L35.2999 1.68999L34.7599 1.62C34.2899 1.52 33.7599 1.55 33.3299 1.41C33.3599 1.04 33.1599 0.709995 33.1999 0.369995Z" fill="#7F83B2"></path>
      <path d="M33.1999 0.370033C33.1999 0.720033 33.3899 1.05003 33.3299 1.37003L31.4299 1.22003C31.5002 1.03998 31.5002 0.840085 31.4299 0.660034C31.3575 0.503618 31.3233 0.332263 31.3299 0.160034C31.9581 0.176929 32.5837 0.24718 33.1999 0.370033Z" fill="#8B8FBB"></path>
      <path d="M1.56006 9.62001C1.89564 9.086 2.28792 8.58979 2.73006 8.14001C2.94006 8.27001 2.87006 8.51001 2.95006 8.69001C3.03006 8.87001 2.95006 9.05001 3.23006 9.06001L2.10006 10.61C1.94934 10.3921 1.8408 10.1479 1.78006 9.89001C1.74006 9.77001 1.73006 9.63001 1.56006 9.62001Z" fill="#969AC3"></path>
      <path d="M1.10997 13.76C0.809971 13.69 0.759971 13.39 0.609971 13.18C0.459971 12.97 0.499971 12.71 0.219971 12.64C0.319715 12.0956 0.501804 11.5695 0.759971 11.08C0.874969 11.1869 0.966856 11.3162 1.02997 11.46C1.10664 11.7121 1.23238 11.9466 1.39997 12.15C1.40183 12.2767 1.37802 12.4026 1.32997 12.52C1.21716 12.9253 1.14349 13.3405 1.10997 13.76Z" fill="#868AB7"></path>
      <path d="M1.35997 12.15C1.19238 11.9466 1.06664 11.7121 0.989971 11.46C0.926856 11.3162 0.834968 11.1869 0.719971 11.08C0.922853 10.561 1.19173 10.0703 1.51997 9.62C1.68997 9.62 1.69997 9.77 1.73997 9.89C1.80071 10.1479 1.90925 10.3921 2.05997 10.61L1.35997 12.15Z" fill="#8B8FBB"></path>
      <path d="M36.6499 0.880005C37.1931 0.955321 37.7309 1.06555 38.2599 1.21C38.1399 1.56 38.3099 1.9 38.3299 2.21C37.7999 2.21 37.3299 1.98 36.7799 1.92C36.7554 1.57124 36.712 1.22406 36.6499 0.880005Z" fill="#6D71A5"></path>
      <path d="M31.3 0.190005C31.2933 0.362233 31.3276 0.533588 31.4 0.690005C31.4703 0.870055 31.4703 1.06995 31.4 1.25C31.1162 1.19984 30.828 1.17973 30.54 1.19C30.334 1.21691 30.1245 1.19288 29.93 1.12C29.9262 0.980711 29.9026 0.842663 29.86 0.710005C29.86 0.500005 29.67 0.310004 29.79 0.0800039C30.2955 0.0752129 30.8005 0.112004 31.3 0.190005Z" fill="#969AC3"></path>
      <path d="M42.49 2.42004C42.33 2.78004 42.56 3.14005 42.49 3.49005L41.02 3.01004C41.0319 2.6453 41.0084 2.28026 40.95 1.92004C41.4721 2.05829 41.9862 2.22521 42.49 2.42004Z" fill="#4F538F"></path>
      <path d="M36.6501 0.879995C36.7137 1.23726 36.7571 1.59784 36.7801 1.96L35.3001 1.67999L35.1001 0.619995L36.6501 0.879995Z" fill="#7276A8"></path>
      <path d="M27.14 1.08996C27.1529 0.862163 27.0972 0.635733 26.98 0.43996C26.8955 0.317053 26.8566 0.1685 26.87 0.0199596C27.3358 -0.0199996 27.8042 -0.0199996 28.27 0.0199596C28.271 0.142218 28.3019 0.262373 28.36 0.36996C28.4792 0.592778 28.5508 0.837983 28.57 1.08996H27.14Z" fill="#A7AACF"></path>
      <path d="M28.5499 1.11001C28.5397 0.852679 28.4749 0.600456 28.36 0.37001C28.3072 0.257652 28.2831 0.133954 28.29 0.0100098L29.8399 0.0600109C29.7199 0.290011 29.8399 0.48001 29.9099 0.69001C29.9526 0.822668 29.9762 0.960716 29.9799 1.10001L28.5499 1.11001Z" fill="#9DA0C8"></path>
      <path d="M40.94 1.92004C40.9984 2.28026 41.0219 2.6453 41.01 3.01004L39.67 2.60004C39.6168 2.24931 39.5934 1.89471 39.6 1.54004C40.0556 1.63281 40.5035 1.75984 40.94 1.92004Z" fill="#5F639A"></path>
      <path d="M4.83997 6.25C5.01997 6.25 5.03997 6.41 5.04997 6.55C5.07027 6.76598 5.12076 6.97805 5.19997 7.18C4.84756 7.53978 4.46994 7.87396 4.06997 8.18C3.91997 7.86 4.00997 7.45 3.71997 7.18C4.06728 6.83994 4.44187 6.5289 4.83997 6.25Z" fill="#A7AACF"></path>
      <path d="M39.6 1.54C39.5934 1.89468 39.6168 2.24927 39.67 2.6C39.2218 2.53198 38.7824 2.4146 38.36 2.25C38.36 1.9 38.17 1.56 38.29 1.25C38.7 1.37 39.17 1.37 39.6 1.54Z" fill="#666A9F"></path>
      <path d="M3.71998 7.16003C4.00998 7.43003 3.91998 7.84003 4.06998 8.16003C3.80841 8.47672 3.5279 8.77727 3.22998 9.06003C2.98998 9.06003 3.01998 8.83003 2.94998 8.69003C2.87998 8.55003 2.94998 8.27003 2.72998 8.14003C3.03204 7.7863 3.3632 7.45849 3.71998 7.16003Z" fill="#9DA0C8"></path>
      <path d="M5.06006 22.68C5.19006 22.59 5.18006 22.68 5.19006 22.77L5.06006 22.68Z" fill="#6D71A5"></path>
      <path d="M3.2301 9.05995C3.52802 8.77718 3.80853 8.47663 4.0701 8.15995C4.47006 7.85391 4.84769 7.51972 5.2001 7.15995C6.54616 6.18965 7.975 5.3397 9.4701 4.61995C11.7763 3.56841 14.186 2.76069 16.6601 2.20995C18.0401 1.89995 19.4301 1.66995 20.8201 1.46995C21.6201 1.35995 22.4201 1.31995 23.2201 1.22995C24.5301 1.08995 25.8301 1.10995 27.1401 1.06995H28.5501H29.9601C30.1546 1.14282 30.3641 1.16686 30.5701 1.13995C30.8581 1.12967 31.1463 1.14978 31.4301 1.19995L33.3601 1.36995C33.8301 1.50995 34.3601 1.47994 34.7901 1.57994L35.3301 1.64995L36.8101 1.92994C37.3301 1.98994 37.8101 2.19995 38.3601 2.21995C38.7922 2.38669 39.2417 2.50411 39.7001 2.56995L41.0401 2.97995L42.5101 3.45995C43.9194 3.96555 45.2898 4.57385 46.6101 5.27995C48.2369 6.11943 49.7217 7.20939 51.0101 8.50994C52.1165 9.61329 52.925 10.9792 53.3601 12.4799C53.6448 13.4921 53.7028 14.5545 53.53 15.5916C53.3571 16.6287 52.9577 17.6149 52.3601 18.4799C51.1974 20.2291 49.6473 21.6868 47.8301 22.7399C45.1992 24.3197 42.3431 25.4897 39.3601 26.2099C37.3594 26.7371 35.3245 27.1247 33.2701 27.3699C32.0501 27.5199 30.8301 27.6099 29.6101 27.6699C28.9801 27.7399 28.3401 27.6699 27.7101 27.7199C26.6101 27.7199 25.5001 27.7199 24.4001 27.6499C23.3001 27.5799 22.4001 27.5299 21.4001 27.3699L18.7201 26.9799L17.6001 26.7999C16.8201 26.6099 16.0501 26.4399 15.2801 26.2299C14.5101 26.0199 13.5401 25.7199 12.6701 25.4699C12.0001 25.2099 11.3201 24.9699 10.6701 24.6899C8.52573 23.8334 6.53091 22.6419 4.7601 21.1599L4.1401 20.6499C3.52633 20.0304 2.96444 19.3614 2.4601 18.6499C2.0549 18.0217 1.71957 17.3511 1.4601 16.6499C1.4601 16.5599 1.4601 16.4399 1.3301 16.3699C1.21782 15.8423 1.14098 15.3078 1.1001 14.7699C1.1001 14.4399 1.1001 14.1099 1.1001 13.7699C1.14604 13.3458 1.23312 12.9272 1.3601 12.5199C1.38461 12.3978 1.38461 12.2721 1.3601 12.1499L2.0601 10.6099L3.2301 9.05995ZM21.8401 16.0599C21.8761 16.1567 21.8761 16.2632 21.8401 16.3599C21.7101 17.0599 21.5701 17.7599 21.4401 18.4599C21.4101 18.5524 21.4034 18.6509 21.4207 18.7465C21.4379 18.8422 21.4785 18.9321 21.5389 19.0083C21.5992 19.0845 21.6775 19.1446 21.7667 19.1833C21.8559 19.222 21.9532 19.238 22.0501 19.2299H25.0501C25.2104 19.2439 25.3697 19.1939 25.4933 19.0908C25.617 18.9878 25.6949 18.8401 25.7101 18.6799C25.8801 17.8299 26.0401 16.9799 26.2001 16.1399C26.5101 14.5199 26.8201 12.8999 27.1401 11.2899C27.1401 11.1299 27.1901 10.9799 27.4301 10.9899C28.1401 10.9899 28.8601 10.9899 29.5701 10.9899C30.2801 10.9899 30.4201 11.1399 30.3601 11.8799C30.3698 11.9697 30.3698 12.0602 30.3601 12.1499C29.9601 14.2299 29.5501 16.2999 29.1501 18.3799C29.0401 18.9199 29.2801 19.2099 29.8301 19.2199C30.8301 19.2199 31.8301 19.2199 32.8301 19.2199C33.1501 19.2199 33.2001 19.3099 33.1401 19.5899C32.9501 20.4599 32.7901 21.3299 32.6201 22.1999C32.5101 22.7599 32.7501 23.0699 33.3101 23.0699C34.2701 23.0699 35.2301 23.0699 36.1901 23.0699C36.281 23.0842 36.3738 23.0789 36.4625 23.0546C36.5512 23.0302 36.6337 22.9873 36.7046 22.9287C36.7755 22.8701 36.8332 22.7971 36.8737 22.7146C36.9143 22.6321 36.937 22.5419 36.9401 22.4499C37.1301 21.4499 37.3301 20.4999 37.5001 19.5299C37.5001 19.2899 37.6401 19.2199 37.8701 19.2199C38.8001 19.2199 39.7201 19.2199 40.6501 19.2199C41.5774 19.2224 42.4951 19.0326 43.3454 18.6625C44.1956 18.2925 44.9599 17.7502 45.5901 17.0699C46.2315 16.3757 46.7295 15.5616 47.0556 14.6744C47.3816 13.7872 47.5293 12.8443 47.4901 11.8999C47.4907 10.9412 47.1664 10.0106 46.5701 9.25994C46.0967 8.6977 45.5034 8.24867 44.8337 7.94583C44.164 7.643 43.4349 7.49405 42.7001 7.50994C40.4701 7.44994 38.2401 7.50994 36.0201 7.50994C35.8719 7.49584 35.7241 7.54026 35.6083 7.63369C35.4924 7.72712 35.4177 7.86216 35.4001 8.00994L35.1901 9.00994C35.1101 9.43994 35.0201 9.86995 34.9401 10.2999C34.8415 9.64688 34.5388 9.04175 34.0754 8.57115C33.612 8.10055 33.0116 7.7886 32.3601 7.67994C31.7496 7.52033 31.1211 7.43967 30.4901 7.43995C29.7401 7.43995 28.9901 7.43995 28.2401 7.43995C28.0201 7.43995 27.9301 7.43995 27.9901 7.14995C28.1801 6.24995 28.3501 5.33995 28.5101 4.43995C28.6201 3.88995 28.3701 3.58994 27.8001 3.58994H24.9501C24.4701 3.58994 24.2801 3.74995 24.1901 4.22995L23.1901 9.28995C23.0901 9.81995 22.9801 10.2899 22.8801 10.8699C22.7983 10.7748 22.7401 10.6618 22.7101 10.5399C22.5548 10.0262 22.2977 9.54894 21.9541 9.13662C21.6105 8.7243 21.1874 8.38535 20.7101 8.13995C19.8467 7.68574 18.8856 7.4489 17.9101 7.44995C15.7801 7.44995 13.6501 7.44995 11.5101 7.44995C11.0701 7.44995 10.8901 7.58995 10.8101 8.01995C10.5801 9.14995 10.3701 10.2899 10.1501 11.4199L8.0501 22.2199C7.9501 22.7399 8.1901 23.0399 8.7101 23.0399C9.7101 23.0399 10.7101 23.0399 11.6301 23.0399C11.7183 23.0542 11.8086 23.0495 11.8949 23.0262C11.9811 23.0029 12.0615 22.9614 12.1305 22.9047C12.1996 22.8479 12.2557 22.7772 12.2953 22.697C12.3349 22.6169 12.357 22.5293 12.3601 22.4399C12.5501 21.4399 12.7401 20.5199 12.9201 19.5499C12.9201 19.2899 13.0501 19.1899 13.3401 19.1899C14.4772 19.2266 15.6155 19.2032 16.7501 19.1199C18.3041 18.9973 19.7608 18.3151 20.8501 17.1999C21.2015 16.8251 21.532 16.4311 21.8401 16.0199V16.0599Z" fill="#787CB3"></path>
      <path d="M21.8401 16.02C21.5284 16.4281 21.1946 16.8187 20.8401 17.19C19.7508 18.3052 18.2941 18.9873 16.7401 19.11C15.6054 19.1933 14.4672 19.2167 13.3301 19.18C13.0401 19.18 12.9501 19.28 12.9101 19.54C12.7301 20.54 12.5401 21.47 12.3501 22.43C12.347 22.5194 12.3249 22.607 12.2853 22.6871C12.2457 22.7672 12.1895 22.838 12.1205 22.8948C12.0514 22.9515 11.9711 22.9929 11.8848 23.0163C11.7986 23.0396 11.7083 23.0443 11.6201 23.03C10.6201 23.03 9.68008 23.03 8.70008 23.03C8.18008 23.03 7.94008 22.73 8.04008 22.21L10.1701 11.37C10.3901 10.24 10.6001 9.10004 10.8301 7.97004C10.9101 7.54004 11.0901 7.40004 11.5301 7.40004C13.6701 7.40004 15.8001 7.40004 17.9301 7.40004C18.9056 7.39899 19.8667 7.63583 20.7301 8.09004C21.2074 8.33544 21.6305 8.67439 21.9741 9.08671C22.3177 9.49903 22.5748 9.97628 22.7301 10.49C22.7601 10.6118 22.8183 10.7249 22.9001 10.82C23.0001 10.29 23.1101 9.77004 23.2101 9.24004L24.2101 4.18004C24.3001 3.70004 24.4901 3.54004 24.9701 3.54004H27.7901C28.3601 3.54004 28.6101 3.84004 28.5001 4.39004C28.3401 5.29004 28.1701 6.20004 27.9801 7.10004C27.9201 7.37004 27.9801 7.39004 28.2301 7.39004C28.9801 7.39004 29.7301 7.39004 30.4801 7.39004C31.1111 7.38976 31.7396 7.47042 32.3501 7.63004C32.9903 7.73393 33.5824 8.03414 34.0446 8.48915C34.5068 8.94417 34.8162 9.53153 34.9301 10.17C35.0101 9.74004 35.1001 9.31004 35.1801 8.88004L35.3901 7.88004C35.4077 7.73225 35.4824 7.59721 35.5983 7.50378C35.7141 7.41035 35.8619 7.36594 36.0101 7.38004C38.2301 7.38004 40.4601 7.38004 42.6901 7.38004C43.4249 7.36415 44.1539 7.51309 44.8236 7.81593C45.4933 8.11876 46.0867 8.5678 46.5601 9.13004C47.1564 9.88072 47.4807 10.8113 47.4801 11.77C47.5193 12.7144 47.3716 13.6573 47.0456 14.5445C46.7195 15.4317 46.2215 16.2458 45.5801 16.94C44.9499 17.6203 44.1856 18.1626 43.3353 18.5326C42.4851 18.9027 41.5674 19.0925 40.6401 19.09C39.7101 19.09 38.7901 19.09 37.8601 19.09C37.6301 19.09 37.5401 19.16 37.4901 19.4C37.3201 20.4 37.1201 21.4 36.9301 22.32C36.9269 22.412 36.9043 22.5022 36.8637 22.5847C36.8231 22.6672 36.7655 22.7402 36.6946 22.7988C36.6237 22.8574 36.5412 22.9003 36.4525 22.9247C36.3638 22.949 36.2709 22.9542 36.1801 22.94C35.2201 22.94 34.2601 22.94 33.3001 22.94C32.7401 22.94 32.5001 22.63 32.6101 22.07C32.7801 21.2 32.9401 20.33 33.1301 19.46C33.1901 19.18 33.1301 19.08 32.8201 19.09C31.8201 19.09 30.8201 19.09 29.8201 19.09C29.2701 19.09 29.0301 18.79 29.1401 18.25C29.5401 16.17 29.9501 14.1 30.3501 12.02C30.3597 11.9303 30.3597 11.8398 30.3501 11.75C30.4101 11.01 30.3501 10.89 29.5601 10.86C28.7701 10.83 28.1301 10.86 27.4201 10.86C27.1801 10.86 27.1601 11 27.1301 11.16C26.8101 12.77 26.5001 14.39 26.1901 16.01C26.0301 16.85 25.8701 17.7 25.7001 18.55C25.6848 18.7102 25.6069 18.8579 25.4833 18.9609C25.3597 19.064 25.2004 19.114 25.0401 19.1H22.0401C21.9432 19.1081 21.8458 19.0921 21.7566 19.0534C21.6675 19.0147 21.5892 18.9546 21.5288 18.8784C21.4685 18.8022 21.4279 18.7123 21.4106 18.6166C21.3934 18.521 21.4001 18.4225 21.4301 18.33C21.5601 17.63 21.7001 16.93 21.8301 16.23C21.8507 16.1619 21.8542 16.0898 21.8401 16.02ZM14.4901 18.61C15.1842 18.629 15.8788 18.6056 16.5701 18.54C17.9968 18.44 19.3409 17.8335 20.3601 16.83C21.0086 16.2065 21.5212 15.4555 21.8653 14.6243C22.2095 13.793 22.378 12.8995 22.3601 12C22.3973 11.1611 22.1441 10.3349 21.6431 9.66094C21.1422 8.98693 20.4241 8.50628 19.6101 8.30004C18.933 8.11121 18.233 8.01699 17.5301 8.02004H11.7301C11.5101 8.02004 11.4401 8.09004 11.4001 8.31004C11.1701 9.55004 10.9301 10.78 10.6801 12.02C10.0134 15.42 9.34674 18.8167 8.68008 22.21C8.68008 22.38 8.68008 22.44 8.85008 22.44C9.76008 22.44 10.6601 22.44 11.5601 22.44C11.7301 22.44 11.8001 22.39 11.8301 22.21C12.0301 21.12 12.2501 20.03 12.4501 18.95C12.5001 18.71 12.5701 18.59 12.8501 18.61C13.3601 18.63 13.8301 18.61 14.4901 18.61ZM39.4901 8.02004C38.3301 8.02004 37.3701 8.02004 36.4101 8.02004C36.0301 8.02004 35.9201 8.13004 35.8601 8.47004C35.3501 11.19 34.8601 13.9 34.2801 16.61L33.2001 22.13C33.2001 22.33 33.2001 22.45 33.4401 22.44C34.3001 22.44 35.1701 22.44 36.0401 22.44C36.2601 22.44 36.3201 22.35 36.3501 22.17C36.5601 21.07 36.7901 19.97 36.9801 18.87C36.9801 18.65 37.1001 18.61 37.3001 18.61C38.2201 18.61 39.1501 18.61 40.0801 18.61C41.2102 18.6402 42.3323 18.411 43.3601 17.94C44.5302 17.3365 45.4894 16.3919 46.1108 15.2312C46.7323 14.0705 46.9866 12.7484 46.8401 11.44C46.7785 10.7357 46.4989 10.068 46.0401 9.53004C45.6437 9.09161 45.1633 8.73732 44.6273 8.48823C44.0913 8.23914 43.5108 8.10033 42.9201 8.08004C41.7001 7.96004 40.4901 8.04004 39.4901 8.02004ZM31.2901 18.61C31.7201 18.61 32.1501 18.61 32.5901 18.61C32.8101 18.61 32.8801 18.55 32.9201 18.33C33.2301 16.69 33.5701 15.06 33.8701 13.42C34.1376 12.4428 34.2689 11.4332 34.2601 10.42C34.245 10.0245 34.1226 9.64059 33.9059 9.30939C33.6892 8.97819 33.3864 8.71223 33.0301 8.54004C32.4026 8.24553 31.7227 8.07896 31.0301 8.05004C29.8601 7.95004 28.6901 7.99004 27.5201 7.99004C27.2601 7.99004 27.2001 7.99004 27.2501 7.68004C27.4801 6.58004 27.6801 5.48004 27.9101 4.39004C27.9101 4.20004 27.9101 4.17004 27.7301 4.17004C26.8367 4.17004 25.9467 4.17004 25.0601 4.17004C24.8601 4.17004 24.8001 4.24004 24.7701 4.42004C24.7101 4.83004 24.6301 5.23004 24.5501 5.63004L22.0401 18.37C22.0401 18.53 22.0401 18.59 22.2101 18.59C23.1101 18.59 24.0101 18.59 24.9101 18.59C25.0801 18.59 25.1401 18.53 25.1701 18.38C25.3501 17.38 25.5501 16.38 25.7401 15.38L26.6701 10.54C26.6701 10.39 26.7201 10.26 26.9501 10.27C27.9001 10.27 28.8401 10.27 29.7901 10.32C30.7401 10.37 31.1601 10.86 30.9901 11.83C30.8201 12.8 30.6601 13.59 30.4801 14.47C30.2401 15.72 30.0001 16.97 29.7501 18.21C29.7501 18.45 29.7501 18.57 30.0201 18.55C30.2901 18.53 30.8601 18.61 31.2901 18.61Z" fill="#F7F6F7"></path>
      <path d="M14.4899 18.61C13.8299 18.61 13.3299 18.61 12.8399 18.61C12.5599 18.61 12.4899 18.71 12.4399 18.95C12.2399 20.03 12.0199 21.12 11.8199 22.21C11.8199 22.39 11.7199 22.44 11.5499 22.44C10.6499 22.44 9.74992 22.44 8.83992 22.44C8.65992 22.44 8.62992 22.38 8.66992 22.21C9.33659 18.81 10.0033 15.4133 10.6699 12.02C10.9199 10.78 11.1599 9.54997 11.3899 8.30997C11.3899 8.08997 11.4999 8.01997 11.7199 8.01997H17.5199C18.2229 8.01692 18.9228 8.11114 19.5999 8.29997C20.4158 8.50426 21.1362 8.98408 21.6391 9.65827C22.142 10.3325 22.3966 11.1597 22.3599 12C22.3778 12.8995 22.2094 13.793 21.8652 14.6242C21.521 15.4554 21.0085 16.2064 20.3599 16.83C19.3357 17.8378 17.9837 18.4446 16.5499 18.54C15.8653 18.6047 15.1774 18.6281 14.4899 18.61ZM15.7599 10.31C15.2699 10.31 14.8799 10.31 14.4999 10.31C14.1199 10.31 14.0999 10.4 14.0499 10.68C13.9699 11.23 13.8499 11.78 13.7399 12.33C13.4999 13.56 13.2499 14.8 13.0199 16.03C13.0199 16.16 12.8999 16.34 13.1799 16.34C14.1644 16.3666 15.1495 16.3332 16.1299 16.24C16.6141 16.1915 17.0791 16.0259 17.4851 15.7576C17.891 15.4894 18.2255 15.1264 18.4599 14.7C18.8308 13.9781 19.0325 13.1813 19.0499 12.37C19.0499 11.11 18.6099 10.59 17.3399 10.37C16.815 10.3172 16.2873 10.2972 15.7599 10.31Z" fill="#060606"></path>
      <path d="M39.4901 8.02001C40.4901 8.02001 41.7001 7.96 42.9101 8.08C43.5008 8.10029 44.0814 8.23911 44.6173 8.4882C45.1533 8.73729 45.6337 9.09157 46.0301 9.53001C46.4889 10.068 46.7685 10.7356 46.8301 11.44C46.9775 12.7473 46.7246 14.0686 46.1051 15.2292C45.4855 16.3898 44.5283 17.335 43.3601 17.94C42.3345 18.406 41.2161 18.6318 40.0901 18.6C39.1601 18.6 38.2301 18.6 37.3101 18.6C37.1101 18.6 37.0301 18.6 36.9901 18.86C36.8001 19.96 36.5701 21.06 36.3601 22.16C36.3601 22.34 36.2701 22.43 36.0501 22.43C35.1801 22.43 34.3101 22.43 33.4501 22.43C33.1701 22.43 33.1701 22.32 33.2101 22.12L34.2901 16.6C34.8201 13.89 35.3601 11.18 35.8701 8.46001C35.9301 8.12001 36.0401 7.99 36.4201 8.01C37.3601 8.04 38.3601 8.02001 39.4901 8.02001ZM39.0801 16.37C39.6115 16.3767 40.1428 16.3466 40.6701 16.28C41.1417 16.2281 41.5942 16.065 41.9905 15.8043C42.3869 15.5435 42.7157 15.1925 42.9501 14.78C43.3699 13.996 43.5865 13.1193 43.5801 12.23C43.605 12.0239 43.5883 11.815 43.531 11.6155C43.4736 11.416 43.3768 11.2301 43.2462 11.0687C43.1156 10.9074 42.954 10.7739 42.7709 10.6762C42.5877 10.5785 42.3868 10.5186 42.1801 10.5C41.0573 10.3435 39.922 10.2966 38.7901 10.36C38.6401 10.36 38.6301 10.45 38.6101 10.56C38.2501 12.4333 37.8868 14.2967 37.5201 16.15C37.5201 16.33 37.5201 16.38 37.6901 16.38L39.0801 16.37Z" fill="#060606"></path>
      <path d="M31.2899 18.61C30.8599 18.61 30.4399 18.61 30.0199 18.61C29.5999 18.61 29.6999 18.51 29.7499 18.27C29.9999 17.03 30.2399 15.78 30.4799 14.53C30.6599 13.65 30.8399 12.77 30.9899 11.89C31.1399 11.01 30.7699 10.46 29.7899 10.38C28.8099 10.3 27.8999 10.38 26.9499 10.33C26.7199 10.33 26.6999 10.45 26.6699 10.6L25.7399 15.44C25.5499 16.44 25.3499 17.44 25.1699 18.44C25.1699 18.59 25.0799 18.65 24.9099 18.65C24.0099 18.65 23.1099 18.65 22.2099 18.65C22.0199 18.65 22.0099 18.59 22.0399 18.43L24.5299 5.69999C24.6099 5.29999 24.6899 4.89999 24.7499 4.48999C24.7499 4.30999 24.8399 4.23999 25.0399 4.23999C25.9333 4.23999 26.8233 4.23999 27.7099 4.23999C27.8799 4.23999 27.9199 4.23999 27.8899 4.45999C27.6599 5.54999 27.4599 6.64999 27.2299 7.74999C27.1799 8.00999 27.2299 8.05999 27.4999 8.05999C28.6699 8.05999 29.8399 8.05999 31.0099 8.11999C31.7025 8.14891 32.3824 8.31548 33.0099 8.60999C33.3663 8.78218 33.6691 9.04814 33.8858 9.37934C34.1024 9.71054 34.2249 10.0945 34.2399 10.49C34.2487 11.5032 34.1175 12.5127 33.8499 13.49C33.5499 15.13 33.2099 16.76 32.8999 18.4C32.8999 18.62 32.7899 18.69 32.5699 18.68C32.1499 18.59 31.7199 18.61 31.2899 18.61Z" fill="#060606"></path>
      <path d="M15.76 10.31C16.2941 10.2964 16.8285 10.3164 17.36 10.37C18.63 10.58 19.1 11.1 19.07 12.37C19.0511 13.178 18.8494 13.9712 18.48 14.69C18.2456 15.1164 17.9111 15.4794 17.5052 15.7477C17.0992 16.016 16.6342 16.1815 16.15 16.23C15.1696 16.3233 14.1845 16.3566 13.2 16.33C12.92 16.33 13.01 16.15 13.04 16.02C13.27 14.79 13.52 13.55 13.76 12.32C13.87 11.77 13.99 11.22 14.07 10.67C14.07 10.39 14.22 10.27 14.52 10.3C14.82 10.33 15.27 10.31 15.76 10.31ZM15.86 10.89C15.49 10.89 15.21 10.89 14.95 10.89C14.69 10.89 14.6 10.97 14.56 11.2C14.29 12.62 14.02 14.04 13.73 15.46C13.73 15.65 13.73 15.74 13.94 15.74C14.6076 15.7487 15.2752 15.722 15.94 15.66C16.4175 15.6354 16.8772 15.4705 17.2614 15.1859C17.6456 14.9013 17.9373 14.5096 18.1 14.06C18.3574 13.4258 18.4767 12.744 18.45 12.06C18.4728 11.8024 18.3949 11.5461 18.2327 11.3447C18.0704 11.1433 17.8365 11.0126 17.58 10.98C17.0126 10.8793 16.4349 10.8491 15.86 10.89Z" fill="#F7F6F7"></path>
      <path d="M39.0799 16.37H37.6899C37.5199 16.37 37.4799 16.32 37.5199 16.14C37.8932 14.28 38.2566 12.4167 38.6099 10.55C38.6099 10.44 38.6099 10.34 38.7899 10.35C39.9218 10.2866 41.0571 10.3335 42.1799 10.49C42.3866 10.5086 42.5875 10.5685 42.7707 10.6662C42.9538 10.7639 43.1155 10.8974 43.246 11.0587C43.3766 11.2201 43.4734 11.406 43.5308 11.6055C43.5881 11.805 43.6049 12.0139 43.5799 12.22C43.5864 13.1093 43.3697 13.986 42.9499 14.77C42.7156 15.1825 42.3867 15.5335 41.9904 15.7943C41.594 16.055 41.1415 16.2181 40.6699 16.27C40.1429 16.3399 39.6116 16.3733 39.0799 16.37ZM40.3599 10.89H39.3599C39.2199 10.89 39.1199 10.89 39.0899 11.08C38.8099 12.53 38.5199 13.99 38.2399 15.44C38.2399 15.64 38.2399 15.74 38.4699 15.74C39.1142 15.7485 39.7585 15.7218 40.3999 15.66C40.8653 15.6408 41.3154 15.4883 41.6966 15.2206C42.0778 14.9529 42.374 14.5813 42.5499 14.15C42.8184 13.5173 42.9578 12.8373 42.9599 12.15C42.9811 12.0116 42.9729 11.8703 42.936 11.7352C42.8991 11.6002 42.8343 11.4744 42.7457 11.366C42.6571 11.2575 42.5467 11.169 42.4216 11.1059C42.2966 11.0429 42.1598 11.0068 42.0199 11C41.4725 10.9012 40.9156 10.8643 40.3599 10.89Z" fill="#F7F6F7"></path>
      <path d="M15.86 10.89C16.4335 10.8663 17.0079 10.9134 17.57 11.03C17.8265 11.0626 18.0604 11.1933 18.2226 11.3946C18.3848 11.596 18.4627 11.8524 18.44 12.11C18.4666 12.7939 18.3473 13.4757 18.09 14.11C17.9273 14.5596 17.6356 14.9512 17.2513 15.2358C16.8671 15.5204 16.4075 15.6854 15.93 15.71C15.2652 15.7719 14.5976 15.7986 13.93 15.79C13.7 15.79 13.69 15.7 13.72 15.51C14.01 14.09 14.28 12.67 14.55 11.25C14.55 11.02 14.68 10.91 14.94 10.94C15.2 10.97 15.49 10.89 15.86 10.89Z" fill="#787CB3"></path>
      <path d="M40.36 10.8901C40.9131 10.8717 41.4665 10.9153 42.01 11.0201C42.1498 11.0269 42.2867 11.0629 42.4117 11.126C42.5367 11.189 42.6471 11.2776 42.7357 11.386C42.8243 11.4944 42.8892 11.6202 42.9261 11.7553C42.963 11.8903 42.9711 12.0317 42.95 12.1701C42.9479 12.8574 42.8085 13.5374 42.54 14.1701C42.364 14.6013 42.0678 14.973 41.6866 15.2407C41.3055 15.5084 40.8554 15.6609 40.39 15.6801C39.7486 15.7419 39.1043 15.7686 38.46 15.7601C38.21 15.7601 38.19 15.6601 38.23 15.4601C38.51 14.0101 38.8 12.5501 39.08 11.1001C39.08 10.9301 39.21 10.9101 39.35 10.9101L40.36 10.8901Z" fill="#787CB3"></path>
    </g>
    <defs>
      <clipPath id="clip0_112_24">
        <rect width="54.72" height="28.75" fill="white"></rect>
      </clipPath>
    </defs>
  </symbol>
</svg>