<svg width="0" height="0" class="hidden">
  <symbol fill="none" xmlns="http://www.w3.org/2000/svg" viewBox="0 0 80 80" id="web">
    <g clip-path="url(#clip0_111_190)">
      <path fill-rule="evenodd" clip-rule="evenodd" d="M77.2889 50.6222C77.2889 50.2889 77.2889 50 77.2889 49.7333C77.2889 37.3926 77.2889 25.0592 77.2889 12.7333C77.2889 11.0889 76.9555 10.7555 75.2889 10.7555C74.6222 10.7555 73.9555 10.7778 73.2889 10.7555C72.4666 10.7111 71.9777 10.2222 71.9777 9.44443C71.9555 8.64443 72.4444 8.13331 73.3111 8.11109C74.2889 8.06665 75.2666 8.06665 76.2222 8.11109C78.2 8.2222 79.8222 9.84443 79.9555 11.8222C79.9777 12.0889 79.9555 12.3778 79.9555 12.6444C79.9555 28.2296 79.9555 43.8074 79.9555 59.3778C79.9555 62.4222 78.4 63.9778 75.3555 63.9778C51.8148 63.9778 28.274 63.9778 4.73331 63.9778C1.68886 63.9778 0.111084 62.4222 0.111084 59.4C0.111084 43.8148 0.111084 28.237 0.111084 12.6666C0.111084 9.66665 1.68886 8.08887 4.66664 8.08887C5.33331 8.08887 5.99997 8.08887 6.66664 8.08887C7.59997 8.11109 8.13331 8.6222 8.11108 9.44443C8.08886 10.2444 7.59997 10.7333 6.71108 10.7555C5.95553 10.7778 5.19997 10.7555 4.46664 10.7555C3.2222 10.7555 2.77775 11.2 2.77775 12.4666C2.77775 18.0666 2.77775 23.6666 2.77775 29.2666C2.77775 36.0666 2.77775 42.8592 2.77775 49.6444C2.77775 49.9555 2.77775 50.2444 2.77775 50.6222C27.6222 50.6222 52.4 50.6222 77.2889 50.6222ZM2.77775 53.3778C2.77775 55.3778 2.77775 57.3111 2.77775 59.2444C2.77775 61 3.08886 61.3111 4.86664 61.3111C28.3037 61.3111 51.7481 61.3111 75.2 61.3111C75.3926 61.3111 75.5852 61.3111 75.7778 61.3111C76.8222 61.2889 77.2889 60.8222 77.2889 59.7555C77.3111 57.7778 77.2889 55.7778 77.2889 53.7778C77.2889 53.6444 77.2666 53.5111 77.2444 53.3778C52.4222 53.3778 27.6666 53.3778 2.77775 53.3778Z" fill="#184367"></path>
      <path fill-rule="evenodd" clip-rule="evenodd" d="M66.6445 13.4444C48.8667 13.4444 31.1778 13.4444 13.4223 13.4444C13.4223 13.8222 13.4223 14.1333 13.4223 14.4666C13.4223 24.9703 13.4223 35.474 13.4223 45.9777C13.4223 46.2666 13.4445 46.5333 13.4223 46.8222C13.3334 47.5555 12.8001 48.0444 12.0667 48C11.3334 47.9555 10.8889 47.5778 10.7778 46.8444C10.7556 46.6 10.7556 46.3333 10.7556 46.0889C10.7556 32.2518 10.7556 18.4222 10.7556 4.59997C10.7556 1.71108 12.3556 0.111084 15.2223 0.111084C31.7704 0.111084 48.3186 0.111084 64.8667 0.111084C67.6889 0.111084 69.3112 1.71108 69.3112 4.53331C69.3112 18.4444 69.3112 32.3555 69.3112 46.2666C69.3112 47.4222 68.9334 47.9555 68.0889 48.0222C67.3334 48.0889 66.7334 47.6222 66.6667 46.8444C66.6445 46.5778 66.6445 46.2889 66.6445 46.0222C66.6445 35.5185 66.6445 25.0074 66.6445 14.4889C66.6445 14.1778 66.6445 13.8444 66.6445 13.4444ZM66.6445 10.7333C66.6445 8.68886 66.6445 6.75553 66.6445 4.8222C66.6445 3.08886 66.3334 2.77775 64.6445 2.77775C48.2297 2.77775 31.8223 2.77775 15.4223 2.77775C15.2593 2.76294 15.0964 2.76294 14.9334 2.77775C13.9112 2.79997 13.4445 3.24442 13.4223 4.24442C13.4223 5.2222 13.4223 6.19997 13.4223 7.15553C13.4223 8.33331 13.4223 9.53331 13.4223 10.7333C31.2001 10.7333 48.8667 10.7333 66.6445 10.7333Z" fill="#F26925"></path>
      <path fill-rule="evenodd" clip-rule="evenodd" d="M31.5556 71.9334C37.2222 71.9334 42.8667 71.9334 48.6222 71.9334C48.4445 71.7111 48.3333 71.5334 48.2222 71.3778C47.6222 70.4667 47 69.6 46.4667 68.6667C46 67.8445 46.2445 67.0222 46.9556 66.6889C47.6667 66.3333 48.3111 66.6667 48.8222 67.4222C49.6667 68.6667 50.5778 69.8445 51.4889 71.0222C52.0667 71.7778 52.8222 72.0889 53.8 72C54.4445 71.9333 55.1333 71.9778 55.7778 72.1556C57.4222 72.5778 58.6 74.0889 58.6667 75.8C58.6889 76.7111 58.6889 77.6222 58.6667 78.5333C58.6444 79.4222 58.1333 79.9111 57.2445 79.9556C57.0667 79.9556 56.8667 79.9556 56.6667 79.9556C45.5852 79.9556 34.4963 79.9556 23.4 79.9556C21.7778 79.9556 21.4222 79.6 21.4222 77.9556C21.4222 77.2667 21.4 76.5778 21.4222 75.8667C21.4889 73.7111 23.2222 71.8222 25.3778 72.0222C27.3556 72.2222 28.5556 71.3333 29.6222 69.9111C30.2 69.1333 30.7333 68.2889 31.2667 67.4445C31.7333 66.6445 32.4222 66.3333 33.1111 66.6667C33.8445 67.0222 34.0889 67.8445 33.6222 68.6667C32.9778 69.7556 32.2667 70.8 31.5556 71.9334ZM55.9556 77.2667C56.1333 74.9334 55.8667 74.6222 53.6667 74.6222C44.4667 74.6222 35.2667 74.6222 26.0667 74.6222C25.8222 74.6222 25.5778 74.6222 25.3333 74.6445C24.6222 74.7111 24.2 75.0889 24.1111 75.7778C24.0445 76.2667 24.0889 76.7556 24.0889 77.2667C34.7556 77.2667 45.3333 77.2667 55.9556 77.2667Z" fill="#184367"></path>
      <path d="M43.8668 18.7333C44.9779 18.7111 45.5779 19.5778 45.2446 20.6C44.4446 23.0444 43.6446 25.4667 42.8223 27.9111C41.0594 33.2148 39.2964 38.5111 37.5334 43.8C37.089 45.1111 36.5112 45.5556 35.6446 45.2889C34.7334 45 34.5557 44.3111 35.0001 42.9333C37.5557 35.2889 40.1112 27.6222 42.6668 19.9778C42.889 19.2667 43.2223 18.7778 43.8668 18.7333Z" fill="#184367"></path>
      <path d="M23.4889 32.0444C25.6889 33.8889 27.8223 35.6444 29.9334 37.4222C30.2 37.6222 30.4667 37.8444 30.6223 38.1333C30.9556 38.7333 30.8 39.3111 30.2889 39.7555C29.7112 40.2444 29.1112 40.1778 28.5334 39.7111C26.8 38.2593 25.0593 36.8074 23.3112 35.3555C22.4667 34.6444 21.6 33.9555 20.7556 33.2222C19.8445 32.4444 19.8445 31.6444 20.7556 30.8667C23.2741 28.7481 25.8 26.637 28.3334 24.5333C29.1112 23.9111 29.8667 23.9111 30.4 24.5111C30.9334 25.1333 30.8223 25.9333 30.0223 26.6C27.8889 28.3778 25.7334 30.1778 23.4889 32.0444Z" fill="#184367"></path>
      <path d="M56.5555 32.0222C54.6889 30.4666 52.8666 28.9333 51.0444 27.4222C50.6444 27.0889 50.2222 26.7555 49.8444 26.4C49.2444 25.8666 49.1777 25.1333 49.6444 24.5555C50.1111 23.9778 50.8889 23.8444 51.4889 24.3555C54.2 26.5778 56.8666 28.8 59.5333 31.0666C60.2666 31.6889 60.1333 32.5333 59.2889 33.2666C56.9555 35.2222 54.6222 37.1555 52.2666 39.1111C52.0444 39.3111 51.8 39.5111 51.5777 39.6889C50.8666 40.2222 50.1555 40.1778 49.6444 39.5778C49.1333 38.9778 49.2222 38.2 49.9111 37.6222C51.9111 35.9333 53.9555 34.2444 55.9555 32.5555C56.1555 32.4 56.3333 32.2444 56.5555 32.0222Z" fill="#184367"></path>
      <path d="M40.1112 58.6444C39.2446 58.6444 38.4001 58.6667 37.5334 58.6444C36.6446 58.6222 36.1112 58.1333 36.089 57.3778C36.0668 56.6 36.6446 56.0222 37.5334 56C39.252 55.9852 40.9779 55.9852 42.7112 56C43.6001 56.0222 44.1557 56.6 44.1334 57.3778C44.1112 58.1556 43.5779 58.6444 42.689 58.6444C41.8223 58.6667 40.9779 58.6444 40.1112 58.6444Z" fill="#184367"></path>
      <path d="M54.6001 8.08891C52.0519 8.08891 49.5038 8.08891 46.9556 8.08891C45.8668 8.08891 45.3334 7.62224 45.3556 6.73335C45.3779 5.91113 45.9112 5.44446 46.9334 5.44446C52.089 5.42965 57.2445 5.42965 62.4001 5.44446C63.4001 5.44446 63.9556 5.93335 63.9556 6.75557C63.9779 7.57779 63.4001 8.08891 62.4001 8.08891C59.8001 8.08891 57.2001 8.08891 54.6001 8.08891Z" fill="#184367"></path>
      <path d="M18.7333 6.77778C18.7333 7.48889 18.1333 8.08889 17.4 8.08889C16.6889 8.08889 16.0889 7.46667 16.0889 6.75556C16.0889 6.02222 16.7111 5.42222 17.4222 5.44445C18.1555 5.44445 18.7555 6.04445 18.7333 6.77778Z" fill="#184367"></path>
      <path d="M22.7332 8.0889C22.0221 8.0889 21.4221 7.46668 21.4221 6.75557C21.4221 6.02224 22.0221 5.44446 22.7332 5.44446C23.4666 5.44446 24.0666 6.04446 24.0666 6.75557C24.0666 7.4889 23.4443 8.0889 22.7332 8.0889Z" fill="#184367"></path>
      <path d="M28.0888 5.44447C28.8222 5.44447 29.3999 6.06669 29.3777 6.80002C29.3777 7.51113 28.7555 8.11113 28.0222 8.08891C27.311 8.06669 26.711 7.44447 26.7333 6.73336C26.7555 6.00002 27.3777 5.42225 28.0888 5.44447Z" fill="#184367"></path>
    </g>
    <defs>
      <clipPath id="clip0_111_190">
        <rect width="80" height="80" fill="white"></rect>
      </clipPath>
    </defs>
  </symbol>
  <symbol fill="none" xmlns="http://www.w3.org/2000/svg" viewBox="0 0 80 80" id="digital">
    <g clip-path="url(#clip0_111_256)">
      <path fill-rule="evenodd" clip-rule="evenodd" d="M79.8439 25.2293C79.5122 26.6341 78.9854 27.9414 77.8927 28.9561C76.5854 30.1658 75.0439 30.6927 73.2683 30.6927C68.1951 30.6732 63.1024 30.6927 58.0097 30.6927C57.7366 30.6927 57.4439 30.6927 57.0732 30.6927C57.0732 32.2146 57.0927 33.678 57.0732 35.161C57.0341 37.2097 55.8049 38.7122 53.9317 39.0244C53.5219 39.1024 53.0927 39.1024 52.6829 39.1024C42.8488 39.1024 33.0146 39.1024 23.161 39.0829C22.5951 39.0829 22.2049 39.239 21.8146 39.6488C20.1561 41.3463 18.4975 43.0244 16.8 44.6439C16.4097 45.0146 15.8439 45.3268 15.3366 45.3658C14.4195 45.4634 13.8536 44.7024 13.8341 43.5707C13.8146 42.1268 13.8341 40.6829 13.8341 39.1024C13.3854 39.1024 12.9951 39.1024 12.5854 39.1024C10.0488 39.0829 8.48779 37.561 8.48779 35.0244C8.48779 27.0374 8.48779 19.0439 8.48779 11.0439C8.48779 8.54632 10.0488 7.00486 12.5268 7.00486C20.8195 7.00486 29.0927 7.00486 37.3854 7.00486C37.6976 7.00486 37.9902 7.00486 38.2049 7.00486C38.478 5.89266 38.5756 4.78047 39.0049 3.82437C40.1561 1.28779 42.2634 0.156078 44.9951 0.156078C51.7463 0.136566 58.4976 0.156078 65.2488 0.156078C67.9024 0.156078 70.5561 0.17559 73.1902 0.136566C76.5658 0.0780291 79.239 2.30242 79.7463 5.38535C79.7658 5.4634 79.8049 5.52193 79.8439 5.59998C79.8439 12.1431 79.8439 18.6862 79.8439 25.2293ZM59.0634 27.5707C63.7333 27.5707 68.4032 27.5707 73.0732 27.5707C75.5122 27.5707 76.7219 26.361 76.7219 23.961C76.7219 18.2634 76.7219 12.5723 76.7219 6.88779C76.7219 4.46827 75.5122 3.25852 73.0927 3.25852C63.7789 3.25852 54.4585 3.25852 45.1317 3.25852C42.7512 3.25852 41.5219 4.46827 41.5219 6.84876C41.5219 12.5593 41.5219 18.2699 41.5219 23.9805C41.5219 26.3414 42.7317 27.5707 45.1122 27.5707C49.7561 27.5707 54.4065 27.5707 59.0634 27.5707ZM16.9366 39.8439C17.0016 39.8829 17.0602 39.9219 17.1122 39.961C18.1073 38.9658 19.1415 37.9902 20.0975 36.9561C20.7415 36.2536 21.4829 35.961 22.439 35.961C32.4878 35.9805 42.5366 35.9805 52.5854 35.9805C52.7805 35.9805 53.0536 36.0585 53.1902 35.961C53.4829 35.7853 53.9122 35.5122 53.9122 35.2585C53.9902 33.7561 53.9512 32.2732 53.9512 30.6927C53.6 30.6927 53.3268 30.6927 53.0536 30.6927C50.452 30.6927 47.8504 30.6927 45.2488 30.6927C40.9951 30.6732 38.4 28.0975 38.4 23.8634C38.4 19.5837 38.4 15.2975 38.4 11.0049C38.4 10.7317 38.4 10.4585 38.4 10.1853C38.2439 10.1463 38.1658 10.1268 38.1073 10.1268C29.561 10.1268 21.0146 10.1203 12.4683 10.1073C11.8439 10.1073 11.6097 10.4195 11.6097 11.0244C11.6097 19.0504 11.6097 27.0699 11.6097 35.0829C11.6097 35.7073 11.8634 36 12.4878 35.9805C13.3723 35.9675 14.2569 35.9675 15.1415 35.9805C16.3317 36 16.9171 36.5658 16.9366 37.7561C16.9561 38.439 16.9366 39.1414 16.9366 39.8439Z" fill="#184367"></path>
      <path fill-rule="evenodd" clip-rule="evenodd" d="M11.2975 79.922C10.3219 79.5512 10.0292 78.8098 10.0487 77.8146C10.0682 74.9268 10.0487 72.0195 10.0487 69.1122C8.95605 68.9756 7.90239 68.9561 6.88775 68.7024C2.57556 67.6683 -0.33176 63.5707 0.117021 59.239C0.565801 54.7317 4.19507 51.2585 8.70239 51.122C11.4731 51.0439 14.2439 51.1024 17.0341 51.0829C17.4634 51.0829 17.9121 50.9854 18.3024 50.8293C26.7902 47.4342 35.278 44.0195 43.7463 40.6049C43.9219 40.5464 44.0975 40.4683 44.2536 40.3903C45.6585 39.8634 46.6536 40.5268 46.6536 42.0098C46.6731 45.4439 46.6536 48.8585 46.6536 52.2927C46.6536 52.5789 46.6536 52.865 46.6536 53.1512C50.1073 54.3024 52.156 56.5659 52.078 60.2537C51.9804 63.7268 49.9707 65.8732 46.6536 66.9268C46.6536 68.3122 46.6536 69.6976 46.6536 71.1024C46.6536 73.3268 46.6146 75.5707 46.6731 77.7951C46.6926 78.7512 46.3999 79.4537 45.5609 79.922C45.2617 79.922 44.956 79.922 44.6439 79.922C44.5268 79.8439 44.4292 79.7659 44.3121 79.7268C36.2341 76.4748 28.1626 73.2228 20.0975 69.9707C19.9414 69.9122 19.7658 69.8732 19.5512 69.8146C19.5512 72.5268 19.5317 75.161 19.5512 77.8146C19.5512 78.7902 19.2585 79.5317 18.3024 79.922C15.9739 79.922 13.639 79.922 11.2975 79.922ZM43.5317 44.0585C42.4195 44.5073 41.4243 44.9366 40.4097 45.3073C39.8439 45.4829 39.6682 45.7756 39.6682 46.361C39.6878 51.4537 39.6878 56.5463 39.6878 61.6195C39.6878 61.9317 39.6878 62.2439 39.6487 62.5561C39.5317 63.2781 38.9073 63.8244 38.2048 63.8634C37.5024 63.8829 36.839 63.3951 36.6829 62.6732C36.6048 62.322 36.5658 61.9512 36.5658 61.6C36.5658 57.0342 36.5658 52.4618 36.5658 47.8829C36.5658 47.5903 36.5658 47.2781 36.5658 46.9073C36.3512 46.9659 36.1951 47.0049 36.0585 47.0634C30.7317 49.2098 25.4048 51.3561 20.0585 53.4829C19.5902 53.6781 19.5317 53.9512 19.5317 54.3805C19.5512 58.1073 19.5512 61.8537 19.5317 65.5805C19.5121 66.2049 19.6878 66.4781 20.2731 66.7122C27.5902 69.6195 34.9073 72.5854 42.2048 75.5122C42.6341 75.6878 43.0634 75.8439 43.5317 76.0195C43.5317 65.3463 43.5317 54.7512 43.5317 44.0585ZM16.3902 54.2634C13.717 54.2634 11.1024 54.1073 8.50726 54.3024C5.34629 54.5366 3.1219 57.1707 3.19995 60.1561C3.278 63.239 5.59995 65.6976 8.78044 65.8537C11.278 65.9707 13.756 65.8732 16.2536 65.8537C16.2926 65.8537 16.3317 65.7951 16.3902 65.7561C16.3902 61.9707 16.3902 58.1464 16.3902 54.2634ZM13.2292 69.0342C13.2292 71.6683 13.2292 74.2049 13.2292 76.761C14.3024 76.761 15.317 76.761 16.3902 76.761C16.3902 74.1659 16.3902 71.6293 16.3902 69.0342C15.317 69.0342 14.2829 69.0342 13.2292 69.0342ZM46.6731 63.5512C48.2536 62.8683 49.1707 61.2878 48.9756 59.6098C48.8195 58.2049 47.7853 56.8585 46.6731 56.6244C46.6731 58.9073 46.6731 61.1903 46.6731 63.5512Z" fill="#184367"></path>
      <path d="M62.5951 58.5561C63.9805 58.5561 65.3463 58.5366 66.7317 58.5561C67.8439 58.5561 68.4878 59.1415 68.5073 60.0585C68.5268 60.9951 67.8634 61.639 66.7902 61.6585C63.9805 61.6846 61.1772 61.6846 58.3805 61.6585C57.3073 61.639 56.6244 60.9951 56.6244 60.078C56.6244 59.161 57.3073 58.5561 58.4 58.5561C59.8049 58.5366 61.2098 58.5561 62.5951 58.5561Z" fill="#F26925"></path>
      <path d="M55.5317 66.9268C56.0976 67.2585 56.5269 67.4341 56.8586 67.7463C57.8342 68.6634 58.7903 69.6195 59.7269 70.5756C60.4683 71.3561 60.4878 72.2927 59.8244 72.9171C59.1805 73.561 58.3025 73.5219 57.5415 72.8C56.5464 71.8244 55.5512 70.8293 54.5756 69.8341C54.0878 69.3268 53.8732 68.6634 54.2439 68.0585C54.5171 67.6097 55.0634 67.3171 55.5317 66.9268Z" fill="#F26925"></path>
      <path d="M55.4146 52.9171C55.0439 52.6244 54.478 52.3707 54.3024 51.961C54.1073 51.5317 54.0878 50.7707 54.3609 50.4585C55.4536 49.2097 56.6439 48.0585 57.8536 46.9463C58.3609 46.478 59.2 46.6341 59.7073 47.1024C60.2341 47.5902 60.4292 48.4683 59.9219 48.9951C58.8097 50.2439 57.5805 51.3951 56.3707 52.5658C56.1951 52.7414 55.8634 52.761 55.4146 52.9171Z" fill="#F26925"></path>
      <path fill-rule="evenodd" clip-rule="evenodd" d="M52.3903 15.4342C52.3903 13.4634 52.3903 11.4927 52.4098 9.52196C52.4098 7.96098 53.5805 7.27806 54.9268 8.03903C58.348 9.99025 61.7561 11.961 65.1512 13.9512C66.5171 14.7317 66.5171 16.0976 65.1707 16.8781C61.7756 18.8553 58.3675 20.826 54.9464 22.7903C53.6 23.5512 52.4098 22.8878 52.4098 21.3463C52.3903 19.3756 52.3903 17.4049 52.3903 15.4342ZM55.5707 12C55.5707 14.3415 55.5707 16.5268 55.5707 18.8293C57.561 17.6781 59.4537 16.5854 61.4829 15.4146C59.4342 14.2439 57.5415 13.1512 55.5707 12Z" fill="#F26925"></path>
      <path d="M25.6195 19.6293C23.2 19.6293 20.7805 19.6293 18.361 19.6098C18.0293 19.6098 17.6781 19.5903 17.3854 19.4732C16.722 19.2585 16.3903 18.7317 16.3903 18.0488C16.4098 17.3854 16.722 16.8976 17.3464 16.6634C17.5805 16.5659 17.8342 16.5073 18.0878 16.5073C23.1805 16.5073 28.2732 16.4878 33.3659 16.5073C34.5366 16.5268 35.239 17.4049 34.9659 18.4585C34.7903 19.2 34.1659 19.6098 33.1707 19.6293C30.6537 19.6293 28.1366 19.6293 25.6195 19.6293Z" fill="#184367"></path>
      <path d="M22.7317 28.3512C21.2293 28.3512 19.7268 28.3512 18.2244 28.3512C17.0732 28.3317 16.3903 27.7463 16.3903 26.7902C16.3903 25.8146 17.0732 25.2292 18.2439 25.2292C21.2748 25.2292 24.3122 25.2292 27.3561 25.2292C28.4683 25.2292 29.2098 25.8732 29.1903 26.7902C29.1903 27.7268 28.4683 28.3317 27.3366 28.3512C25.7951 28.3512 24.2732 28.3512 22.7317 28.3512Z" fill="#184367"></path>
      <path d="M33.4635 25.2488C34.283 25.2098 35.0049 25.9122 35.0244 26.7512C35.0439 27.5903 34.3805 28.3122 33.5415 28.3317C32.7025 28.3512 32 27.6683 31.9805 26.8293C31.961 25.9903 32.6244 25.2683 33.4635 25.2488Z" fill="#F26925"></path>
      <path d="M39.6683 68.6439C39.6878 69.4829 38.9854 70.2049 38.1659 70.2244C37.3464 70.2439 36.6244 69.5219 36.6049 68.7024C36.5854 67.8829 37.2683 67.161 38.1073 67.1415C38.9464 67.1219 39.6488 67.8049 39.6683 68.6439Z" fill="#F26925"></path>
    </g>
    <defs>
      <clipPath id="clip0_111_256">
        <rect width="80" height="80" fill="white"></rect>
      </clipPath>
    </defs>
  </symbol>
  <symbol fill="none" xmlns="http://www.w3.org/2000/svg" viewBox="0 0 73 80" id="enterprise">
    <g clip-path="url(#clip0_111_238)">
      <path fill-rule="evenodd" clip-rule="evenodd" d="M33.2291 79.8334C31.3958 79.4375 29.5624 79.0625 27.7708 78.5834C26.5208 78.25 25.2916 77.8125 24.0833 77.3334C21.9791 76.5209 21.1249 74.4167 22.0416 72.3542C22.6666 70.9167 23.3541 69.4792 24.0208 68.0417C24.6249 66.7292 24.6249 66.7292 23.3958 65.9167C22.9166 65.6042 22.4166 65.2917 21.9583 64.9792C21.3124 64.5209 21.1458 63.8542 21.5208 63.2917C21.8749 62.7292 22.5624 62.6042 23.2291 63C23.9583 63.4584 24.6666 63.9375 25.3749 64.4167C26.7499 65.3542 27.1666 66.7917 26.4999 68.3125C25.7708 69.8959 25.0416 71.4584 24.3124 73.0417C23.7708 74.2292 24.0208 74.8125 25.2291 75.2709C27.8749 76.2917 30.6041 77 33.4166 77.4375C34.0208 77.5417 34.2083 77.3542 34.2083 76.7709C34.1874 72.0625 34.1874 67.3542 34.2083 62.6459C34.2291 61.9584 33.8541 61.875 33.3333 61.75C27.6249 60.3542 23.0416 57.2917 19.7083 52.4167C10.8124 39.4792 17.7708 21.3959 33.0416 17.75C34.2083 17.4584 34.2083 17.4584 34.2083 16.2917C34.2083 11.9445 34.2083 7.60419 34.2083 3.27086C34.2083 2.31252 34.1874 2.31252 33.2291 2.43752C30.3958 2.85419 27.6458 3.60419 24.9791 4.66669C23.8333 5.10419 23.5833 5.72919 24.1249 6.85419C24.7291 8.14586 25.3749 9.41669 25.9791 10.7084C26.9166 12.6667 26.3749 14.5625 24.5208 15.6875C22.2083 17.0834 20.1458 18.75 18.2708 20.6875C16.7916 22.2292 14.8541 22.3542 13.1666 21.0417C11.9791 20.125 10.8333 19.2084 9.6666 18.2917C8.81243 17.625 8.1041 17.75 7.49993 18.6459C5.33326 21.8334 3.70826 25.25 2.58326 28.9375C2.2916 29.8959 2.64576 30.5209 3.62493 30.75C5.1041 31.125 6.6041 31.4167 8.08326 31.7917C10.1666 32.2917 11.2291 33.8959 10.9583 36.0209C10.6249 38.6875 10.6249 41.3542 11.0208 44.0209C11.3124 46 10.1666 47.7084 8.2291 48.1875C6.7291 48.5625 5.24993 48.875 3.74993 49.25C2.70826 49.5 2.3541 50.125 2.6666 51.1667C3.81243 54.8334 5.4791 58.25 7.64576 61.4167C8.2291 62.25 8.9791 62.3542 9.7916 61.7084C10.9374 60.7917 12.0833 59.8542 13.2499 58.9375C14.9583 57.6042 16.8333 57.7084 18.3958 59.1875C18.8333 59.625 19.3124 60.0209 19.7708 60.4584C20.3333 61 20.3958 61.6459 19.9374 62.1667C19.4999 62.6459 18.8333 62.6875 18.2499 62.2292C17.8333 61.8959 17.4166 61.5209 17.0208 61.1459C15.9374 60.1042 15.5833 60.0834 14.3749 61.0417C13.3333 61.8959 12.2708 62.75 11.2083 63.5834C9.3541 65.0417 7.0416 64.6875 5.70826 62.75C3.38882 59.3611 1.62493 55.7084 0.416597 51.7917C-0.291737 49.5 0.895763 47.4792 3.2291 46.9375C4.61799 46.6181 6.00687 46.2986 7.39576 45.9792C8.4791 45.7292 8.81243 45.2084 8.6666 44.125C8.27076 41.3542 8.2916 38.5834 8.62493 35.8125C8.74993 34.7292 8.43743 34.2709 7.37493 34.0209C5.95826 33.6875 4.5416 33.375 3.12493 33.0625C0.833263 32.5417 -0.354237 30.5209 0.333263 28.2709C1.5416 24.3125 3.2916 20.625 5.62493 17.2084C6.9166 15.3334 9.18743 14.9792 10.9999 16.3542C12.1874 17.25 13.3333 18.1875 14.4999 19.1042C15.3541 19.7709 15.9374 19.75 16.6666 18.9792C18.6249 16.9167 20.8124 15.1875 23.2291 13.7292C24.1458 13.1667 24.2916 12.625 23.8124 11.625C23.1874 10.3125 22.5416 9.02086 21.9166 7.70836C20.9166 5.56252 21.7499 3.39586 23.9374 2.52086C26.9999 1.31252 30.1458 0.47919 33.3958 0.0208569C35.0833 -0.20831 36.4374 0.91669 36.5416 2.60419C36.5833 3.20836 36.5416 3.83336 36.5416 4.52086C37.8124 4.52086 38.9791 4.52086 40.1458 4.52086C42.4583 4.52086 44.7708 4.50002 47.0833 4.52086C47.5624 4.54169 47.7916 4.43752 47.9791 3.93752C48.8541 1.47919 51.3124 0.0625235 53.7708 0.520857C56.2916 0.97919 58.1249 3.14586 58.1458 5.66669C58.1666 8.20836 56.2916 10.4167 53.7499 10.875C51.2916 11.3125 48.8958 9.87502 47.9374 7.43752C47.8541 7.20836 47.5624 6.89586 47.3749 6.89586C43.8124 6.85419 40.2499 6.85419 36.6249 6.85419C36.6249 9.00002 36.6249 11.0834 36.6249 13.2084C45.0416 13.2084 53.4166 13.2084 61.8124 13.2084C63.2916 10 65.4374 8.66669 68.1041 9.29169C70.6458 9.87502 72.2916 12.0209 72.2291 14.625C72.1666 17.0834 70.3333 19.125 67.8541 19.5834C65.2499 20.0625 63.0208 18.6042 61.8333 15.6042C53.4583 15.6042 45.0624 15.6042 36.5624 15.6042C36.5624 15.9584 36.5624 16.2917 36.5624 16.6042C36.5416 18.6459 35.8749 19.5 33.9166 19.9375C29.5138 20.9514 25.8541 23.1806 22.9374 26.625C13.1666 38.1042 19.0833 56 33.7499 59.4167C35.9166 59.9375 36.5208 60.6667 36.5624 62.875C36.5624 63.0625 36.5833 63.2709 36.6041 63.5417C36.8958 63.5625 37.1458 63.5834 37.3958 63.5834C45.2916 63.5834 53.1874 63.5834 61.0833 63.5834C61.6249 63.6042 61.8958 63.5 62.1041 62.9375C62.9791 60.4792 65.4999 59.1042 68.0208 59.6042C70.4791 60.0834 72.2499 62.2709 72.2291 64.7917C72.2083 67.3542 70.4166 69.4375 67.8541 69.9167C65.4166 70.3542 62.9791 68.9584 62.0833 66.5625C61.9999 66.375 61.9374 66.1875 61.8541 65.9584C53.4583 65.9584 45.0833 65.9584 36.6249 65.9584C36.6249 68.0417 36.6249 70.1042 36.6249 72.25C36.8749 72.2709 37.1249 72.2917 37.3749 72.2917C40.5833 72.3125 43.8124 72.2917 47.0416 72.3125C47.5416 72.3125 47.7916 72.1875 47.9999 71.6667C48.9166 69.1459 51.4999 67.7709 54.0416 68.3542C56.5208 68.9167 58.2916 71.2292 58.1458 73.7292C57.9791 76.3959 55.9374 78.4792 53.2499 78.7084C51.0416 78.8959 48.8333 77.5417 48.0416 75.375C47.8124 74.7709 47.5208 74.6459 46.9166 74.6459C43.7708 74.6667 40.6249 74.6459 37.4791 74.6459C37.2083 74.6459 36.9374 74.6459 36.5624 74.6459C36.4999 76.6875 37.0624 78.9375 34.4791 79.8334C34.0624 79.8334 33.6458 79.8334 33.2291 79.8334ZM67.0624 11.5209C65.4166 11.5 64.1041 12.7709 64.1041 14.375C64.0833 15.9584 65.3541 17.2709 66.9374 17.3125C68.5416 17.3334 69.8749 16.0417 69.8749 14.4375C69.8958 12.8334 68.6458 11.5417 67.0624 11.5209ZM50.0208 73.4584C50.0208 75.0834 51.3333 76.3959 52.9374 76.375C54.4999 76.3542 55.7916 75.0209 55.7916 73.4792C55.8124 71.875 54.4791 70.5834 52.8541 70.5834C51.2708 70.6042 50.0208 71.875 50.0208 73.4584ZM67.0208 61.875C65.3958 61.8542 64.1041 63.1459 64.1041 64.75C64.1041 66.3334 65.3958 67.625 66.9583 67.6459C68.5624 67.6667 69.8749 66.3542 69.8749 64.75C69.8749 63.1459 68.6249 61.875 67.0208 61.875ZM52.8958 8.58336C54.4999 8.58336 55.8333 7.22919 55.7916 5.64586C55.7708 4.08336 54.4791 2.81252 52.8958 2.79169C51.2708 2.79169 49.9999 4.10419 50.0208 5.72919C50.0416 7.31252 51.3124 8.58336 52.8958 8.58336Z" fill="#184367"></path>
      <path d="M47.1042 52.6875C43.625 52.6875 40.1458 52.6875 36.6458 52.6666C30.2917 52.6458 25.1875 48.3958 23.9583 42.1666C22.5625 35.1041 27.8125 27.8958 35 27.3125C38.3542 27.0416 41.75 27.1875 45.125 27.1666C45.875 27.1666 46.3333 27.6875 46.3333 28.3333C46.3333 29.0416 45.8542 29.5 45.0417 29.5C42.1875 29.5208 39.3333 29.5 36.4792 29.5208C31.8542 29.5416 27.8125 32.5833 26.5208 36.9583C24.5625 43.6041 29.4167 50.2083 36.4167 50.3125C43.5625 50.3958 50.7083 50.375 57.8542 50.3125C63.2083 50.2708 67.6875 46.1458 68.1458 41C68.625 35.5416 65.125 30.8125 59.7708 29.7291C59.0625 29.5833 58.3333 29.5208 57.6042 29.5208C55.1667 29.5 52.7083 29.5208 50.2708 29.5C49.25 29.5 48.6667 29.0625 48.6875 28.3125C48.7083 27.5833 49.2708 27.1458 50.25 27.1666C53.2917 27.1875 56.3333 27.0625 59.3542 27.3125C65.2708 27.7708 70.25 33.1458 70.5 39.0625C70.7917 45.7708 66.5208 51.2291 59.9583 52.4583C59.1458 52.625 58.2917 52.6666 57.4792 52.6666C54.0208 52.6875 50.5625 52.6875 47.1042 52.6875Z" fill="#F26925"></path>
      <path fill-rule="evenodd" clip-rule="evenodd" d="M47.6875 41.0625C48.5 42 49.2917 42.875 50.0625 43.7917C50.2917 44.0417 50.6042 44.4167 50.5625 44.7083C50.5 45.125 50.25 45.625 49.9167 45.875C49.4375 46.2292 48.9167 46 48.5208 45.5833C47.6667 44.6042 46.8125 43.625 45.9583 42.6458C45.7292 42.3958 45.5 42.1667 45.1042 41.7292C45.1042 42.5208 45.1042 43.125 45.1042 43.7083C45.1042 44.125 45.125 44.5417 45.0833 44.9583C45.0208 45.5833 44.6458 45.9583 44.0208 46C43.3958 46.0417 42.9792 45.7292 42.8125 45.125C42.75 44.9167 42.75 44.6667 42.75 44.4375C42.75 41.3125 42.75 38.1944 42.75 35.0833C42.75 33.875 43.125 33.5 44.3333 33.5C45.0833 33.5 45.8333 33.5 46.5833 33.5C48.5625 33.5208 50.1667 34.7708 50.5208 36.5208C50.9167 38.3958 50 40.0417 48.0833 40.875C47.9792 40.9167 47.875 40.9792 47.6875 41.0625ZM45.1667 38.7917C46.2083 38.7292 47.375 39.125 48.0208 38.0208C48.2292 37.6458 48.2083 36.9375 48 36.5833C47.3125 35.4792 46.1875 35.9167 45.1667 35.875C45.1667 36.875 45.1667 37.7917 45.1667 38.7917Z" fill="#F26925"></path>
      <path fill-rule="evenodd" clip-rule="evenodd" d="M57.3749 41.6042C57.3749 42.6458 57.3749 43.6042 57.3749 44.5625C57.3541 45.5 56.9374 46 56.2082 46.0208C55.4582 46.0208 55.0208 45.5208 55.0208 44.6042C55.0208 41.3819 55.0208 38.1597 55.0208 34.9375C55.0208 33.8958 55.4166 33.5208 56.4374 33.5C57.2569 33.5 58.0832 33.5 58.9166 33.5C61.2707 33.5208 63.0416 35.2083 63.1249 37.4375C63.2083 39.625 61.4582 41.4583 59.1249 41.5833C58.5832 41.625 58.0416 41.6042 57.3749 41.6042ZM57.4166 39.2917C58.1666 39.25 58.8541 39.2708 59.4999 39.1458C60.2499 39 60.7708 38.2708 60.7708 37.5625C60.7916 36.8125 60.2291 36.0417 59.4582 35.9167C58.7916 35.8333 58.1041 35.8958 57.4166 35.8958C57.4166 37.0417 57.4166 38.0833 57.4166 39.2917Z" fill="#F26925"></path>
      <path d="M34.4791 35.875C34.4791 36.8125 34.4791 37.625 34.4791 38.5833C35.3124 38.5833 36.1041 38.5833 36.8958 38.5833C37.8749 38.6042 38.3958 39.0208 38.3749 39.7917C38.3541 40.5208 37.8541 40.9167 36.9166 40.9375C36.1249 40.9583 35.3541 40.9375 34.5208 40.9375C34.5208 41.8333 34.5208 42.6667 34.5208 43.6458C35.3958 43.6458 36.2916 43.6458 37.1874 43.6458C38.1874 43.6458 38.7083 44.0625 38.6874 44.8333C38.6666 45.5833 38.1458 45.9792 37.1666 45.9792C35.9374 46 34.7083 46 33.4999 45.9792C32.5416 45.9792 32.1249 45.5625 32.1249 44.6042C32.111 41.3819 32.111 38.1597 32.1249 34.9375C32.1249 33.9583 32.5416 33.5417 33.4791 33.5417C34.7569 33.5278 36.0346 33.5278 37.3124 33.5417C38.1666 33.5417 38.6666 33.9792 38.6874 34.6875C38.7083 35.4167 38.1874 35.875 37.2916 35.875C36.3749 35.875 35.4791 35.875 34.4791 35.875Z" fill="#F26925"></path>
    </g>
    <defs>
      <clipPath id="clip0_111_238">
        <rect width="72.2917" height="80" fill="white"></rect>
      </clipPath>
    </defs>
  </symbol>
  <symbol fill="none" xmlns="http://www.w3.org/2000/svg" viewBox="0 0 80 80" id="mobile">
    <g clip-path="url(#clip0_111_267)">
      <path fill-rule="evenodd" clip-rule="evenodd" d="M61.3111 30.9556V46.4445C61.3111 55.2297 61.3111 64.0148 61.3111 72.8C61.3111 77.2445 58.5556 80 54.0889 80C44.6963 80 35.3037 80 25.9111 80C21.5111 80 18.7333 77.2222 18.7333 72.8445V7.33336C18.7333 2.93336 21.5111 0.155579 25.8889 0.155579C35.3259 0.155579 44.7556 0.155579 54.1778 0.155579C58.5556 0.155579 61.3111 2.95558 61.3111 7.35558C61.3111 15.2222 61.3111 23.0889 61.3111 30.9556ZM58.6667 7.24447C58.6444 4.42224 57.0444 2.82225 54.2 2.82225H25.8444C22.9778 2.82225 21.4 4.42225 21.4 7.31113V72.8445C21.4 75.7778 22.9778 77.3334 25.9333 77.3334H54.1111C57.1111 77.3334 58.6667 75.7778 58.6667 72.7556V7.24447Z" fill="#184367"></path>
      <path d="M79.9555 52.6666C79.9333 53.6666 79.6444 54.0444 78.6444 54.2889C77.8 54.4889 76.9555 54.6444 76.1333 54.8889C75.8889 54.9555 75.6222 55.2222 75.4667 55.4666C75.2889 55.7333 75.2889 56.1111 75.0889 56.3778C74.3111 57.4666 74.6667 58.3333 75.3555 59.3333C76.8889 61.5111 76.8444 61.5555 74.9555 63.4444C74.4222 63.9778 73.8963 64.5111 73.3778 65.0444C72.3333 66.0889 71.9778 66.1111 70.7111 65.3111C70.6963 65.2963 70.6741 65.2815 70.6444 65.2666C68.3778 63.8 68.3778 63.8 65.9333 64.9111C65.7333 65 65.5333 65.2666 65.4889 65.5111C65.2667 66.3555 65.1111 67.2222 64.8889 68.0889C64.6889 69 64.0667 69.4666 63.3333 69.3333C62.5333 69.1778 62.1333 68.5111 62.3111 67.5555C62.5555 66.2889 62.7778 65.0444 63.1555 63.8222C63.2889 63.3778 63.7555 62.9111 64.1778 62.6889C65.3111 62.1111 66.5111 61.7111 67.6667 61.1778C68.2667 60.9111 68.7778 60.9111 69.3333 61.2444C69.9555 61.6666 70.6 62.0222 71.2 62.4666C71.6667 62.8222 71.9555 62.7333 72.3111 62.3333C72.6667 61.9555 73.0889 61.6444 73.4889 61.3111C72.8889 60.3778 72.4222 59.6 71.9111 58.8444C71.4889 58.2222 71.4889 57.6666 71.8222 56.9778C72.3111 55.9111 72.7778 54.8222 73.1778 53.7111C73.4222 53.0444 73.8 52.6222 74.4889 52.4889C75.4222 52.3111 76.3333 52.0889 77.2667 51.8666V49.5778C76.3778 49.4 75.5111 49.1778 74.6222 49C73.8222 48.8666 73.4 48.4 73.1333 47.6444C72.7778 46.5778 72.3333 45.5333 71.8444 44.5111C71.5111 43.8444 71.4667 43.2666 71.8889 42.6444C72.3111 42.0444 72.6444 41.4 73.0667 40.8444C73.4 40.3778 73.3111 40.0889 72.9333 39.7333C71.8 38.6222 71.8222 38.6 70.4667 39.4666C70.3778 39.5111 70.2889 39.5778 70.2 39.6444C69.1111 40.6 68.0667 40.6666 66.8222 39.8222C66.1111 39.3555 65.2 39.1555 64.3555 38.8666C63.6667 38.6666 63.2222 38.2889 63.0889 37.5333C62.9111 36.6222 62.6889 35.7333 62.4889 34.8H61.3778V42.6889C61.8222 42.7555 62.2444 42.8 62.6667 42.8889C66.0444 43.5555 68.2444 45.5778 69.0444 48.8889C69.8667 52.1778 68.7778 54.9555 66.1333 57.0666C65.8 57.3333 65.2889 57.6 64.9555 57.5111C64.5111 57.4 64.0222 57.0444 63.8 56.6444C63.4667 56.0444 63.8222 55.5111 64.3111 55.1333C65.5333 54.2444 66.2889 53.0666 66.5778 51.5778C67.1555 48.4444 64.4889 45.3111 61.3111 45.4666V32.0889C61.9555 32.0889 62.5778 32.0889 63.2 32.1111C64.2889 32.1111 64.6889 32.4222 64.9333 33.4889C65.1111 34.3111 65.2667 35.1111 65.4667 35.9333C65.5111 36.1333 65.6222 36.4 65.7555 36.4666C66.5852 36.8518 67.4296 37.2074 68.2889 37.5333C68.4444 37.5778 68.6889 37.4222 68.8667 37.3333C69.6222 36.8592 70.3704 36.3778 71.1111 35.8889C71.8222 35.4222 72.4667 35.5111 73.0667 36.1111C74.0444 37.0889 75.0222 38.0666 76 39.0444C76.5333 39.5778 76.6 40.2 76.2 40.8444C75.7111 41.6222 75.1778 42.3778 74.7333 43.1778C74.6 43.4222 74.6667 43.8 74.6889 44.1333C74.6889 44.2444 74.8 44.3333 74.8222 44.4222C75.1333 46.2889 76.4444 46.8444 78.1111 47.0889C79.8 47.3111 79.9555 47.6 79.9555 49.3333C79.9555 50.4444 79.9555 51.5555 79.9555 52.6666Z" fill="#F26925"></path>
      <path d="M18.7334 34.7333V48.0667C18.0223 48.0667 17.3556 48.0667 16.6889 48.0667C15.8445 48.0889 15.3556 47.6889 15.1778 46.8444C14.9852 45.9852 14.7926 45.1259 14.6 44.2667C14.5556 44.0889 14.5112 43.8222 14.3778 43.7555C13.5037 43.3407 12.6149 42.963 11.7112 42.6222C11.5778 42.5555 11.3556 42.7333 11.2 42.8222C10.4445 43.2963 9.69634 43.7778 8.9556 44.2667C8.26671 44.7111 7.62226 44.6889 7.02226 44.0667C6.04449 43.0889 5.04449 42.1111 4.06671 41.1333C3.50375 40.5556 3.44449 39.9333 3.88893 39.2667C3.99264 39.1037 4.09634 38.9407 4.20004 38.7778C4.66671 38.0222 5.42226 37.2889 5.48893 36.4889C5.5556 35.7111 4.93338 34.8667 4.5556 34.0667C4.46671 33.8667 4.20004 33.6444 3.97782 33.6C3.08893 33.3555 2.20004 33.1555 1.31115 32.9778C0.46671 32.8 0.0889318 32.2667 0.111154 31.4222C0.111154 30.1037 0.111154 28.7778 0.111154 27.4444C0.0889318 26.6 0.46671 26.0889 1.31115 25.9111C2.17041 25.7185 3.02967 25.5185 3.88893 25.3111C4.62226 25.1333 5.71115 22.4889 5.31115 21.8667C4.84449 21.1333 4.40004 20.4 3.91115 19.6889C3.44449 18.9778 3.48893 18.3333 4.08893 17.7333C5.06671 16.7555 6.04449 15.7778 7.02226 14.8C7.57782 14.2222 8.20004 14.1333 8.88893 14.5778C9.66671 15.0667 10.4223 15.6 11.2223 16.0444C11.4445 16.1555 11.8223 16.1555 12.0889 16.0889C12.4223 16.0222 12.6889 15.7555 13 15.6889C14.2667 15.4667 14.7778 14.6889 14.8667 13.4667C14.9112 12.9333 15.0667 12.3778 15.2223 11.8667C15.4223 11.1111 16.0445 10.7111 16.7112 10.8222C17.4223 10.9555 17.9334 11.5778 17.7778 12.3555C17.5334 13.7555 17.2445 15.1778 16.8667 16.5555C16.7556 16.9555 16.2445 17.3111 15.8223 17.5111C14.7112 18.0444 13.5334 18.4444 12.4 18.9778C11.7778 19.2667 11.2445 19.2667 10.6889 18.8889C10.0445 18.4444 9.40004 18.0222 8.71115 17.6444C8.51115 17.5333 8.11115 17.5778 7.88893 17.7111C7.42227 18.0222 7.00004 18.4444 6.53338 18.8444C7.13338 19.7555 7.57782 20.5111 8.08893 21.2222C8.57782 21.9111 8.5556 22.5333 8.17782 23.3111C7.66671 24.2889 7.26671 25.3111 6.91115 26.3555C6.66671 27.0889 6.28893 27.5555 5.48893 27.6889C4.60004 27.8667 3.71115 28.0889 2.80004 28.3111V30.5555C3.71115 30.7778 4.64449 31.0222 5.57782 31.2C6.28893 31.3333 6.64449 31.7778 6.86671 32.4222C7.28893 33.5333 7.73338 34.6444 8.24449 35.7111C8.5556 36.3555 8.57782 36.9111 8.17782 37.5111C7.73338 38.1555 7.28893 38.8 6.93338 39.4667C6.82226 39.6889 6.86671 40.1111 7.02226 40.2889C8.1556 41.6 8.17782 41.6 9.64449 40.6667C9.84449 40.5333 10.0667 40.4222 10.2667 40.2667C11.1334 39.5333 11.9556 39.6 12.9112 40.1778C13.7112 40.6444 14.6223 40.9778 15.5112 41.2222C16.4223 41.4889 16.8889 41.9555 17.0445 42.8667C17.1778 43.7111 17.4 44.5333 17.5778 45.3778H18.6889V37.5111C18 37.3778 17.3112 37.3111 16.6667 37.1111C13.6 36.2444 11.6445 34.2222 10.9556 31.1333C10.2667 27.9556 11.2889 25.2889 13.7778 23.1778C13.9556 23.0222 14.1556 22.8667 14.3778 22.7555C15.0445 22.4444 15.6445 22.5111 16.0889 23.1111C16.5334 23.6889 16.4667 24.2889 15.9556 24.8222C15.7556 25.0444 15.4889 25.2222 15.2667 25.4222C13.6 26.8444 12.9778 29.1555 13.7334 31.2222C14.4889 33.3111 16.4223 34.7111 18.7334 34.7333Z" fill="#F26925"></path>
      <path d="M67.9556 10.8222C68.6667 10.8 69.2667 11.4 69.2889 12.1111C69.3111 12.8889 68.6667 13.6 67.9333 13.6C67.2 13.6 66.6667 13.0666 66.6444 12.3111C66.6222 11.4444 67.1778 10.8222 67.9556 10.8222Z" fill="#F26925"></path>
      <path d="M66.6444 17.5778C66.6444 16.7333 67.2222 16.1111 68 16.1333C68.7111 16.1556 69.3111 16.7556 69.2889 17.4667C69.2889 18.2444 68.6222 18.9556 67.8889 18.9333C67.1333 18.9111 66.6444 18.3556 66.6444 17.5778Z" fill="#F26925"></path>
      <path d="M66.6444 22.9111C66.6444 22.0444 67.2222 21.4444 68 21.4667C68.7111 21.4667 69.3111 22.0889 69.2889 22.8C69.2889 23.5778 68.6222 24.2667 67.8889 24.2444C67.1333 24.2222 66.6444 23.6889 66.6444 22.9111Z" fill="#F26925"></path>
      <path d="M10.7555 57.1778C10.7777 56.3778 11.3333 55.8 12.0666 55.8C12.8222 55.8 13.4444 56.4222 13.4 57.1778C13.3777 57.9778 12.7111 58.6 11.9555 58.5555C11.2 58.5111 10.7333 58 10.7555 57.1778Z" fill="#F26925"></path>
      <path d="M10.7555 62.5334C10.7777 61.6889 11.3777 61.0889 12.1555 61.1111C12.8666 61.1556 13.4222 61.7778 13.4 62.4889C13.3777 63.2667 12.7333 63.9111 11.9777 63.8889C11.2 63.8445 10.7333 63.3334 10.7555 62.5334Z" fill="#F26925"></path>
      <path d="M10.7556 67.8444C10.7556 67.0222 11.3778 66.4 12.1334 66.4444C12.8445 66.4667 13.4223 67.0889 13.4001 67.8C13.3778 68.6 12.7334 69.2222 11.9778 69.2C11.2223 69.1778 10.7334 68.6444 10.7556 67.8444Z" fill="#F26925"></path>
      <path d="M29.8667 40.1333C30.3556 40.5778 30.8 40.9556 31.2 41.3556C32.1482 42.2889 33.0889 43.2296 34.0222 44.1778C34.8222 44.9778 34.9111 45.7333 34.3111 46.3333C33.6889 46.9556 32.9333 46.8445 32.1333 46.0445C30.5482 44.4593 28.963 42.8741 27.3778 41.2889C26.4889 40.4 26.4667 39.7778 27.3778 38.8889C28.9333 37.3185 30.4963 35.7482 32.0667 34.1778C32.9259 33.3185 33.6667 33.2 34.2889 33.8222C34.9333 34.4222 34.8222 35.2 33.9778 36.0445C32.6445 37.3778 31.3111 38.6889 29.8667 40.1333Z" fill="#F26925"></path>
      <path d="M50.1555 40.0889C48.7555 38.7111 47.4666 37.4222 46.1778 36.1333C46 35.9555 45.8 35.8 45.6666 35.6C45.2222 35 45.2444 34.4 45.7333 33.8444C46.2 33.3333 46.9778 33.2444 47.5111 33.7555C49.3778 35.5555 51.2 37.3778 52.9778 39.2222C53.4889 39.7333 53.4889 40.4222 52.9778 40.9555C51.2148 42.7778 49.4148 44.5778 47.5778 46.3555C47.0222 46.9111 46.2222 46.8444 45.7333 46.3111C45.2 45.7778 45.2222 45 45.8222 44.4C47.2222 42.9778 48.6444 41.5778 50.1555 40.0889Z" fill="#F26925"></path>
      <path d="M42.6889 34.9111C42.5556 35.4667 42.3778 36.1556 42.2 36.8445C41.4889 39.7111 40.7778 42.5778 40.0444 45.4445C39.8 46.4 39.1778 46.8667 38.4222 46.7111C37.6 46.5111 37.2444 45.8 37.4889 44.8C38.3333 41.3926 39.1852 37.9926 40.0444 34.6C40.2444 33.7778 40.8222 33.3556 41.5111 33.4445C42.1778 33.5334 42.6667 34.0889 42.6889 34.9111Z" fill="#F26925"></path>
      <path d="M40.0667 8.15556C38.8 8.15556 37.5333 8.15556 36.2444 8.13334C35.2889 8.13334 34.6889 7.60001 34.7111 6.77778C34.7333 6.00001 35.3111 5.48889 36.2444 5.48889C38.763 5.47408 41.2815 5.47408 43.8 5.48889C44.7556 5.48889 45.3556 6.04445 45.3333 6.84445C45.3333 7.62223 44.7333 8.13334 43.8222 8.13334C42.5778 8.15556 41.3333 8.15556 40.0667 8.15556Z" fill="#F26925"></path>
    </g>
    <defs>
      <clipPath id="clip0_111_267">
        <rect width="80" height="80" fill="white"></rect>
      </clipPath>
    </defs>
  </symbol>
  <symbol fill="none" xmlns="http://www.w3.org/2000/svg" viewBox="0 0 81 80" id="product">
    <g clip-path="url(#clip0_111_233)">
      <path fill-rule="evenodd" clip-rule="evenodd" d="M59.7358 80.0196C59.4229 80.0196 59.1099 80.0196 58.797 80.0196C58.797 80 58.7774 79.9609 58.7578 79.9413C52.7725 76.4988 46.7872 73.0367 40.8018 69.5941C38.2395 68.1271 38.5133 68.4205 38.4938 65.6039C38.4938 63.9609 38.4938 62.3374 38.4938 60.6553C38.1026 60.6553 37.7896 60.6553 37.4767 60.6553C25.7603 60.6553 14.0243 60.6357 2.28839 60.6748C1.3104 60.6748 0.567123 60.4205 0.078125 59.5599C0.078125 40.0913 0.078125 20.6227 0.078125 1.15404C0.567123 0.273842 1.32996 0.0391235 2.28839 0.0391235C17.2713 0.0586834 32.2737 0.0586834 47.2566 0.0586834C47.4131 0.0586834 47.5696 0.0586834 47.726 0.0586834C48.8018 0.117363 49.3886 0.70416 49.4278 1.77995C49.4473 2.77751 49.4278 3.7555 49.4278 4.75306C49.4278 5.26162 49.4278 5.76365 49.4278 6.25917C52.2444 6.25917 54.9437 6.25917 57.6234 6.25917C57.6625 6.18093 57.7016 6.12225 57.7016 6.08313C57.7016 4.77914 57.7016 3.48167 57.7016 2.19071C57.7212 0.586801 58.2297 0.0586834 59.7945 0.0586834C64.4237 0.0586834 69.0594 0.0586834 73.7016 0.0586834C75.3251 0.0586834 75.8141 0.567241 75.8141 2.22983C75.8336 3.55991 75.8141 4.90954 75.8141 6.29829C76.6747 6.29829 77.418 6.29829 78.1613 6.29829C79.2957 6.31785 80.039 6.94377 80.0194 7.86308C80.0194 8.80196 79.2957 9.40832 78.1613 9.42788C77.3984 9.42788 76.616 9.42788 75.8141 9.42788C75.8141 11.8533 75.8336 14.1809 75.8141 16.489C75.8141 17.7213 75.2077 18.3081 73.995 18.3276C73.3691 18.3472 72.7627 18.3276 72.0781 18.3276C72.0781 18.9535 72.0781 19.4817 72.0781 20.0293C72.039 23.1589 72.4693 22.6113 69.7896 24.4303C68.7529 25.154 68.2053 25.8778 68.2835 27.2469C68.3813 29.2225 66.8948 30.709 64.9192 30.846C63.863 30.9242 62.7872 30.8655 61.7309 30.9242C61.4571 30.9242 61.0659 31.0416 60.929 31.2372C60.4987 31.8631 60.9094 33.2323 61.594 33.6235C67.3446 36.9487 73.1148 40.2934 78.8654 43.599C79.5891 44.0098 80.039 44.4988 80.039 45.379C80.039 52.6422 80.039 59.8989 80.039 67.1491C80.039 67.912 79.7456 68.4401 79.1001 68.8117C78.2199 69.3203 77.3397 69.8289 76.4595 70.3374C70.8915 73.5583 65.3169 76.7857 59.7358 80.0196ZM46.2982 9.42788C45.907 9.42788 45.6136 9.42788 45.3397 9.42788C40.5802 9.42788 35.8206 9.42788 31.061 9.42788C30.7872 9.42788 30.5329 9.44744 30.2786 9.40832C29.418 9.29096 28.8116 8.62592 28.8312 7.84352C28.8507 7.06113 29.4375 6.43521 30.2591 6.31785C30.5133 6.29829 30.7676 6.29829 31.0219 6.29829C35.8206 6.29829 40.6128 6.29829 45.3984 6.29829C45.6723 6.29829 45.9461 6.29829 46.2591 6.29829C46.2591 5.2225 46.2591 4.22494 46.2591 3.22739C31.8825 3.22739 17.5647 3.22739 3.26639 3.22739C3.26639 21.3594 3.26639 39.4328 3.26639 57.4866C15.0219 57.4866 26.7187 57.4866 38.4938 57.4866C38.4938 57.1736 38.4938 56.8802 38.4938 56.6064C38.4938 52.89 38.4938 49.1736 38.4938 45.4377C38.4938 44.7139 38.6894 44.1271 39.3544 43.7555C44.9094 40.5672 50.4253 37.3399 55.9999 34.2103C57.2126 33.5452 57.8581 32.8998 57.7603 31.3741C57.6429 29.4572 59.1686 27.9707 61.0855 27.8337C62.0635 27.7555 63.061 27.8337 64.039 27.7555C64.4302 27.7359 64.9779 27.5795 65.1344 27.3056C65.4669 26.7775 65.1735 25.5061 64.8018 25.2518C64.039 24.6846 63.2566 24.0978 62.4547 23.5697C61.7505 23.0807 61.3984 22.4743 61.4375 21.6137C61.4962 20.5183 61.4571 19.4425 61.4571 18.3276C60.6943 18.3276 60.0488 18.3472 59.4033 18.3276C58.3471 18.2885 57.7603 17.6822 57.7212 16.665C57.682 16.1565 57.7016 15.6675 57.7016 15.1785C57.7016 13.2812 57.7016 11.3839 57.7016 9.467C54.9045 9.467 52.2053 9.467 49.4278 9.467C49.4278 9.83863 49.4278 10.132 49.4278 10.445C49.4278 18.0994 49.4278 25.7539 49.4278 33.4083C49.4278 33.7017 49.4278 34.0342 49.3691 34.3276C49.193 35.0905 48.6062 35.5599 47.863 35.5599C47.1197 35.5403 46.5329 35.0905 46.3764 34.3276C46.2982 34.0147 46.3177 33.7017 46.3177 33.3888C46.3047 25.7343 46.2982 18.0864 46.2982 10.445C46.2982 10.132 46.2982 9.81907 46.2982 9.42788ZM43.3446 45.0856C43.4424 45.2225 43.462 45.2616 43.5011 45.3007C48.6258 48.2347 53.7309 51.1883 58.8752 54.1027C59.0708 54.2201 59.4816 54.2005 59.6967 54.0831C60.5769 53.6333 61.418 53.1051 62.2786 52.6357C63.2175 52.1271 64.0781 52.3227 64.5476 53.0856C65.017 53.8875 64.7432 54.7677 63.8238 55.335C63.061 55.8044 62.2786 56.2738 61.4571 56.6846C60.9681 56.9389 60.8116 57.2323 60.8116 57.78C60.8312 63.511 60.8312 69.2225 60.8312 74.9535C60.8312 75.1687 60.8507 75.3839 60.8703 75.6968C61.0855 75.5795 61.2224 75.5208 61.3593 75.4425C66.3666 72.5477 71.3935 69.6528 76.4204 66.7579C76.8703 66.5037 76.929 66.1907 76.929 65.7604C76.9094 60.0293 76.9094 54.2983 76.9094 48.5868C76.9094 48.3716 76.8899 48.1565 76.8703 47.8631C76.0879 48.2934 75.4033 48.7433 74.6796 49.0758C74.308 49.2518 73.8385 49.3888 73.4278 49.3496C72.7823 49.2714 72.3715 48.8215 72.2346 48.1565C72.0977 47.4523 72.352 46.8655 72.9779 46.4939C73.7016 46.044 74.4449 45.6137 75.2664 45.1247C69.9852 42.0929 64.841 39.1002 59.6771 36.1467C59.4424 36.0293 59.0121 36.0685 58.7774 36.2054C57.2713 37.0269 55.7847 37.9071 54.2982 38.7677C50.66 40.8802 47.0023 42.9731 43.3446 45.0856ZM41.6625 47.8826C41.6429 48.0391 41.6234 48.1369 41.6234 48.2347C41.6234 54.1418 41.6234 60.0489 41.6038 65.956C41.6038 66.445 41.8776 66.621 42.2297 66.8166C47.1392 69.6333 52.0292 72.4694 56.9388 75.3056C57.1539 75.4425 57.3886 75.5403 57.7016 75.6968C57.7016 75.3447 57.7016 75.0905 57.7016 74.8362C57.7016 69.1638 57.7016 63.4914 57.7212 57.8386C57.7212 57.2714 57.5451 56.9584 57.0561 56.6846C52.1661 53.8875 47.2762 51.0709 42.3862 48.2543C42.171 48.1369 41.9363 48.0196 41.6625 47.8826ZM60.8703 15.1589C64.841 15.1589 68.7529 15.1589 72.6454 15.1589C72.6454 11.1296 72.6454 7.15893 72.6454 3.22739C68.6747 3.22739 64.7823 3.22739 60.8703 3.22739C60.8703 7.19805 60.8703 11.1491 60.8703 15.1589ZM64.5867 18.3472C64.5867 19.0709 64.6258 19.7359 64.5671 20.401C64.5084 21.0269 64.7432 21.379 65.2517 21.7311C66.7774 22.7873 66.7774 22.8264 68.2639 21.7115C68.5182 21.5355 68.8899 21.3203 68.9094 21.1051C68.9877 20.1858 68.9485 19.2665 68.9485 18.3472C67.462 18.3472 66.0732 18.3472 64.5867 18.3472Z" fill="#184367"></path>
      <path fill-rule="evenodd" clip-rule="evenodd" d="M40.9976 30.4157C40.9976 33.0954 40.9781 35.7751 40.9976 38.4548C41.0172 39.335 40.6847 39.9218 39.9218 40.3521C35.2144 43.0644 30.5135 45.7832 25.8191 48.5086C25.0759 48.9193 24.4108 48.9193 23.6871 48.489C18.9927 45.7637 14.2918 43.0514 9.58442 40.3521C8.82158 39.9218 8.50862 39.3154 8.50862 38.4548C8.52166 33.0693 8.52166 27.6838 8.50862 22.2983C8.48907 21.379 8.82158 20.7726 9.62354 20.3228C14.3049 17.6365 18.9862 14.9373 23.6675 12.225C24.4108 11.7751 25.0954 11.7946 25.8583 12.225C30.5266 14.9373 35.2079 17.643 39.9023 20.3423C40.6847 20.7922 41.0172 21.3985 41.0172 22.2983C40.9781 24.9976 40.9976 27.7164 40.9976 30.4157ZM26.3081 27.6577C29.692 25.7017 32.9585 23.824 36.3032 21.868C32.9389 19.9316 29.692 18.0538 26.4255 16.1761C26.3668 16.2738 26.3277 16.313 26.3277 16.3716C26.3277 17.1932 26.3277 18.0342 26.3081 18.8558C26.3081 20.0685 25.7213 20.8117 24.7629 20.8117C23.8045 20.8117 23.1981 20.0685 23.1981 18.8753C23.1981 18.432 23.1981 17.9886 23.1981 17.5452C23.1981 17.1149 23.1981 16.665 23.1981 16.1174C19.7947 18.0734 16.5673 19.9316 13.203 21.868C16.5673 23.824 19.8338 25.7017 23.1981 27.6382C23.1981 26.8558 23.1786 26.2298 23.1981 25.6235C23.2372 24.6064 23.8827 23.9218 24.7825 23.9413C25.6431 23.9609 26.269 24.6259 26.3081 25.6039C26.3277 26.2103 26.3081 26.8362 26.3081 27.6577ZM27.8925 30.357C28.8118 30.8851 29.5942 31.335 30.357 31.8044C31.0025 32.1761 31.3741 32.7042 31.2372 33.467C31.0612 34.5819 29.9463 35.0905 28.89 34.5428C28.0685 34.0929 27.247 33.6039 26.3668 33.0954C26.3668 36.9682 26.3668 40.7237 26.3668 44.577C29.692 42.6602 32.9389 40.7824 36.3032 38.846C35.8534 38.5721 35.5013 38.357 35.1492 38.1614C34.7776 37.9462 34.4059 37.7506 34.0734 37.5355C33.0563 36.8509 32.9194 35.6773 33.7605 34.9731C34.3864 34.445 35.0514 34.5037 35.7164 34.8753C36.401 35.2665 37.0856 35.6577 37.8094 36.0685C37.8094 32.2152 37.8094 28.4597 37.8094 24.6259C34.5037 26.5428 31.2568 28.401 27.8925 30.357ZM13.203 38.8264C16.5869 40.7824 19.8338 42.6602 23.159 44.577C23.159 40.6846 23.159 36.9487 23.159 33.0954C22.5526 33.4474 22.0245 33.7408 21.4768 34.0538C20.538 34.5624 19.6186 34.3668 19.1688 33.5844C18.7189 32.7824 18.9927 31.9218 19.912 31.3545C20.4402 31.022 20.9683 30.7286 21.6333 30.357C18.2495 28.401 15.0025 26.5232 11.6773 24.6064C11.6773 28.4792 11.6773 32.2347 11.6773 36.088C12.1663 35.8142 12.5575 35.5795 12.9487 35.3643C13.692 34.9731 14.3962 34.5232 15.159 34.1907C15.8436 33.9169 16.4499 34.2103 16.8411 34.7971C17.2519 35.3839 17.2519 36.0294 16.7825 36.5966C16.5477 36.8704 16.2152 37.066 15.9218 37.2616C15.0612 37.7702 14.181 38.2592 13.203 38.8264Z" fill="#F26925"></path>
      <path d="M26.2885 7.8631C26.2885 8.66506 25.5647 9.40834 24.7432 9.40834C23.9217 9.4279 23.198 8.70418 23.198 7.8631C23.198 7.04159 23.9022 6.31787 24.7237 6.31787C25.5452 6.31787 26.2885 7.04159 26.2885 7.8631Z" fill="#F26925"></path>
      <path d="M69.8484 50.9927C69.8289 51.8142 69.066 52.5379 68.2641 52.5184C67.4426 52.4988 66.7384 51.7751 66.758 50.934C66.7775 50.1125 67.5012 49.4083 68.3228 49.4279C69.1443 49.4474 69.868 50.1907 69.8484 50.9927Z" fill="#F26925"></path>
    </g>
    <defs>
      <clipPath id="clip0_111_233">
        <rect width="80.1956" height="80" fill="white"></rect>
      </clipPath>
    </defs>
  </symbol>
  <symbol fill="none" xmlns="http://www.w3.org/2000/svg" viewBox="0 0 75 80" id="qa">
    <g clip-path="url(#clip0_111_244)">
      <path fill-rule="evenodd" clip-rule="evenodd" d="M64.2083 0.125C64.8541 0.5625 65 1.16667 65 1.9375C64.9791 20.1875 65 38.4167 65 56.6667C65 56.9167 65 57.1875 65 57.4792C64.1666 57.4792 63.3958 57.4792 62.5416 57.4792C62.5416 39.2292 62.5416 20.9792 62.5416 2.66667C42.5208 2.66667 22.6041 2.66667 2.64579 2.66667C2.64579 22.5833 2.64579 42.4792 2.64579 62.5C2.90968 62.5 3.18052 62.5 3.45829 62.5C7.59718 62.5 11.7291 62.5 15.8541 62.5C17.1875 62.5 17.5833 62.8958 17.5833 64.2083C17.5833 68.3194 17.5833 72.4236 17.5833 76.5208C17.5833 76.8125 17.5833 77.1042 17.5833 77.4583C32.5625 77.4583 47.5 77.4583 62.4583 77.4583C62.4583 78.3125 62.4583 79.0833 62.4583 79.9792C62.1944 79.9792 61.9236 79.9792 61.6458 79.9792C46.6666 79.9792 31.7083 79.9583 16.7291 79.9792C16.0416 79.9792 15.5625 79.7708 15.0833 79.2917C10.3194 74.5 5.54163 69.7222 0.749959 64.9583C0.291626 64.5 0.104126 64.0208 0.104126 63.375C0.118015 42.8889 0.118015 22.4097 0.104126 1.9375C0.104126 1.16667 0.249959 0.5625 0.895793 0.125C22.0069 0.125 43.1111 0.125 64.2083 0.125ZM15.0625 65.0417C11.5416 65.0417 8.08329 65.0417 4.77079 65.0417C8.18746 68.4583 11.6458 71.9167 15.0625 75.3333C15.0625 72.0208 15.0625 68.5625 15.0625 65.0417Z" fill="#184367"></path>
      <path fill-rule="evenodd" clip-rule="evenodd" d="M53.1667 53.75C54.8542 55.4375 56.5 57.0833 58.3542 58.9166C58.5417 58.6458 58.7292 58.2917 59 58.0208C59.6875 57.3333 60.3125 57.3333 61.0209 58.0208C61.9167 58.8958 62.7917 59.7708 63.6667 60.6667C67.1945 64.1944 70.7223 67.7222 74.25 71.25C75.2292 72.2292 75.2292 72.75 74.25 73.7291C72.3889 75.5903 70.5348 77.4444 68.6875 79.2917C67.7709 80.2083 67.2084 80.2083 66.3125 79.3125C61.9931 74.993 57.6737 70.6736 53.3542 66.3542C52.2084 65.2083 52.2084 64.7917 53.3542 63.6458C53.5 63.5 53.625 63.3542 53.7084 63.2708C52.0417 61.5833 50.375 59.9375 48.6667 58.2292C42.4167 62.9375 35.2917 64.7708 27.4375 63.2292C20.9167 61.9583 15.5834 58.5833 11.6042 53.25C3.52088 42.4792 4.89588 27.5625 14.75 18.3542C24.4792 9.22915 39.5417 8.97915 49.7917 17.8333C59.8125 26.5208 62.1459 42.1042 53.1667 53.75ZM32.5625 61.25C45.75 61.1875 56.3334 50.5417 56.25 37.4583C56.1875 24.3333 45.5209 13.7917 32.375 13.8542C19.3125 13.9167 8.77088 24.625 8.85421 37.8125C8.93755 50.7292 19.6667 61.3333 32.5625 61.25ZM71.7292 72.5208C69.0417 69.8542 66.3334 67.1458 63.75 64.5625C62.375 65.9583 60.9167 67.4166 59.5417 68.8125C62.1459 71.4166 64.8542 74.1041 67.4792 76.75C68.8959 75.3541 70.3334 73.9167 71.7292 72.5208ZM60.1459 60.7292C58.6667 62.2292 57.1875 63.6875 55.8542 65.0417C56.3542 65.5833 56.9375 66.25 57.4167 66.7917C58.8889 65.3194 60.3473 63.868 61.7917 62.4375C61.2292 61.875 60.625 61.25 60.1459 60.7292ZM50.8334 56.3333C52.4792 58 54.1042 59.6042 55.6459 61.1458C55.8334 61.0208 56.0834 60.8542 56.25 60.75C54.5625 59.0833 52.9584 57.4792 51.3542 55.875C51.2084 56 51 56.1875 50.8334 56.3333Z" fill="#184367"></path>
      <path fill-rule="evenodd" clip-rule="evenodd" d="M11.3541 15.1041C9.79163 15.1041 8.22913 15.1041 6.66663 15.1041C5.54163 15.0833 5.10413 14.6458 5.10413 13.5416C5.10413 11.25 5.10413 8.95831 5.10413 6.66665C5.10413 5.56248 5.54163 5.12498 6.66663 5.12498C9.79163 5.11109 12.9097 5.11109 16.0208 5.12498C17.1458 5.12498 17.5833 5.56248 17.5833 6.68748C17.5833 8.96526 17.5833 11.25 17.5833 13.5416C17.5833 14.6458 17.1458 15.0833 16.0208 15.1041C14.4583 15.1041 12.8958 15.1041 11.3541 15.1041ZM15.0208 12.5833C15.0208 10.875 15.0208 9.24998 15.0208 7.64581C12.5416 7.64581 10.1041 7.64581 7.64579 7.64581C7.64579 9.31248 7.64579 10.9375 7.64579 12.5833C10.125 12.5833 12.5625 12.5833 15.0208 12.5833Z" fill="#184367"></path>
      <path d="M25.1041 7.56248C25.1041 6.72915 25.1041 5.95831 25.1041 5.14581C36.3125 5.14581 47.4791 5.14581 58.6875 5.14581C58.6875 5.93748 58.6875 6.70831 58.6875 7.56248C47.5208 7.56248 36.3541 7.56248 25.1041 7.56248Z" fill="#F26925"></path>
      <path d="M42.5 67.5417C42.5 68.375 42.5 69.1458 42.5 69.9583C35.0417 69.9583 27.6042 69.9583 20.125 69.9583C20.125 69.1458 20.125 68.375 20.125 67.5417C27.5625 67.5417 35 67.5417 42.5 67.5417Z" fill="#F26925"></path>
      <path d="M47.5 72.5417C47.5 73.375 47.5 74.125 47.5 74.9375C40.0417 74.9375 32.6042 74.9375 25.125 74.9375C25.125 74.1667 25.125 73.375 25.125 72.5417C32.5625 72.5417 40 72.5417 47.5 72.5417Z" fill="#F26925"></path>
      <path d="M7.62496 20.0625C7.62496 22.6042 7.62496 25.0417 7.62496 27.5625C7.10413 27.5625 6.64579 27.6042 6.20829 27.5417C5.49996 27.4375 5.12496 26.9792 5.10413 26.25C5.10413 23.8125 5.10413 21.375 5.12496 18.9167C5.12496 18.125 5.58329 17.625 6.35413 17.6042C7.97913 17.5833 9.60413 17.6042 11.2916 17.6042C11.2916 18.4167 11.2916 19.2083 11.2916 20.0625C10.1041 20.0625 8.91663 20.0625 7.62496 20.0625Z" fill="#184367"></path>
      <path d="M20.125 5.14581C20.9375 5.14581 21.6875 5.14581 22.5208 5.14581C22.5208 5.93748 22.5208 6.72915 22.5208 7.56248C21.7292 7.56248 20.9583 7.56248 20.125 7.56248C20.125 6.77081 20.125 6.02081 20.125 5.14581Z" fill="#F26925"></path>
      <path d="M20.1041 74.9375C20.1041 74.125 20.1041 73.3542 20.1041 72.5417C20.9166 72.5417 21.7083 72.5417 22.5416 72.5417C22.5416 73.3334 22.5416 74.125 22.5416 74.9375C21.7291 74.9375 20.9583 74.9375 20.1041 74.9375Z" fill="#F26925"></path>
      <path fill-rule="evenodd" clip-rule="evenodd" d="M12.6042 37.5416C12.6042 26.5 21.5625 17.5833 32.6042 17.5833C43.5833 17.6041 52.5417 26.6041 52.5208 37.5625C52.4792 48.6458 43.5 57.5417 32.4167 57.5208C21.5 57.4792 12.5833 48.5 12.6042 37.5416ZM15.0833 37.5833C15.1042 47.2916 22.9375 55.0208 32.7292 55.0208C42.1875 55 50.0417 47.0833 50.0208 37.5625C50 27.875 42.1875 20.0833 32.5 20.0833C22.9167 20.0833 15.0625 27.9583 15.0833 37.5833Z" fill="#184367"></path>
      <path fill-rule="evenodd" clip-rule="evenodd" d="M28.8958 37.2083C29.1458 36.8333 29.2916 36.5833 29.4791 36.375C32.1875 33.6528 34.9028 30.9305 37.625 28.2083C38.5 27.3333 39.0833 27.3333 39.9583 28.2083C41.0416 29.2916 42.125 30.375 43.2083 31.4583C44 32.2708 44 32.875 43.2083 33.6666C38.7778 38.0972 34.3472 42.5278 29.9166 46.9583C29.1041 47.75 28.5208 47.75 27.7083 46.9375C25.7778 45.0208 23.8472 43.0972 21.9166 41.1666C21.125 40.3541 21.1041 39.75 21.8958 38.9583C23.0208 37.8333 24.1458 36.7153 25.2708 35.6041C26 34.875 26.6041 34.875 27.3541 35.5833C27.6041 35.8194 27.8472 36.0555 28.0833 36.2916C28.2916 36.5208 28.5 36.7708 28.8958 37.2083ZM38.7916 30.625C38.5416 30.8541 38.3333 31.0416 38.1458 31.25C35.3958 33.9791 32.6666 36.7291 29.9166 39.4583C29.125 40.2708 28.5208 40.2708 27.7291 39.4791C27.2708 39.0208 26.8333 38.5416 26.5208 38.2083C25.7708 38.9166 25.118 39.5278 24.5625 40.0416C25.9791 41.4791 27.4375 42.9166 28.7708 44.25C32.6875 40.3541 36.6458 36.3958 40.6041 32.4375C40.0764 31.9097 39.4722 31.3055 38.7916 30.625Z" fill="#F26925"></path>
    </g>
    <defs>
      <clipPath id="clip0_111_244">
        <rect width="75" height="80" fill="white"></rect>
      </clipPath>
    </defs>
  </symbol>
  <symbol fill="none" xmlns="http://www.w3.org/2000/svg" viewBox="0 0 80 80" id="software">
    <g clip-path="url(#clip0_111_202)">
      <path fill-rule="evenodd" clip-rule="evenodd" d="M46.5162 61.8065C46.1506 61.8065 45.8281 61.8065 45.527 61.8065C31.8639 61.8065 18.208 61.8065 4.55924 61.8065C1.65601 61.8065 0.150635 60.3011 0.150635 57.3763C0.150635 39.7276 0.150635 22.0789 0.150635 4.43011C0.150635 1.48387 1.65601 0 4.62375 0C26.5449 0 48.466 0 70.3872 0C73.3549 0 74.8388 1.48387 74.8388 4.43011C74.8388 19.6989 74.8603 34.9677 74.8388 50.2151C74.8388 50.7742 74.9893 51.1613 75.3764 51.5484C76.7313 52.8817 77.0323 54.4301 76.3227 56.1935C75.8926 57.2688 76.3227 58.2796 77.4194 58.7527C79.1255 59.4839 79.9858 60.7814 80.0001 62.6452C80.0001 62.9606 80.0001 63.2832 80.0001 63.6129C79.9786 65.4409 79.1184 66.7097 77.441 67.4409C76.3227 67.914 75.8926 68.9032 76.3227 69.9785C77.1399 71.957 76.5377 73.5269 75.0754 74.9893C73.6345 76.4086 72.0646 76.9462 70.1291 76.1505C69.0969 75.7419 68.0646 76.172 67.613 77.2043C66.8603 79.0108 65.527 79.8495 63.5915 79.828C63.2044 79.828 62.7958 79.8495 62.3872 79.828C60.7528 79.6774 59.5915 78.8387 58.9248 77.3333C58.4087 76.129 57.484 75.7419 56.2797 76.1935C54.6022 76.8387 53.1184 76.5591 51.8281 75.3333C51.57 75.0896 51.3191 74.8459 51.0754 74.6022C49.785 73.2688 49.4625 71.7419 50.1721 70.0215C50.6238 68.9247 50.1936 67.914 49.1184 67.4409C47.3549 66.7097 46.5162 65.3763 46.5162 63.4839C46.5162 62.9462 46.5162 62.4301 46.5162 61.8065ZM72.2151 49.5269C72.2151 39.0538 72.2151 28.5591 72.2151 18.086C49.0323 18.086 25.8926 18.086 2.73128 18.086C2.73128 18.4086 2.73128 18.6667 2.73128 18.9247C2.73128 31.7276 2.73128 44.5233 2.73128 57.3118C2.73128 58.8817 3.07537 59.2258 4.68827 59.2258C18.7313 59.2258 32.7958 59.2258 46.8388 59.2473C47.6345 59.2473 48.3442 59.1398 49.0754 58.7742C50.2151 58.1935 50.5377 57.3118 50.1506 56.0645C49.9356 55.3118 49.8496 54.4946 49.9141 53.7204C50.0216 52.4731 50.9463 51.6989 51.785 50.8817C53.0969 49.6344 54.6022 49.3118 56.3012 50C57.4409 50.4516 58.3442 50 58.9463 48.9247C59.3549 48.1935 59.9141 47.3979 60.6237 46.9462C63.0969 45.3548 66.4302 46.4086 67.656 49.0753C68.0646 49.957 69.0754 50.3871 70.0001 50.086C70.7098 49.871 71.4409 49.7204 72.2151 49.5269ZM2.73128 15.3978C25.9571 15.3978 49.0969 15.3978 72.2797 15.3978C72.2797 15.0538 72.2797 14.7527 72.2797 14.4731C72.2797 11.1756 72.2797 7.87814 72.2797 4.58065C72.2797 2.88172 71.9571 2.55914 70.2582 2.55914C48.423 2.55914 26.5879 2.55914 4.75278 2.55914C4.51623 2.55914 4.27967 2.55914 4.04311 2.58065C3.26891 2.62366 2.75279 3.07527 2.75279 3.82796C2.73128 7.67742 2.73128 11.5054 2.73128 15.3978ZM71.742 73.957C73.0754 73.9355 74.3657 72.086 73.9356 70.9462C73.0108 68.5376 73.9786 66.1075 76.3657 65.0968C77.3334 64.6882 77.441 63.9785 77.441 63.0753C77.441 62.1935 77.3119 61.4839 76.3442 61.0753C74.0216 60.086 72.9678 57.6129 73.9141 55.3118C74.3012 54.3656 73.9786 53.7419 73.3119 53.0968C72.6668 52.4516 72.0646 52 71.0754 52.4086C68.7313 53.3763 66.2582 52.3441 65.2904 50.0215C64.8818 49.0753 64.1936 48.9032 63.2904 48.9032C62.3657 48.9032 61.6345 49.0323 61.2259 50.0215C60.2797 52.3226 57.7635 53.3763 55.5055 52.4301C54.4732 52 53.8496 52.4301 53.1829 53.1183C52.5377 53.7634 52.1936 54.3656 52.6022 55.3118C53.527 57.5914 52.4947 60.1075 50.2151 61.0538C49.2259 61.4624 49.0754 62.172 49.0754 63.0968C49.0754 64.043 49.2474 64.7312 50.2367 65.1398C52.4517 66.0645 53.527 68.6022 52.6238 70.7957C52.2151 71.7634 52.5162 72.4086 53.1829 73.0753C53.8711 73.7634 54.4947 74.172 55.527 73.7419C57.742 72.8172 60.2797 73.871 61.2044 76.086C61.5915 77.0753 62.2797 77.2688 63.2259 77.2688C64.1936 77.2688 64.9033 77.0968 65.3334 76.086C66.2366 73.871 68.7743 72.8602 71.0108 73.7204C71.2904 73.828 71.57 73.914 71.742 73.957Z" fill="#184367"></path>
      <path fill-rule="evenodd" clip-rule="evenodd" d="M40.086 48.9248C40.086 49.5914 40.086 50.1506 40.0645 50.7097C40.0645 52.043 39.5053 53.0538 38.344 53.6774C37.2042 54.3011 36.0645 54.2151 34.9892 53.5054C32.8817 52.1291 30.7956 50.7097 28.6881 49.3334C28.301 49.0968 27.8064 48.9463 27.3548 48.9463C21.4623 48.9248 15.5483 48.9248 9.65585 48.9248C6.86015 48.9248 5.31177 47.3979 5.31177 44.6237C5.31177 38.043 5.31177 31.4696 5.31177 24.9032C5.31177 22.1291 6.86015 20.6022 9.65585 20.6022C21.3404 20.6022 33.0322 20.6022 44.7311 20.6022C47.5698 20.6022 49.0967 22.1291 49.0967 24.9678C49.0967 31.5197 49.0967 38.0645 49.0967 44.6022C49.0967 47.3764 47.5483 48.9248 44.7526 48.9248C43.2257 48.9248 41.6989 48.9248 40.086 48.9248ZM37.5053 46.3441C39.9569 46.3441 42.3225 46.3441 44.6881 46.3441C46.1505 46.3441 46.5161 45.9785 46.5161 44.4731C46.5161 37.9929 46.5161 31.5054 46.5161 25.0108C46.5161 23.5484 46.129 23.1613 44.6451 23.1613C33.0035 23.1613 21.3691 23.1613 9.74187 23.1613C8.258 23.1613 7.87091 23.5484 7.87091 25.0323C7.87091 31.5126 7.87091 38 7.87091 44.4946C7.87091 45.9785 8.258 46.3441 9.72037 46.3441C15.8709 46.3441 21.9999 46.3441 28.1505 46.3656C28.6021 46.3656 29.0967 46.5377 29.4838 46.7742C31.6343 48.1721 33.7634 49.6344 35.9139 51.0323C36.258 51.2473 36.7956 51.4409 37.1182 51.3119C37.3333 51.2258 37.4623 50.6022 37.4838 50.2151C37.5268 48.9678 37.5053 47.7205 37.5053 46.3441Z" fill="#184367"></path>
      <path d="M69.6344 23.1613C63.6344 23.1613 57.7205 23.1613 51.7205 23.1613C51.7205 22.3226 51.7205 21.5269 51.7205 20.6451C57.6774 20.6451 63.6344 20.6451 69.6344 20.6451C69.6344 21.4767 69.6344 22.3154 69.6344 23.1613Z" fill="#F26925"></path>
      <path d="M51.699 43.7204C51.699 42.8602 51.699 42.0645 51.699 41.2473C57.6775 41.2473 63.6345 41.2473 69.6345 41.2473C69.6345 42.043 69.6345 42.8602 69.6345 43.7204C63.6775 43.7204 57.7205 43.7204 51.699 43.7204Z" fill="#F26925"></path>
      <path d="M69.6559 30.9462C69.6559 31.8064 69.6559 32.6021 69.6559 33.4409C63.6774 33.4409 57.742 33.4409 51.7205 33.4409C51.7205 32.6452 51.7205 31.8279 51.7205 30.9462C57.6774 30.9462 63.6344 30.9462 69.6559 30.9462Z" fill="#F26925"></path>
      <path d="M56.8601 28.2581C56.8601 27.4194 56.8601 26.6237 56.8601 25.785C61.1182 25.785 65.3332 25.785 69.6343 25.785C69.6343 26.5807 69.6343 27.3979 69.6343 28.2581C65.3977 28.2581 61.1612 28.2581 56.8601 28.2581Z" fill="#F26925"></path>
      <path d="M56.7742 38.6022C55.0538 38.6022 53.4194 38.6022 51.7205 38.6022C51.7205 37.785 51.7205 36.9678 51.7205 36.1075C53.3764 36.1075 55.0538 36.1075 56.7742 36.1075C56.7742 36.9247 56.7742 37.7204 56.7742 38.6022Z" fill="#F26925"></path>
      <path d="M64.5806 38.5807C64.5806 37.742 64.5806 36.9463 64.5806 36.1075C66.258 36.1075 67.9354 36.1075 69.6558 36.1075C69.6558 36.9247 69.6558 37.742 69.6558 38.5807C67.9784 38.5807 66.3225 38.5807 64.5806 38.5807Z" fill="#F26925"></path>
      <path d="M59.4409 36.086C60.2796 36.086 61.0753 36.086 61.914 36.086C61.914 36.9032 61.914 37.7204 61.914 38.5806C61.0968 38.5806 60.2796 38.5806 59.4409 38.5806C59.4409 37.7634 59.4409 36.9677 59.4409 36.086Z" fill="#F26925"></path>
      <path d="M10.4302 54.129C10.4302 54.9462 10.4302 55.7419 10.4302 56.6021C9.61297 56.6021 8.79576 56.6021 7.93555 56.6021C7.93555 55.7849 7.93555 54.9677 7.93555 54.129C8.75275 54.129 9.52694 54.129 10.4302 54.129Z" fill="#F26925"></path>
      <path d="M13.0537 56.5806C13.0537 55.7419 13.0537 54.9677 13.0537 54.1505C13.8709 54.1505 14.6881 54.1505 15.5483 54.1505C15.5483 54.9462 15.5483 55.7419 15.5483 56.5806C14.7096 56.5806 13.8924 56.5806 13.0537 56.5806Z" fill="#F26925"></path>
      <path d="M18.2151 56.6237C18.2151 55.7634 18.2151 54.9677 18.2151 54.129C19.0538 54.129 19.8495 54.129 20.7097 54.129C20.7097 54.9462 20.7097 55.7634 20.7097 56.6237C19.8925 56.6237 19.0968 56.6237 18.2151 56.6237Z" fill="#F26925"></path>
      <path d="M23.3765 56.6021C23.3765 55.7849 23.3765 54.9892 23.3765 54.129C24.1937 54.129 24.9894 54.129 25.8711 54.129C25.8711 54.9462 25.8711 55.7634 25.8711 56.6021C25.0539 56.6021 24.2582 56.6021 23.3765 56.6021Z" fill="#F26925"></path>
      <path d="M51.699 28.2796C51.699 27.4409 51.699 26.6667 51.699 25.8065C52.5162 25.8065 53.3334 25.8065 54.1936 25.8065C54.1936 26.6022 54.1936 27.4194 54.1936 28.2796C53.3764 28.2796 52.6022 28.2796 51.699 28.2796Z" fill="#F26925"></path>
      <path fill-rule="evenodd" clip-rule="evenodd" d="M12.9679 12.8602C10.4087 12.8602 7.9141 12.8602 5.37646 12.8602C5.37646 10.3011 5.37646 7.78493 5.37646 5.20428C7.87109 5.20428 10.4087 5.20428 12.9679 5.20428C12.9679 7.74192 12.9679 10.3011 12.9679 12.8602ZM10.3872 10.258C10.3872 9.37633 10.3872 8.55912 10.3872 7.76342C9.54851 7.76342 8.75281 7.76342 7.9356 7.76342C7.9356 8.60213 7.9356 9.41934 7.9356 10.258C8.77431 10.258 9.57001 10.258 10.3872 10.258Z" fill="#F26925"></path>
      <path fill-rule="evenodd" clip-rule="evenodd" d="M15.6345 12.8172C15.6345 10.2581 15.6345 7.74194 15.6345 5.1828C18.1937 5.1828 20.7313 5.1828 23.2904 5.1828C23.2904 7.72043 23.2904 10.2366 23.2904 12.8172C20.7743 12.8172 18.2367 12.8172 15.6345 12.8172ZM20.7098 7.76345C19.8711 7.76345 19.0539 7.76345 18.2367 7.76345C18.2367 8.62366 18.2367 9.44086 18.2367 10.2366C19.0969 10.2366 19.9141 10.2366 20.7098 10.2366C20.7098 9.37635 20.7098 8.58065 20.7098 7.76345Z" fill="#F26925"></path>
      <path fill-rule="evenodd" clip-rule="evenodd" d="M25.957 5.1828C28.5377 5.1828 31.0323 5.1828 33.5914 5.1828C33.5914 7.72043 33.5914 10.2366 33.5914 12.7957C31.0753 12.7957 28.5592 12.7957 25.957 12.7957C25.957 10.3011 25.957 7.76345 25.957 5.1828ZM28.5377 7.76345C28.5377 8.64517 28.5377 9.44086 28.5377 10.2366C29.3979 10.2366 30.1936 10.2366 31.0108 10.2366C31.0108 9.37635 31.0108 8.55914 31.0108 7.76345C30.1506 7.76345 29.3549 7.76345 28.5377 7.76345Z" fill="#F26925"></path>
      <path d="M63.3118 53.914C64.1721 54.043 64.9678 54.1506 65.8495 54.2796C64.9893 60.2796 64.1291 66.2366 63.2688 72.3011C62.4086 72.1721 61.6129 72.0645 60.7312 71.9355C61.5914 65.914 62.4301 59.9785 63.3118 53.914Z" fill="#184367"></path>
      <path d="M58.5807 58.5161C59.0753 59.0107 59.6345 59.5699 60.2366 60.172C59.2689 61.0752 58.3226 62 57.2904 62.9892C58.3871 64.0215 59.3764 64.9462 60.3871 65.8925C59.6344 66.6236 59.0538 67.1828 58.5162 67.6989C56.9893 66.172 55.4409 64.6236 53.957 63.1398C55.4409 61.6559 57.0108 60.1075 58.5807 58.5161Z" fill="#184367"></path>
      <path d="M66.1292 60.2581C66.8603 59.5269 67.4195 58.9677 67.9356 58.4516C69.5055 60.0215 71.0754 61.5914 72.5808 63.0968C71.0969 64.5806 69.527 66.1505 67.9356 67.7419C67.4338 67.2258 66.8747 66.6523 66.2582 66.0215C67.2259 65.0753 68.1937 64.129 69.2474 63.1183C68.1507 62.1075 67.1829 61.2043 66.1292 60.2581Z" fill="#184367"></path>
      <path d="M10.4731 36C10.4731 35.1398 10.4731 34.3441 10.4731 33.5484C12.3871 33.0537 12.8817 32.4516 13.0538 30.4946C13.2473 27.8279 15.6559 25.6129 18.1506 25.8279C18.1506 26.6236 18.1506 27.4193 18.1506 28.258C16.3656 28.5376 15.6129 29.6344 15.5699 31.4193C15.5269 32.7096 14.8387 33.8064 13.871 34.7527C15.0968 35.9355 15.5484 37.3763 15.6774 39.0107C15.785 40.3871 16.8172 41.0537 18.1506 41.2473C18.1506 42.0645 18.1506 42.8602 18.1506 43.7634C16.6667 43.7634 15.4624 43.1828 14.4516 42.1505C13.5914 41.2688 13.1183 40.172 13.0323 38.9247C12.9248 37.1398 12.2796 36.3871 10.4731 36Z" fill="#184367"></path>
      <path d="M36.2366 28.2796C36.2366 27.4194 36.2366 26.6237 36.2366 25.828C38.7097 25.5699 41.1613 27.8495 41.3549 30.5591C41.4839 32.4086 42.0645 33.0968 43.914 33.5484C43.914 34.3226 43.914 35.1398 43.914 35.871C43.3549 36.1505 42.7527 36.3441 42.2796 36.6882C41.5914 37.2043 41.3764 37.9785 41.3549 38.8172C41.2473 41.5914 38.9893 43.7634 36.2581 43.7419C36.2581 42.9247 36.2581 42.1075 36.2581 41.2903C38.1721 40.7527 38.6022 40.2366 38.8172 38.1505C38.9247 36.9677 39.3549 36.0645 40.4301 34.8602C40 34.129 39.5054 33.4193 39.1398 32.6667C38.9247 32.2366 38.8387 31.6989 38.8172 31.2043C38.6667 29.3978 38.043 28.6452 36.2366 28.2796Z" fill="#184367"></path>
      <path d="M20.7957 25.785C25.0752 25.785 29.2903 25.785 33.5699 25.785C33.5699 26.5807 33.5699 27.3979 33.5699 28.2796C29.3333 28.2796 25.0967 28.2796 20.7957 28.2796C20.7957 27.4624 20.7957 26.6667 20.7957 25.785Z" fill="#F26925"></path>
      <path d="M20.7957 41.2258C25.0752 41.2258 29.3118 41.2258 33.5914 41.2258C33.5914 42.0645 33.5914 42.8817 33.5914 43.742C29.3333 43.742 25.0752 43.742 20.7957 43.742C20.7957 42.9032 20.7957 42.1076 20.7957 41.2258Z" fill="#F26925"></path>
      <path d="M20.7957 33.4193C20.7957 32.5591 20.7957 31.7634 20.7957 30.9462C25.0537 30.9462 29.2903 30.9462 33.5699 30.9462C33.5699 31.7419 33.5699 32.5376 33.5699 33.4193C29.3548 33.4193 25.0967 33.4193 20.7957 33.4193Z" fill="#F26925"></path>
      <path d="M25.9355 38.5591C25.9355 37.7204 25.9355 36.9247 25.9355 36.086C28.4947 36.086 30.9893 36.086 33.57 36.086C33.57 36.8817 33.57 37.6989 33.57 38.5591C31.0753 38.5591 28.5377 38.5591 25.9355 38.5591Z" fill="#F26925"></path>
      <path d="M20.7957 38.5592C20.7957 37.742 20.7957 36.9463 20.7957 36.1075C21.6344 36.1075 22.4301 36.1075 23.2903 36.1075C23.2903 36.9032 23.2903 37.6989 23.2903 38.5592C22.4946 38.5592 21.6774 38.5592 20.7957 38.5592Z" fill="#F26925"></path>
    </g>
    <defs>
      <clipPath id="clip0_111_202">
        <rect width="80" height="80" fill="white"></rect>
      </clipPath>
    </defs>
  </symbol>
  <symbol fill="none" xmlns="http://www.w3.org/2000/svg" viewBox="0 0 79 80" id="ui-ux">
    <g clip-path="url(#clip0_111_230)">
      <path fill-rule="evenodd" clip-rule="evenodd" d="M78.6458 72.3334C78.6666 73.8959 78.6666 75.4584 78.6458 77.0209C78.6458 78.0209 78.1666 78.5209 77.1874 78.5417C75.5208 78.5695 73.8541 78.5695 72.1874 78.5417C71.2916 78.5209 70.8332 78.0209 70.7916 77.1042C70.7707 76.7292 70.7916 76.3542 70.7916 76H44.6249C44.6249 76.7084 44.5833 77.375 44.6249 78.0209C44.6666 78.8125 44.4374 79.4375 43.7499 79.8542H34.9999C34.3124 79.4375 34.0833 78.8125 34.1249 78.0209C34.1666 77.3542 34.1249 76.6875 34.1249 75.9792H7.95825C7.95825 76.3959 7.97908 76.75 7.95825 77.1042C7.91658 78.0417 7.45825 78.5209 6.56242 78.5417C4.86797 78.5695 3.18047 78.5695 1.49992 78.5417C0.583252 78.5209 0.124919 78 0.104085 77.1042C0.0763075 75.4375 0.0763075 73.7709 0.104085 72.1042C0.124919 71.2084 0.624919 70.7292 1.52075 70.6875C1.91659 70.6667 2.29159 70.6875 2.68742 70.6875V9.18752C2.29159 9.18752 1.93742 9.18752 1.58325 9.18752C0.624919 9.14585 0.124919 8.66669 0.104085 7.72919C0.0763075 6.06252 0.0763075 4.4028 0.104085 2.75002C0.124919 1.87502 0.583252 1.35419 1.43742 1.33335C3.15964 1.29169 4.87492 1.29169 6.58325 1.33335C7.45825 1.33335 7.89575 1.83335 7.95825 2.70835C7.97908 3.08335 7.95825 3.47919 7.95825 3.87502H34.1249C34.1249 3.10419 34.1249 2.39585 34.1249 1.66669C34.1458 0.458354 34.6041 0.0208537 35.7916 0.0208537C38.1805 0.00696479 40.5694 0.00696479 42.9583 0.0208537C44.1458 0.0208537 44.6041 0.458354 44.6249 1.66669C44.6249 2.39585 44.6249 3.14585 44.6249 3.85419H70.7916C70.7916 3.43752 70.7707 3.08335 70.7916 2.70835C70.8541 1.83335 71.2916 1.33335 72.1666 1.33335C73.8749 1.29169 75.5833 1.29169 77.2916 1.33335C78.1249 1.35419 78.6249 1.83335 78.6458 2.66669C78.6735 4.37502 78.6735 6.0903 78.6458 7.81252C78.6249 8.64585 78.1041 9.12502 77.2499 9.18752C76.8749 9.20835 76.4791 9.18752 76.0833 9.18752V70.6875C76.4166 70.6875 76.7083 70.6875 76.9791 70.6875C78.1666 70.7084 78.6458 71.1667 78.6458 72.3334ZM73.3541 53.8334C69.2499 62.8959 62.5208 69.2709 53.2708 73.2709H70.7083C71.0416 70.9584 71.0416 70.9584 73.3541 70.6042V53.8334ZM53.3749 6.60419C62.6458 10.5834 69.2499 17.0417 73.3541 26.2917V9.25002C71.0833 8.93752 71.0832 8.93752 70.6874 6.60419H53.3749ZM36.8124 7.77085H41.9791V2.66669H36.8124V7.77085ZM5.43742 26.25C9.54159 16.9792 16.1874 10.5417 25.4791 6.56252H8.18742C7.97908 7.37502 7.97908 8.27085 7.52075 8.72919C7.06242 9.16669 6.16659 9.14585 5.43742 9.35419V26.25ZM5.33325 73.3125H2.79159V75.8542H5.33325V73.3125ZM5.33325 3.93752H2.79159V6.45835H5.33325V3.93752ZM25.4374 73.2084C16.1666 69.25 9.54159 62.7917 5.43742 53.5417V70.6042C7.74992 70.7709 7.74992 70.7709 8.04158 73.2084H25.4374ZM41.9791 72.0209H36.8124V77.125H41.9791V72.0209ZM71.7499 29.5834C67.0208 15.1459 53.9374 7.95835 44.6249 7.06252C44.6249 7.68752 44.6458 8.29169 44.6249 8.91669C44.6041 9.97919 44.1458 10.4375 43.0833 10.4375C40.611 10.4375 38.1388 10.4375 35.6666 10.4375C34.6666 10.4375 34.1874 9.97919 34.1458 8.97919C34.1249 8.33335 34.1458 7.68752 34.1458 7.04169C20.0833 8.60419 4.72909 21.7084 5.39575 41.1042C6.04159 59.4375 20.9999 71.3334 34.0624 72.7292C34.4583 71.625 33.4999 69.9792 35.2708 69.3542H38.6666C38.7499 69.3681 38.8402 69.375 38.9374 69.375C39.5485 69.3611 40.1666 69.3542 40.7916 69.3542C41.5138 69.3542 42.243 69.3542 42.9791 69.3542C44.1874 69.3542 44.6041 69.7917 44.6249 71C44.6458 71.6042 44.6249 72.1875 44.6249 72.8542C47.6874 72.3959 50.5624 71.5625 53.2916 70.3334H53.3124C54.0624 70 54.8124 69.632 55.5624 69.2292C55.5763 69.2292 55.5902 69.2222 55.6041 69.2084C55.7846 69.1111 55.9652 69.0139 56.1458 68.9167C56.1458 68.9167 56.1458 68.9097 56.1458 68.8959C56.1041 68.7847 56.0624 68.6736 56.0208 68.5625L58.2708 67.0834C58.3263 67.2084 58.3819 67.3334 58.4374 67.4584C58.4374 67.4722 58.4374 67.4792 58.4374 67.4792C59.9583 66.5 61.3749 65.4167 62.6666 64.2084C62.6805 64.2084 62.6944 64.2014 62.7083 64.1875C71.9583 55.7709 75.9791 42.4584 71.7499 29.5834ZM75.9791 73.2917H73.4583V75.8542H75.9791V73.2917ZM75.9999 3.95835H73.4791V6.47919H75.9999V3.95835Z" fill="#184367"></path>
      <path fill-rule="evenodd" clip-rule="evenodd" d="M58.2501 67.125L56.0001 68.6041C55.0418 66 54.1251 63.4583 53.1668 60.8958C47.8543 62.8541 42.6251 64.7708 37.3543 66.6875C37.6251 67.4583 37.9168 68.1458 38.1251 68.875C38.2293 69.1875 38.3751 69.3333 38.6459 69.3958H35.2501C35.3334 69.368 35.4237 69.3403 35.5209 69.3125C34.5834 66.75 33.6043 64.2708 32.7501 61.7291C31.6876 58.4791 29.4168 56.7916 26.1459 56.25C24.6251 56.0208 24.2918 55.5208 24.6043 54.0208C26.2918 45.6041 28.0001 37.1875 29.6668 28.7708C29.8751 27.7916 30.1043 26.7291 29.9168 25.7916C29.0834 21.375 31.1459 18 35.4793 16.8541C37.6876 16.2708 39.9376 16.3125 42.2084 16.4583C43.7293 16.5625 45.2709 16.7083 46.7918 16.6666C49.9168 16.5625 51.1043 15.6458 51.6668 13.0416C52.4584 12.875 53.2501 12.7083 54.0834 12.5208C54.1251 12.7916 54.1668 12.9583 54.1876 13.125C54.3126 15.7083 52.7709 17.8125 50.0834 18.7083C48.1251 19.3541 46.1043 19.4375 44.0626 19.2708C41.7084 19.0625 39.3543 18.7916 37.0001 19.1875C33.5001 19.7708 31.9168 21.8125 32.5209 25.0833C32.5834 25.4375 32.8543 25.8333 33.1459 26.0625C40.2501 31.75 47.3543 37.3958 54.4793 43.0625C55.7501 44.0625 55.7918 44.5416 54.7709 45.8125C52.8334 48.25 52.2501 50.8958 53.3959 53.8958C55.0209 58.1666 56.5418 62.4583 58.1043 66.75C58.1459 66.875 58.1945 67 58.2501 67.125ZM51.9376 45.25C52.0626 45.0625 52.1668 44.875 52.2918 44.6666C46.3334 39.9375 40.4168 35.2291 34.5209 30.5208C34.4793 30.5625 34.4445 30.6041 34.4168 30.6458C35.8751 34.625 37.3126 38.625 38.8126 42.6041C38.8751 42.8125 39.2293 43.0208 39.4793 43.0208C41.8543 43.1875 43.6043 44.7916 43.9793 47.1458C44.3126 49.25 42.9793 51.4375 40.9168 52.2083C38.8543 52.9791 36.5001 52.1875 35.2918 50.3333C34.0626 48.4166 34.3334 45.9791 36.0001 44.3541C36.3751 44.0208 36.4376 43.75 36.2709 43.2916C34.8751 39.5833 33.5209 35.8541 32.1668 32.125C32.1043 31.9375 32.0001 31.7708 31.8126 31.4166C30.2918 39 28.8126 46.375 27.3334 53.8125C32.0001 54.8125 34.5001 57.8958 35.7293 62.25C35.9168 62.9166 36.2084 63.5416 36.4584 64.2291C41.7709 62.2708 47.0001 60.3541 52.2709 58.4375C51.7918 57.1041 51.3543 55.8541 50.8959 54.625C49.6251 51.3125 50.1043 48.2083 51.9376 45.25ZM39.2709 49.875C40.4168 49.8958 41.3959 48.8958 41.3959 47.75C41.3959 46.5625 40.4168 45.625 39.2501 45.6458C38.0834 45.6666 37.1876 46.5625 37.1668 47.7291C37.1459 48.9166 38.1043 49.875 39.2709 49.875Z" fill="#F26925"></path>
    </g>
    <defs>
      <clipPath id="clip0_111_230">
        <rect width="78.75" height="80" fill="white"></rect>
      </clipPath>
    </defs>
  </symbol>
</svg>