<svg width="0" height="0" class="hidden">
  <symbol fill="none" xmlns="http://www.w3.org/2000/svg" viewBox="0 0 81 80" id="logistics">
    <g clip-path="url(#clip0_110_89)">
      <path fill-rule="evenodd" clip-rule="evenodd" d="M0.00390625 68.9054C0.556062 67.9179 1.27651 67.1502 2.55189 67.0473C2.55189 66.6912 2.55189 66.3839 2.55189 66.0765C2.55189 58.0278 2.5505 49.9805 2.55606 41.9332C2.55606 41.5202 2.57832 41.0974 2.66316 40.694C2.89959 39.5688 3.80641 38.7872 4.97748 38.7274C5.8829 38.6829 6.79111 38.7191 7.77025 38.7191C8.04424 32.975 9.6562 27.7204 12.6534 22.8929C11.4782 21.4465 10.7118 19.8637 10.4031 18.0403C9.59501 13.2726 13.36 8.30737 18.1611 7.8025C21.1555 7.48818 23.7077 8.35744 25.8301 10.4743C26.1263 10.7705 26.3488 10.7775 26.7035 10.6161C31.0081 8.6662 35.5296 7.74409 40.2501 7.71905C40.5352 7.71766 40.9232 7.47983 41.0887 7.23505C44.5199 2.14186 49.3015 -0.304589 55.4212 0.0278168C62.5324 0.414465 68.7007 6.34214 69.5575 13.4228C69.9622 16.7789 69.4448 19.943 67.9135 22.9569C67.7939 23.1905 67.8231 23.6106 67.9566 23.847C70.684 28.6426 72.1333 33.79 72.2779 39.3046C72.2876 39.6426 72.2904 39.9819 72.2793 40.3199C72.2709 40.6314 72.2403 40.943 72.2153 41.3213C72.6437 41.427 73.0665 41.5146 73.4796 41.6342C79.2709 43.3199 81.8314 50.0737 78.6103 55.1641C78.3613 55.5591 78.0818 55.9374 77.8008 56.3115C75.5519 59.3088 73.3002 62.3032 70.983 65.388C69.3586 63.2309 67.7744 61.1252 66.1611 58.9819C65.3252 59.9652 64.5658 60.9165 63.7438 61.8108C63.022 62.5953 62.2487 63.3352 61.4643 64.057C61.1319 64.363 61.022 64.6426 61.1666 65.0765C61.9121 67.3032 62.0637 69.5981 61.9775 71.9291C61.9052 73.8512 60.933 74.8373 58.9983 74.8401C58.1388 74.8414 57.2779 74.815 56.4212 74.8567C56.1861 74.8679 55.8537 75.0181 55.7466 75.2058C54.2793 77.7858 52.1082 79.3588 49.1889 79.904C49.1458 79.9124 49.111 79.9666 49.0721 80C48.1866 80 47.3011 80 46.4156 80C46.353 79.9569 46.296 79.8859 46.2278 79.8734C43.3683 79.3421 41.257 77.7802 39.7925 75.2796C39.6562 75.0459 39.2278 74.8609 38.9344 74.8595C34.4907 74.8331 30.0456 74.8484 25.602 74.8303C25.1277 74.8275 24.876 74.9638 24.6367 75.3894C23.4698 77.4715 21.7216 78.8707 19.449 79.6064C19.0123 79.7469 18.57 79.8693 18.1305 80C17.245 80 16.3595 80 15.474 80C15.385 79.9527 15.3002 79.8804 15.2056 79.8623C12.3766 79.3254 10.2904 77.7677 8.83423 75.3004C8.70071 75.0751 8.33075 74.8679 8.06371 74.8609C6.50599 74.8192 4.94132 74.7705 3.38777 74.8595C1.81058 74.9513 0.661764 74.4409 0.00390625 72.968C0.00390625 71.6143 0.00390625 70.2601 0.00390625 68.9054ZM41.3015 46.4186C41.7063 46.4186 41.99 46.4186 42.2751 46.4186C45.9205 46.4186 49.5658 46.4131 53.2111 46.4214C55.36 46.4256 56.8008 47.5577 57.3238 49.6439C57.9163 52.0111 58.4921 54.3825 59.0832 56.7497C59.4782 58.3296 59.8857 59.9068 60.3488 61.7274C61.5255 60.356 62.5978 59.1641 63.6034 57.9179C64.5018 56.8053 64.4684 56.7789 63.6465 55.6036C59.9483 50.3185 62.5686 43.1391 68.7939 41.5841C69.4963 41.4089 69.6896 41.1113 69.6896 40.4409C69.6938 36.6579 69.1027 32.9833 67.7243 29.4548C67.2431 28.2211 66.6604 27.0264 66.0762 25.7065C62.0526 30.8261 58.1499 35.7914 54.2237 40.7858C54.0971 40.6523 54.0234 40.5855 53.9622 40.5076C49.9733 35.4325 45.9664 30.3727 42.0053 25.2754C39.2264 21.6996 38.2529 17.6259 38.9093 13.1613C39.047 12.2309 39.2946 11.3171 39.5018 10.3533C35.321 10.4339 31.3878 11.3004 27.62 13.064C28.9219 16.2629 28.6632 19.274 26.6993 22.0167C24.3961 25.2309 21.9719 28.3588 19.6034 31.5271C19.5422 31.6106 19.5199 31.7232 19.4323 31.9332C17.659 29.5744 16.0178 27.3922 14.3516 25.1752C11.6979 29.4423 10.264 35.7663 10.5129 38.701C10.8356 38.701 11.1666 38.701 11.499 38.701C20.4045 38.701 29.3099 38.6996 38.2153 38.701C40.3711 38.7024 41.296 39.6328 41.3015 41.7928C41.3043 43.2976 41.3015 44.8039 41.3015 46.4186ZM15.449 51.153C15.449 47.7886 15.449 44.5744 15.449 41.3616C11.9817 41.3616 8.59222 41.3616 5.21809 41.3616C5.21809 49.9583 5.21809 58.4854 5.21809 67.0598C6.13047 67.0598 6.99 67.0222 7.84396 67.0723C8.41281 67.1057 8.70766 66.9068 8.99973 66.4117C12.5338 60.4131 21.086 60.4395 24.5867 66.4631C24.8704 66.9499 25.1764 67.0709 25.6882 67.0681C29.7494 67.0515 33.812 67.0598 37.8732 67.0584C38.1263 67.057 38.3794 67.0362 38.6632 67.0222C38.6826 66.79 38.7118 66.6133 38.7118 66.4367C38.7146 58.2865 38.7091 50.1377 38.7244 41.9875C38.7257 41.4395 38.5561 41.2768 38.0136 41.2809C35.0192 41.3032 32.0248 41.2907 29.0303 41.2935C28.8537 41.2935 28.6785 41.3282 28.4212 41.3547C28.4212 44.5925 28.4212 47.8025 28.4212 51.1363C26.4281 50.1433 24.538 49.2364 22.6868 48.2559C22.1277 47.9597 21.7063 48 21.1792 48.2726C19.3377 49.2253 17.4754 50.1391 15.449 51.153ZM54.1736 36.5688C54.385 36.3296 54.5463 36.1627 54.6882 35.9819C57.8231 31.9917 60.9399 27.9861 64.0943 24.0083C66.5797 20.8748 67.4851 17.3463 66.9121 13.4075C65.8704 6.23644 58.5547 1.242 51.4837 2.88039C42.2501 5.01947 38.207 15.6704 43.8328 23.3171C47.1319 27.8011 50.6757 32.1043 54.1736 36.5688ZM57.0526 59.3644C56.7104 59.3644 56.4267 59.3644 56.143 59.3644C53.8259 59.3644 51.5102 59.3713 49.1945 59.363C47.5519 59.356 46.4615 58.2698 46.4365 56.6287C46.4239 55.847 46.4212 55.0668 46.4365 54.2865C46.4684 52.6982 47.563 51.6134 49.1639 51.5855C50.0484 51.5688 50.933 51.5814 51.8175 51.5814C52.8787 51.5814 53.9385 51.5814 55.0011 51.5814C54.8954 49.459 54.4712 49.0473 52.4768 49.0473C49.0415 49.0473 45.6061 49.0473 42.1708 49.0487C41.8968 49.0501 41.6242 49.0751 41.36 49.0876C41.36 54.2587 41.36 59.3394 41.36 64.4604C41.4921 64.3978 41.5728 64.3797 41.6256 64.331C46.1263 60.1933 53.0053 61.6426 55.6965 66.6648C55.7814 66.8248 55.9761 67.0306 56.1249 67.0362C57.047 67.0709 57.9705 67.0542 58.9775 67.0542C58.3182 64.4186 57.6896 61.9096 57.0526 59.3644ZM70.9872 61.0765C72.8857 58.509 74.7494 56.0765 76.5074 53.5716C77.4086 52.2879 77.5686 50.7552 77.3196 49.2267C76.9093 46.7024 74.9218 44.6147 72.4976 44.0626C69.8704 43.4645 67.2167 44.4715 65.7063 46.637C64.2125 48.7775 64.0721 51.5994 65.5588 53.7469C67.257 56.2003 69.1054 58.5494 70.9872 61.0765ZM19.3641 27.5341C21.2835 24.9305 23.2181 22.5382 24.8913 19.9764C26.6145 17.338 25.8913 13.8359 23.4587 11.8081C21.0818 9.82476 17.5366 9.8484 15.2056 11.8623C12.7869 13.9527 12.1249 17.4242 13.8704 20.0501C15.5505 22.58 17.4587 24.9583 19.3641 27.5341ZM47.7049 77.3797C51.2751 77.3992 54.1722 74.548 54.2 70.9916C54.2264 67.5063 51.3252 64.5577 47.837 64.5257C44.2501 64.4923 41.2988 67.4089 41.3113 70.975C41.3238 74.5076 44.1708 77.3602 47.7049 77.3797ZM23.2 70.9569C23.1945 67.3908 20.3127 64.516 16.7522 64.5257C13.2264 64.5355 10.2946 67.4937 10.328 71.0083C10.3613 74.5285 13.239 77.3769 16.7647 77.3797C20.3544 77.3825 23.207 74.5368 23.2 70.9569ZM25.773 41.3435C23.1819 41.3435 20.6757 41.3435 18.1569 41.3435C18.1569 43.1947 18.1569 44.9917 18.1569 46.8734C19.2723 46.3213 20.328 45.8345 21.3447 45.2782C21.7897 45.0348 22.1277 45.057 22.5575 45.2851C23.5992 45.8387 24.6659 46.3435 25.773 46.8929C25.773 44.9861 25.773 43.1975 25.773 41.3435ZM38.7383 69.7288C34.3794 69.7288 30.1027 69.7288 25.8175 69.7288C25.8175 70.5661 25.8175 71.3574 25.8175 72.1586C30.1499 72.1586 34.4406 72.1586 38.7383 72.1586C38.7383 71.3199 38.7383 70.548 38.7383 69.7288ZM55.7703 54.2629C53.506 54.2629 51.3057 54.2629 49.118 54.2629C49.118 55.1099 49.118 55.9026 49.118 56.6898C51.5561 56.6898 53.9358 56.6898 56.3808 56.6898C56.1652 55.8317 55.965 55.0362 55.7703 54.2629ZM2.66176 72.1669C4.40168 72.1669 6.09709 72.1669 7.76747 72.1669C7.76747 71.3157 7.76747 70.5257 7.76747 69.7246C6.05119 69.7246 4.37386 69.7246 2.66176 69.7246C2.66176 70.5563 2.66176 71.3463 2.66176 72.1669ZM56.7828 69.7177C56.7828 70.6022 56.7828 71.395 56.7828 72.1711C57.659 72.1711 58.4782 72.1711 59.3182 72.1711C59.3182 71.3241 59.3182 70.5341 59.3182 69.7177C58.4462 69.7177 57.6256 69.7177 56.7828 69.7177Z" fill="#144367"></path>
      <path d="M30.9961 36.0612C30.9961 35.2239 30.9961 34.4312 30.9961 33.5869C31.8514 33.5869 32.6679 33.5869 33.5343 33.5869C33.5343 34.4117 33.5343 35.2045 33.5343 36.0612C32.711 36.0612 31.8946 36.0612 30.9961 36.0612Z" fill="#F27535"></path>
      <path d="M36.1641 33.5883C37.025 33.5883 37.8414 33.5883 38.6981 33.5883C38.6981 34.4312 38.6981 35.2239 38.6981 36.0709C37.8525 36.0709 37.0347 36.0709 36.1641 36.0709C36.1641 35.267 36.1641 34.4743 36.1641 33.5883Z" fill="#F27535"></path>
      <path d="M41.3125 36.0584C41.3125 35.2309 41.3125 34.4395 41.3125 33.5911C42.1665 33.5911 42.9829 33.5911 43.8507 33.5911C43.8507 34.4033 43.8507 35.1975 43.8507 36.0584C43.0204 36.0584 42.1859 36.0584 41.3125 36.0584Z" fill="#F27535"></path>
      <path fill-rule="evenodd" clip-rule="evenodd" d="M43.8829 15.509C43.8648 9.82893 48.4475 5.17107 54.0734 5.15299C59.8648 5.13491 64.5213 9.6968 64.5352 15.402C64.5477 21.1655 59.9608 25.7858 54.2194 25.7914C48.4962 25.7983 43.9023 21.2281 43.8829 15.509ZM54.2083 23.1878C58.5101 23.1794 61.9246 19.7413 61.9093 15.4325C61.894 11.1669 58.4754 7.77052 54.2 7.7733C49.9121 7.77608 46.4295 11.2698 46.4781 15.5188C46.5282 19.7928 49.958 23.1947 54.2083 23.1878Z" fill="#F27535"></path>
      <path fill-rule="evenodd" clip-rule="evenodd" d="M74.8487 50.3519C74.8389 52.4826 73.0962 54.21 70.9627 54.2044C68.8528 54.1975 67.0823 52.4298 67.0781 50.3241C67.0726 48.1975 68.9015 46.3936 71.0295 46.4242C73.1574 46.4548 74.8584 48.2031 74.8487 50.3519ZM71.0044 51.5758C71.729 51.5619 72.2492 51.0028 72.2242 50.2656C72.2005 49.5744 71.6665 49.0542 70.9794 49.0528C70.2784 49.0501 69.6887 49.6384 69.6971 50.331C69.7054 51.0334 70.2895 51.5883 71.0044 51.5758Z" fill="#F27535"></path>
      <path fill-rule="evenodd" clip-rule="evenodd" d="M19.3665 20.6286C17.2149 20.6314 15.4902 18.9291 15.4805 16.7928C15.4708 14.6314 17.2469 12.854 19.3915 12.8804C21.5097 12.9054 23.2663 14.6773 23.258 16.7789C23.2482 18.904 21.5069 20.6273 19.3665 20.6286ZM20.6321 16.7552C20.6252 16.0668 19.9909 15.4562 19.3122 15.4868C18.6307 15.516 18.1064 16.0751 18.1078 16.7719C18.1092 17.5063 18.6669 18.0375 19.4082 18.0139C20.0966 17.9917 20.6391 17.4339 20.6321 16.7552Z" fill="#F27535"></path>
      <path fill-rule="evenodd" clip-rule="evenodd" d="M47.6853 74.8373C45.5573 74.8192 43.8647 73.0723 43.8869 70.9193C43.9106 68.7803 45.6644 67.0431 47.7771 67.0668C49.9036 67.0904 51.6255 68.8387 51.6213 70.9708C51.6185 73.146 49.8758 74.8567 47.6853 74.8373ZM47.8661 69.6898C47.2124 69.6217 46.5865 70.1377 46.5045 70.8122C46.421 71.5063 46.8869 72.1196 47.5601 72.2044C48.3014 72.2976 48.9134 71.8401 49.0093 71.1168C49.1011 70.4437 48.5531 69.7622 47.8661 69.6898Z" fill="#F27535"></path>
      <path fill-rule="evenodd" clip-rule="evenodd" d="M20.6391 70.9791C20.6335 73.1321 18.9298 74.8373 16.7837 74.8387C14.6474 74.8387 12.9145 73.1252 12.8908 70.9903C12.8686 68.8581 14.685 67.0389 16.8102 67.0654C18.9423 67.0932 20.6447 68.8331 20.6391 70.9791ZM18.0243 70.9291C18.0063 70.2406 17.4513 69.6871 16.7782 69.6871C16.0981 69.6857 15.4736 70.3241 15.4958 70.9986C15.5181 71.7093 16.1147 72.2462 16.8477 72.2128C17.5459 72.1822 18.0424 71.6412 18.0243 70.9291Z" fill="#F27535"></path>
    </g>
    <defs>
      <clipPath id="clip0_110_89">
        <rect width="80.0278" height="80" fill="white"></rect>
      </clipPath>
    </defs>
  </symbol>
  <symbol fill="none" xmlns="http://www.w3.org/2000/svg" viewBox="0 0 81 80" id="media">
    <g clip-path="url(#clip0_110_58)">
      <path fill-rule="evenodd" clip-rule="evenodd" d="M0.00634766 53.4148C0.144225 52.8069 0.268523 52.1948 0.422068 51.5901C2.14135 44.8163 8.08991 40.2873 15.0799 40.4262C15.2094 40.4283 15.3389 40.4262 15.5384 40.4262C15.5384 39.6031 15.5384 38.8093 15.5384 38.1178C13.9716 37.795 12.3933 37.6216 10.9153 37.1412C1.79562 34.1737 -2.03361 23.2783 3.17647 15.2762C3.50445 14.7717 3.92644 14.3424 4.51242 14.5795C4.90829 14.7393 5.34177 15.179 5.44518 15.5749C5.53501 15.9186 5.23627 16.4063 5.02215 16.7803C2.66779 20.8936 2.52574 25.0738 4.79026 29.2352C7.26683 33.7862 12.5584 36.292 17.5042 35.3926C22.8333 34.4244 26.8537 30.4656 27.6413 25.2096C28.4007 20.1468 26.6584 15.9875 22.4531 13.0994C18.274 10.228 13.8191 10.1862 9.34752 12.574C9.18561 12.6596 9.03625 12.7693 8.8733 12.8539C8.17765 13.2143 7.4914 13.0524 7.16028 12.4549C6.83439 11.8669 7.00674 11.2506 7.65748 10.8338C9.29111 9.78929 11.0626 9.08424 12.9783 8.77611C13.8264 8.64032 14.6861 8.58287 15.529 8.49095C15.6136 7.5864 15.6157 6.71317 15.788 5.87547C16.4555 2.63536 19.189 0.28727 22.4793 0.0606089C22.8198 0.0365848 23.1624 0.0167389 23.5029 0.0167389C35.0459 0.0146498 46.5889 0.0250951 58.1319 0.00733819C60.8383 0.0031601 63.0527 0.935919 64.6696 3.14613C65.6348 4.46432 66.0296 5.96843 66.0724 7.58013C66.0797 7.86633 66.0735 8.15253 66.0735 8.50871C71.1707 8.68314 75.2454 10.7398 78.1795 14.874C80.2194 17.7486 81.054 20.9939 80.7584 24.4889C80.1923 31.1634 74.8725 37.6279 66.1351 37.9747C66.1351 38.7435 66.1351 39.5164 66.1351 40.3729C71.2313 40.5536 75.3384 42.651 78.2683 46.8678C80.2633 49.7392 81.0676 52.9678 80.7521 56.4304C80.1432 63.1226 74.8004 69.4984 66.0735 69.84C66.0735 70.663 66.086 71.4945 66.0714 72.3259C66.0087 76.1332 63.7076 79.0412 60.1103 79.8266C59.5504 79.9488 58.9623 79.9833 58.3868 79.9833C46.6861 79.9927 34.9853 80.0063 23.2846 79.9812C19.3582 79.9729 16.4231 77.5558 15.7139 73.8415C15.6063 73.2785 15.6251 72.6905 15.6126 72.1139C15.5958 71.3806 15.6084 70.6484 15.6084 69.8598C14.7331 69.795 13.9069 69.7449 13.0817 69.6728C6.68294 69.1077 1.07489 63.7765 0.171382 57.4091C0.139002 57.1793 0.0627519 56.9558 0.00634766 56.7291C0.00634766 55.6247 0.00634766 54.5199 0.00634766 53.4148ZM53.5705 7.05578C53.0671 9.36417 52.0079 10.4254 50.087 10.4327C43.9087 10.4578 37.7293 10.4515 31.5509 10.4348C30.1429 10.4306 28.8341 9.82167 28.5312 8.47111C28.1876 6.93566 27.3112 6.96804 26.1946 7.04951C25.8813 7.07354 25.5637 7.05369 25.2483 7.05369C22.6631 7.05369 22.6526 7.07562 22.6453 9.63575C22.6443 10.158 22.7801 10.4797 23.2522 10.7753C32.5286 16.5881 32.5056 29.8849 23.2115 35.7175C22.802 35.9744 22.6401 36.2408 22.6464 36.7181C22.6704 38.5064 22.6735 40.2946 22.6443 42.0818C22.6359 42.5894 22.8156 42.8787 23.224 43.1722C30.6516 48.5359 31.4538 59.1597 24.9725 65.5887C24.2111 66.3439 22.9096 66.6604 22.6986 67.824C22.5054 68.8936 22.6547 70.0248 22.6558 71.1299C22.6579 72.6706 22.9441 72.9516 24.5109 72.9516C34.555 72.9516 44.5981 72.9516 54.6422 72.9516C55.6146 72.9516 56.5881 72.9641 57.5606 72.9474C58.5717 72.9296 58.9999 72.4993 59.0156 71.4997C59.0292 70.6066 58.9843 69.7104 59.0302 68.8184C59.0626 68.2053 58.884 67.8439 58.3294 67.4992C53.0326 64.2162 50.4108 57.8802 51.7969 51.823C52.0298 50.8046 52.5636 50.3627 53.3345 50.5508C54.0583 50.7273 54.309 51.2882 54.1429 52.2324C54.0061 53.0064 53.8442 53.7877 53.8233 54.569C53.6207 62.1679 59.7134 67.9316 67.2872 67.3331C74.4275 66.768 79.7358 59.706 78.2004 52.7265C77.1109 47.7734 74.0891 44.4466 69.182 43.2025C64.1912 41.9366 59.9003 43.3999 56.5349 47.367C55.9228 48.0888 55.2888 48.2371 54.707 47.7786C54.1147 47.3127 54.0489 46.5179 54.7352 45.8567C55.9395 44.6962 57.2169 43.6078 58.5142 42.5518C58.8579 42.2719 59.0355 42.0494 59.0282 41.6044C59.0041 40.0794 58.9874 38.5534 59.0334 37.0294C59.0532 36.3599 58.8694 35.9723 58.2646 35.5911C49.4551 30.0457 49.1156 17.195 57.6682 11.2986C58.7973 10.5205 59.1963 9.7402 59.0198 8.50244C59.0114 8.45126 59.0198 8.39695 59.0167 8.34472C58.9592 7.52895 58.5477 7.08294 57.7173 7.06413C56.3531 7.03384 54.9869 7.05578 53.5705 7.05578ZM66.0943 10.9341C59.2757 10.9466 53.7993 16.4471 53.8076 23.2751C53.816 30.0102 59.3634 35.5483 66.1121 35.5566C72.9182 35.565 78.4542 29.9883 78.4375 23.1393C78.4218 16.3969 72.8858 10.9216 66.0943 10.9341ZM2.36488 55.0976C2.36592 61.8619 7.85907 67.3738 14.6401 67.4156C21.5131 67.4584 26.9874 62.0238 26.9958 55.1508C27.0041 48.3134 21.5308 42.8129 14.7049 42.7983C7.87683 42.7837 2.36488 48.2779 2.36488 55.0976ZM20.2085 9.27121C20.2294 8.9777 20.2513 8.77297 20.2555 8.56825C20.3171 6.08542 21.7408 4.68784 24.2267 4.67949C25.4091 4.67635 26.5926 4.67113 27.776 4.68158C29.3877 4.69411 30.2871 5.42841 30.5231 7.01295C30.6338 7.76396 31.0057 8.0627 31.7233 8.0627C37.7972 8.05852 43.8711 8.05956 49.9439 8.06061C50.6657 8.06061 51.0532 7.73158 51.1378 6.99206C51.2997 5.57256 52.2377 4.71082 53.653 4.68576C55.0454 4.66069 56.4409 4.65338 57.8332 4.68889C59.6225 4.7338 61.0023 5.91098 61.3167 7.64698C61.4097 8.1567 61.3856 8.68732 61.4191 9.26808C62.1847 9.07797 62.9127 8.89727 63.6199 8.72179C64.1703 4.66904 61.3136 2.33245 58.0223 2.36483C46.5336 2.47763 35.0428 2.40661 23.553 2.41287C23.0036 2.41287 22.4375 2.40243 21.9089 2.52464C19.119 3.17224 17.5616 5.70417 18.0557 8.7291C18.7378 8.90145 19.4219 9.0738 20.2085 9.27121ZM17.9753 69.4409C17.9753 70.4249 17.9701 71.4203 17.9763 72.4147C17.9951 75.4375 20.1082 77.5684 23.1279 77.5934C25.0728 77.6102 27.0188 77.5966 28.9647 77.5966C38.7707 77.5966 48.5777 77.6008 58.3847 77.5945C60.9626 77.5934 62.9378 76.2324 63.4559 73.8572C63.7358 72.5714 63.622 71.1978 63.6575 69.8619C63.6606 69.747 63.4663 69.5569 63.3316 69.5182C62.708 69.3428 62.0729 69.208 61.3762 69.043C61.3762 69.8274 61.3773 70.5617 61.3762 71.295C61.3741 73.9115 59.9557 75.3247 57.3235 75.3258C46.333 75.3272 35.3429 75.3272 24.3531 75.3258C21.676 75.3258 20.2638 73.9167 20.2576 71.2469C20.2555 70.4238 20.2565 69.6008 20.2565 68.7192C19.4313 68.9803 18.7367 69.2007 17.9753 69.4409ZM18.0191 40.7521C18.7294 40.9767 19.4439 41.2023 20.2158 41.4467C20.2158 39.9927 20.2158 38.6108 20.2158 37.185C19.4648 37.371 18.7608 37.5454 18.0191 37.7292C18.0191 38.7351 18.0191 39.7243 18.0191 40.7521ZM63.6773 40.5724C63.6773 39.7295 63.693 38.92 63.6627 38.1126C63.6575 37.9528 63.5008 37.7021 63.364 37.6613C62.7289 37.4754 62.0761 37.348 61.4159 37.1955C61.4159 38.5293 61.4159 39.8016 61.4159 41.1312C62.168 40.9453 62.8709 40.7709 63.6773 40.5724Z" fill="#144367"></path>
      <path fill-rule="evenodd" clip-rule="evenodd" d="M23.7242 23.1977C23.7242 24.6695 23.7347 26.1423 23.7211 27.615C23.7002 30.0007 22.2587 31.4484 19.8877 31.4568C16.9693 31.4662 14.0509 31.4672 11.1325 31.4568C8.78336 31.4474 7.30013 29.9537 7.29386 27.5994C7.28551 24.681 7.28551 21.7626 7.29386 18.8442C7.30013 16.5065 8.73531 15.0463 11.0709 15.0306C14.0415 15.0118 17.0131 15.0097 19.9838 15.0317C22.2995 15.0484 23.6918 16.4574 23.72 18.7805C23.7388 20.2522 23.7242 21.725 23.7242 23.1977ZM15.5707 17.409C14.0739 17.409 12.576 17.4027 11.0792 17.4111C10.088 17.4163 9.67851 17.7934 9.67329 18.7857C9.65658 21.7535 9.65658 24.7214 9.67329 27.6892C9.67851 28.6209 10.1078 29.069 11.0186 29.0753C14.0122 29.0951 17.0058 29.0951 20.0005 29.0763C20.9416 29.0711 21.3354 28.6481 21.3385 27.7111C21.3479 24.7165 21.3479 21.7229 21.3385 18.7282C21.3354 17.7871 20.9447 17.4174 19.9827 17.4111C18.512 17.4017 17.0414 17.409 15.5707 17.409Z" fill="#F27535"></path>
      <path fill-rule="evenodd" clip-rule="evenodd" d="M40.8388 50.6009C38.5847 50.6239 36.5594 49.9376 34.6949 48.6915C34.461 48.5348 34.0651 48.4889 33.7862 48.5599C33.1281 48.727 32.5014 49.0091 31.8528 49.218C31.1509 49.4436 30.4876 49.3527 29.9559 48.8127C29.4378 48.2873 29.2551 47.6554 29.5151 46.9325C29.5768 46.7592 29.6175 46.5785 29.6896 46.4103C30.4166 44.7088 30.639 43.0407 30.3403 41.1198C29.5162 35.8157 33.4081 30.6422 38.7153 29.5966C45.6572 28.2293 51.9024 33.7402 51.425 40.8116C51.0595 46.216 46.2609 50.6542 40.8388 50.6009ZM32.1714 46.5429C32.4482 46.4698 32.6289 46.45 32.7835 46.3769C34.0264 45.7825 35.1242 45.9528 36.2199 46.8156C37.3115 47.6742 38.6286 48.1035 40.0105 48.2037C45.5956 48.608 49.7831 44.0371 48.9307 38.4991C48.2685 34.1988 43.7217 31.0213 39.4538 31.8778C34.4275 32.8868 31.6063 37.4786 32.9151 42.4087C33.0905 43.0678 32.9558 43.8408 32.8315 44.5375C32.7145 45.1892 32.421 45.8097 32.1714 46.5429Z" fill="#144367"></path>
      <path fill-rule="evenodd" clip-rule="evenodd" d="M61.6091 55.2291C61.6102 53.7574 61.5945 52.2846 61.6133 50.8129C61.6353 49.1176 62.8761 48.3937 64.3291 49.2262C66.9017 50.7021 69.4692 52.1864 72.0314 53.679C73.4885 54.5282 73.4812 55.9738 72.0178 56.8251C69.4765 58.301 66.9299 59.7696 64.3803 61.232C62.873 62.0968 61.6426 61.3866 61.6091 59.6443C61.6091 59.6182 61.6091 59.5921 61.6091 59.566C61.6091 58.1203 61.6091 56.6747 61.6091 55.2291ZM70.0134 55.2427C67.9671 54.0634 66.0515 52.9594 64.0575 51.8093C64.0575 54.1397 64.0575 56.3478 64.0575 58.6792C66.0619 57.5229 67.9776 56.4178 70.0134 55.2427Z" fill="#F27535"></path>
      <path d="M66.2719 21.6957C66.9696 21.6957 67.5451 21.679 68.1196 21.6999C68.8372 21.7271 69.2738 22.1511 69.2989 22.805C69.325 23.4808 68.8717 23.9979 68.151 24.0417C67.5545 24.0772 66.955 24.049 66.2719 24.049C66.2719 25.8226 66.2719 27.521 66.2719 29.2194C66.2719 29.9287 66.2834 30.6379 66.2677 31.3471C66.2489 32.1347 65.7747 32.6423 65.0874 32.6423C64.3928 32.6434 63.9227 32.1451 63.9196 31.3492C63.9102 28.9604 63.9165 26.5716 63.9165 24.0532C63.3242 24.0532 62.7602 24.0657 62.1972 24.0501C61.3626 24.0271 60.8435 23.5404 60.8654 22.8238C60.8853 22.1208 61.3595 21.7145 62.192 21.6936C62.7163 21.6811 63.2407 21.6759 63.7661 21.6654C63.7859 21.6644 63.8057 21.6362 63.9165 21.5495C63.9165 20.553 63.9123 19.4845 63.9175 18.417C63.9269 16.2433 65.4028 14.7705 67.5786 14.759C68.4184 14.7549 69.2592 14.7486 70.1 14.7622C70.8918 14.7747 71.3932 15.2437 71.389 15.9362C71.3848 16.6173 70.8719 17.0936 70.0854 17.1103C69.2717 17.127 68.457 17.105 67.6433 17.1165C66.721 17.1301 66.2875 17.5511 66.275 18.4598C66.2614 19.5054 66.2719 20.5499 66.2719 21.6957Z" fill="#F27535"></path>
      <path fill-rule="evenodd" clip-rule="evenodd" d="M8.53478 58.0786C6.01435 55.86 5.55894 53.1505 6.32666 50.1308C6.68493 48.7249 8.07206 48.3677 9.11658 49.3777C10.4389 50.6572 11.354 51.1503 12.5813 51.2286C12.9333 49.6409 13.8222 48.4627 15.3973 47.931C16.6559 47.507 17.9156 47.6208 19.003 48.4094C19.5535 48.8095 20.0329 48.8481 20.599 48.5912C21.3667 48.2423 22.0885 48.305 22.7278 48.8628C23.4025 49.4508 23.5007 50.2071 23.2458 51.0197C23.0672 51.5931 22.9419 52.2178 22.6181 52.7035C21.8963 53.7835 21.4952 54.9784 21.0492 56.1796C19.5294 60.2658 15.5874 62.7016 10.9466 62.4395C9.99294 62.3862 8.9996 62.2222 8.12533 61.8639C7.56651 61.6362 7.01918 61.0335 6.76954 60.4664C6.23892 59.2599 6.74761 58.6301 8.53478 58.0786ZM10.4452 59.9556C14.545 60.7306 18.3836 58.0817 19.2767 54.0008C19.3947 53.4649 19.7258 52.9698 19.989 52.4716C20.223 52.0298 20.4998 51.6099 20.8476 51.0291C19.5347 51.2934 18.582 51.1315 17.643 50.3773C16.587 49.5302 15.0683 50.3909 14.9617 51.777C14.8176 53.6623 14.6348 53.8263 12.7661 53.7198C12.5572 53.7083 12.3368 53.7052 12.1447 53.6352C10.8839 53.1777 9.6284 52.7035 8.37184 52.2345C8.22665 53.7992 8.77189 55.1988 10.111 56.2569C10.4995 56.563 10.9424 56.8043 11.379 57.0435C12.5416 57.6785 12.5708 58.6834 11.4323 59.3905C11.143 59.5702 10.8411 59.73 10.4452 59.9556Z" fill="#F27535"></path>
      <path d="M40.8095 4.03914C41.4341 4.03183 41.9585 4.53738 41.9804 5.1714C42.0044 5.85452 41.5031 6.38409 40.8283 6.38723C40.1953 6.38932 39.6647 5.89212 39.6355 5.26854C39.6052 4.62512 40.1577 4.0475 40.8095 4.03914Z" fill="#144367"></path>
      <path fill-rule="evenodd" clip-rule="evenodd" d="M15.5017 26.7418C13.5631 26.7355 12.0036 25.1677 12.0046 23.226C12.0057 21.2967 13.5808 19.7028 15.5017 19.6871C17.4226 19.6725 19.0949 21.3531 19.0625 23.2667C19.0301 25.1907 17.4341 26.7481 15.5017 26.7418ZM15.5195 24.3833C16.142 24.3843 16.6663 23.8568 16.6684 23.2301C16.6695 22.6034 16.143 22.0812 15.5153 22.0843C14.8844 22.0864 14.3611 22.6086 14.3642 23.2322C14.3663 23.8454 14.9074 24.3833 15.5195 24.3833Z" fill="#F27535"></path>
      <path d="M36.7693 38.7842C37.0398 38.0311 37.2571 37.2529 37.5965 36.5312C37.8932 35.9024 38.5565 35.7227 39.132 35.987C39.7222 36.2586 39.9499 36.9135 39.6825 37.5935C39.578 37.8609 39.4297 38.1147 39.3513 38.3894C39.1665 39.0349 39.2981 39.5791 39.9227 39.9405C40.3541 40.1891 40.7729 40.4596 41.2012 40.7135C42.0138 41.1939 42.5089 41.1271 43.1461 40.445C43.2882 40.2915 43.401 40.1118 43.5368 39.952C44.0298 39.3744 44.6544 39.271 45.1986 39.6742C45.7303 40.0669 45.8201 40.7135 45.4326 41.3527C44.1791 43.4177 42.0191 43.9619 39.9613 42.7294C39.4662 42.4327 38.968 42.1434 38.4865 41.8259C37.4169 41.1208 36.8999 40.1181 36.7693 38.7842Z" fill="#F27535"></path>
    </g>
    <defs>
      <clipPath id="clip0_110_58">
        <rect width="80.8252" height="80" fill="white"></rect>
      </clipPath>
    </defs>
  </symbol>
  <symbol fill="none" xmlns="http://www.w3.org/2000/svg" viewBox="0 0 80 80" id="realestate">
    <g clip-path="url(#clip0_110_68)">
      <path fill-rule="evenodd" clip-rule="evenodd" d="M0.00976562 42.8272C0.555135 41.9596 1.37256 41.7603 2.34169 41.7678C5.98626 41.7941 9.63083 41.7653 13.2754 41.7828C16.0411 41.7966 17.9957 43.2422 18.6413 45.7609C18.7943 46.3526 18.7893 46.9845 18.8607 47.6352C19.5791 47.6352 20.2749 47.6352 21.0347 47.6352C21.0347 43.2685 21.0347 38.8867 21.0347 34.3896C20.3715 34.3896 19.6807 34.3896 18.9899 34.3896C17.8189 34.3896 16.6467 34.3671 15.4757 34.3971C14.6796 34.4185 14.0076 34.2291 13.6829 33.4468C13.3494 32.6407 13.6891 32.0113 14.2759 31.4283C18.3931 27.3349 22.4953 23.2277 26.6025 19.1256C26.9159 18.8134 27.2281 18.5 27.5415 18.1878C28.552 17.1798 29.4446 17.0306 30.1793 17.7452C30.919 18.4648 30.7661 19.4189 29.7418 20.442C26.9786 23.2014 24.2191 25.9634 21.4497 28.7165C20.6435 29.5177 19.8111 30.2912 18.9911 31.0785C19.0237 31.1412 19.0567 31.2043 19.0902 31.2679C20.794 31.2679 22.4978 31.2892 24.1991 31.244C24.4486 31.2365 24.7181 30.9369 24.93 30.725C31.5484 24.1279 38.1605 17.5233 44.7739 10.9212C46.0602 9.63739 46.7084 9.63238 47.9772 10.8999C54.5893 17.5032 61.2052 24.1041 67.8048 30.7212C68.2047 31.1224 68.5946 31.2992 69.1638 31.2842C70.6608 31.2453 72.159 31.2716 73.6095 31.2716C64.5263 22.1558 55.4619 13.0588 46.3348 3.8991C46.1706 4.05582 45.9674 4.24262 45.7719 4.43695C43.5804 6.62595 41.3939 8.81996 39.1961 11.0039C38.3009 11.8928 37.3519 11.9693 36.6661 11.2409C36.0292 10.5639 36.1132 9.63363 36.9193 8.82247C38.6984 7.0309 40.4899 5.25187 42.2765 3.46782C43.1792 2.5664 44.0768 1.65996 44.9858 0.7648C45.9863 -0.22188 46.7711 -0.246954 47.7465 0.727188C58.027 10.9876 68.3013 21.2569 78.5818 31.5186C79.1297 32.0652 79.3954 32.6833 79.1008 33.418C78.8049 34.1602 78.1869 34.4059 77.4045 34.3971C75.5352 34.3746 73.6647 34.3896 71.7477 34.3896C71.7477 42.6604 71.7477 50.8736 71.7477 59.1694C73.0955 58.7244 74.4332 58.6441 75.796 59.0679C80.0925 60.4044 81.4816 65.68 78.1166 68.6363C74.7028 71.6352 71.0883 74.4235 67.4186 77.1102C65.1544 78.7689 62.4414 79.5399 59.6318 79.8508C59.4863 79.8671 59.3484 79.9499 59.208 80.0013C50.3567 80.0013 41.5055 80.0013 32.6542 80.0013C32.51 79.9524 32.3683 79.8935 32.2204 79.8571C30.237 79.3707 28.1546 79.1199 26.2928 78.3426C23.9834 77.3797 21.8546 75.9818 19.6481 74.7708C19.3961 74.6316 19.1453 74.4912 18.7792 74.2881C18.852 75.963 18.4909 77.3685 17.365 78.3652C16.5953 79.0472 15.591 79.4647 14.6921 80.0013C9.79841 80.0013 4.9043 80.0013 0.00976562 80.0013C0.00976562 67.6095 0.00976562 55.2181 0.00976562 42.8272ZM18.8595 50.8084C18.8331 51.0641 18.798 51.2384 18.798 51.4139C18.7943 57.6098 18.788 63.8044 18.8156 69.9991C18.8168 70.2874 19.0488 70.6861 19.2958 70.8441C20.8065 71.8095 22.3686 72.6946 23.8831 73.6549C27.4086 75.8891 31.2525 76.9109 35.4186 76.8895C42.368 76.8544 49.3187 76.8331 56.2668 76.8971C60.8027 76.9384 64.7896 75.622 68.2674 72.6858C70.7322 70.6059 73.2773 68.6187 75.7785 66.5814C77.1638 65.4531 77.2077 63.8621 75.9051 62.6962C74.8143 61.7195 73.3701 61.6581 72.1188 62.5896C69.3005 64.6846 66.4946 66.7958 63.6938 68.9159C62.8739 69.5352 61.9775 69.8499 60.9482 69.8486C54.7535 69.8411 48.5589 69.8737 42.3643 69.8173C41.2986 69.8073 40.1063 69.6744 39.1961 69.1817C36.873 67.9254 34.6639 66.4548 32.4448 65.0143C32.1514 64.825 31.8819 64.2984 31.9233 63.9674C31.9847 63.4772 32.2254 62.9005 32.5852 62.5833C33.1143 62.1182 33.8101 62.2398 34.4031 62.6209C35.8913 63.575 37.3882 64.5191 38.8488 65.5133C40.1 66.3645 41.4541 66.7369 42.961 66.7319C48.7658 66.7118 54.5692 66.7231 60.374 66.7231C61.7807 66.7231 62.3398 66.1163 62.2295 64.7121C62.1329 63.471 61.4196 62.8215 60.1119 62.819C56.2342 62.8128 52.3552 62.7827 48.4774 62.8303C46.3674 62.8554 44.6448 62.1257 43.1779 60.6288C40.757 58.1564 38.252 55.7618 35.8675 53.2531C34.2314 51.533 32.3094 50.762 29.9599 50.7958C26.5511 50.8447 23.1409 50.8084 19.7308 50.8084C19.4512 50.8084 19.1729 50.8084 18.8595 50.8084ZM46.3097 13.7107C46.0815 13.9853 45.9286 14.1997 45.7455 14.384C39.5058 20.62 33.2585 26.8497 27.0275 33.0958C26.2577 33.8681 25.5318 34.6429 24.2593 34.3658C24.2593 38.8328 24.2593 43.2158 24.2593 47.6766C24.5464 47.6766 24.7996 47.6766 25.0529 47.6766C26.9523 47.6766 28.8516 47.6741 30.7523 47.6778C32.6341 47.6816 34.373 48.2132 36.0806 49.2613C36.0806 48.8513 36.0806 48.5755 36.0806 48.2997C36.0806 44.8645 36.0793 41.4293 36.0806 37.9928C36.0819 36.2476 36.537 35.8013 38.311 35.8013C43.7237 35.8005 49.1369 35.8005 54.5504 35.8013C56.2041 35.8013 56.7018 36.2928 56.7018 37.9276C56.7031 44.877 56.7018 51.8251 56.7018 58.7745C56.7018 59.0729 56.7018 59.3713 56.7018 59.701C58.101 59.701 59.3748 59.696 60.6498 59.7035C61.7017 59.7085 62.7172 59.9894 63.4255 60.7454C64.2191 61.5904 64.8335 62.6034 65.5468 63.5738C66.2727 63.0322 67.1315 62.3589 68.0267 61.7358C68.4592 61.4349 68.5946 61.0901 68.5934 60.5711C68.5771 52.1135 68.5821 43.6559 68.5821 35.197C68.5821 34.945 68.5821 34.693 68.5821 34.3495C67.2557 34.6592 66.5272 33.8831 65.7549 33.1096C59.5227 26.8648 53.2754 20.635 47.0319 14.4015C46.8325 14.2022 46.6244 14.0116 46.3097 13.7107ZM3.15661 76.8795C6.56422 76.8795 9.8916 76.882 13.2202 76.8783C14.8689 76.877 15.6437 76.0984 15.6437 74.4473C15.6454 65.4172 15.6454 56.3866 15.6437 47.3556C15.6437 45.7183 14.9102 44.9735 13.2792 44.971C10.1561 44.966 7.03312 44.9685 3.91009 44.971C3.66311 44.971 3.41613 44.9999 3.15661 45.0162C3.15661 55.6578 3.15661 66.2166 3.15661 76.8795ZM39.2964 38.9582C39.2525 39.0397 39.2312 39.061 39.2312 39.0836C39.2224 43.3211 39.2111 47.56 39.2224 51.7988C39.2224 52.0232 39.3628 52.2978 39.5258 52.4633C41.5669 54.5394 43.6268 56.5993 45.6791 58.6667C46.3975 59.3913 47.2701 59.7073 48.2806 59.701C49.607 59.6922 50.9334 59.6985 52.2599 59.6985C52.6874 59.6985 53.1162 59.6985 53.5312 59.6985C53.5312 52.709 53.5312 45.8537 53.5312 38.9582C48.7658 38.9582 44.043 38.9582 39.2964 38.9582Z" fill="#144367"></path>
      <path d="M33.4282 12.9735C34.282 12.9648 34.9678 13.6154 34.9941 14.4567C35.0192 15.3155 34.3108 16.0715 33.4658 16.0853C32.6371 16.0991 31.8748 15.3318 31.8849 14.4943C31.8961 13.6668 32.5895 12.9823 33.4282 12.9735Z" fill="#F27535"></path>
      <path fill-rule="evenodd" clip-rule="evenodd" d="M46.356 20.6024C49.6834 20.5698 52.4767 23.3393 52.4817 26.6779C52.4867 30.0041 49.6809 32.8149 46.3736 32.7986C43.06 32.7811 40.3306 30.0542 40.3068 26.7369C40.283 23.3606 42.971 20.635 46.356 20.6024ZM46.2883 29.6116C47.9357 29.663 49.2935 28.388 49.3424 26.7406C49.3888 25.2023 48.0962 23.8182 46.5553 23.758C44.8566 23.6916 43.4674 24.9691 43.4298 26.629C43.3947 28.2325 44.666 29.559 46.2883 29.6116Z" fill="#F27535"></path>
      <path d="M61.8658 51.9655C61.8658 50.3795 61.8583 48.7936 61.8683 47.2076C61.8746 46.1156 62.4701 45.4499 63.4142 45.4436C64.3607 45.4386 64.9776 46.1043 64.9801 47.1876C64.9888 50.3595 64.9901 53.5314 64.9801 56.7033C64.9763 57.7652 64.3269 58.4535 63.3954 58.4372C62.4977 58.4209 61.8784 57.7452 61.8696 56.7234C61.8558 55.1374 61.8658 53.5515 61.8658 51.9655Z" fill="#F27535"></path>
      <path d="M63.4437 39.4948C64.285 39.5048 64.9808 40.2056 64.9808 41.0419C64.9808 41.8656 64.2674 42.5927 63.4462 42.6065C62.6 42.6215 61.8502 41.8593 61.8715 41.0043C61.8916 40.1655 62.6012 39.4835 63.4437 39.4948Z" fill="#F27535"></path>
      <path d="M10.9437 70.0517C10.9224 70.8942 10.2153 71.5738 9.37275 71.5575C8.54404 71.5412 7.83193 70.8178 7.83694 69.9966C7.84196 69.1415 8.60798 68.4156 9.46678 68.452C10.3118 68.4884 10.965 69.1967 10.9437 70.0517Z" fill="#F27535"></path>
      <path d="M42.7593 50.7933C41.9017 50.787 41.2435 50.1313 41.2335 49.2738C41.2247 48.4062 41.9418 47.674 42.7906 47.6853C43.5955 47.6966 44.3277 48.4263 44.344 49.2299C44.359 50.0774 43.6268 50.8008 42.7593 50.7933Z" fill="#F27535"></path>
    </g>
    <defs>
      <clipPath id="clip0_110_68">
        <rect width="80" height="80" fill="white"></rect>
      </clipPath>
    </defs>
  </symbol>
  <symbol fill="none" xmlns="http://www.w3.org/2000/svg" viewBox="0 0 85 80" id="retail">
    <g clip-path="url(#clip0_110_86)">
      <path fill-rule="evenodd" clip-rule="evenodd" d="M0.00390625 23.6946C0.00390625 20.5109 0.00390625 17.3268 0.00390625 14.1423C2.34832 10.0335 4.72239 5.94234 7.01956 1.80721C7.73365 0.52185 8.69602 0.00221294 10.1418 0.00550874C21.9704 0.0307765 33.7979 0.0197905 45.6265 0.0197905C55.2052 0.0197905 64.7828 0.0241849 74.3604 0.0131989C75.5524 0.0121003 76.4873 0.375737 77.1003 1.46335C79.3612 5.47324 81.654 9.46555 83.8951 13.4864C84.161 13.9632 84.295 14.5718 84.3049 15.1233C84.3489 17.5095 84.3291 19.8978 84.3225 22.2862C84.3115 26.0324 82.1473 29.2854 78.6691 30.6993C78.1121 30.9256 77.9605 31.2035 77.9616 31.7715C77.9759 45.8775 77.9726 59.9846 77.9726 74.0907C77.9726 74.3565 77.9726 74.6224 77.9726 74.9684C79.1195 74.9684 80.1588 74.9607 81.197 74.9728C81.5793 74.9772 81.9682 74.9915 82.3417 75.0651C83.4876 75.2925 84.2851 76.2384 84.3225 77.3689C84.3621 78.5619 83.6293 79.5727 82.4681 79.8539C82.0484 79.955 81.6013 79.9737 81.1662 79.9737C55.2316 79.9791 29.297 79.9704 3.36232 79.9989C1.84736 80.0011 0.703714 79.5946 0.00390625 78.2082C0.00390625 77.7138 0.00390625 77.2198 0.00390625 76.7262C0.728982 75.3035 1.92975 74.8575 3.4579 74.9563C4.4829 75.0223 5.51668 74.9684 6.57243 74.9684C6.58561 74.685 6.5999 74.5235 6.5999 74.362C6.601 60.1483 6.5977 45.9336 6.61528 31.7188C6.61638 31.1717 6.41094 30.9805 5.94074 30.8014C2.96353 29.6644 1.08822 27.5199 0.2445 24.457C0.173091 24.2 0.084104 23.9484 0.00390625 23.6946ZM72.9861 74.9267C72.9861 74.5784 72.9861 74.3334 72.9861 74.0896C72.9861 60.0363 72.9861 45.983 72.9861 31.9297C72.9861 31.7649 73.0234 31.5869 72.9729 31.4386C72.919 31.2826 72.8103 31.0981 72.673 31.0234C71.2909 30.2796 69.8979 29.5567 68.4005 28.7712C66.7713 30.4005 64.5807 31.3826 62.0264 31.3881C59.448 31.3936 57.2398 30.3928 55.3843 28.5438C53.531 30.4235 51.3294 31.3804 48.7795 31.387C46.2022 31.3936 43.9973 30.3807 42.1791 28.5779C38.6241 32.0385 33.1124 32.5691 28.9509 28.6361C23.5425 32.3713 20.8092 32.3702 15.8347 28.7273C14.6307 29.4337 13.5178 30.1807 12.3203 30.7487C11.7216 31.0321 11.5414 31.309 11.5425 31.9451C11.5612 45.9709 11.5568 59.9967 11.5568 74.0225C11.5568 74.3137 11.5568 74.6059 11.5568 74.9168C13.2519 74.9168 14.8295 74.9168 16.484 74.9168C16.484 74.5433 16.484 74.2203 16.484 73.8973C16.4906 62.6707 16.4972 51.4441 16.5049 40.2186C16.506 37.9434 17.409 37.0525 19.7084 37.0525C25.5551 37.0514 31.4019 37.0514 37.2475 37.0525C39.4414 37.0525 40.3456 37.9544 40.3445 40.1428C40.3401 51.3969 40.3335 62.6498 40.328 73.9039C40.328 74.2456 40.328 74.5872 40.328 74.9267C51.2755 74.9267 62.0814 74.9267 72.9861 74.9267ZM6.79764 12.3131C30.434 12.3131 53.9265 12.3131 77.5354 12.3131C76.2775 10.0928 75.0448 7.99452 73.899 5.85006C73.5441 5.1865 73.1322 5.01402 72.4214 5.01512C52.25 5.0338 32.0786 5.0305 11.9083 5.0305C11.7161 5.0305 11.5106 4.98875 11.3349 5.04259C11.1217 5.10631 10.8438 5.19969 10.7471 5.36887C9.43318 7.64077 8.14782 9.92916 6.79764 12.3131ZM35.3184 42.0236C34.9943 42.0236 34.7251 42.0236 34.4549 42.0236C30.4505 42.0236 26.445 42.0445 22.4406 42.005C21.6705 41.9973 21.4848 42.2291 21.4859 42.9728C21.4881 53.3414 21.4617 63.71 21.4442 74.0786C21.4431 74.3455 21.465 74.6125 21.4793 74.9212C26.111 74.9212 30.6768 74.9212 35.3184 74.9212C35.3184 63.966 35.3184 53.0591 35.3184 42.0236ZM18.2253 17.4315C18.2099 17.7732 18.189 18.0159 18.1901 18.2587C18.2033 19.7649 18.1495 21.2755 18.2571 22.7751C18.3967 24.7251 19.9874 26.2236 21.9089 26.3686C24.0204 26.5268 26.011 25.3194 26.267 23.3398C26.5175 21.4128 26.3219 19.4276 26.3219 17.4315C23.6589 17.4315 20.9817 17.4315 18.2253 17.4315ZM57.9374 17.4348C57.9374 19.2925 57.8496 21.0733 57.9616 22.841C58.0858 24.7998 59.76 26.273 61.7485 26.3785C63.8007 26.4883 65.754 25.2173 65.9792 23.276C66.2 21.3667 66.0275 19.4112 66.0275 17.4348C63.3623 17.4348 60.6861 17.4348 57.9374 17.4348ZM4.94101 17.4359C4.94101 19.0025 4.93772 20.5306 4.94431 22.0588C4.9465 22.3576 4.96408 22.663 5.02011 22.9563C5.4167 25.0173 6.99979 26.3653 9.0322 26.3906C11.0327 26.4136 12.7542 25.1118 13.1113 23.1475C13.2794 22.2159 13.1893 21.2348 13.2003 20.2769C13.2113 19.3288 13.2025 18.3818 13.2025 17.4359C10.3901 17.4359 7.71058 17.4359 4.94101 17.4359ZM31.4403 17.4381C31.4403 19.1299 31.4216 20.769 31.4447 22.407C31.4722 24.4197 33.0179 26.1445 34.9405 26.351C37.2233 26.596 39.2437 25.3513 39.5128 23.1991C39.749 21.3216 39.5623 19.3903 39.5623 17.4381C36.9344 17.4381 34.2549 17.4381 31.4403 17.4381ZM44.6323 17.4315C44.6323 17.7226 44.6323 17.9368 44.6323 18.1522C44.6378 19.6331 44.5686 21.1184 44.6653 22.5938C44.8037 24.7108 46.4571 26.2719 48.5192 26.3796C50.6318 26.4894 52.5587 25.1612 52.7916 23.1047C53.0025 21.248 52.8366 19.3474 52.8366 17.4315C50.1077 17.4315 47.4282 17.4315 44.6323 17.4315ZM71.1294 17.4315C71.1294 19.1189 71.1151 20.7317 71.1338 22.3444C71.1569 24.4142 72.6938 26.15 74.6515 26.3532C76.9718 26.5927 78.9504 25.3293 79.2272 23.1003C79.4568 21.2491 79.2733 19.3463 79.2733 17.4315C76.6125 17.4315 73.933 17.4315 71.1294 17.4315Z" fill="#144367"></path>
      <path fill-rule="evenodd" clip-rule="evenodd" d="M68.0148 50.9531C68.0148 54.5751 68.017 58.1972 68.0137 61.8193C68.0126 63.5859 67.0623 64.6109 65.2946 64.6207C60.274 64.6471 55.2523 64.6449 50.2306 64.6207C48.4762 64.6131 47.4764 63.5749 47.4742 61.8325C47.4669 54.5063 47.4669 47.1801 47.4742 39.8539C47.4764 38.0742 48.5146 37.0547 50.2987 37.0536C55.2644 37.0492 60.2312 37.0492 65.1979 37.0536C67.0051 37.0547 68.0115 38.0533 68.0137 39.8396C68.0181 43.5441 68.0148 47.2486 68.0148 50.9531ZM52.5399 42.0643C52.5399 47.9561 52.5399 53.7578 52.5399 59.5683C56.0686 59.5683 59.5358 59.5683 63.0117 59.5683C63.0117 53.7073 63.0117 47.9056 63.0117 42.0643C59.5061 42.0643 56.0598 42.0643 52.5399 42.0643Z" fill="#F27535"></path>
    </g>
    <defs>
      <clipPath id="clip0_110_86">
        <rect width="84.3395" height="80" fill="white"></rect>
      </clipPath>
    </defs>
  </symbol>
  <symbol fill="none" xmlns="http://www.w3.org/2000/svg" viewBox="0 0 80 80" id="travel">
    <g clip-path="url(#clip0_110_43)">
      <path fill-rule="evenodd" clip-rule="evenodd" d="M42.5959 69.4973C41.2228 72.4964 40.8091 72.9641 38.3776 74.2511C39.0429 76.2586 38.7085 78.0351 36.8746 79.2784C35.4888 80.2184 33.9777 80.2264 32.5678 79.3232C30.8683 78.235 30.4063 76.6079 30.8545 74.6487C27.1935 74.6487 23.5669 74.6487 19.8864 74.6487C20.3311 76.7251 19.8059 78.4246 17.903 79.4669C16.4333 80.2724 14.9384 80.1414 13.6134 79.1083C11.9829 77.8363 11.7128 76.1494 12.3713 74.2293C11.0521 73.657 9.94783 72.8492 9.16415 71.653C8.44826 70.5614 8.04953 69.3732 8.04953 68.0563C8.05068 56.4574 8.04263 44.8584 8.05412 33.2594C8.05757 29.5938 11.0027 26.682 14.6821 26.6613C16.4276 26.6521 18.1731 26.6602 20.0392 26.6602C20.0392 26.2982 20.0392 25.9788 20.0392 25.6582C20.0392 18.9153 20.0346 12.1724 20.0415 5.42951C20.0438 2.63146 22.0547 0.316035 24.7034 0.0345071C27.5324 -0.266556 29.972 1.48467 30.5867 4.28501C30.681 4.71247 30.6856 5.16522 30.6856 5.60647C30.6913 12.2655 30.6901 18.9256 30.6901 25.5858C30.6901 25.9121 30.6901 26.2396 30.6901 26.6602C32.3851 26.6602 34.0133 26.659 35.6416 26.6602C39.8772 26.6625 42.6764 29.4571 42.6787 33.6869C42.681 37.572 42.6787 41.4571 42.6787 45.341C42.6787 45.6053 42.6787 45.8696 42.6787 46.1339C42.7246 46.1446 42.7702 46.1554 42.8154 46.1661C42.9384 45.9363 43.0716 45.711 43.1843 45.4766C45.3469 40.9871 47.506 36.4953 49.6686 32.0058C50.9154 29.4169 53.055 28.6608 55.6416 29.9029C63.3268 33.595 71.0107 37.2893 78.6959 40.9837C80.092 41.6547 80.2782 42.1925 79.5956 43.6116C74.1934 54.8398 68.7903 66.0673 63.3865 77.2939C62.6993 78.7222 62.1788 78.9095 60.7769 78.235C54.9889 75.4508 49.2009 72.6642 43.4118 69.8788C43.1417 69.749 42.8683 69.6249 42.5959 69.4973ZM20.0599 29.318C18.2799 29.318 16.6206 29.3089 14.9613 29.3203C12.4287 29.3364 10.7304 31.0233 10.7108 33.5444C10.697 35.2922 10.7074 37.04 10.7074 38.7877C10.7074 48.416 10.7039 58.0431 10.7108 67.6714C10.7131 70.104 12.3299 71.9184 14.6591 71.9322C21.7893 71.9748 28.9205 71.9644 36.0507 71.938C37.8731 71.9311 39.4187 70.6613 39.8634 69.0055C40.0047 68.4792 39.9748 68.1287 39.3773 67.9162C38.7809 67.7036 38.2225 67.383 37.6502 67.1037C35.1567 65.888 34.4052 63.7357 35.6037 61.2353C36.9803 58.3649 38.3661 55.499 39.7347 52.6251C39.8737 52.3333 40.0082 52.0023 40.0082 51.6886C40.0231 45.5571 40.0392 39.4255 40.0059 33.2939C39.9944 31.2646 38.612 29.7041 36.5896 29.3973C35.6657 29.2571 34.7097 29.3295 33.7674 29.3203C32.7528 29.31 31.7393 29.318 30.6672 29.318C30.6672 31.5956 30.6672 33.749 30.6672 35.9219C29.7628 35.9219 28.9228 35.9219 27.9909 35.9219C27.9909 33.6938 27.9909 31.5197 27.9909 29.364C26.188 29.364 24.4781 29.364 22.6775 29.364C22.6775 31.5818 22.6775 33.7559 22.6775 35.9391C21.764 35.9391 20.9424 35.9391 20.0599 35.9391C20.0599 33.7467 20.0599 31.5933 20.0599 29.318ZM61.2768 75.4749C65.71 66.258 70.1179 57.094 74.5408 47.8978C66.5086 44.0276 58.5649 40.2011 50.5902 36.3586C50.5683 36.3942 50.5074 36.4815 50.4615 36.5769C46.2972 45.2307 42.1317 53.8845 37.9754 62.543C37.4859 63.5634 37.7295 64.1483 38.8051 64.6677C44.5138 67.4197 50.2236 70.1684 55.9335 72.917C57.6973 73.7662 59.4646 74.6073 61.2768 75.4749ZM28.0311 26.62C28.0311 26.2615 28.0311 25.9615 28.0311 25.6605C28.0319 19.9211 28.0319 14.1814 28.0311 8.44129C28.0311 7.41514 28.0587 6.389 28.0208 5.36401C27.9806 4.25054 27.4612 3.4025 26.4305 2.92908C25.4549 2.47978 24.5276 2.64295 23.7014 3.28989C22.9487 3.88053 22.6936 4.70673 22.6947 5.64439C22.6993 12.4378 22.697 19.2313 22.697 26.0247C22.697 26.2109 22.697 26.3959 22.697 26.62C24.4908 26.62 26.1995 26.62 28.0311 26.62ZM76.8447 43.1037C76.5069 42.9337 76.2633 42.805 76.0162 42.6855C71.475 40.5022 66.9349 38.3201 62.3937 36.1368C59.6738 34.8291 56.9596 33.5134 54.234 32.2184C53.2572 31.7553 52.3058 32.1827 52.1851 33.125C52.0851 33.9098 52.5563 34.335 53.2136 34.6498C58.828 37.3433 64.4368 40.0471 70.0478 42.7452C71.9139 43.6427 73.7835 44.5344 75.7083 45.4548C76.0966 44.6527 76.4529 43.915 76.8447 43.1037ZM16.0105 77.2709C16.6942 77.2882 17.3492 76.6608 17.3641 75.9736C17.379 75.2876 16.7574 74.6384 16.0656 74.62C15.3831 74.6004 14.7292 75.2267 14.712 75.9173C14.6947 76.5999 15.3222 77.2548 16.0105 77.2709ZM36.0139 75.9093C35.9955 75.2232 35.3359 74.5958 34.6545 74.6165C33.9674 74.6372 33.3411 75.2968 33.3618 75.9771C33.3836 76.6688 34.0409 77.2928 34.7212 77.2698C35.4129 77.2457 36.0323 76.5941 36.0139 75.9093Z" fill="#144367"></path>
      <path fill-rule="evenodd" clip-rule="evenodd" d="M64.5964 7.67486C66.5671 8.98598 68.4482 10.2523 70.3534 11.483C70.5154 11.5887 70.8797 11.5427 71.0635 11.429C71.9817 10.8602 72.8734 10.2488 73.7697 9.64556C74.4729 9.17213 75.1164 9.23303 75.7139 9.82941C76.5378 10.6533 77.3744 11.4634 78.181 12.3046C78.8372 12.9883 78.8498 13.6846 78.1879 14.3568C76.4562 16.1161 74.7291 17.88 72.9446 19.5841C71.5553 20.9101 69.7306 21.0044 67.9633 19.9265C63.3749 17.1308 58.7946 14.3201 54.2109 11.5174C51.5887 9.9133 48.963 8.31376 46.3408 6.70962C45.1066 5.95352 45.0365 5.15949 46.0018 4.10232C47.5289 2.43384 49.3112 1.3376 51.6461 1.37322C53.1687 1.3962 54.5476 1.92594 55.7231 2.83717C56.8826 3.73576 57.8834 3.71853 59.1371 2.97621C60.8481 1.96501 62.6912 1.17673 64.4631 0.266644C65.2376 -0.130943 65.8616 -0.0263753 66.4855 0.583794C68.4482 2.50623 68.462 2.53036 66.8084 4.73318C66.0937 5.68463 65.3767 6.63608 64.5964 7.67486ZM48.9078 5.12272C50.8544 6.31318 52.7895 7.4956 54.7257 8.67917C59.5703 11.6392 64.4172 14.5959 69.256 17.5651C69.8432 17.9259 70.4867 18.1776 71.0176 17.6662C72.4861 16.2506 73.8846 14.7602 75.3094 13.3008C74.5338 12.3701 74.5327 12.3701 73.5617 13.0147C72.9848 13.3985 72.3838 13.7501 71.8415 14.1776C71.0107 14.8303 70.273 14.7418 69.4272 14.1569C67.2635 12.6585 65.0572 11.2221 62.8682 9.76277C60.9021 8.45165 60.8584 8.18621 62.2913 6.26607C62.9682 5.35828 63.6415 4.4482 64.3172 3.54042C62.2155 4.41028 60.2276 5.37437 58.2649 6.38902C57.5686 6.74869 56.9676 6.72341 56.3183 6.31433C55.3818 5.7237 54.4338 5.14685 53.4674 4.60678C51.9116 3.73691 50.1397 3.94145 48.9078 5.12272Z" fill="#F27535"></path>
      <path d="M75.2796 27.8093C74.9602 26.9912 74.6833 26.2442 74.3776 25.5088C74.0708 24.77 73.7352 24.0437 73.3848 23.2463C74.1696 22.8498 74.9246 22.4672 75.7439 22.0512C78.1512 26.8521 79.5244 31.8449 79.8795 37.2284C78.9728 37.2893 78.1351 37.3456 77.3204 37.3997C76.9481 35.1107 76.5862 32.8872 76.2242 30.6637C72.0001 30.4201 68.1495 29.402 64.5528 27.4761C62.2133 26.2236 60.1093 24.6539 58.2259 22.7866C57.4767 22.0443 56.7367 21.2939 55.9863 20.5528C55.0602 19.6369 54.45 19.6094 53.4652 20.4264C51.6439 21.9363 49.3848 21.8604 47.6749 20.231C44.5804 17.2836 40.9826 17.2319 37.8237 20.0851C36.5862 21.2032 35.1613 21.8444 33.4124 21.8248C33.4124 20.9423 33.4124 20.0966 33.4124 19.2026C34.6637 19.1164 35.6106 18.4695 36.523 17.6502C40.0162 14.5131 45.3836 14.5499 48.9068 17.6858C49.1343 17.8892 49.3446 18.1121 49.5709 18.3155C50.3006 18.9682 50.959 18.982 51.7289 18.366C53.9076 16.624 55.984 16.7171 57.9352 18.7004C60.3127 21.1181 62.7258 23.4738 65.7709 25.0791C68.4735 26.5039 71.3325 27.3956 74.3489 27.8047C74.6155 27.8403 74.8912 27.8093 75.2796 27.8093Z" fill="#144367"></path>
      <path d="M6.57292 56.5252C5.78349 56.9182 5.02854 57.2951 4.17821 57.7202C0.0805329 49.2583 -1.018 40.493 0.981423 31.4014C3.15321 21.5352 8.43101 13.6444 16.5758 7.57373C16.9918 8.14023 17.3537 8.6263 17.7077 9.11697C17.8524 9.31691 17.9811 9.52604 18.1363 9.75816C10.8533 15.2003 5.99263 22.2511 3.82543 31.0681C1.66858 39.8461 2.66025 48.3195 6.57292 56.5252Z" fill="#F27535"></path>
      <path d="M41.4099 77.4732C44.8216 76.8733 48.1907 76.2816 51.669 75.6714C51.8678 76.2747 52.1321 77.0744 52.4263 77.9661C48.8354 79.1853 45.2065 79.7622 41.4099 79.9403C41.4099 79.0267 41.4099 78.1626 41.4099 77.4732Z" fill="#F27535"></path>
      <path d="M33.534 3.01403C33.4168 2.29814 33.2812 1.4708 33.1467 0.651492C36.0229 -0.0230273 41.0962 -0.196541 44.147 0.271141C44.0666 1.10079 43.985 1.93503 43.916 2.64977C40.4481 2.77157 37.0628 2.88993 33.534 3.01403Z" fill="#F27535"></path>
      <path d="M18.6418 69.2445C17.7708 69.2445 16.9503 69.2445 16.0862 69.2445C16.0862 59.0486 16.0862 48.8906 16.0862 38.6901C16.9411 38.6901 17.7616 38.6901 18.6418 38.6901C18.6418 48.8515 18.6418 59.0107 18.6418 69.2445Z" fill="#144367"></path>
      <path d="M26.6338 69.2444C25.7651 69.2444 24.9446 69.2444 24.0793 69.2444C24.0793 59.0497 24.0793 48.8905 24.0793 38.6912C24.9331 38.6912 25.7536 38.6912 26.6338 38.6912C26.6338 48.8515 26.6338 59.0095 26.6338 69.2444Z" fill="#144367"></path>
      <path d="M32.0874 38.6854C32.9561 38.6854 33.7766 38.6854 34.6418 38.6854C34.6418 48.8802 34.6418 59.0382 34.6418 69.2387C33.7881 69.2387 32.9676 69.2387 32.0874 69.2387C32.0874 59.0796 32.0874 48.9216 32.0874 38.6854Z" fill="#144367"></path>
      <path fill-rule="evenodd" clip-rule="evenodd" d="M57.3501 43.5955C62.5038 43.5863 66.6509 47.715 66.667 52.871C66.6831 58.0729 62.5429 62.2556 57.3651 62.2671C52.2631 62.2786 48.0356 58.0695 48.0218 52.9675C48.008 47.7816 52.1665 43.6035 57.3501 43.5955ZM61.6018 53.4639C62.2464 53.7696 62.9979 54.1246 63.754 54.482C64.4906 52.6285 63.4472 49.2835 62.3406 48.6906C62.1016 50.2338 61.8592 51.8 61.6018 53.4639ZM57.1559 59.4771C59.1002 59.7311 61.7213 58.4923 62.5119 56.894C61.7787 56.5423 61.0468 56.1919 60.4228 55.8931C59.2794 57.1479 58.2246 58.3039 57.1559 59.4771ZM52.3148 57.2306C52.5894 55.7437 52.8595 54.3407 53.0973 52.9319C53.1306 52.7342 53.0778 52.3918 52.9502 52.3194C52.309 51.9574 51.6299 51.6633 50.9002 51.3139C50.4406 53.6144 50.9083 55.5472 52.3148 57.2306ZM57.5604 46.3545C55.5713 46.1281 53.0226 47.3392 52.1953 48.9388C52.9353 49.2915 53.6742 49.6443 54.2993 49.9408C55.4311 48.6963 56.4871 47.5346 57.5604 46.3545ZM58.0097 55.0014C57.9247 54.8696 57.8396 54.7379 57.7546 54.6061C57.0893 54.2867 56.4228 53.9684 55.6184 53.5823C55.4369 54.8566 55.2691 56.0321 55.1013 57.2065C55.1879 57.241 55.2745 57.2755 55.361 57.3099C56.2435 56.54 57.1264 55.7705 58.0097 55.0014ZM59.1013 52.2608C59.2806 50.9623 59.4403 49.8006 59.6 48.6389C59.4928 48.5929 59.3855 48.5469 59.2783 48.501C58.4751 49.3605 57.6719 50.22 56.8031 51.1496C57.6247 51.5472 58.2418 51.8448 59.1013 52.2608Z" fill="#F27535"></path>
      <path d="M57.5662 67.7702C57.1652 68.6044 56.809 69.3468 56.4022 70.1948C52.3896 68.2666 48.4148 66.358 44.3804 64.4206C44.7768 63.5967 45.1434 62.8348 45.5467 61.9983C49.5582 63.9253 53.5134 65.8248 57.5662 67.7702Z" fill="#144367"></path>
    </g>
    <defs>
      <clipPath id="clip0_110_43">
        <rect width="79.9885" height="80" fill="white"></rect>
      </clipPath>
    </defs>
  </symbol>
  <symbol fill="none" xmlns="http://www.w3.org/2000/svg" viewBox="0 0 82 80" id="education">
    <g clip-path="url(#clip0_110_81)">
      <path fill-rule="evenodd" clip-rule="evenodd" d="M77.5752 76.649C77.3267 78.6503 75.7697 79.9916 73.681 79.9916C53.232 79.9916 32.7903 79.9916 12.3413 79.9842C7.03115 79.9842 2.30842 76.5616 0.64399 71.5147C0.388167 70.7398 0.213407 69.945 0.00390625 69.1564V66.1245C0.0575975 65.9771 0.132344 65.835 0.158663 65.6802C1.01457 60.9238 3.72334 57.696 8.21025 55.9305C8.64189 55.7557 9.08615 55.621 9.57148 55.4589C5.23302 52.0226 3.28539 47.6631 4.58556 42.3003C5.91942 36.769 9.75361 33.7371 15.3522 32.7527V31.8905C15.3522 28.569 15.3322 25.2475 15.3733 21.9323C15.3796 21.2312 15.1838 20.9143 14.51 20.6922C10.7916 19.4457 7.09221 18.1592 3.39277 16.8517C2.86744 16.6632 2.3021 16.36 1.93784 15.9494C0.73874 14.6145 1.33777 12.5732 3.09695 11.9605C9.59148 9.68968 16.1008 7.44623 22.609 5.1954C22.7101 5.16171 22.8111 5.12171 22.9122 5.10171C23.6533 4.93958 24.2124 5.22277 24.4355 5.88286C24.644 6.48294 24.3608 7.04828 23.7007 7.35885C23.4586 7.46623 23.2091 7.54729 22.9596 7.63467C16.8282 9.75706 10.7032 11.8794 4.57188 14.0018C4.31605 14.0892 4.06655 14.1976 3.60227 14.3724C7.63123 15.7673 11.4244 17.0812 15.2585 18.4087C15.3122 18.2129 15.3459 18.0918 15.3733 17.9708C15.7165 16.1379 16.424 15.4304 18.2705 15.1072C19.2875 14.9314 20.3045 14.7703 21.3288 14.6082C27.2654 13.6713 33.2483 13.267 39.2512 13.2944C45.7331 13.3217 52.1739 13.8671 58.5748 14.9651C61.2235 15.4167 61.7963 15.8884 62.2879 18.4214C66.121 17.0949 69.9489 15.7736 73.9505 14.3861C73.5599 14.2103 73.3778 14.1166 73.183 14.0492C62.2742 10.2687 51.3654 6.49557 40.4576 2.70981C39.3049 2.31187 38.1931 2.33187 37.0414 2.7435C34.4474 3.6731 31.8397 4.55532 29.2393 5.44491C28.3897 5.73442 27.7433 5.43859 27.5075 4.69744C27.2991 4.02367 27.6486 3.4636 28.5045 3.1604C31.1059 2.25081 33.7199 1.3749 36.3139 0.445305C37.951 -0.141088 39.5617 -0.141088 41.2051 0.431619C52.215 4.2458 63.2238 8.03894 74.2274 11.8521C75.696 12.3574 76.2276 13.1196 76.235 14.723C76.235 15.1809 76.2413 15.6326 76.235 16.0905L70.4806 18.1518C67.8939 19.0551 65.2999 19.951 62.7058 20.8343C62.2405 20.9891 62.1868 21.2512 62.1868 21.6555C62.1931 24.499 62.1931 27.3425 62.1931 30.1861V32.7527C64.7672 32.7527 67.2064 32.7664 69.6457 32.739C69.9889 32.7327 70.5616 32.598 70.629 32.3958C70.7164 32.1326 70.8785 31.8842 71.0196 31.6273C70.8311 32.0189 70.1637 33.4002 69.3888 35.192H68.7561C51.4128 35.192 34.0705 35.1857 16.7272 35.1983C16.0671 35.1983 15.3996 35.253 14.7532 35.3667C9.47778 36.25 5.73835 41.7002 6.79533 46.943C7.79335 51.8879 11.7476 55.1493 16.7882 55.1493C34.2653 55.1557 51.7433 55.1557 69.2141 55.1557C69.4299 55.1557 69.6457 55.1757 69.8542 55.1293C70.5342 54.9946 70.9259 54.563 70.9259 53.8555C70.9322 53.1543 70.5479 52.7101 69.8605 52.5816C69.551 52.5216 69.2278 52.5553 68.9109 52.5553C56.8503 52.5553 44.7898 52.5553 32.7356 52.5479C32.4398 52.5479 32.1429 52.5753 31.8597 52.5143C31.2133 52.3732 30.8153 51.9489 30.8427 51.2815C30.8701 50.6614 31.2333 50.2371 31.8734 50.1497C32.2176 50.1024 32.5608 50.1024 32.904 50.1024H66.8222C66.64 48.4116 66.3232 46.8146 66.3232 45.2175C66.3232 45.1438 66.3232 45.0628 66.3305 44.9817C66.3505 43.432 66.64 41.8823 66.8085 40.299H30.7416V46.2419C30.7353 47.9263 30.0615 48.3779 28.4845 47.7578C27.7907 47.4883 27.1169 47.1788 26.4095 46.963C26.0589 46.8619 25.6346 46.8619 25.2904 46.9693C24.4619 47.2325 23.6607 47.6031 22.8448 47.9063C21.7404 48.3105 21.0193 47.8189 20.9919 46.6324C20.9656 45.4333 20.9856 44.2405 20.9856 43.0414V40.1579C20.494 40.1779 20.0086 40.1916 19.5233 40.1979H19.3412C17.9536 40.2179 16.5987 40.2253 15.2985 40.4811C12.8193 40.9727 11.377 43.4257 11.7612 45.925C12.1392 48.4116 14.1194 50.076 16.7882 50.096C19.9276 50.1224 23.0606 50.096 26.1937 50.1097C27.1096 50.116 27.6697 50.6014 27.6697 51.3225C27.6697 52.0426 27.0896 52.5479 26.1937 52.5479C22.9796 52.5553 19.7655 52.609 16.5587 52.5353C11.5728 52.4269 8.16393 47.7242 9.58517 43.0077C10.5485 39.8273 13.4394 37.7923 17.0504 37.7923C33.6662 37.786 50.2811 37.7923 66.8959 37.7923H67.4823C67.7255 37.7923 67.9676 37.8134 68.2034 37.7797C68.2434 37.7723 68.2908 37.7586 68.3382 37.746C68.136 38.264 67.9339 38.7967 67.7455 39.322C68.156 39.9021 68.6887 40.4611 69.3825 40.919C68.534 43.5531 68.4866 46.0871 69.1404 48.6611C69.3551 49.516 69.5573 50.2508 70.6764 50.2982C71.0869 50.3119 71.5186 50.6151 71.8692 50.8846C73.2767 51.9552 73.5799 53.4112 73.1893 55.1157C73.4588 55.1293 73.6883 55.142 73.9242 55.1557C75.9118 55.2767 77.4541 56.759 77.5889 58.6867C77.7173 60.5795 76.3424 62.2303 74.3684 62.6282C74.1126 62.6819 73.7957 62.9851 73.7147 63.2346C72.7451 66.1182 72.7577 69.0091 73.6947 71.9063C73.8357 72.3442 74.0715 72.519 74.5095 72.6137C76.5182 73.0643 77.811 74.7898 77.5752 76.649ZM71.9292 41.9234C71.0669 41.8823 70.2447 41.6939 69.5373 41.0201C70.191 41.4307 70.9796 41.7549 71.9292 41.9234ZM28.255 40.2853H23.4586V45.1638C25.0683 44.0384 26.6379 44.1332 28.255 45.1238V40.2853ZM17.8052 18.4614C17.8252 20.2405 17.8115 22.026 17.8115 23.8042V26.2571H46.0163C46.3332 26.2571 46.6564 26.2498 46.9732 26.2771C47.667 26.3445 48.0376 26.7888 48.0513 27.4362C48.0639 28.0963 47.6733 28.5279 47.0069 28.649C46.7501 28.6964 46.4805 28.6627 46.211 28.6627H17.8452V32.6917H59.7139V28.6627C57.362 28.6627 55.0785 28.669 52.8014 28.6627C51.817 28.6627 51.238 28.2174 51.2243 27.4762C51.2106 26.7214 51.7697 26.2634 52.7603 26.2571C54.809 26.2498 56.8503 26.2571 58.899 26.2571H59.7749C59.7749 23.4947 59.7749 20.8669 59.7812 18.2392C59.7812 17.6802 59.417 17.5718 58.9527 17.4844C53.832 16.5474 48.6577 15.9958 43.4623 15.8C35.1348 15.4968 26.8611 15.9958 18.6474 17.4781C18.0136 17.5918 17.7989 17.8486 17.8052 18.4614ZM75.1433 76.2648C75.137 75.5773 74.7664 75.112 74.0589 74.9972C73.7484 74.9435 73.4251 74.9435 73.1083 74.9372C70.5079 74.9372 67.9002 74.9435 65.2999 74.9298C64.4913 74.9235 63.9786 74.4319 63.9786 73.7444C63.9723 73.077 64.504 72.5653 65.2788 72.5253C65.5483 72.5043 65.8115 72.5179 66.081 72.5179H71.1343C70.9459 70.8335 70.629 69.2101 70.629 67.5857C70.629 65.9487 70.9459 64.3116 71.1206 62.6882H59.9297C59.8886 62.7956 59.8549 62.843 59.8549 62.8904C59.8486 64.8843 59.7876 66.8783 59.8549 68.8659C59.896 70.2808 58.858 70.9483 57.7536 70.2882C55.9007 69.1691 54.0816 69.2501 52.1613 70.2545C50.8264 70.9483 50.0726 70.3419 50.0726 68.7985V62.6272H12.9403C12.7245 62.6272 12.5098 62.6272 12.3003 62.6335C9.01246 62.8156 6.80901 65.7876 7.65123 68.9133C8.23762 71.0893 10.1852 72.5179 12.5971 72.5179H58.8043C59.1012 72.5179 59.3907 72.4979 59.6802 72.5316C60.3476 72.6127 60.8319 73.1517 60.8193 73.7581C60.8056 74.3908 60.334 74.8625 59.6402 74.9235C59.377 74.9435 59.1075 74.9372 58.8443 74.9372H13.0351C12.6371 74.9372 12.2329 74.9235 11.8423 74.9035C7.48279 74.6477 4.24868 70.3482 5.21196 66.0834C6.01417 62.5261 8.90508 60.2353 12.6308 60.2353H73.102C73.3915 60.2353 73.6883 60.2553 73.9779 60.2216C74.6653 60.1279 75.1433 59.5815 75.157 58.9277C75.1633 58.2476 74.719 57.7286 74.0042 57.6276C73.6336 57.5802 73.263 57.5876 72.8924 57.5876H13.3783C12.7382 57.5939 12.1055 57.6139 11.4654 57.6549C6.24367 58.0055 1.93784 63.0514 2.4158 68.2595C2.9285 73.7107 7.17959 77.5986 12.6571 77.6049H73.2841C73.5462 77.6049 73.8231 77.6249 74.0789 77.5649C74.7453 77.4028 75.157 76.9585 75.1433 76.2648ZM52.5719 62.6745V67.6268C54.1826 66.5551 55.7386 66.5414 57.3357 67.6194V62.6745H52.5719Z" fill="#144367"></path>
      <path fill-rule="evenodd" clip-rule="evenodd" d="M78.1119 41.9644C77.2497 41.9707 76.3801 41.9707 75.5179 41.9644H75.4979C74.6146 41.9644 73.7324 41.9581 72.8491 41.9781C72.5459 41.9844 72.2501 41.9844 71.9532 41.9707C71.0036 41.8023 70.2151 41.4791 69.5613 41.0685L69.4203 40.9264C69.4129 40.9401 69.4129 40.9538 69.4066 40.9674C68.7128 40.5095 68.1801 39.9494 67.7695 39.3704C67.958 38.8451 68.1601 38.3124 68.3622 37.7933C68.4696 37.7597 68.5781 37.6996 68.6044 37.6249C68.9213 36.8637 69.2108 36.0826 69.535 35.2404H69.4129C70.1877 33.4475 70.8552 32.0663 71.0436 31.6757C71.0773 31.6083 71.0973 31.5683 71.0973 31.5683C71.2868 31.1841 71.3742 30.7735 71.0373 30.2608C69.7498 28.3205 70.0067 25.7939 71.6637 24.2105C72.2564 23.6378 73.0313 23.2609 73.8061 22.7419V17.0148L76.2591 16.1389C76.2728 18.1739 76.2728 20.2216 76.2591 22.2566C76.2517 22.7145 76.3801 22.9367 76.8318 23.1325C79.7353 24.3516 80.766 27.6467 79.0689 30.2745C78.7994 30.6924 78.8194 30.9956 78.9942 31.4262C79.7964 33.3338 80.5712 35.2467 81.3261 37.1669C82.2893 39.6399 80.7533 41.937 78.1119 41.9644ZM72.6744 27.5931C72.6681 28.9743 73.6987 30.0323 75.0526 30.0386C76.3938 30.0386 77.4855 28.9469 77.4782 27.6067C77.4719 26.3055 76.3938 25.2148 75.1063 25.2012C73.7461 25.1812 72.6807 26.2318 72.6744 27.5931ZM79.1289 38.2313C78.3615 36.2374 77.5456 34.2634 76.7844 32.3695H73.3482C72.5933 34.2223 71.7785 36.17 71.01 38.1302C70.7141 38.8924 71.111 39.5452 71.8722 39.5588C73.9946 39.5862 76.1169 39.5862 78.233 39.5588C78.9742 39.5452 79.3984 38.9188 79.1289 38.2313Z" fill="#F27535"></path>
      <path d="M28.2513 40.2253V45.0901C26.6342 44.0995 25.0645 44.0058 23.4548 45.1312V40.1916L20.9819 40.179V43.0088C20.9819 44.2079 20.9619 45.4007 20.9882 46.5998C21.0156 47.7852 21.7367 48.2769 22.8411 47.8726C23.657 47.5694 24.4581 47.1988 25.2867 46.9367C25.6309 46.8283 26.0552 46.8283 26.4058 46.9293C27.1132 47.1451 27.787 47.4557 28.4808 47.7252C30.0578 48.3442 30.7316 47.8937 30.7379 46.2092V40.239L28.2513 40.2253Z" fill="#F27535"></path>
      <path d="M57.3478 62.722V67.5868C55.7307 66.5962 54.1611 66.5025 52.5503 67.6279V62.6883L50.0774 62.6757V65.5055C50.0774 66.7046 50.0574 67.8974 50.0847 69.0965C50.1111 70.2819 50.8322 70.7736 51.9376 70.3693C52.7525 70.0661 53.5547 69.6955 54.3832 69.4334C54.7264 69.325 55.1507 69.325 55.5012 69.426C56.2087 69.6418 56.8825 69.9524 57.5762 70.2219C59.1533 70.8409 59.8271 70.3904 59.8334 68.7059V62.7357L57.3478 62.722Z" fill="#F27535"></path>
    </g>
    <defs>
      <clipPath id="clip0_110_81">
        <rect width="81.6213" height="80" fill="white"></rect>
      </clipPath>
    </defs>
  </symbol>
  <symbol fill="none" xmlns="http://www.w3.org/2000/svg" viewBox="0 0 73 80" id="fintech">
    <g clip-path="url(#clip0_110_55)">
      <path fill-rule="evenodd" clip-rule="evenodd" d="M33.2291 79.8333C31.3958 79.4375 29.5624 79.0625 27.7708 78.5833C26.5208 78.25 25.2916 77.8125 24.0833 77.3333C21.9791 76.5208 21.1249 74.4166 22.0416 72.3541C22.6666 70.9166 23.3541 69.4791 24.0208 68.0416C24.6249 66.7291 24.6249 66.7291 23.3958 65.9166C22.9166 65.6041 22.4166 65.2916 21.9583 64.9791C21.3124 64.5208 21.1458 63.8541 21.5208 63.2916C21.8749 62.7291 22.5624 62.6041 23.2291 63C23.9583 63.4583 24.6666 63.9375 25.3749 64.4166C26.7499 65.3541 27.1666 66.7916 26.4999 68.3125C25.7708 69.8958 25.0416 71.4583 24.3124 73.0416C23.7708 74.2291 24.0208 74.8125 25.2291 75.2708C27.8749 76.2916 30.6041 77 33.4166 77.4375C34.0208 77.5416 34.2083 77.3541 34.2083 76.7708C34.1874 72.0625 34.1874 67.3541 34.2083 62.6458C34.2291 61.9583 33.8541 61.875 33.3333 61.75C27.6249 60.3541 23.0416 57.2916 19.7083 52.4166C10.8124 39.4791 17.7708 21.3958 33.0416 17.75C34.2083 17.4583 34.2083 17.4583 34.2083 16.2916C34.2083 11.9444 34.2083 7.60413 34.2083 3.2708C34.2083 2.31246 34.1874 2.31246 33.2291 2.43746C30.3958 2.85413 27.6458 3.60413 24.9791 4.66663C23.8333 5.10413 23.5833 5.72913 24.1249 6.85413C24.7291 8.1458 25.3749 9.41663 25.9791 10.7083C26.9166 12.6666 26.3749 14.5625 24.5208 15.6875C22.2083 17.0833 20.1458 18.75 18.2708 20.6875C16.7916 22.2291 14.8541 22.3541 13.1666 21.0416C11.9791 20.125 10.8333 19.2083 9.6666 18.2916C8.81243 17.625 8.1041 17.75 7.49993 18.6458C5.33326 21.8333 3.70826 25.25 2.58326 28.9375C2.2916 29.8958 2.64576 30.5208 3.62493 30.75C5.1041 31.125 6.6041 31.4166 8.08326 31.7916C10.1666 32.2916 11.2291 33.8958 10.9583 36.0208C10.6249 38.6875 10.6249 41.3541 11.0208 44.0208C11.3124 46 10.1666 47.7083 8.2291 48.1875C6.7291 48.5625 5.24993 48.875 3.74993 49.25C2.70826 49.5 2.3541 50.125 2.6666 51.1666C3.81243 54.8333 5.4791 58.25 7.64576 61.4166C8.2291 62.25 8.9791 62.3541 9.7916 61.7083C10.9374 60.7916 12.0833 59.8541 13.2499 58.9375C14.9583 57.6041 16.8333 57.7083 18.3958 59.1875C18.8333 59.625 19.3124 60.0208 19.7708 60.4583C20.3333 61 20.3958 61.6458 19.9374 62.1666C19.4999 62.6458 18.8333 62.6875 18.2499 62.2291C17.8333 61.8958 17.4166 61.5208 17.0208 61.1458C15.9374 60.1041 15.5833 60.0833 14.3749 61.0416C13.3333 61.8958 12.2708 62.75 11.2083 63.5833C9.3541 65.0416 7.0416 64.6875 5.70826 62.75C3.38882 59.3611 1.62493 55.7083 0.416597 51.7916C-0.291737 49.5 0.895763 47.4791 3.2291 46.9375C4.61799 46.618 6.00687 46.2986 7.39576 45.9791C8.4791 45.7291 8.81243 45.2083 8.6666 44.125C8.27076 41.3541 8.2916 38.5833 8.62493 35.8125C8.74993 34.7291 8.43743 34.2708 7.37493 34.0208C5.95826 33.6875 4.5416 33.375 3.12493 33.0625C0.833263 32.5416 -0.354237 30.5208 0.333263 28.2708C1.5416 24.3125 3.2916 20.625 5.62493 17.2083C6.9166 15.3333 9.18743 14.9791 10.9999 16.3541C12.1874 17.25 13.3333 18.1875 14.4999 19.1041C15.3541 19.7708 15.9374 19.75 16.6666 18.9791C18.6249 16.9166 20.8124 15.1875 23.2291 13.7291C24.1458 13.1666 24.2916 12.625 23.8124 11.625C23.1874 10.3125 22.5416 9.0208 21.9166 7.7083C20.9166 5.56246 21.7499 3.3958 23.9374 2.5208C26.9999 1.31246 30.1458 0.479129 33.3958 0.0207958C35.0833 -0.208371 36.4374 0.916629 36.5416 2.60413C36.5833 3.2083 36.5416 3.8333 36.5416 4.5208C37.8124 4.5208 38.9791 4.5208 40.1458 4.5208C42.4583 4.5208 44.7708 4.49996 47.0833 4.5208C47.5624 4.54163 47.7916 4.43746 47.9791 3.93746C48.8541 1.47913 51.3124 0.0624625 53.7708 0.520796C56.2916 0.979129 58.1249 3.1458 58.1458 5.66663C58.1666 8.2083 56.2916 10.4166 53.7499 10.875C51.2916 11.3125 48.8958 9.87496 47.9374 7.43746C47.8541 7.2083 47.5624 6.8958 47.3749 6.8958C43.8124 6.85413 40.2499 6.85413 36.6249 6.85413C36.6249 8.99996 36.6249 11.0833 36.6249 13.2083C45.0416 13.2083 53.4166 13.2083 61.8124 13.2083C63.2916 9.99996 65.4374 8.66663 68.1041 9.29163C70.6458 9.87496 72.2916 12.0208 72.2291 14.625C72.1666 17.0833 70.3333 19.125 67.8541 19.5833C65.2499 20.0625 63.0208 18.6041 61.8333 15.6041C53.4583 15.6041 45.0624 15.6041 36.5624 15.6041C36.5624 15.9583 36.5624 16.2916 36.5624 16.6041C36.5416 18.6458 35.8749 19.5 33.9166 19.9375C29.5138 20.9514 25.8541 23.1805 22.9374 26.625C13.1666 38.1041 19.0833 56 33.7499 59.4166C35.9166 59.9375 36.5208 60.6666 36.5624 62.875C36.5624 63.0625 36.5833 63.2708 36.6041 63.5416C36.8958 63.5625 37.1458 63.5833 37.3958 63.5833C45.2916 63.5833 53.1874 63.5833 61.0833 63.5833C61.6249 63.6041 61.8958 63.5 62.1041 62.9375C62.9791 60.4791 65.4999 59.1041 68.0208 59.6041C70.4791 60.0833 72.2499 62.2708 72.2291 64.7916C72.2083 67.3541 70.4166 69.4375 67.8541 69.9166C65.4166 70.3541 62.9791 68.9583 62.0833 66.5625C61.9999 66.375 61.9374 66.1875 61.8541 65.9583C53.4583 65.9583 45.0833 65.9583 36.6249 65.9583C36.6249 68.0416 36.6249 70.1041 36.6249 72.25C36.8749 72.2708 37.1249 72.2916 37.3749 72.2916C40.5833 72.3125 43.8124 72.2916 47.0416 72.3125C47.5416 72.3125 47.7916 72.1875 47.9999 71.6666C48.9166 69.1458 51.4999 67.7708 54.0416 68.3541C56.5208 68.9166 58.2916 71.2291 58.1458 73.7291C57.9791 76.3958 55.9374 78.4791 53.2499 78.7083C51.0416 78.8958 48.8333 77.5416 48.0416 75.375C47.8124 74.7708 47.5208 74.6458 46.9166 74.6458C43.7708 74.6666 40.6249 74.6458 37.4791 74.6458C37.2083 74.6458 36.9374 74.6458 36.5624 74.6458C36.4999 76.6875 37.0624 78.9375 34.4791 79.8333C34.0624 79.8333 33.6458 79.8333 33.2291 79.8333ZM67.0624 11.5208C65.4166 11.5 64.1041 12.7708 64.1041 14.375C64.0833 15.9583 65.3541 17.2708 66.9374 17.3125C68.5416 17.3333 69.8749 16.0416 69.8749 14.4375C69.8958 12.8333 68.6458 11.5416 67.0624 11.5208ZM50.0208 73.4583C50.0208 75.0833 51.3333 76.3958 52.9374 76.375C54.4999 76.3541 55.7916 75.0208 55.7916 73.4791C55.8124 71.875 54.4791 70.5833 52.8541 70.5833C51.2708 70.6041 50.0208 71.875 50.0208 73.4583ZM67.0208 61.875C65.3958 61.8541 64.1041 63.1458 64.1041 64.75C64.1041 66.3333 65.3958 67.625 66.9583 67.6458C68.5624 67.6666 69.8749 66.3541 69.8749 64.75C69.8749 63.1458 68.6249 61.875 67.0208 61.875ZM52.8958 8.5833C54.4999 8.5833 55.8333 7.22913 55.7916 5.6458C55.7708 4.0833 54.4791 2.81246 52.8958 2.79163C51.2708 2.79163 49.9999 4.10413 50.0208 5.72913C50.0416 7.31246 51.3124 8.5833 52.8958 8.5833Z" fill="#184367"></path>
      <path d="M47.1042 52.6877C43.625 52.6877 40.1458 52.6877 36.6458 52.6668C30.2917 52.646 25.1875 48.396 23.9583 42.1668C22.5625 35.1043 27.8125 27.896 35 27.3127C38.3542 27.0418 41.75 27.1877 45.125 27.1668C45.875 27.1668 46.3333 27.6877 46.3333 28.3335C46.3333 29.0418 45.8542 29.5002 45.0417 29.5002C42.1875 29.521 39.3333 29.5002 36.4792 29.521C31.8542 29.5418 27.8125 32.5835 26.5208 36.9585C24.5625 43.6043 29.4167 50.2085 36.4167 50.3127C43.5625 50.396 50.7083 50.3752 57.8542 50.3127C63.2083 50.271 67.6875 46.146 68.1458 41.0002C68.625 35.5418 65.125 30.8127 59.7708 29.7293C59.0625 29.5835 58.3333 29.521 57.6042 29.521C55.1667 29.5002 52.7083 29.521 50.2708 29.5002C49.25 29.5002 48.6667 29.0627 48.6875 28.3127C48.7083 27.5835 49.2708 27.146 50.25 27.1668C53.2917 27.1877 56.3333 27.0627 59.3542 27.3127C65.2708 27.771 70.25 33.146 70.5 39.0627C70.7917 45.771 66.5208 51.2293 59.9583 52.4585C59.1458 52.6252 58.2917 52.6668 57.4792 52.6668C54.0208 52.6877 50.5625 52.6877 47.1042 52.6877Z" fill="#F26925"></path>
    </g>
    <defs>
      <clipPath id="clip0_110_55">
        <rect width="72.2917" height="80" fill="white"></rect>
      </clipPath>
    </defs>
  </symbol>
  <symbol fill="none" xmlns="http://www.w3.org/2000/svg" viewBox="0 0 80 80" id="healthcare">
    <g clip-path="url(#clip0_110_76)">
      <path fill-rule="evenodd" clip-rule="evenodd" d="M61.1579 66.5302C62.3086 66.9597 62.4946 67.2179 62.4946 68.3726C62.4964 71.6597 62.4964 74.9463 62.4946 78.2325C62.4946 79.5732 62.0838 79.9946 60.7739 79.9946C54.7859 79.9964 48.7978 79.9964 42.8097 79.9946C41.5346 79.9946 41.1104 79.5705 41.1091 78.298C41.1064 75.0119 41.1078 71.7257 41.1078 68.4395C41.1091 67.2112 41.2683 66.9784 42.4458 66.5168C42.4458 62.4961 42.4538 58.4593 42.4431 54.4225C42.4284 49.5708 44.5358 45.9301 48.689 43.4695C52.3966 41.2724 56.1323 39.1196 59.8346 36.9132C60.1959 36.6978 60.5344 36.2803 60.6749 35.8829C62.615 30.385 64.519 24.8737 66.4324 19.3664C67.2874 16.9058 69.4055 15.4956 72.0293 15.6387C74.2919 15.7618 76.2561 17.512 76.7886 19.8789C76.9278 20.4984 77.8751 22.3422 78.2805 22.8346C79.3924 24.1833 79.8607 25.7367 79.4152 27.432C77.4777 34.8179 75.4975 42.1917 73.5199 49.5682C73.1706 50.87 72.3986 51.911 71.3978 52.7995C68.6053 55.2748 65.8477 57.7903 63.0218 60.2255C61.7426 61.3266 61.0776 62.6125 61.1526 64.297C61.186 65.0463 61.1579 65.7983 61.1579 66.5302ZM58.4899 66.5891C58.4899 65.7488 58.5167 64.9473 58.4859 64.1472C58.3923 61.7495 59.3356 59.8521 61.1298 58.2907C63.925 55.8608 66.7067 53.4136 69.4242 50.8968C70.0879 50.2827 70.7221 49.4397 70.9589 48.5874C72.9325 41.4718 74.8177 34.3295 76.7137 27.1925C77.1472 25.5588 76.4207 24.1967 74.9408 23.7538C73.5948 23.3524 72.1323 24.198 71.64 25.7073C70.3019 29.7976 68.9733 33.8919 67.6687 37.993C67.571 38.2967 67.5911 38.7088 67.7182 39.0018C68.9131 41.7528 68.042 44.5359 65.4476 46.0572C63.074 47.4501 60.6843 48.8175 58.2999 50.1943C58.1313 50.292 57.9601 50.3897 57.7808 50.4606C57.1158 50.7215 56.5498 50.5369 56.1765 49.9615C55.7831 49.3554 55.854 48.7346 56.3986 48.2288C56.5993 48.0428 56.8535 47.9103 57.093 47.7712C59.3797 46.4492 61.6664 45.1246 63.9597 43.8133C64.8014 43.3317 65.4168 42.6934 65.5159 41.6859C65.6242 40.5954 65.2402 39.7003 64.3076 39.1116C63.379 38.5268 62.4117 38.5563 61.4643 39.1102C57.6711 41.33 53.8831 43.5538 50.0872 45.7682C46.7649 47.7056 45.1312 50.6118 45.1165 54.4359C45.1017 58.1957 45.1138 61.9555 45.1138 65.7153C45.1138 66.0084 45.1138 66.3014 45.1138 66.5891C49.6296 66.5891 54.0196 66.5891 58.4899 66.5891ZM59.7825 77.2905C59.7825 74.5877 59.7825 71.9813 59.7825 69.3494C54.4384 69.3494 49.1385 69.3494 43.8346 69.3494C43.8346 72.0281 43.8346 74.6546 43.8346 77.2905C49.1747 77.2905 54.4558 77.2905 59.7825 77.2905ZM65.2589 36.4971C65.3406 36.2803 65.4275 36.0783 65.4958 35.8695C66.6746 32.2248 67.8547 28.58 69.0281 24.9339C69.6891 22.8841 71.0633 21.5996 73.1466 21.0764C73.4824 20.9921 73.8316 20.9654 74.1701 20.9119C74.0069 19.4507 73.1292 18.466 71.9209 18.3241C70.6793 18.1783 69.459 18.9677 69.0027 20.2188C68.8609 20.6095 68.7338 21.0069 68.5973 21.4002C66.9127 26.2505 65.2268 31.1008 63.5316 35.9819C64.1203 36.1572 64.6756 36.3231 65.2589 36.4971Z" fill="#144367"></path>
      <path fill-rule="evenodd" clip-rule="evenodd" d="M37.0903 66.5008C38.2824 66.9998 38.427 67.2193 38.427 68.5064C38.427 71.7659 38.4283 75.0239 38.4256 78.282C38.4256 79.5611 38.0001 79.9947 36.7397 79.9947C30.724 79.996 24.7083 79.9973 18.6925 79.9947C17.4803 79.9933 17.0414 79.5518 17.0401 78.3328C17.0374 74.9918 17.0374 71.6495 17.0401 68.3071C17.0414 67.2206 17.2569 66.9343 18.3687 66.5503C18.3687 65.5655 18.4062 64.5633 18.3594 63.5652C18.3018 62.3047 17.7158 61.2999 16.7685 60.4663C13.9694 58.0003 11.2037 55.4929 8.3925 53.0403C7.06653 51.8829 6.23428 50.4941 5.78604 48.7841C3.9931 41.9361 2.15467 35.0989 0.293487 28.2683C-0.421014 25.6471 0.134263 23.5036 2.34333 21.8338C2.53333 21.6893 2.64304 21.328 2.6484 21.0644C2.70593 18.3482 4.5176 16.0789 6.98089 15.6775C9.7158 15.2306 12.2634 16.8363 13.1719 19.4976C15.0545 25.0169 16.9692 30.5242 18.8946 36.0288C19.0016 36.3325 19.2666 36.6496 19.5449 36.8155C23.2753 39.0299 27.023 41.2149 30.7628 43.4146C34.9829 45.8966 37.1144 49.5722 37.093 54.4894C37.0769 58.4981 37.0903 62.5068 37.0903 66.5008ZM34.3487 66.5904C34.3781 66.478 34.4156 66.4004 34.4156 66.3241C34.4156 62.1188 34.5039 57.9107 34.3808 53.708C34.2871 50.4753 32.81 47.8461 30.0269 46.1442C26.065 43.7224 22.0416 41.3969 18.0021 39.1049C17.4348 38.7838 16.5972 38.7168 15.9362 38.8319C14.8591 39.0179 14.2115 39.8274 14.0376 40.9112C13.8476 42.1007 14.2905 43.052 15.3408 43.6648C17.8148 45.1072 20.3062 46.5228 22.7789 47.9692C23.575 48.4349 23.8024 49.1882 23.4251 49.8759C23.0572 50.5436 22.2784 50.7844 21.5506 50.367C18.8959 48.847 16.2226 47.3551 13.6241 45.7428C11.589 44.481 10.7153 41.8853 11.597 39.6602C11.9704 38.7142 11.9637 37.9301 11.5837 37.0631C11.4833 36.8356 11.4351 36.5854 11.3575 36.3472C10.2028 32.7827 9.05482 29.2143 7.88539 25.6525C7.47328 24.3974 6.344 23.6187 5.10767 23.6655C3.98374 23.7083 2.95213 24.566 2.74206 25.7729C2.65107 26.2974 2.72332 26.8874 2.86248 27.4093C4.7076 34.3322 6.59019 41.2444 8.42863 48.1686C8.73503 49.3206 9.29834 50.2398 10.1881 51.0212C12.8896 53.3895 15.5335 55.8234 18.259 58.1622C20.1885 59.8174 21.192 61.8164 21.0515 64.3747C21.01 65.1119 21.0448 65.8532 21.0448 66.5904C25.5579 66.5904 29.9479 66.5904 34.3487 66.5904ZM19.7456 77.2691C25.1124 77.2691 30.4122 77.2691 35.692 77.2691C35.692 74.5824 35.692 71.9559 35.692 69.3427C30.3453 69.3427 25.0642 69.3427 19.7456 69.3427C19.7456 71.9933 19.7456 74.5998 19.7456 77.2691ZM5.36457 20.9252C8.30954 21.233 10.0235 22.8761 10.738 25.6565C10.904 26.3001 11.1448 26.9236 11.3509 27.5565C12.3182 30.5362 13.2843 33.5146 14.2543 36.5051C14.8658 36.3218 15.4211 36.1545 16.0005 35.9806C15.5629 34.7189 15.1348 33.4865 14.7079 32.2542C13.3284 28.2683 11.953 24.2797 10.5641 20.295C10.1119 18.9972 8.86214 18.181 7.60575 18.3241C6.40287 18.4606 5.51577 19.4588 5.36457 20.9252Z" fill="#144367"></path>
      <path fill-rule="evenodd" clip-rule="evenodd" d="M39.7797 3.90031C41.2863 2.49406 42.9495 1.41695 44.8735 0.759986C53.0649 -2.03513 61.6456 3.45341 62.5166 12.0622C62.9301 16.1539 61.7232 19.7531 58.8625 22.6673C52.9311 28.7085 46.91 34.66 40.921 40.6436C40.1022 41.4611 39.4358 41.4584 38.6156 40.6396C32.6467 34.6747 26.6243 28.7633 20.7411 22.7168C17.0107 18.8807 15.959 14.2111 17.665 9.14266C19.3843 4.03277 23.1147 1.01555 28.4186 0.176611C32.3484 -0.445567 35.9128 0.647593 38.9836 3.22729C39.2351 3.4387 39.4853 3.65144 39.7797 3.90031ZM39.6593 37.9488C39.8533 37.8418 39.9095 37.8257 39.947 37.7883C45.6777 32.0562 51.474 26.387 57.1124 20.5653C60.8735 16.681 60.8133 10.4392 57.2274 6.32881C53.7312 2.32279 47.6272 1.54942 43.2197 4.60678C42.3353 5.21959 41.5887 6.03177 40.7765 6.75029C40.1115 7.34035 39.4225 7.34838 38.7695 6.7543C38.3587 6.37832 37.9827 5.96487 37.5747 5.58621C34.065 2.34018 28.8615 1.80096 24.8207 4.25756C18.8371 7.89697 17.8416 15.9799 22.8043 20.9961C27.7402 25.9869 32.727 30.9269 37.6857 35.8936C38.3534 36.5626 38.9956 37.2571 39.6593 37.9488Z" fill="#144367"></path>
      <path fill-rule="evenodd" clip-rule="evenodd" d="M35.7608 14.484C35.7608 13.1206 35.7541 11.8963 35.7635 10.672C35.7702 9.61231 36.2345 9.144 37.2875 9.13731C38.9587 9.12929 40.6298 9.12661 42.2997 9.13865C43.2925 9.14668 43.7648 9.63104 43.7742 10.6386C43.7849 11.8869 43.7769 13.1353 43.7769 14.484C45.0533 14.484 46.2682 14.48 47.4832 14.4854C48.6887 14.4894 49.1222 14.9309 49.1249 16.1565C49.1289 17.7715 49.1329 19.3865 49.1222 21.0028C49.1155 22.0037 48.6352 22.4867 47.641 22.4974C46.3913 22.5094 45.1416 22.5001 43.7769 22.5001C43.7769 23.7592 43.7809 24.9741 43.7755 26.1877C43.7715 27.4026 43.3326 27.8441 42.1217 27.8468C40.5348 27.8521 38.948 27.8535 37.3597 27.8468C36.2117 27.8428 35.7661 27.3852 35.7621 26.2158C35.7568 25.0209 35.7608 23.8247 35.7608 22.5001C35.1293 22.5001 34.5298 22.4934 33.9304 22.5014C30.2308 22.5469 30.3713 22.6513 30.4101 18.945C30.4208 17.9696 30.4061 16.9955 30.4141 16.0201C30.4235 14.9617 30.8851 14.4947 31.9381 14.4867C33.1838 14.476 34.4308 14.484 35.7608 14.484ZM33.1196 19.8321C34.3746 19.8321 35.5668 19.8294 36.759 19.8334C37.9819 19.8361 38.4234 20.2696 38.4275 21.4752C38.4328 22.6901 38.4288 23.905 38.4288 25.1213C39.3761 25.1213 40.2191 25.1213 41.1088 25.1213C41.1088 23.8689 41.1062 22.6754 41.1102 21.4819C41.1142 20.2696 41.5517 19.8374 42.772 19.8334C43.9856 19.8294 45.1978 19.8321 46.3913 19.8321C46.3913 18.8714 46.3913 18.0258 46.3913 17.152C45.1858 17.152 44.0458 17.1534 42.9058 17.152C41.5089 17.1494 41.1115 16.7587 41.1088 15.3845C41.1075 14.2004 41.1088 13.0176 41.1088 11.8468C40.1535 11.8468 39.3293 11.8468 38.4288 11.8468C38.4288 13.1072 38.4328 14.3248 38.4275 15.5424C38.4221 16.6971 37.9699 17.1453 36.8058 17.1507C35.5895 17.156 34.3733 17.152 33.1196 17.152C33.1196 18.0619 33.1196 18.8874 33.1196 19.8321Z" fill="#F27535"></path>
    </g>
    <defs>
      <clipPath id="clip0_110_76">
        <rect width="79.5852" height="80" fill="white"></rect>
      </clipPath>
    </defs>
  </symbol>
</svg>